<?xml version="1.0" encoding="UTF-8"?>
<svg id="_レイヤー_2" data-name="レイヤー 2" xmlns="http://www.w3.org/2000/svg" xmlns:xlink="http://www.w3.org/1999/xlink" viewBox="0 0 350.05 333.95">
  <defs>
    <style>
      .cls-1 {
        fill: #9d9d9d;
      }

      .cls-2, .cls-3 {
        fill: #fff;
      }

      .cls-4 {
        stroke-width: 1.57px;
      }

      .cls-4, .cls-3, .cls-5 {
        stroke: #000;
      }

      .cls-4, .cls-6, .cls-5 {
        stroke-miterlimit: 10;
      }

      .cls-4, .cls-7 {
        fill: #0071bc;
      }

      .cls-3 {
        stroke-linecap: round;
        stroke-linejoin: round;
        stroke-width: 1.5px;
      }

      .cls-6 {
        stroke: #fff;
        stroke-width: 1.17px;
      }

      .cls-6, .cls-5, .cls-8 {
        fill: none;
      }

      .cls-5 {
        stroke-width: 1.5px;
      }

      .cls-9 {
        clip-path: url(#clippath);
      }

      .cls-10 {
        fill: #adadad;
      }

      .cls-11 {
        fill: #eb6d51;
      }

      .cls-12 {
        fill: #f4c544;
      }

      .cls-13 {
        fill: #e74268;
      }
    </style>
    <clipPath id="clippath">
      <path class="cls-8" d="m276.67,92.6l-36.84-22.57c-1.06-.8-1.19-2.35-.27-3.31l30.24-33.49c.41-.43,1.08-.46,1.53-.08l27.78,15.4c.4.34.51.91.27,1.38l-22.71,42.67Z"/>
    </clipPath>
  </defs>
  <g id="_レイヤー_34" data-name="レイヤー 34">
    <g>
      <path class="cls-1" d="m133.11,311.62c-1.88.03-3.49-1.37-3.71-3.24l-11.92-98.56c-2.66-23.44,1.26-47.05,13.03-68.31,16.3-29.43,44.17-44.66,70.53-49.22,38.49-6.66,89.48,11.18,98.61,78.54,0,0,21.65,87.53,22.8,134.04.05,2.04-1.58,3.72-3.62,3.75l-185.7,2.99Z"/>
      <g>
        <g>
          <path class="cls-2" d="m265.9,236.07c1.07,1.47,2.14,2.94,3.21,4.41.23.32.66.5,1.03.27.31-.2.52-.69.27-1.03-1.07-1.47-2.14-2.94-3.21-4.41-.23-.32-.66-.5-1.03-.27-.31.2-.52.69-.27,1.03h0Z"/>
          <path class="cls-2" d="m275.46,234.87c-1.15,3.36-2.31,6.71-3.46,10.07-.31.91,1.13,1.31,1.45.4,1.15-3.36,2.31-6.71,3.46-10.07.31-.91-1.13-1.31-1.45-.4h0Z"/>
          <path class="cls-2" d="m267.26,248.32c1.07,1.47,2.14,2.94,3.21,4.41.23.32.66.5,1.03.27.31-.2.52-.69.27-1.03-1.07-1.47-2.14-2.94-3.21-4.41-.23-.32-.66-.5-1.03-.27-.31.2-.52.69-.27,1.03h0Z"/>
          <path class="cls-2" d="m276.81,247.12c-1.15,3.36-2.31,6.71-3.46,10.07-.31.91,1.13,1.31,1.45.4,1.15-3.36,2.31-6.71,3.46-10.07.31-.91-1.13-1.31-1.45-.4h0Z"/>
          <path class="cls-2" d="m267.8,260.57c1.07,1.47,2.14,2.94,3.21,4.41.23.32.66.5,1.03.27.31-.2.52-.69.27-1.03-1.07-1.47-2.14-2.94-3.21-4.41-.23-.32-.66-.5-1.03-.27-.31.2-.52.69-.27,1.03h0Z"/>
          <path class="cls-2" d="m277.36,259.37c-1.15,3.36-2.31,6.71-3.46,10.07-.31.91,1.13,1.31,1.45.4,1.15-3.36,2.31-6.71,3.46-10.07.31-.91-1.13-1.31-1.45-.4h0Z"/>
          <path class="cls-2" d="m268.99,272.82c1.07,1.47,2.14,2.94,3.21,4.41.23.32.66.5,1.03.27.31-.2.52-.69.27-1.03-1.07-1.47-2.14-2.94-3.21-4.41-.23-.32-.66-.5-1.03-.27-.31.2-.52.69-.27,1.03h0Z"/>
          <path class="cls-2" d="m278.55,271.62c-1.15,3.36-2.31,6.71-3.46,10.07-.31.91,1.13,1.31,1.45.4,1.15-3.36,2.31-6.71,3.46-10.07.31-.91-1.13-1.31-1.45-.4h0Z"/>
        </g>
        <g>
          <path class="cls-2" d="m281.46,242.43c1.07,1.47,2.14,2.94,3.21,4.41.23.32.66.5,1.03.27.31-.2.52-.69.27-1.03-1.07-1.47-2.14-2.94-3.21-4.41-.23-.32-.66-.5-1.03-.27-.31.2-.52.69-.27,1.03h0Z"/>
          <path class="cls-2" d="m291.01,241.23c-1.15,3.36-2.31,6.71-3.46,10.07-.31.91,1.13,1.31,1.45.4,1.15-3.36,2.31-6.71,3.46-10.07.31-.91-1.13-1.31-1.45-.4h0Z"/>
          <path class="cls-2" d="m282.81,254.68c1.07,1.47,2.14,2.94,3.21,4.41.23.32.66.5,1.03.27.31-.2.52-.69.27-1.03-1.07-1.47-2.14-2.94-3.21-4.41-.23-.32-.66-.5-1.03-.27-.31.2-.52.69-.27,1.03h0Z"/>
          <path class="cls-2" d="m292.37,253.48c-1.15,3.36-2.31,6.71-3.46,10.07-.31.91,1.13,1.31,1.45.4,1.15-3.36,2.31-6.71,3.46-10.07.31-.91-1.13-1.31-1.45-.4h0Z"/>
          <path class="cls-2" d="m283.35,266.93c1.07,1.47,2.14,2.94,3.21,4.41.23.32.66.5,1.03.27.31-.2.52-.69.27-1.03-1.07-1.47-2.14-2.94-3.21-4.41-.23-.32-.66-.5-1.03-.27-.31.2-.52.69-.27,1.03h0Z"/>
          <path class="cls-2" d="m292.91,265.73c-1.15,3.36-2.31,6.71-3.46,10.07-.31.91,1.13,1.31,1.45.4,1.15-3.36,2.31-6.71,3.46-10.07.31-.91-1.13-1.31-1.45-.4h0Z"/>
          <path class="cls-2" d="m284.54,279.18c1.07,1.47,2.14,2.94,3.21,4.41.23.32.66.5,1.03.27.31-.2.52-.69.27-1.03-1.07-1.47-2.14-2.94-3.21-4.41-.23-.32-.66-.5-1.03-.27-.31.2-.52.69-.27,1.03h0Z"/>
          <path class="cls-2" d="m294.1,277.98c-1.15,3.36-2.31,6.71-3.46,10.07-.31.91,1.13,1.31,1.45.4,1.15-3.36,2.31-6.71,3.46-10.07.31-.91-1.13-1.31-1.45-.4h0Z"/>
        </g>
        <g>
          <path class="cls-2" d="m294.26,221.43c1.07,1.47,2.14,2.94,3.21,4.41.23.32.66.5,1.03.27.31-.2.52-.69.27-1.03-1.07-1.47-2.14-2.94-3.21-4.41-.23-.32-.66-.5-1.03-.27-.31.2-.52.69-.27,1.03h0Z"/>
          <path class="cls-2" d="m303.82,220.23c-1.15,3.36-2.31,6.71-3.46,10.07-.31.91,1.13,1.31,1.45.4,1.15-3.36,2.31-6.71,3.46-10.07.31-.91-1.13-1.31-1.45-.4h0Z"/>
          <path class="cls-2" d="m295.62,233.68c1.07,1.47,2.14,2.94,3.21,4.41.23.32.66.5,1.03.27.31-.2.52-.69.27-1.03-1.07-1.47-2.14-2.94-3.21-4.41-.23-.32-.66-.5-1.03-.27-.31.2-.52.69-.27,1.03h0Z"/>
          <path class="cls-2" d="m305.17,232.48c-1.15,3.36-2.31,6.71-3.46,10.07-.31.91,1.13,1.31,1.45.4,1.15-3.36,2.31-6.71,3.46-10.07.31-.91-1.13-1.31-1.45-.4h0Z"/>
          <path class="cls-2" d="m296.16,245.93c1.07,1.47,2.14,2.94,3.21,4.41.23.32.66.5,1.03.27.31-.2.52-.69.27-1.03-1.07-1.47-2.14-2.94-3.21-4.41-.23-.32-.66-.5-1.03-.27-.31.2-.52.69-.27,1.03h0Z"/>
          <path class="cls-2" d="m305.72,244.73c-1.15,3.36-2.31,6.71-3.46,10.07-.31.91,1.13,1.31,1.45.4,1.15-3.36,2.31-6.71,3.46-10.07.31-.91-1.13-1.31-1.45-.4h0Z"/>
          <path class="cls-2" d="m297.35,258.18c1.07,1.47,2.14,2.94,3.21,4.41.23.32.66.5,1.03.27.31-.2.52-.69.27-1.03-1.07-1.47-2.14-2.94-3.21-4.41-.23-.32-.66-.5-1.03-.27-.31.2-.52.69-.27,1.03h0Z"/>
          <path class="cls-2" d="m306.91,256.98c-1.15,3.36-2.31,6.71-3.46,10.07-.31.91,1.13,1.31,1.45.4,1.15-3.36,2.31-6.71,3.46-10.07.31-.91-1.13-1.31-1.45-.4h0Z"/>
        </g>
      </g>
      <path d="m151.54,114.25c-4.24,3-7.93,6.72-11.2,10.75-3.83,4.71-7.12,9.84-9.99,15.18-3.15,5.88-5.79,12.04-7.94,18.35s-3.96,13.38-5.06,20.26-1.62,13.9-1.35,20.88c.03.88.08,1.76.14,2.64.06.96,1.56.97,1.5,0-.45-6.86-.16-13.76.78-20.57s2.49-13.55,4.56-20.12,4.49-12.5,7.49-18.42c2.74-5.41,5.91-10.63,9.6-15.46,3.15-4.12,6.73-8.01,10.85-11.19.45-.35.92-.69,1.38-1.02.78-.55.03-1.85-.76-1.29h0Z"/>
      <path class="cls-7" d="m183.38,141.9c-10.49.99-18.03-2.14-25.5-7.15-7.48-5.01-10.6-8.51-12.99-16.95-3.76-13.3.29-26.86,8.85-27.99-1.01-3.58,2.63-9.95,2.85-11.43.81-5.46,10.95-5.92,18.12-7.55,18.77-4.28,45.38-2.92,59.58,2.22,14.2,5.14,10.01,15.96,9.44,27.64-.59,12.08-11.44,23.19-24.35,31.45-10.56,6.76-24.17,12.42-37.68,11"/>
      <path d="m167.73,71c-7.76-1.4-12.69,6.8-14.21,13.27-.43,1.81-.67,3.69-.53,5.55l.55-.72c-2.66.71-4.72,2.87-6.24,5.07-2.01,2.92-3.28,6.36-3.94,9.83-.78,4.15-.71,8.44.28,12.55,1.13,4.69,3.47,9.02,6.65,12.64,4.06,4.62,9.39,8.01,15.01,10.41.84.36,1.69.7,2.55,1.03.9.34,1.29-1.11.4-1.45-5.72-2.17-11.21-5.23-15.54-9.6-3.31-3.33-5.85-7.39-7.2-11.89-1.16-3.84-1.47-7.93-.93-11.9.47-3.44,1.54-6.8,3.31-9.76.76-1.27,1.52-2.3,2.57-3.33.48-.47.89-.81,1.34-1.12.25-.17.5-.33.76-.47.11-.06.23-.12.35-.18.06-.03.12-.06.19-.09.17-.08-.01,0,.09-.04.25-.1.49-.18.75-.25.3-.08.58-.4.55-.72-.24-3.09.56-6.29,1.79-9.11s3.22-5.88,6.09-7.44c1.52-.83,3.26-1.13,4.97-.82.94.17,1.35-1.27.4-1.45h0Z"/>
      <path d="m157.71,63.37c-9.7-19.3-5.22-43.64,20.27-53.19,16.93-23.89,52.83-1.03,55.51,20.4,2.82,22.52-1.15,39.04-21.45,49.25-20.3,10.21-44.62,2.84-54.33-16.46Z"/>
      <path class="cls-3" d="m248.31,33.82c-2.31-4.89-8.99-6.63-15.27-4.14-9.77-19.45-33.31-27.67-53.11-18.34s-28.44,32.73-19.65,52.64c-5.92,3.26-8.83,9.52-6.53,14.41,2.42,5.14,9.7,6.81,16.24,3.73,1.18-.55,2.24-1.23,3.2-1.98,5.25,3.87,11.38,6.41,17.8,7.4l-1.86,11.55c-.77,4.75,2.46,9.22,7.21,9.98l5.16.83c4.75.77,9.22-2.46,9.98-7.21l3.01-18.65c13.71-6.57,22.02-19.91,22.8-34.11,1.19-.25,2.39-.65,3.57-1.2,6.55-3.09,9.89-9.76,7.46-14.9Z"/>
      <g>
        <path d="m184.17,54.95c-.37-1.37.47-3.44,2.72-3.4,1.42.03,1.88.68,2.25,2.06s-.44,2.79-1.81,3.16-2.79-.44-3.16-1.81Z"/>
        <path d="m210.23,47.89c-.37-1.37-.07-2.55,1.27-3.01,1.8-.62,3.33.29,3.7,1.66s-.44,2.79-1.81,3.16-2.79-.44-3.16-1.81Z"/>
        <path d="m199.22,48.89c.95,2.04,1.9,4.09,2.86,6.13.17.37.7.46,1.03.27.38-.22.44-.66.27-1.03-.95-2.04-1.9-4.09-2.86-6.13-.17-.37-.7-.46-1.03-.27-.38.22-.44.66-.27,1.03h0Z"/>
        <path d="m210.9,58.75c-.39,2.48-2,4.69-4.33,5.69s-5.35.57-7.36-1.06c-.74-.6-1.81.45-1.06,1.06,2.44,1.98,5.88,2.64,8.83,1.44,2.8-1.14,4.9-3.75,5.37-6.74.15-.94-1.3-1.35-1.45-.4h0Z"/>
      </g>
      <path class="cls-1" d="m186.68,20.28c9.87-3.81,18.64-3.54,26.59,2.17-2-4.14-2.85-6.25-6.22-9.36s-7.93-5.2-12.5-4.75c-1.76.17-3.56.76-4.79,2.03-1.21,1.24-1.74,2.99-2,4.71"/>
      <g>
        <path d="m233.26,29.58c-4.25-9.14-10.49-11.94-15.24-16.21-5.95-5.35-32.91-11.05-36.51-2.73-3.82,6.25,2.21,5.71,4.71,9.09,3.09-12.24,16.93-8.03,23.99-.85,7.4,15.92,12.13,28.6,23.05,10.7Z"/>
        <path d="m175.14,11.5c-.32.19-6.42,4.26-6.67,4.52-11.32,11.55-12.28,17.11-13.05,25.25-.64,6.74,0,24.96,7.22,22.33,5.66-2.06,8.95-6.07,8.8-13.91-.11-5.98-4.08-13.68,3.94-25.07,1.99-2.83,4.65-4.47,10.84-4.9,1.92-8.44,8.66-14.16,3.31-13.34,0,0-9.82,2.37-14.39,5.11Z"/>
      </g>
      <path d="m186.56,19.07c-8.48-.2-14.71,7.74-16.51,15.36-.35,1.5-.58,3.1-.4,4.64.24,2.07.68,4.11.88,6.19.26,2.66.33,5.39-.06,8.05-.32,2.14-.88,4.44-2.23,6.19s-3.16,2.9-5.21,3.43c-3.05.79-6.18-.09-8.88-1.56-.8-.44-1.52.79-.72,1.22,2.53,1.38,5.4,2.31,8.31,2,2.14-.23,4.14-1.05,5.82-2.4,3.67-2.94,4.51-7.89,4.58-12.35.04-2.6-.22-5.19-.6-7.76-.24-1.65-.63-3.2-.52-4.86.24-3.65,1.87-7.29,3.98-10.23,2.7-3.78,6.77-6.6,11.55-6.49.91.02.91-1.4,0-1.42h0Z"/>
      <path d="m187.24,19.96c.55-2.4,1.48-4.96,3.47-6.54,1.45-1.16,3.29-1.48,5.1-1.31,2.04.2,4.02,1.02,5.81,1.99,1.94,1.05,3.76,2.34,5.43,3.79,1.36,1.18,2.72,2.51,3.76,3.93,1.92,2.63,3.15,5.72,4.43,8.69.6,1.4,1.2,2.81,1.91,4.16.54,1.03,1.15,2.09,1.99,2.91,1.16,1.15,2.83,1.54,4.43,1.4,5.13-.47,8.72-5.02,10.55-9.45.34-.83.64-1.68.89-2.54s-1.11-1.25-1.37-.38c-1.38,4.63-4.54,10.2-9.85,10.92-1.46.2-2.82-.05-3.81-1.11-.82-.88-1.39-2.01-1.93-3.09-.69-1.4-1.3-2.85-1.92-4.29-1.22-2.84-2.44-5.77-4.33-8.25-1.16-1.52-2.53-2.87-3.98-4.11-3.28-2.79-7.29-5.4-11.65-5.96-1.92-.25-3.93.01-5.6,1.04-2.04,1.26-3.3,3.39-4.09,5.6-.25.72-.46,1.45-.63,2.2-.21.89,1.16,1.27,1.37.38h0Z"/>
      <path d="m191.49,19.45c.64-2.2,1.72-4.5,3.79-5.69,1.57-.9,3.43-.92,5.14-.44,3.47.98,6.78,3.89,8,7.23,1.65,4.5,2.37,9.29,4,13.8.69,1.92,1.56,3.61,3.16,4.94s3.56,2.1,5.63,1.98c5.08-.29,8.56-4.89,10.33-9.22.31-.75.57-1.52.8-2.3.26-.88-1.11-1.25-1.37-.38-1.31,4.38-4.35,9.95-9.48,10.46-1.95.2-3.83-.52-5.26-1.84s-2.16-3.1-2.78-4.99c-.81-2.45-1.44-4.95-2.1-7.44-.54-2.03-1.01-4.13-1.83-6.06-1.5-3.54-5-6.48-8.67-7.54-1.85-.53-3.85-.54-5.63.24-2.06.91-3.48,2.78-4.35,4.8-.29.67-.53,1.36-.74,2.07-.25.88,1.11,1.25,1.37.38h0Z"/>
      <path d="m196.58,19c1.55-2.51,3.84-5.09,6.98-5.32,2.48-.18,4.82,1,6.74,2.47s3.58,3.32,4.93,5.32,1.97,4.07,2.65,6.31c.5,1.66,1.01,3.32,1.7,4.92.59,1.37,1.33,2.8,2.52,3.76.7.57,1.71-.43,1-1-1.07-.87-1.73-2.15-2.26-3.4-.64-1.51-1.11-3.08-1.59-4.65-.71-2.37-1.42-4.63-2.82-6.69s-3.23-4.11-5.3-5.69-4.59-2.84-7.25-2.76c-3.83.12-6.63,2.97-8.53,6.04-.48.78.74,1.49,1.22.72h0Z"/>
      <path class="cls-7" d="m201.03,90.73c-9.75-4.33-14.77-5.69-23.79-7.61-1.91-.41-3.83.41-5.23,1.76-1.04,1-1.25,2.56-1.38,4-.51,5.81-.53,11.66-.08,17.47.35,4.53,1.11,9.3,3.99,12.82,3.24,3.95,8.5,5.55,13.5,6.6,4.44.94,8.98,1.61,13.5,1.24s9.05-1.87,12.46-4.86,5.55-7.6,4.94-12.09c-.47-3.49-2.51-6.63-5.06-9.06s-1.58-3.56-4.61-5.36"/>
      <path class="cls-7" d="m238.07,139.88c27.03,37.89,36.46,63.01,27.18,84.73,2.8,7.4,7.99,14.57,11.32,23.36.76,2,2.23,4.3.69,5.77-1.48,1.4-8.04-9.44-10.98-12.34.32,7.55,2.71,17.23.88,18.07-2.91,1.33-6.04-8.45-9.27-13.63-.22,4.6.78,15.72-1.44,18.31-2.64.4-6.09-9.85-8.64-15.11-.14,4.26.7,17.62-2.2,18.33-4.13,1.01-4.39-9.32-7.39-16.82-1.98,4.73-.92,17.01-4.35,17.48-3.36-.68-3.51-10.39-5.05-15.62-1.83,5.48-2.51,14.12-5.98,15.27-4.06-.61-2.88-13.07-4.29-20.92-3.43,4.86-1.55,12.6-7.2,15.45-3.2-3.89.52-20.8,2.73-32.8-8.51-8.86-6.7-20.78-5.85-33.04,1-14.41,4.42-28.08,5.29-40.65l24.55-15.84Z"/>
      <path d="m239.92,143.83c4.32,6.21,8.42,12.57,12.25,19.08s7.52,13.18,10.29,20.21c3.15,8.01,5.07,16.61,4.82,25.25-.12,4.32-.85,8.53-2.11,12.67-.33,1.07-.63,2.16-.7,3.28-.03.39-.04.77.07,1.15.17.59.47,1.17.73,1.72,2.28,4.86,4.88,9.58,7.3,14.37,1.36,2.69,2.7,5.38,3.96,8.12.27.59.53,1.17.79,1.76.22.51.27,1.01-.15,1.44-.44.45-1,.39-1.4-.07-.63-.72-1.15-1.57-1.72-2.34-2.33-3.14-4.73-6.22-7.06-9.35-1.96-2.63-3.94-5.28-5.58-8.13-.55-.95-1.08-1.94-1.42-2.99-.12-.39-.22-.79-.23-1.1,0-.08,0-.17,0-.25,0-.05.03-.25,0-.1.01-.07.03-.14.05-.22.03-.12.06-.14.04-.1.09-.2.03-.1.17-.22.06-.05.1-.08.29-.18-.11.06.25-.12.04-.02.03-.01.12-.01.15,0-.16-.05-.06-.02.02.02.11.06-.14-.07.02,0,.05.02.1.06.15.09.1.07-.09-.08.04.03.06.05.11.11.17.16.17.18.33.42.52.75,1.08,1.9,1.61,4.16,2.13,6.27.75,3.04,1.34,6.12,1.89,9.2s1.11,6.42,1.66,9.64c.13.74.26,1.48.39,2.22.11.61.34,1.31.09,1.92-.17.42-.57.77-1.04.72-.63-.07-.97-.72-1.26-1.21-2.67-4.55-5.25-9.16-7.63-13.87-1.21-2.39-2.38-4.81-3.37-7.3-.39-.99-.76-1.99-1.06-3.01-.23-.78-.41-1.54-.44-2.23,0-.13,0-.27,0-.4,0-.08.02-.21,0-.05.01-.07.03-.13.04-.2.01-.05.03-.11.05-.16,0-.03-.05.14,0,0,0-.03.1-.18.03-.06-.06.1.02-.03.06-.06-.19.12.2-.09-.02.01.04-.02.11-.05.15-.04.07.01-.19.05-.05.01.02,0-.09-.06-.06,0,.01.03.29.05-.04-.02.02,0,.08.03.09.05.1.14-.07-.07,0,0s.14.14.21.22c-.13-.16.09.14.13.21.16.27.3.55.42.84.25.57.56,1.57.76,2.32,1.35,4.93,1.95,10.1,2.4,15.18.23,2.63.4,5.28.44,7.92.02,1.13.02,2.25-.03,3.38-.02.48-.05.95-.09,1.43-.03.4-.02.85-.27,1.19s-.73.57-1.17.53c-.63-.05-.96-.57-1.22-1.09-.4-.83-.78-1.66-1.16-2.5-1.03-2.24-2.02-4.49-2.98-6.76-2.07-4.87-4.1-9.86-5.37-15.01-.23-.94-.45-1.95-.56-2.87-.05-.4-.08-.81-.08-1.22,0-.16,0-.32.01-.48,0-.08.01-.16.02-.24.01-.11-.02.06.02-.12.03-.14.06-.27.09-.4.02-.06.04-.12.06-.18,0,.02-.04.07.03-.05.03-.05.06-.1.09-.14.07-.11-.09.14.01-.01.03-.04.07-.08.11-.11-.12.1-.06.04.03,0,.14-.07-.02,0,0,0,.05-.02.1-.04.15-.05.12-.02.07-.04-.02,0,.03-.01.13-.01.17,0-.34-.13.29.12-.03-.01.04.02.1.04.13.07.12.11-.1-.1.02.02.04.04.08.08.12.11.1.11.02.01.03.02.08.11.15.23.22.35.17.32.19.39.32.79.26.81.41,1.66.53,2.5.33,2.34.41,4.72.45,7.08.11,5.53-.11,11.07-.17,16.6-.01,1.13-.02,2.25,0,3.38.02,1,.27,2.38-.55,3.14-.69.64-1.64.16-2.13-.51-.59-.82-.81-2-1.13-2.95-1.74-5.13-3.52-10.25-5.02-15.45-.73-2.52-1.4-5.06-1.87-7.64-.18-.99-.32-1.99-.38-3-.02-.41-.03-.81,0-1.22.02-.43.03-.52.12-.91.03-.14.07-.27.12-.41,0,0-.04.08.02-.05.03-.06.07-.12.1-.18.04-.08.13-.19.27-.24.1-.04-.14.07.04,0,.04-.02.1-.03.14-.03-.27.04.29-.06.02,0,.02,0,.12.02.14.04-.1-.07-.1-.05,0,0,.08.05.1.08,0,0,.05.04.09.08.13.13.09.12.01,0,.02.02.04.05.07.1.1.15.06.1.17.33.17.33.07.17.21.64.28.93.2.86.27,1.69.32,2.58.3,5.41-.37,10.92-1.03,16.29-.33,2.68-.71,5.35-1.12,8.02-.18,1.18-.3,2.41-.62,3.56-.14.51-.36,1.14-.82,1.45-.28.18-.5.15-.8,0-.86-.47-1.1-1.52-1.31-2.39-.24-.99-.46-1.99-.68-2.99-.55-2.53-1.06-5.07-1.53-7.61-.96-5.18-1.9-10.42-2.19-15.68-.05-.91-.08-1.82-.04-2.72.03-.69.04-1.03.27-1.69.05-.13-.08.15,0,0,.02-.04.04-.08.07-.12.08-.13-.1.11.06-.06-.14.15-.11.07-.03.04-.05.02-.18.05-.07.04-.28.04-.13,0-.06.02-.23-.03-.09.03-.05,0,.04-.03-.16-.07-.09-.04,0,0,.04.02.04.02,0,.01.05.02-.03-.03.03.01.08.06.09.09.03.1-.09-.15,0,.01.05.1.11.19.15.29-.09-.19.07.19.09.26.5,1.59.49,3.32.5,5.04.02,2.56-.14,5.12-.38,7.67-.49,5.27-1.25,10.64-2.83,15.71-.28.9-.57,1.85-1,2.68-.39.75-1.86,1.93-2.55.85-.25-.4-.33-.98-.44-1.44-.13-.53-.24-1.06-.35-1.59-.24-1.21-.44-2.42-.62-3.64-.8-5.56-1.15-11.22-1.15-16.84,0-2.35.05-4.71.31-7.05.09-.77.2-1.54.4-2.32.08-.3.16-.59.28-.87-.08.18.07-.12.1-.19.02-.04.05-.08.07-.11.1-.17-.05.08,0-.01.02-.03.07-.08.1-.1.05-.03-.08.02-.05.04-.02-.01.22-.07.02-.02s.18,0-.05.02c-.08,0-.11,0-.21-.04-.02,0-.03-.04-.05-.06.03.02.06.09.07.12,0,0-.05-.15,0,0,.04.12.07.25.1.37,0,.04.04.25.01.06,0,.06.02.13.02.19.02.19.03.38.03.57.05,2.04-.32,4.1-.69,6.09-1.03,5.49-2.53,11-4.65,16.18-.42,1.03-.89,2.06-1.42,3.04-.39.72-.81,1.45-1.38,2.04-.16.17-.38.42-.62.48-.11.03-.29,0-.24.01.07.03-.21-.17-.08-.05-.04-.04-.08-.07-.12-.12-.11-.15.02.05-.04-.05-.07-.11-.13-.22-.19-.34,0,0-.06-.15-.11-.32-.24-.78-.29-1.43-.33-2.24-.11-2.37.13-4.76.42-7.1.36-2.89.85-5.75,1.4-8.61s1.14-5.57,1.79-8.34c.28-1.17.56-2.34.86-3.5.12-.47.43-1.14.3-1.61-.09-.33-.37-.61-.58-.87-1.75-2.06-3.54-4-4.52-6.58-.73-1.93-1-4.05-1.25-6.09-.27-2.19-.43-4.39-.49-6.59-.26-8.69.86-17.35,2.25-25.9.15-.94-1.29-1.35-1.45-.4-1.53,9.44-2.77,19.04-2.2,28.63.14,2.33.39,4.66.78,6.97.33,1.99.81,3.88,1.77,5.67.75,1.41,1.71,2.69,2.75,3.9.35.41.72.81,1.08,1.21.13.14.26.28.37.43-.06-.08-.01.06.05.07,0,0,.04.05.03.06-.05.1.07-.44-.07-.33-.11.09-.16.62-.2.77-.08.29-.15.59-.22.88-.16.62-.31,1.24-.46,1.86-.33,1.38-.65,2.76-.95,4.14-.68,3.08-1.3,6.18-1.82,9.3-.48,2.9-.91,5.83-1.09,8.77-.12,1.94-.27,4.13.36,6.01.22.65.55,1.3,1.16,1.65,1.23.72,2.45-.32,3.17-1.27,1.68-2.17,2.68-4.93,3.59-7.49,1.99-5.52,3.55-11.34,4.29-17.18.13-.99.23-1.99.22-2.99,0-.69-.03-1.46-.34-2.1-.66-1.33-2.09-.77-2.61.32-.76,1.57-.86,3.5-1,5.21-.21,2.66-.22,5.33-.17,8,.12,5.94.55,11.93,1.63,17.78.21,1.11.44,2.23.74,3.32.41,1.47,1.58,2.41,3.15,2.01,2.53-.64,3.22-3.84,3.83-6.01,1.56-5.57,2.33-11.42,2.74-17.18.18-2.52.29-5.07.14-7.6-.08-1.4-.11-3.38-1.07-4.52-.37-.43-.92-.66-1.48-.49-.6.19-.9.78-1.07,1.34-.49,1.67-.29,3.62-.17,5.32.41,5.75,1.45,11.48,2.54,17.14.49,2.53,1.01,5.06,1.58,7.57.43,1.89,1.12,5.17,3.74,4.84,1.43-.18,2.14-1.66,2.44-2.91s.43-2.54.63-3.79c.45-2.94.86-5.88,1.21-8.83s.68-6.18.85-9.29c.14-2.48.24-5-.05-7.48-.16-1.34-.38-3.37-1.73-4.09s-2.64.51-2.97,1.79c-.47,1.87-.1,3.98.23,5.84.49,2.77,1.22,5.49,2.01,8.19,1.59,5.44,3.48,10.78,5.28,16.15.41,1.23.8,2.46,1.94,3.23,1.03.7,2.42.68,3.37-.16,1.08-.96,1.11-2.43,1.08-3.76-.03-1.15-.03-2.3-.02-3.44.05-5.89.31-11.78.16-17.67-.06-2.48-.17-4.99-.58-7.44-.23-1.34-.55-3.31-1.84-4.09s-2.59.2-2.95,1.45c-.49,1.71-.02,3.73.36,5.41,1.25,5.49,3.47,10.79,5.65,15.97,1.02,2.41,2.08,4.8,3.17,7.17.43.92.79,2.01,1.4,2.83.91,1.21,2.56,1.52,3.82.64,1.07-.74,1.17-1.89,1.25-3.08.08-1.12.1-2.25.1-3.38,0-2.8-.17-5.6-.4-8.39-.46-5.45-1.07-11.03-2.54-16.31-.38-1.35-.81-3.16-1.91-4.13s-2.47-.15-2.72,1.13c-.33,1.74.43,3.71,1.01,5.32.95,2.63,2.15,5.17,3.38,7.67,2.52,5.1,5.3,10.08,8.18,14.99.73,1.24,1.88,2.46,3.46,1.91s1.94-2.21,1.67-3.68c-.6-3.3-1.14-6.62-1.71-9.93s-1.2-6.8-1.96-10.16c-.58-2.54-1.19-5.15-2.28-7.53-.55-1.21-1.62-3.02-3.23-2.5-1.97.64-1.77,2.87-1.19,4.43,1.04,2.79,2.85,5.3,4.56,7.71,2.35,3.3,4.84,6.5,7.28,9.73,1.25,1.65,2.5,3.31,3.72,4.99.52.72,1.13,1.35,2.07,1.43.71.06,1.43-.25,1.92-.75.53-.54.82-1.29.76-2.05-.06-.71-.46-1.39-.75-2.04-.6-1.35-1.24-2.69-1.88-4.02-2.77-5.71-5.76-11.31-8.61-16.98-.45-.9-.9-1.8-1.32-2.71-.07-.16-.15-.32-.22-.48-.02-.05-.09-.22-.03-.07-.03-.07-.06-.15-.09-.22-.04-.1-.07-.2-.11-.3-.04-.11-.04-.34-.03-.04-.06-2.26.99-4.48,1.52-6.65s.89-4.43,1.11-6.68c.87-9.17-.82-18.48-3.95-27.09-2.78-7.63-6.69-14.84-10.78-21.83-3.94-6.73-8.17-13.31-12.63-19.71-.55-.79-1.85-.04-1.29.76h0Z"/>
      <g>
        <path class="cls-7" d="m239.41,74.26c3.66-.78,7.59.8,10.24,3.54,2.65,2.75,4.11,6.52,4.67,10.34.12.81.21,1.65.66,2.33.49.75,1.33,1.17,2.1,1.59,16.93,9.3,10.01,23.35,6.74,31.1s-9.33,13.74-14.61,20.12c-11.23,13.56-23.16,26.51-35.71,38.78-1.54,1.5-3.14,3.03-5.11,3.83-3.51,1.41-7.65.2-10.6-2.25-2.95-2.45-4.88-5.94-6.42-9.5-.76-1.75-1.46-3.58-2.72-5-3.04-3.42-8.19-3.41-12.27-5.35-5.29-2.52-8.57-8.49-8.97-14.47s1.75-11.88,4.95-16.85c3.2-4.97,7.43-9.14,11.65-13.23,13.98-13.53,28.35-26.63,43.08-39.28,3.6-3.1,9.66-9.13,12.32-5.73"/>
        <path d="m239.61,74.98c5.23-1.06,9.91,2.68,12.12,7.13.58,1.18,1.02,2.42,1.35,3.69s.42,2.59.74,3.85,1.22,2.13,2.37,2.78,2.26,1.27,3.32,2.02c3.24,2.26,5.99,5.33,7.13,9.18.92,3.11.73,6.4,0,9.52-.68,2.9-1.79,5.66-2.95,8.39-.85,2-1.75,3.96-2.88,5.82-1.4,2.33-3.02,4.52-4.73,6.63s-3.47,4.12-5.23,6.16c-1.87,2.18-3.69,4.4-5.54,6.6-3.89,4.6-7.86,9.13-11.91,13.58s-8.18,8.83-12.38,13.13c-2.13,2.18-4.28,4.34-6.45,6.48-1.93,1.9-3.9,4.23-6.48,5.25-5.04,1.99-10.17-1.59-12.94-5.59-1.52-2.19-2.59-4.6-3.65-7.03s-2.3-4.43-4.54-5.77c-3.97-2.39-8.97-2.26-12.69-5.2s-5.85-7.72-6.14-12.4c-.72-11.75,7.76-21.06,15.59-28.67,8.84-8.59,17.85-16.99,27.01-25.23,4.6-4.14,9.25-8.24,13.93-12.29,1.85-1.6,3.68-3.21,5.53-4.8,1.56-1.34,3.18-2.71,5.03-3.64,1.22-.61,2.67-1.02,3.64.18.61.75,1.66-.32,1.06-1.06-2.69-3.31-7.51.73-9.75,2.58-1.86,1.54-3.64,3.16-5.47,4.73-2.39,2.06-4.77,4.14-7.14,6.22-9.61,8.46-19.05,17.1-28.31,25.92-4.41,4.2-8.95,8.34-12.97,12.92s-7.07,9.27-8.68,14.87c-1.48,5.17-1.39,10.72.91,15.63,1.03,2.19,2.5,4.23,4.35,5.8s4.04,2.57,6.38,3.26,4.66,1.14,6.73,2.32c1.05.6,1.97,1.38,2.66,2.37.81,1.16,1.35,2.48,1.91,3.78,2.08,4.86,4.98,9.94,10.08,12.12,2.35,1,5.04,1.35,7.5.53,2.72-.91,4.75-3.06,6.75-5.02,4.46-4.38,8.84-8.84,13.13-13.39s8.51-9.18,12.63-13.88,7.87-9.29,11.84-13.91c3.63-4.21,7.35-8.42,10.12-13.27,1.76-3.08,3.15-6.5,4.34-9.85,1.11-3.13,1.91-6.44,1.83-9.78-.09-3.74-1.38-7.26-3.72-10.19-1.43-1.79-3.2-3.29-5.09-4.56-1.13-.76-2.35-1.35-3.49-2.09-1.27-.82-1.28-2.16-1.51-3.52-.89-5.17-3.6-10.39-8.49-12.78-2.26-1.1-4.77-1.52-7.25-1.02-.95.19-.55,1.64.4,1.45h0Z"/>
      </g>
      <path d="m169.99,82.87c5.78.39,11.51,1.85,17.04,3.51s11.18,3.66,16.39,6.32c1.87.95,3.84,1.99,5.33,3.46.69.68,1.75-.38,1.06-1.06-1.36-1.35-3.09-2.34-4.76-3.24-2.41-1.29-4.93-2.39-7.47-3.41-5.89-2.35-11.99-4.26-18.19-5.63-3.09-.69-6.24-1.24-9.4-1.46-.96-.07-.96,1.43,0,1.5h0Z"/>
      <path class="cls-2" d="m282.03,66.54c-1.18-.19-2.39.42-3.14,1.35s-1.91,1.99-2.04,3.18c-.33,3.19,1.35,7.44,3.62,9.7-1.15,2.8-1.05,2.93.88,5.27.76,4.44,1.38,16.42,1.99,16.67.52.21,7.57.73,11.41-.66,2-.72,7.64-3.6,8.47-5.55,1.39-3.29-2.38-13.13-2.04-14.23.27-.87,1.75-1.88,2.31-2.59,3.57-4.55,2.05-9.58-1.84-13.86-3.89-4.27-10.96-5.2-15.82-2.06"/>
      <path d="m281,80.25c-2.28-2.57-3.51-5.73-3.4-9.17.03-.97-1.47-.96-1.5,0-.12,3.84,1.29,7.38,3.84,10.23.64.72,1.7-.34,1.06-1.06h0Z"/>
      <path d="m279.76,85.21c.59,3.41,1.06,6.85,1.56,10.28.25,1.69.5,3.38.78,5.06.12.71.17,1.5.53,2.15.45.82,1.27,1.03,2.13,1.14,3.6.46,7.32.02,10.72-1.24,1.7-.63,3.34-1.44,4.85-2.44.75-.5,1.48-1.05,2.16-1.64.64-.55,1.3-1.15,1.51-2.01.26-1.08-.17-2.28-.4-3.33-.25-1.14-.51-2.28-.77-3.42-.53-2.32-1.06-4.64-1.57-6.96-.21-.94-1.65-.54-1.45.4.83,3.78,1.71,7.55,2.54,11.32.18.82.41,1.58-.2,2.27-.57.64-1.32,1.18-2.01,1.67-1.37.98-2.85,1.81-4.41,2.44-3.06,1.24-6.38,1.79-9.68,1.57-.55-.04-1.69.04-2.07-.41s-.38-1.51-.47-2.08c-.26-1.56-.49-3.13-.72-4.69-.51-3.49-.99-7-1.59-10.48-.16-.95-1.61-.55-1.45.4h0Z"/>
      <path d="m300.18,49.04c1.25,1.27,1.22,3.45-.05,4.7-.5.49-.09,1.22.53,1.28,2.96.29,4.25,3.68,2.58,6.01-.25.35-.03.81.27,1.03,2.56,1.85,2.9,6.02.76,8.3-.25.27-.32.8,0,1.06,2.15,1.74,1.03,4.71-.34,6.54-.9,1.21-1.96,2.3-2.96,3.42-1.09,1.22-2.18,2.45-3.27,3.67s-2.18,2.45-3.27,3.67c-.89,1-1.79,2.49-3.26,2.55-2.62.09-5.48-.81-7.46-2.54-2.17-1.9-3.34-4.92-2.52-7.75.27-.93-1.18-1.33-1.45-.4-.84,2.91.06,6.04,2.01,8.31s5.13,3.57,8.18,3.83c.75.06,1.55.12,2.29-.09s1.35-.72,1.87-1.28c1.26-1.35,2.46-2.76,3.69-4.14s2.51-2.82,3.76-4.22c1.16-1.3,2.38-2.57,3.45-3.95s1.88-2.87,1.98-4.6c.08-1.51-.43-3.1-1.63-4.07v1.06c2.84-3.04,2.29-8.24-1.07-10.66l.27,1.03c1.12-1.56,1.29-3.64.46-5.37s-2.52-2.72-4.34-2.9l.53,1.28c1.85-1.82,1.86-4.98.05-6.82-.68-.69-1.74.37-1.06,1.06h0Z"/>
      <path class="cls-12" d="m283.6,20.75c-3.95-4.35-12.13-7.52-17.88-6.35-5.27,1.07-10.56,4.96-11.71,10.52-3.25-1.11-6.19-1.08-10.32.92-.75,1.26-2.29,5.2-3.04,6.45-1.79,3-5.75,3.61-7.19,5.64-1.6,5.18-1.8,9.77.23,14.63s3.97,8.36,8.25,11.43c4.29,3.07,6.91,4.07,11.87,5.84l3.21-12.05c-4.78-.55-7.19-2.4-10.11-4.81,5.16-1.34,7.33-4.26,9.84-8.48,6.36.86,11.21-.05,16.61-3.52,1.44-.93,5.09-4.96,6.17-6.27.11.68-.35,3.21-.33,3.9.14,4.17-1.6,8.51-4.99,10.93l11.86.28c2.98-3.32,6.17-6.77,5.6-11.19-.35-2.68-.97-5.66-3.98-8.35-.33-3.82-1.65-6.85-4.08-9.53Zm-33.68,20.38c-2.25,2.59-5.2,4.32-8.24,3.98-1.28-2.65-.73-4.17-.03-6.57.81-2.78,2.01-4.73,4.9-4.81.8-.02,2.05.96,2.8,1.24-.3.43-1.54,5.26.58,6.17Zm12.98-4.5c1.34-2.12.51-5.17-1.51-6.66-.04-.03-.08-.05-.12-.08.44-1.27.94-2.52,1.68-3.64.99-1.49,2.48-2.74,4.25-3.03,2.9-.48,5.58,1.67,7.41,3.97.45.56.86,1.15,1.26,1.76-4.02,3.1-8.2,6.02-12.97,7.68Z"/>
      <path class="cls-11" d="m281.51,21.71c-3.72-4.09-9.66-6.04-15.08-4.94-4.96,1.01-9.32,4.53-11.43,9.12-1.74-.6-3.6-.83-5.43-.63-1.69.19-4.26.64-5.18,2.07-.75,1.16-2.15,3.56-2.74,4.81-1.01,2.12-5.67,6.31-6.5,6.47-1.36,3.3-1.69,5.86-.44,10.67,1.25,4.81,1.75,8.83,7.24,11.63,2.39,4.96,8.85,5.06,13.53,6.73l1.22-8.74c-3.52.56-9.78-2.62-12.56-6.26,3.79-1.01,9.28-4.01,11.64-7.99,5.99.81,13.93-1.41,19.02-4.68,1.36-.87,3.69-4.02,4.71-5.26.11.64,1.14,1.71,1.16,2.36.13,3.93-.65,9.2-3.85,11.49l8.37.78c2.81-3.12,3.93-8.34,3.4-12.5-.33-2.52-2.74-3.12-3.78-5.45-1.39-3.12-1.01-7.16-3.3-9.68Zm-29.13,18.9c-3.29,3.79-12.27,5.51-12.27,5.51-2.84-4.54-.07-7.43,1.15-9.45,2.05-3.39,3.35-3.16,6.08-3.23.76-.02,1.79,1.02,2.5,1.28-.28.41,1.15,1.45.91,1.88-.94,1.96-.37,3.15,1.63,4.01Zm7.07-4.93c5.15.29-.96-8.51-2.85-9.91-.04-.03,3.8,1.65,3.76,1.63.41-1.2,1.86-2.57,2.56-3.62.93-1.4,4.37-3.09,6.01-2.72,2.72.63,8.85,3.97,8.1,6.98-.16.66-1.81,1.08-1.43,1.65-3.78,2.92-12.65,9.76-16.14,5.99Z"/>
      <g>
        <path d="m242.93,45.05c-1.53-1.7-1.81-4.05-.93-6.14.99-2.34,3.15-3.99,5.53-4.75.92-.29.52-1.74-.4-1.45-2.9.92-5.43,2.94-6.58,5.8-1.05,2.61-.57,5.5,1.31,7.6.65.72,1.7-.34,1.06-1.06h0Z"/>
        <path d="m264.36,36.59c-.06-2.59-.61-5.24-2.11-7.4-1.2-1.73-2.88-3.04-4.81-3.88-3.37-1.46-7.24-1.68-10.85-1.18-.54.08-1.08.17-1.61.3-1.39.37-2.36,1.1-2.86,2.46-.62,1.7-1.27,3.27-2.32,4.76s-2.36,2.76-3.84,3.77c-.75.51-1.57.88-2.33,1.37-.79.52-1.3,1.22-1.52,2.14-.45,1.83-.53,3.83-.47,5.71.11,3.89,1.08,7.74,2.81,11.22,3.29,6.64,9.49,11.66,16.61,13.65.88.25,1.76.44,2.66.59.94.16,1.35-1.28.4-1.45-6.82-1.16-13.09-5.14-16.89-10.96-2-3.07-3.3-6.56-3.84-10.18-.27-1.8-.33-3.65-.2-5.47.06-.88.15-1.77.34-2.63.23-1.01.86-1.36,1.72-1.83,2.95-1.6,5.42-4.09,6.98-7.06.38-.73.72-1.49.99-2.26.3-.84.44-1.71,1.33-2.13.48-.23,1.02-.35,1.54-.45,1.25-.24,2.6-.34,4.01-.33,1.76.01,3.51.22,5.2.73s3.42,1.4,4.71,2.72c1.53,1.56,2.36,3.62,2.68,5.76.1.66.14,1.32.15,1.98.02.96,1.52.97,1.5,0h0Z"/>
        <path d="m246.34,33.99c2.16,1.69,4.72,2.69,7.47,2.83s5.91-.58,8.45.97c.83.5,1.58-.79.76-1.29-2.43-1.49-5.28-1.18-8.01-1.16s-5.41-.69-7.61-2.41c-.75-.59-1.82.47-1.06,1.06h0Z"/>
        <path d="m248.69,34.59c-1.02,1.61-1.01,4.12-.16,5.8.95,1.89,2.82,3.32,4.71,4.16,4.11,1.83,8.95,1.68,13.22.48,4.49-1.26,8.65-3.83,11.74-7.34,1.54-1.76,3.26-3.94,3.38-6.37.11-2.13-1.58-4.45-3.89-4.11-1.41.21-2.53,1.3-3.59,2.16-1.25,1.01-2.48,2.04-3.8,2.96-2.49,1.74-5.24,3.06-8.15,3.95-.92.28-.53,1.73.4,1.45,2.25-.68,4.42-1.61,6.46-2.79,2.14-1.24,4.06-2.8,5.98-4.35.82-.67,1.75-1.65,2.83-1.87.93-.19,1.7.49,2.05,1.3.9,2.04-.9,4.38-2.1,5.89-4.98,6.2-13.9,10.06-21.8,8.01-2.04-.53-4.03-1.51-5.39-3.17-1.18-1.43-1.61-3.76-.58-5.4.52-.82-.78-1.57-1.29-.76h0Z"/>
        <path d="m249.06,41.53c-2.27,1.78-4.96,2.99-7.79,3.54-1.31.26-2.81.33-3.58,1.6-.68,1.13-.49,2.53.17,3.62,1.31,2.16,3.8,3.3,6.23,3.56,2.59.27,5.06-.54,7.26-1.86,2.69-1.61,5.15-3.88,6.7-6.63.47-.84-.82-1.6-1.29-.76-1.21,2.15-3.02,3.96-5.04,5.36-1.87,1.3-3.96,2.35-6.28,2.44-2.12.07-4.3-.58-5.77-2.17-.66-.71-1.39-2.03-.6-2.92.38-.44,1.04-.52,1.58-.61.61-.1,1.22-.2,1.83-.35,2.79-.68,5.37-1.98,7.63-3.74.76-.59-.31-1.65-1.06-1.06h0Z"/>
        <path d="m254.73,25.13c.59-2.68,2.4-5.14,4.44-6.93,2.19-1.92,5.2-2.97,8.07-3.27,6.03-.61,11.86,2.04,15.91,6.44,2.3,2.5,4.15,5.73,3.75,9.23-.03.26.17.52.37.65,2.53,1.63,4,4.53,3.63,7.52-.18,1.4-.55,2.79-1.02,4.12-.4,1.13-.88,2.36-1.66,3.29-.62.73.44,1.8,1.06,1.06.92-1.1,1.5-2.45,1.99-3.79.56-1.56.97-3.18,1.15-4.83.37-3.46-1.5-6.81-4.39-8.67l.37.65c.39-3.4-1.19-6.62-3.26-9.21s-4.66-4.65-7.58-6.05c-5.77-2.78-13.31-2.86-18.6,1.11-2.62,1.97-4.96,5.04-5.68,8.28-.21.94,1.24,1.34,1.45.4h0Z"/>
        <path d="m246.37,53.51c2.59,2.94,6.35,4.97,10.33,4.8.96-.04.97-1.54,0-1.5-3.62.16-6.93-1.7-9.27-4.36-.64-.73-1.7.34-1.06,1.06h0Z"/>
        <path d="m261.94,29.38c.36-1.26,1.23-2.37,2.14-3.29.86-.86,1.97-1.78,3.21-1.99,2.96-.5,6.87,2.11,6.75,5.3-.04.97,1.46.96,1.5,0,.16-4.03-4.38-7.16-8.12-6.82-1.63.15-3.05,1.16-4.2,2.26s-2.26,2.55-2.72,4.14c-.27.93,1.18,1.33,1.45.4h0Z"/>
      </g>
      <path class="cls-2" d="m240.63,50.37c3.85,2.7,8.38.51,11.47-2.27.72-.65-.34-1.7-1.06-1.06-2.62,2.35-6.39,4.32-9.66,2.03-.79-.56-1.54.74-.76,1.29h0Z"/>
      <path class="cls-2" d="m274.99,16.65c-4.65-1.95-10.05-1.42-14.13,1.57-.77.56-.02,1.87.76,1.29,3.81-2.79,8.65-3.23,12.98-1.41.38.16.82-.17.92-.52.12-.43-.15-.77-.52-.92h0Z"/>
      <path class="cls-2" d="m283.43,24.02c-.36-1.42-1.34-2.68-2.33-3.73s-2.18-2.05-3.56-2.54c-.38-.14-.82.15-.92.52-.11.42.14.78.52.92.02,0,.22.09.13.05s.12.05.14.06c.12.06.24.12.35.18.27.15.53.33.78.51.13.09.17.12.34.26.12.1.24.21.36.31.28.25.54.5.79.77.5.53.85.96,1.23,1.55.17.27.33.54.47.83.03.07.07.14.1.22-.05-.12,0,.02.02.06.05.14.09.27.13.41.24.93,1.69.54,1.45-.4h0Z"/>
      <path class="cls-2" d="m261.94,32.8c-.51-1.38-1.57-2.54-2.67-3.49s-2.37-1.85-3.78-2.2c-.94-.23-1.34,1.21-.4,1.45.13.03.26.07.39.11.07.03.15.05.22.08.15.06-.09-.04.08.03.27.13.54.26.8.41.61.36,1.13.73,1.64,1.17s1.03.95,1.47,1.49c.11.14.33.44.48.68.07.12.14.24.21.36.03.06.06.12.09.18.04.08.04.08,0,0,.02.04.03.08.04.12.14.38.51.64.92.52.37-.1.66-.54.52-.92h0Z"/>
      <path class="cls-12" d="m276.67,92.6l-36.84-22.57c-1.06-.8-1.19-2.35-.27-3.31l30.24-33.49c.41-.43,1.08-.46,1.53-.08l27.78,15.4c.4.34.51.91.27,1.38l-22.71,42.67Z"/>
      <g class="cls-9">
        <rect class="cls-13" x="259.97" y="53.12" width="4" height="49.05" transform="translate(48.11 247.7) rotate(-55)"/>
        <rect class="cls-13" x="265.48" y="45.61" width="4" height="49.05" transform="translate(56.61 249.01) rotate(-55)"/>
        <rect class="cls-13" x="271.88" y="38.15" width="4" height="49.05" transform="translate(65.45 251.08) rotate(-55)"/>
        <rect class="cls-13" x="276.66" y="30.42" width="4" height="49.05" transform="translate(73.82 251.69) rotate(-55)"/>
        <rect class="cls-13" x="281.67" y="22.2" width="4" height="49.05" transform="translate(90.77 259.9) rotate(-57.21)"/>
        <rect class="cls-13" x="255.97" y="20.48" width="4" height="66.68" transform="translate(89.63 -148.93) rotate(38.51)"/>
        <rect class="cls-13" x="266.61" y="24.85" width="4" height="66.68" transform="translate(81.95 -143.54) rotate(35)"/>
        <rect class="cls-13" x="275.93" y="30.52" width="4" height="66.68" transform="translate(78.86 -140.33) rotate(32.79)"/>
        <rect class="cls-13" x="285.21" y="33.14" width="4" height="66.68" transform="translate(72.29 -135.31) rotate(30.16)"/>
      </g>
      <path class="cls-5" d="m276.67,92.6l-36.84-22.57c-1.06-.8-1.19-2.35-.27-3.31l30.24-33.49c.41-.43,1.08-.46,1.53-.08l27.78,15.4c.4.34.51.91.27,1.38l-22.71,42.67Z"/>
      <path class="cls-2" d="m298.61,47.19c-5.12-1.61-9.09-2.26-14.07-2.67-1.49-.13-3.48.22-3.68,1.71-.17,1.29,1.24,3.55,2.27,4.34,2.42,1.86,4.45,3.27,8.77,2.73-5.51.82-9.05.89-14.06,2.58-1.6.54-4.16,1.52-5.1,2.92s-.49,2.94,1.03,3.66c-1.51-.25-2.47,1.91-1.74,3.26s2.33,1.94,3.81,2.34c3.4.94,4.94,1.52,8.47,1.71-2.82-.29-3.73-.09-6.47.61-1.19.3-3.69,1.54-3.45,2.74.19.93,3.26,1.83,4.19,2.07,3.28.83,5.65.74,8.93,1.58,1.96.5,3.95,1,5.97.84,2.01-.15,6.14-.83,7.14-2.58s-.36-3.36-1.15-3.85c1.99-.83,4.77,1.87,6.21-1.49.85-1.98.04-7.23-1.54-8.65,1.93-1.74.53-1.84.44-3.66s-2.09-3.04-3.92-3.1c1.65-.22-.08-4.9-.9-6.35"/>
      <path d="m300.18,49.04c1.25,1.27,1.22,3.45-.05,4.7-.5.49-.09,1.22.53,1.28,2.96.29,4.25,3.68,2.58,6.01-.25.35-.03.81.27,1.03,2.56,1.85,2.9,6.02.76,8.3-.25.27-.32.8,0,1.06,1.17.95,1.42,2.53,1.04,3.94-.47,1.71-1.72,3.08-2.86,4.36-.64.72.42,1.78,1.06,1.06,1.39-1.56,2.9-3.26,3.33-5.37.37-1.8-.02-3.86-1.5-5.06v1.06c2.84-3.04,2.29-8.24-1.07-10.66l.27,1.03c1.12-1.56,1.29-3.64.46-5.37s-2.52-2.72-4.34-2.9l.53,1.28c1.85-1.82,1.86-4.98.05-6.82-.68-.69-1.74.37-1.06,1.06h0Z"/>
      <path d="m289.79,60.03c-5.38-.19-10.77.33-16.02,1.53-.94.21-.54,1.66.4,1.45,5.12-1.17,10.37-1.66,15.62-1.47.97.03.96-1.47,0-1.5h0Z"/>
      <g>
        <path d="m301.24,47.98c-1.84-1.64-4.23-2.48-6.62-2.96-2.64-.52-5.34-.66-8.03-.67-1.2,0-2.39.02-3.59.05-1,.02-2.21-.06-2.94.76-.94,1.06-.1,2.56.54,3.53.78,1.2,1.75,2.26,2.88,3.13,2.55,1.96,5.78,2.84,8.95,2.13.94-.21.54-1.66-.4-1.45-2.39.54-4.84-.03-6.89-1.34-1.03-.66-1.95-1.51-2.71-2.47-.38-.48-.73-1.01-1.01-1.56-.13-.24-.43-.75-.21-1.01s.81-.2,1.1-.21c.48-.01.95-.02,1.43-.03,1.06-.02,2.13-.04,3.2-.03,2.3.02,4.61.12,6.88.53s4.63,1.09,6.38,2.65c.72.64,1.78-.42,1.06-1.06h0Z"/>
        <path d="m292.03,52.51c-4.05.62-8.15.98-12.13,1.99-2,.51-4.03,1.16-5.89,2.08-1.1.54-1.99,1.64-2.36,2.81-.52,1.62.32,2.97,1.88,3.5l-.33-1.25c-1.21.98-2.25,2.41-1.79,4.04.34,1.22,1.42,2.17,2.53,2.71,1.51.74,3.33.93,4.98,1.19,2.02.32,4.05.62,6.04,1.12.94.23,1.34-1.21.4-1.45-1.69-.42-3.41-.71-5.13-.98s-3.37-.48-4.98-.97c-.84-.26-1.72-.82-2.18-1.58-.72-1.21.29-2.28,1.2-3.03.47-.38.15-1.09-.33-1.25-1.01-.34-1.12-1.17-.66-2.05.61-1.16,1.61-1.6,2.78-2.07,3.28-1.31,6.74-2,10.22-2.5,2.05-.3,4.11-.55,6.16-.87.95-.15.55-1.59-.4-1.45h0Z"/>
        <path d="m285.3,68.98c-2.76.11-5.56.27-8.24.94-.91.23-2.2.44-2.83,1.2-.51.62-.76,1.51-.55,2.29.28,1.06,1.24,1.52,2.2,1.83,1.04.33,2.07.65,3.12.95,2.57.74,5.18,1.38,7.83,1.77,2.94.43,5.96.62,8.89,0,.94-.2.54-1.64-.4-1.45-4.57.95-9.48-.06-13.92-1.22-1.05-.27-2.1-.57-3.15-.89-.85-.25-1.82-.44-2.61-.84-.52-.26-.66-.73-.43-1.24.06-.13.12-.22.16-.26.1-.11.06-.05.07-.06.51-.27,1.15-.41,1.71-.56,2.64-.7,5.41-.85,8.13-.96.96-.04.97-1.54,0-1.5h0Z"/>
      </g>
      <g>
        <path class="cls-1" d="m278.55,99.4c1.38-2.27,3.12-3.48,5.74-3.93,3.98-.68,8.25,1.21,12.03-.23,3.76-1.43,5.77-5.73,9.44-7.38,2.86-1.29,6.29-.7,9.03.83s4.91,3.89,6.93,6.29c5.17,6.13,9.72,12.75,14.01,19.52,4.92,7.76,9.55,15.86,11.88,24.74,2.13,8.12,2.25,16.76.34,24.94-3.28,14.11-13.22,26.97-26.84,31.88-13.63,4.91-30.57.6-38.76-11.35-5.22-7.62-6.57-17.33-5.85-26.54.75-9.6,3.56-19.24,1.82-28.7-.89-4.82-2.93-9.37-3.84-14.19s-1.54-12.65,4.24-16.16"/>
        <path d="m279.2,99.78c1.14-1.83,2.71-3.04,4.83-3.5,2.52-.54,5.11.05,7.63.22s4.81-.17,6.85-1.59c1.75-1.21,3.11-2.86,4.66-4.31,1.67-1.57,3.57-2.67,5.93-2.69,2.53-.02,4.91,1,6.93,2.47,2.12,1.55,3.86,3.58,5.54,5.58,1.83,2.19,3.58,4.44,5.27,6.74,3.3,4.5,6.38,9.16,9.33,13.9s5.62,9.39,7.79,14.42,3.76,10.54,4.32,16.1c.57,5.63.23,11.36-1.05,16.87-2.02,8.67-6.52,16.8-12.97,22.96-6.3,6.02-14.47,9.95-23.24,10.33-8.3.36-16.89-2.19-23.24-7.65-7.42-6.38-10.45-16.06-10.69-25.6-.28-11.25,3.78-22.33,2.14-33.59-.79-5.46-3.19-10.51-4.13-15.94-.6-3.47-.86-7.34.53-10.66.71-1.7,1.9-3.12,3.47-4.09.82-.51.07-1.8-.76-1.29-7.85,4.86-5.13,16.16-2.9,23.32.87,2.79,1.78,5.58,2.26,8.47s.51,5.93.33,8.89c-.37,5.99-1.61,11.87-2.17,17.84-.96,10.18.45,21.23,6.89,29.53,5.36,6.91,13.67,10.96,22.25,12.02s17.93-1.25,25.31-6.41c7.55-5.28,13.21-12.99,16.49-21.57,3.97-10.39,4.27-22.15,1.19-32.82-1.57-5.41-3.96-10.55-6.7-15.47s-5.9-9.86-9.11-14.6c-3.25-4.79-6.69-9.48-10.47-13.87-3.33-3.87-7.72-7.78-13.2-7.36-2.39.18-4.37,1.28-6.12,2.87-1.64,1.49-3.03,3.3-4.9,4.51-2.19,1.42-4.7,1.33-7.2,1.07s-5.17-.6-7.67.24c-2.05.69-3.58,2.09-4.7,3.9-.51.82.79,1.58,1.29.76h0Z"/>
      </g>
      <path class="cls-13" d="m18.4,333.95c-1.7.05-3.14-1.25-3.26-2.95l-7.68-111.07c-1.89-39.45,48.08-95.58,86.14-95.58,20.06,0,91.46-1.51,100.6,65.85,0,0,21.82,88.23,22.81,134.6.04,1.74-1.34,3.18-3.08,3.23l-195.52,5.91Z"/>
      <g>
        <g>
          <path class="cls-2" d="m158.27,262.69c1.07,1.47,2.14,2.94,3.21,4.41.23.32.66.5,1.03.27.31-.2.52-.69.27-1.03-1.07-1.47-2.14-2.94-3.21-4.41-.23-.32-.66-.5-1.03-.27-.31.2-.52.69-.27,1.03h0Z"/>
          <path class="cls-2" d="m167.83,261.49c-1.15,3.36-2.31,6.71-3.46,10.07-.31.91,1.13,1.31,1.45.4,1.15-3.36,2.31-6.71,3.46-10.07.31-.91-1.13-1.31-1.45-.4h0Z"/>
          <path class="cls-2" d="m159.63,274.94c1.07,1.47,2.14,2.94,3.21,4.41.23.32.66.5,1.03.27.31-.2.52-.69.27-1.03-1.07-1.47-2.14-2.94-3.21-4.41-.23-.32-.66-.5-1.03-.27-.31.2-.52.69-.27,1.03h0Z"/>
          <path class="cls-2" d="m169.18,273.74c-1.15,3.36-2.31,6.71-3.46,10.07-.31.91,1.13,1.31,1.45.4,1.15-3.36,2.31-6.71,3.46-10.07.31-.91-1.13-1.31-1.45-.4h0Z"/>
          <path class="cls-2" d="m160.17,287.19c1.07,1.47,2.14,2.94,3.21,4.41.23.32.66.5,1.03.27.31-.2.52-.69.27-1.03-1.07-1.47-2.14-2.94-3.21-4.41-.23-.32-.66-.5-1.03-.27-.31.2-.52.69-.27,1.03h0Z"/>
          <path class="cls-2" d="m169.73,285.99c-1.15,3.36-2.31,6.71-3.46,10.07-.31.91,1.13,1.31,1.45.4,1.15-3.36,2.31-6.71,3.46-10.07.31-.91-1.13-1.31-1.45-.4h0Z"/>
          <path class="cls-2" d="m161.36,299.44c1.07,1.47,2.14,2.94,3.21,4.41.23.32.66.5,1.03.27.31-.2.52-.69.27-1.03-1.07-1.47-2.14-2.94-3.21-4.41-.23-.32-.66-.5-1.03-.27-.31.2-.52.69-.27,1.03h0Z"/>
          <path class="cls-2" d="m170.92,298.24c-1.15,3.36-2.31,6.71-3.46,10.07-.31.91,1.13,1.31,1.45.4,1.15-3.36,2.31-6.71,3.46-10.07.31-.91-1.13-1.31-1.45-.4h0Z"/>
        </g>
        <g>
          <path class="cls-2" d="m173.82,269.04c1.07,1.47,2.14,2.94,3.21,4.41.23.32.66.5,1.03.27.31-.2.52-.69.27-1.03-1.07-1.47-2.14-2.94-3.21-4.41-.23-.32-.66-.5-1.03-.27-.31.2-.52.69-.27,1.03h0Z"/>
          <path class="cls-2" d="m183.38,267.84c-1.15,3.36-2.31,6.71-3.46,10.07-.31.91,1.13,1.31,1.45.4,1.15-3.36,2.31-6.71,3.46-10.07.31-.91-1.13-1.31-1.45-.4h0Z"/>
          <path class="cls-2" d="m175.18,281.29c1.07,1.47,2.14,2.94,3.21,4.41.23.32.66.5,1.03.27.31-.2.52-.69.27-1.03-1.07-1.47-2.14-2.94-3.21-4.41-.23-.32-.66-.5-1.03-.27-.31.2-.52.69-.27,1.03h0Z"/>
          <path class="cls-2" d="m184.74,280.09c-1.15,3.36-2.31,6.71-3.46,10.07-.31.91,1.13,1.31,1.45.4,1.15-3.36,2.31-6.71,3.46-10.07.31-.91-1.13-1.31-1.45-.4h0Z"/>
          <path class="cls-2" d="m175.72,293.54c1.07,1.47,2.14,2.94,3.21,4.41.23.32.66.5,1.03.27.31-.2.52-.69.27-1.03-1.07-1.47-2.14-2.94-3.21-4.41-.23-.32-.66-.5-1.03-.27-.31.2-.52.69-.27,1.03h0Z"/>
          <path class="cls-2" d="m185.28,292.34c-1.15,3.36-2.31,6.71-3.46,10.07-.31.91,1.13,1.31,1.45.4,1.15-3.36,2.31-6.71,3.46-10.07.31-.91-1.13-1.31-1.45-.4h0Z"/>
          <path class="cls-2" d="m176.91,305.79c1.07,1.47,2.14,2.94,3.21,4.41.23.32.66.5,1.03.27.31-.2.52-.69.27-1.03-1.07-1.47-2.14-2.94-3.21-4.41-.23-.32-.66-.5-1.03-.27-.31.2-.52.69-.27,1.03h0Z"/>
          <path class="cls-2" d="m186.47,304.59c-1.15,3.36-2.31,6.71-3.46,10.07-.31.91,1.13,1.31,1.45.4,1.15-3.36,2.31-6.71,3.46-10.07.31-.91-1.13-1.31-1.45-.4h0Z"/>
        </g>
        <g>
          <path class="cls-2" d="m186.63,248.04c1.07,1.47,2.14,2.94,3.21,4.41.23.32.66.5,1.03.27.31-.2.52-.69.27-1.03-1.07-1.47-2.14-2.94-3.21-4.41-.23-.32-.66-.5-1.03-.27-.31.2-.52.69-.27,1.03h0Z"/>
          <path class="cls-2" d="m196.19,246.84c-1.15,3.36-2.31,6.71-3.46,10.07-.31.91,1.13,1.31,1.45.4,1.15-3.36,2.31-6.71,3.46-10.07.31-.91-1.13-1.31-1.45-.4h0Z"/>
          <path class="cls-2" d="m187.99,260.29c1.07,1.47,2.14,2.94,3.21,4.41.23.32.66.5,1.03.27.31-.2.52-.69.27-1.03-1.07-1.47-2.14-2.94-3.21-4.41-.23-.32-.66-.5-1.03-.27-.31.2-.52.69-.27,1.03h0Z"/>
          <path class="cls-2" d="m197.54,259.09c-1.15,3.36-2.31,6.71-3.46,10.07-.31.91,1.13,1.31,1.45.4,1.15-3.36,2.31-6.71,3.46-10.07.31-.91-1.13-1.31-1.45-.4h0Z"/>
          <path class="cls-2" d="m188.53,272.54c1.07,1.47,2.14,2.94,3.21,4.41.23.32.66.5,1.03.27.31-.2.52-.69.27-1.03-1.07-1.47-2.14-2.94-3.21-4.41-.23-.32-.66-.5-1.03-.27-.31.2-.52.69-.27,1.03h0Z"/>
          <path class="cls-2" d="m198.09,271.34c-1.15,3.36-2.31,6.71-3.46,10.07-.31.91,1.13,1.31,1.45.4,1.15-3.36,2.31-6.71,3.46-10.07.31-.91-1.13-1.31-1.45-.4h0Z"/>
          <path class="cls-2" d="m189.72,284.79c1.07,1.47,2.14,2.94,3.21,4.41.23.32.66.5,1.03.27.31-.2.52-.69.27-1.03-1.07-1.47-2.14-2.94-3.21-4.41-.23-.32-.66-.5-1.03-.27-.31.2-.52.69-.27,1.03h0Z"/>
          <path class="cls-2" d="m199.28,283.59c-1.15,3.36-2.31,6.71-3.46,10.07-.31.91,1.13,1.31,1.45.4,1.15-3.36,2.31-6.71,3.46-10.07.31-.91-1.13-1.31-1.45-.4h0Z"/>
        </g>
      </g>
      <path class="cls-1" d="m130.65,170.87c7.53.14,13.54-2.9,18.57-8.5,5.03-5.6,6.22-10.04,7.43-18.64,1.91-13.56-4.83-26.38-10.99-26.82-.31-1.44-.21-2.94-.45-4.39-.89-5.37-7.3-12.14-12.5-13.19-13.6-2.74-22.55-.54-32.36,5.74-9.81,6.27-16.12,18.02-15.04,29.62,1.12,11.99,9.49,22.18,19.15,29.37,7.91,5.89,17.92,10.42,27.45,7.91"/>
      <ellipse cx="96.13" cy="72.11" rx="41.14" ry="39.11" transform="translate(-13.84 23.67) rotate(-13.1)"/>
      <ellipse cx="63.1" cy="98.17" rx="21.94" ry="19.77" transform="translate(-20.61 16.86) rotate(-13.1)"/>
      <path class="cls-3" d="m151.06,74c-1.09-5.3-7.18-8.56-13.87-7.61-4.92-21.2-25.87-34.73-47.31-30.31s-35.34,25.12-31.48,46.54c-6.52,1.77-10.82,7.18-9.73,12.47,1.15,5.57,7.82,8.9,14.91,7.44,1.27-.26,2.47-.67,3.57-1.18,5.07,6.04,11.83,10.47,19.39,12.72l-.86,11.23c-.37,4.8,3.22,8.98,8.02,9.35l5.21.4c4.8.37,8.98-3.22,9.35-8.02l.99-12.92c13.43-3.9,23.47-14.34,27.3-27.07,1.22.03,2.48-.07,3.75-.33,7.09-1.46,11.9-7.16,10.76-12.73Z"/>
      <g>
        <path d="m137.43,66.35c0-10.29-8.11-18.74-13.18-23.4-5.9-5.41-23.36-13.43-30.57-4.85,11.25,1.44,19.7,4.22,24.2,15.96,4.64,16,14.22,18.72,19.54,12.28Z"/>
        <path d="m85.19,35.11c-.35.11-7.24,2.64-7.55,2.83-13.72,8.56-15.96,13.75-18.62,21.48-2.21,6.4-5.87,24.26,1.77,23.4,5.99-.67,9.79-5.15,10.98-9.91,1.44-5.8-1.55-18.17,7.52-27.23,2.45-2.45,7.35-6.63,12.8-7.14,7.19-1.82,13.7-4.55,8.3-5.01,0,0-10.1,0-15.18,1.58Z"/>
      </g>
      <path d="m91.15,38.35c-4.55,1.1-8.85,3.25-12.09,6.68-2.32,2.46-4,5.42-5.13,8.59-.38,1.06-.69,2.14-.98,3.23-.7,2.62-.99,5.26-1.13,7.96-.16,3.08-.23,6.19-1.04,9.18-.61,2.28-1.67,4.57-3.52,6.1-1.62,1.34-3.74,2.11-5.84,2.16-3.18.07-6.04-1.51-8.35-3.6-.67-.61-1.68.39-1,1,2.16,1.96,4.73,3.51,7.66,3.91,2.19.3,4.4-.08,6.37-1.06,4.57-2.25,6.21-7.32,6.76-12.07.39-3.35.26-6.76.77-10.1.24-1.53.64-3.04,1.08-4.53.86-2.94,2.14-5.77,4.02-8.21,3.17-4.13,7.79-6.67,12.8-7.88.89-.21.51-1.58-.38-1.37h0Z"/>
      <path d="m92.03,39.72c4.95-1.36,10.24.5,14.52,2.99,2.18,1.27,4.23,2.79,6.05,4.55,1.32,1.27,2.57,2.67,3.43,4.3,1.99,3.77,3.4,7.84,5.29,11.66.73,1.49,1.51,3.01,2.65,4.23,1.06,1.12,2.36,2.03,3.78,2.62,1.85.77,3.94.9,5.82.16,2.77-1.08,4.71-3.49,6.16-5.98.46-.79-.76-1.5-1.22-.72-1.25,2.15-2.92,4.38-5.32,5.33-1.58.63-3.29.55-4.86-.08-1.31-.53-2.49-1.4-3.44-2.44-1.1-1.2-1.83-2.78-2.54-4.24-1.02-2.09-1.93-4.23-2.86-6.37-.73-1.68-1.42-3.4-2.29-5.01s-2.16-3.07-3.48-4.36c-1.76-1.72-3.75-3.23-5.84-4.51-4.72-2.9-10.67-5.03-16.22-3.5-.88.24-.51,1.61.38,1.37h0Z"/>
      <g>
        <path d="m102.38,77.41c.42,2.21.84,4.43,1.26,6.64.08.4.55.62.92.52.42-.11.6-.52.52-.92-.42-2.21-.84-4.43-1.26-6.64-.08-.4-.55-.62-.92-.52-.42.11-.6.52-.52.92h0Z"/>
        <path d="m96.66,91.85c1.69,2.6,4.75,4.26,7.88,4.05s5.88-2.07,7.25-4.81c.43-.86-.86-1.62-1.3-.76-1.13,2.25-3.42,3.89-5.96,4.06s-5.17-1.13-6.59-3.31c-.52-.81-1.82-.06-1.3.76h0Z"/>
        <path d="m94.4,78.92c.05.59.06,1.18.01,1.77,0,.05,0,.1-.01.15,0,.02-.03.25,0,.08-.01.1-.03.2-.05.29-.04.21-.09.41-.15.61-.03.09-.06.17-.09.26-.06.16.06-.11,0-.01-.02.04-.04.08-.05.11-.08.15-.17.29-.26.44-.06.09.02-.06.04-.05,0,0-.06.07-.07.08-.04.05-.08.09-.13.13-.05.05-.1.09-.15.13-.11.1.15-.1.03-.02-.03.02-.06.04-.09.06-.05.03-.1.06-.16.09-.02.01-.04.02-.06.03-.12.07.18-.06.05-.02-.12.04-.23.08-.35.1-.03,0-.06,0-.08.02-.11.03.1-.02.1-.01,0,0-.15.01-.17.01-.12,0-.24,0-.37-.01.22,0-.02,0-.09-.03-.03,0-.06-.02-.09-.03-.16-.03.14.08,0,0-.07-.04-.14-.08-.21-.12-.03-.02-.05-.04-.08-.06.16.1.03.03,0,0-.06-.06-.13-.12-.19-.18-.04-.04-.07-.08-.1-.12.02.02.09.13.02.02-.12-.18-.23-.37-.32-.57.01.03.05.14,0,0-.02-.07-.05-.14-.08-.21-.04-.12-.07-.24-.1-.36-.03-.14-.06-.28-.08-.42-.02-.15,0-.05,0-.02-.01-.1-.02-.2-.03-.3-.04-.65.01-1.25.13-1.84.08-.4-.11-.81-.52-.92-.37-.1-.84.12-.92.52-.25,1.25-.31,2.6.12,3.83.34.97.97,1.86,1.98,2.2,1.47.51,3.01-.4,3.61-1.75.55-1.21.6-2.58.5-3.88-.03-.4-.32-.75-.75-.75-.38,0-.78.34-.75.75h0Z"/>
        <path d="m116.13,75.67c0,.31,0,.61-.02.92,0,.14-.02.28-.03.41,0,.05-.01.11-.02.16-.02.18.01-.05-.01.1-.07.44-.18.85-.33,1.27-.06.17.05-.1,0,0-.02.04-.04.08-.06.12-.04.08-.08.15-.12.23-.04.06-.08.13-.12.19-.02.03-.05.06-.07.1-.09.13.11-.12,0,0-.1.11-.19.21-.3.3-.14.13.11-.06-.02.02-.06.04-.12.08-.18.11-.02.01-.16.06-.17.08.02-.05.17-.06.08-.03-.03.01-.07.03-.1.04-.05.02-.31.11-.34.08,0,0,.22-.02.08-.01-.03,0-.06,0-.09,0-.05,0-.1,0-.15,0s-.1,0-.15,0c-.02,0-.08-.02-.1-.01.04-.02.21.04.07,0-.08-.02-.16-.04-.24-.06-.03,0-.06-.02-.09-.03.18.06.06.03.02,0-.06-.04-.13-.08-.19-.12-.14-.08.11.11-.01,0-.04-.04-.08-.07-.12-.11-.06-.06-.12-.13-.18-.2.11.14-.03-.05-.06-.1-.05-.08-.09-.15-.13-.23-.03-.05-.05-.11-.08-.17.05.12,0,0-.02-.06-.08-.23-.14-.48-.19-.72,0-.05-.02-.09-.02-.14.02.15,0-.1-.01-.13-.01-.14-.02-.28-.02-.43,0-.69.08-1.22.26-1.88.25-.93-1.2-1.33-1.45-.4-.54,2.02-.57,5.23,1.79,6.14,1.45.56,2.99-.29,3.67-1.59.61-1.17.73-2.54.72-3.84,0-.41-.34-.75-.75-.75s-.75.34-.75.75h0Z"/>
      </g>
      <path d="m90.13,38.41c-5.7,3.31-9.94,8.43-11.94,14.72-1.68,5.27-1.79,10.93-1,16.36.35,2.39.88,4.75,1.63,7.05.3.91,1.75.52,1.45-.4-1.4-4.26-2.09-8.79-2.05-13.28.05-5.59,1.4-11.21,4.6-15.86,2.09-3.03,4.9-5.46,8.07-7.3.83-.48.08-1.78-.76-1.29h0Z"/>
      <path d="m90.69,38.16c-2.52,4.62-4.26,9.69-5.14,14.88-.83,4.91-.98,10.05.24,14.91.61,2.44,1.6,4.81,3.06,6.87.55.78,1.85.03,1.29-.76-2.57-3.62-3.56-8.11-3.72-12.49-.18-5.01.67-10.04,2.2-14.8.87-2.72,1.98-5.35,3.35-7.85.46-.85-.83-1.6-1.29-.76h0Z"/>
      <path d="m91.33,38.54c.96,8.95,1.63,18.15,5.33,26.48,1.06,2.38,2.37,4.64,3.95,6.72.58.76,1.88.01,1.29-.76-5.49-7.22-7.26-16.26-8.29-25.07-.29-2.45-.53-4.91-.79-7.37-.1-.95-1.6-.96-1.5,0h0Z"/>
      <path d="m92.68,39.76c5.88,1.39,10.78,5.2,14.51,9.86,3.19,3.99,5.74,8.75,6.97,13.72.25,1,.43,1.94.49,2.92.03.42.03.84,0,1.26-.02.33-.03.45-.16.88-.28.93,1.17,1.32,1.45.4.47-1.58.2-3.39-.13-4.97-.49-2.38-1.35-4.68-2.37-6.88-2.47-5.36-6.12-10.34-10.8-13.97-2.83-2.19-6.06-3.85-9.56-4.68-.94-.22-1.34,1.22-.4,1.45h0Z"/>
      <path d="m91.31,39.57c3.65,3.04,6.57,6.97,9.09,10.96s4.92,8.64,6.23,13.39c.55,2.01.95,4.13.68,6.22-.12.95,1.38.95,1.5,0,.24-1.92-.06-3.9-.52-5.77-.56-2.31-1.41-4.54-2.37-6.71-2.15-4.84-4.95-9.41-8.24-13.56-1.6-2.01-3.33-3.94-5.31-5.59-.74-.61-1.8.44-1.06,1.06h0Z"/>
      <path class="cls-13" d="m7.89,237.63c-2.69-36.14,5.19-63.61,26.91-87.54,3.22-3.54,7.99-7.77,12.52-6.22,3.72,1.28,5.61,5.35,6.79,9.1,8.41,26.6.43,57.67-19.76,76.91-6.73,6.41-15.92,11.8-24.92,9.5"/>
      <path class="cls-1" d="m99.87,128.91c1.39-1.13,3.99-5.86,5.46-6.9,7.52-5.34,14.63-8.63,23.47-11.27,1.87-.56,3.85.09,5.36,1.33,1.12.91,1.46,2.45,1.7,3.88.98,5.75,1.48,11.58,1.5,17.4.01,4.55-.35,9.36-2.94,13.1-2.91,4.2-8.03,6.22-12.92,7.67-4.35,1.29-8.82,2.34-13.36,2.33s-9.17-1.13-12.81-3.84-6.14-7.12-5.91-11.65c.18-3.52,1.96-6.81,4.31-9.44s2.5-5.13,5.37-7.18"/>
      <path class="cls-1" d="m74.21,179.27c-17.26,43.23-20.45,69.87-6.28,88.76-.97,7.85-4.3,16.05-5.45,25.38-.26,2.12-1.15,4.71.7,5.77s5.57-11.08,7.74-14.6c1.48,7.41,1.46,17.38,3.44,17.76,3.14.6,3.86-9.64,5.77-15.44,1.31,4.42,2.98,15.46,5.75,17.44,2.66-.24,3.57-11.01,4.8-16.73,1.15,4.1,3.5,17.28,6.49,17.28,4.25,0,2.05-10.09,3.18-18.1,3.05,4.12,4.93,16.31,8.38,15.94,3.1-1.46.94-10.92,1.19-16.37,3.08,4.89,5.79,13.12,9.43,13.41,3.79-1.56-.31-13.38-.8-21.34,4.49,3.9,4.49,11.87,10.66,13.3,2.19-4.54-5.45-20.08-10.44-31.21,6.16-10.63,1.57-21.78-2.17-33.48-4.39-13.76-10.96-26.23-14.79-38.24l-27.61-9.56Z"/>
      <g>
        <path class="cls-1" d="m67.07,105.48c-3.95-.34-7.87,1.77-10.29,4.91s-3.47,7.17-3.56,11.13c-.02.84,0,1.71-.39,2.46-.42.83-1.24,1.36-2,1.89-6.61,4.64-10.87,13.04-9.21,20.94.91,4.33,3.44,8.15,6.17,11.64,5.32,6.81,11.58,12.84,17.95,18.68,13.56,12.42,27.76,24.12,42.54,35.05,1.81,1.34,3.69,2.69,5.87,3.26,3.87,1,8.06-.76,10.83-3.63,2.78-2.87,4.36-6.68,5.51-10.5.57-1.88,1.07-3.84,2.21-5.44,2.75-3.87,8.16-4.51,12.19-7.01,5.23-3.24,7.9-9.74,7.54-15.89-.36-6.14-3.38-11.9-7.39-16.57s-8.99-8.39-13.96-12.03c-16.44-12.03-33.23-23.59-50.34-34.64-4.19-2.7-11.33-8.09-13.68-4.29"/>
        <path d="m67.07,104.73c-5.25-.4-10.03,3.03-12.39,7.55-1.25,2.41-1.91,5.08-2.14,7.78-.11,1.24.2,2.92-.63,3.96-.76.96-2.02,1.57-2.96,2.35-3.77,3.09-6.63,7.42-7.83,12.16-.59,2.35-.77,4.8-.44,7.2.37,2.69,1.37,5.25,2.7,7.6s3.11,4.73,4.89,6.92c1.89,2.34,3.89,4.59,5.97,6.77,4.17,4.39,8.61,8.5,13.09,12.56,9.13,8.27,18.55,16.22,28.24,23.84,2.39,1.88,4.79,3.73,7.21,5.57s4.76,3.73,7.28,5.36c2.28,1.48,4.82,2.38,7.56,2.05,2.56-.31,4.93-1.46,6.89-3.11s3.58-4.05,4.72-6.46,1.85-5.14,2.74-7.74c.43-1.24.99-2.45,1.87-3.44.75-.84,1.65-1.5,2.63-2.05,2.04-1.16,4.29-1.88,6.42-2.84s4.13-2.26,5.71-4.04,2.76-3.88,3.54-6.12c1.67-4.84,1.29-10.1-.53-14.84-4.18-10.93-14.28-17.77-23.37-24.37-10.17-7.39-20.48-14.59-30.91-21.6-5.23-3.52-10.5-6.99-15.79-10.41-1.81-1.17-3.58-2.41-5.44-3.51-1.7-1.01-3.57-2.05-5.55-2.37-1.64-.26-3.19.14-4.12,1.6-.52.81.77,1.57,1.29.76.84-1.3,2.49-.99,3.75-.58,1.93.64,3.7,1.75,5.4,2.83,4.48,2.86,8.91,5.8,13.35,8.73,10.15,6.71,20.17,13.61,30.08,20.67,4.83,3.45,9.68,6.89,14.4,10.49,4.39,3.35,8.68,7.04,11.88,11.58,2.95,4.18,5.09,9.13,5.14,14.31.04,4.56-1.59,9.25-4.87,12.48s-8.08,3.89-11.89,6.38c-2.01,1.31-3.38,3.1-4.23,5.34-.96,2.51-1.52,5.14-2.63,7.6-2.04,4.52-5.77,8.92-11.07,9.27-2.73.18-5.05-1.04-7.22-2.58-2.39-1.69-4.71-3.49-7.04-5.26-9.5-7.23-18.75-14.8-27.73-22.66-4.46-3.91-8.88-7.87-13.18-11.95s-8.26-8.12-11.95-12.59c-3.38-4.1-6.82-8.65-7.71-14.03-.76-4.62.63-9.39,3.15-13.26,1.3-2.01,2.93-3.8,4.8-5.3.92-.74,2.04-1.32,2.82-2.23.88-1.03.95-2.26.99-3.56.14-5.11,1.95-10.54,6.41-13.47,1.99-1.31,4.3-2,6.69-1.82.96.07.96-1.43,0-1.5h0Z"/>
      </g>
      <path d="m130.41,100.35c6.79-1.8,11.67,5.76,13.41,11.26.5,1.6.85,3.25.86,4.93,0,.31.23.66.55.72,5.04.93,7.86,6.55,9.26,10.96,2.15,6.76,2.16,14.23.38,21.07-1.14,4.4-3.08,8.55-5.75,12.23-.57.78.73,1.53,1.29.76,4.81-6.61,7.22-14.78,7.22-22.93,0-6.47-1.37-13.65-5.36-18.91-1.65-2.18-3.89-4.1-6.65-4.62l.55.72c-.02-3.45-1.23-6.93-2.89-9.92s-4.19-6.03-7.54-7.39c-1.83-.74-3.83-.83-5.74-.33-.93.25-.54,1.69.4,1.45h0Z"/>
      <path d="m71.91,183.13c-2.77,7.18-5.28,14.47-7.49,21.85s-4.21,14.9-5.2,22.56c-1.07,8.24-.86,16.75,1.23,24.83,1.03,3.99,2.55,7.87,4.56,11.47.52.93,1.11,1.83,1.59,2.78.23.45.43.9.58,1.38.03.1.06.2.09.31.02.06.09.49.06.23-.02-.18,0-.04,0,0,0,.08,0,.16-.01.23-.01.26.02-.07-.03.2-.05.32-.11.64-.17.96-1.05,5.33-2.49,10.6-3.72,15.89-.69,2.98-1.37,5.96-1.94,8.97-.23,1.21-.75,2.68-.12,3.84s2.14,1.75,3.33,1.11c.71-.38,1.04-1.04,1.33-1.76.37-.91.75-1.81,1.13-2.72.79-1.86,1.6-3.72,2.41-5.58,1.49-3.42,3-6.84,4.31-10.33.9-2.4,1.91-5.01,1.98-7.6.04-1.54-.65-3.36-2.49-3.27-1.6.08-2.11,2.09-2.34,3.36-.44,2.46-.44,5-.4,7.49.1,6.46.7,12.91,1.13,19.36.09,1.38.02,2.89,1.21,3.84,1.02.83,2.49.74,3.38-.25.8-.89,1.02-2.27,1.35-3.39.35-1.2.7-2.4,1.04-3.6,1.54-5.5,3.02-11.05,3.95-16.69.35-2.09.7-4.28.55-6.4-.08-1.21-.42-2.99-1.94-3.09-1.3-.09-1.78,1.29-1.98,2.34-.36,1.9-.33,3.89-.26,5.81.19,5.54.92,11.09,1.92,16.55.44,2.43.94,4.85,1.62,7.23.25.89.48,1.91.93,2.73.6,1.08,1.98,1.58,3.15,1.26,1.36-.38,1.85-1.59,2.11-2.85.2-.97.38-1.93.57-2.9.48-2.53.93-5.06,1.33-7.6.84-5.3,1.66-10.73,1.55-16.11-.04-1.67-.09-3.58-.9-5.09-.59-1.11-2.04-1.81-3.12-.88s-1.02,2.67-.97,3.92c.09,2.31.54,4.62,1,6.88,1.16,5.61,2.74,11.12,4.19,16.66.31,1.18.61,2.37.9,3.56s.4,2.46,1.01,3.5,1.78,1.76,3.03,1.49,2.12-1.42,2.41-2.62c.25-1.05.24-2.2.33-3.27.11-1.22.22-2.43.32-3.65.25-2.81.48-5.62.66-8.43s.31-5.66.3-8.49c0-2.27-.07-4.59-.52-6.82-.25-1.27-.69-2.96-1.96-3.58s-2.54.29-2.82,1.6c-.37,1.78.07,3.75.45,5.5.58,2.63,1.38,5.22,2.24,7.78,1.8,5.37,3.87,10.64,6.07,15.85.56,1.32,1.06,2.82,2.3,3.66.99.68,2.26.48,3.04-.41.85-.96,1.01-2.2,1-3.43,0-1.01-.02-2.02-.05-3.03-.14-5.51-.44-11.02-.97-16.51-.24-2.51-.53-5.03-.99-7.51-.28-1.5-.55-3.26-1.39-4.56-.65-1-2-1.29-2.6-.06-.63,1.29-.22,3.12,0,4.46.91,5.17,2.76,10.25,4.73,15.09,1.04,2.56,2.17,5.09,3.47,7.52.54,1.02,1.11,2.02,1.75,2.98s1.28,1.97,2.32,2.49c1.14.57,2.69.62,3.58-.43.79-.93.62-2.34.6-3.48-.05-2.57-.31-5.13-.64-7.67-.74-5.71-1.81-11.42-3.36-16.97-.56-2-1.17-4.02-2.08-5.89-.45-.92-1.27-2.5-2.54-2.21-1.41.32-1.03,2.25-.79,3.24.52,2.14,1.44,4.2,2.36,6.2,2.37,5.17,5.19,10.26,8.6,14.82.68.91,1.38,1.8,2.16,2.63.94,1,2.5,2.62,4.04,2.1,1.44-.48,1.49-2.34,1.36-3.58-.23-2.2-.92-4.36-1.65-6.44-.96-2.75-2.09-5.44-3.26-8.1-2.12-4.78-4.43-9.5-6.93-14.09l.08.58c.04-.29.06-.23.21-.54.19-.37.4-.74.59-1.11.55-1.03,1.05-2.09,1.46-3.18.52-1.38.86-2.82,1-4.28.16-1.71-.04-3.47-.21-5.18-.75-7.22-2.71-14.25-5.16-21.07-1.38-3.87-2.93-7.67-4.53-11.45-.16-.38-.71-.45-1.03-.27-.39.22-.43.66-.27,1.03,3.5,8.27,6.75,16.73,8.52,25.55.44,2.21.79,4.43,1.01,6.67.2,2.06.37,4.13-.06,6.16-.33,1.57-.91,3.07-1.63,4.5-.43.85-1.06,1.71-1.32,2.63-.16.54.2.99.44,1.45s.51.95.76,1.42c.59,1.13,1.18,2.27,1.75,3.41,1.3,2.6,2.56,5.22,3.74,7.88s2.28,5.24,3.24,7.93c.72,2.02,1.49,4.25,1.74,6.32.04.37.07.74.07,1.11,0,.16-.01.32-.03.47.02-.14-.04.21-.07.3-.01.06-.04.12-.06.18-.05.13.06-.12-.02.03-.03.05-.05.1-.08.14-.06.09.1-.12-.02.02-.02.02-.16.14-.06.06s-.04.03-.07.03c.11-.02-.09,0-.12,0-.13,0-.26-.06-.38-.11-1.21-.54-2.16-1.78-2.99-2.79-.77-.94-1.48-1.92-2.17-2.92-3.15-4.6-5.9-9.59-8.09-14.72-.42-.98-.81-1.98-1.14-3-.13-.41-.26-.83-.36-1.25-.04-.16-.07-.32-.1-.48-.01-.08-.03-.16-.04-.24,0,.03,0,.01-.01-.12s-.01-.26-.02-.39c0-.06,0-.11,0-.17,0-.12.02.17,0-.01,0-.17-.07.02.03-.08-.11.12-.08.11-.21.15.08-.03-.07,0-.05,0-.2-.02.02.01.02.02-.05.03-.18-.11-.03,0,.17.12-.07-.1.1.08.08.08.15.16.22.24.07.08-.07-.1.04.06.03.05.07.1.1.15.09.13.17.27.25.41.18.32.34.66.49,1,.35.79.68,1.73.97,2.6.79,2.4,1.41,4.85,1.96,7.31,1.24,5.47,2.2,11.05,2.61,16.64.08,1.15.14,2.29.14,3.44,0,.88.15,2.16-1.07,2.16s-1.83-.96-2.41-1.81c-.62-.91-1.18-1.86-1.71-2.82-2.63-4.79-4.65-9.96-6.32-15.15-.74-2.3-1.42-4.63-1.88-7-.17-.87-.3-1.63-.35-2.5-.02-.33-.01-.65,0-.97,0-.06,0-.11.02-.17-.02.2,0,.01,0-.04.03-.11.05-.22.09-.33-.03.1-.05,0,.06-.09-.08.07-.11.08-.02.04.12-.07-.16.06-.03.02-.04.01-.25.04-.23,0,.02-.04.14.17.03.02-.07-.1,0,0,.03.04.02.02.13.15.05.05s.04.06.06.09c.06.1.12.19.17.29.03.06.06.12.09.18.08.18.03.06.06.14.67,1.69.95,3.56,1.22,5.35.81,5.35,1.15,10.78,1.4,16.18.12,2.41.2,4.83.24,7.24.02.97.15,2.05-.12,2.99-.22.77-.84,1.6-1.62,1.04-1.02-.72-1.42-2.26-1.89-3.38s-.95-2.29-1.41-3.44c-1.09-2.71-2.14-5.43-3.13-8.17s-1.9-5.42-2.68-8.18c-.59-2.08-1.18-4.23-1.32-6.38-.03-.38-.03-.77,0-1.15.01-.2.03-.28.04-.33.03-.14.06-.28.1-.42.02-.08.05-.13,0-.02.02-.05.05-.1.08-.15.02-.05.06-.09.09-.14-.13.18-.02.02.03-.01-.16.11.18-.13-.02,0,.04-.02.1-.04.14-.04.17-.01-.14.03.03,0,.05,0,.12,0,.16,0-.14-.02-.09,0,0,0,.05,0,.1.03.15.05-.15-.05-.05-.03.03.03.13.09,0,0,.02,0,.04.04.09.08.13.12.04.04.08.09.12.13-.02-.02-.03-.06.05.07.19.3.29.5.37.72.13.35.23.71.32,1.07.49,2.07.54,4.25.56,6.37.03,2.76-.09,5.52-.25,8.27-.3,5.04-.8,10.06-1.22,15.09-.07.89-.52,2.17-1.6,2.19-1.17.02-1.5-1.48-1.69-2.35-.49-2.29-1.1-4.57-1.7-6.83-1.44-5.45-2.99-10.9-4.04-16.44-.38-1.99-.75-4.04-.67-6.07.02-.41.04-.63.1-.91.03-.14.07-.27.11-.41.01-.05.04-.1.06-.16-.07.19,0,0,.03-.05.03-.05.06-.1.09-.14.1-.16-.07.09,0,0,.02-.03.07-.08.11-.1-.04.03-.11.05.02,0,.16-.06-.12.06-.01,0,.04-.02.1-.04.14-.04-.28,0,.33.01.03,0,.05,0,.11.02.15.04.15.07-.11-.06,0,0,.05.02.1.05.13.08.13.1-.1-.1.03.03.08.08.22.26.14.15.08.12.15.24.21.36.11.21.04.06.12.29.05.16.1.31.15.47.1.38.17.77.23,1.15.28,2.01.18,4.27.05,6.36-.34,5.43-1.19,10.84-2.14,16.19-.37,2.09-.77,4.17-1.19,6.25-.19.94-.75,1.97-1.89,1.5-.77-.32-.92-1.41-1.14-2.13-1.49-4.86-2.28-9.97-2.92-15-.34-2.68-.6-5.37-.74-8.06-.1-2-.18-4.05.09-6.04.02-.11.1-.59.16-.85.03-.13.07-.26.12-.4.02-.06.04-.12.06-.17-.01.03-.05.08.02-.04.03-.05.18-.3.11-.19s.01-.01.04-.03c.09-.08-.03,0-.02.01,0,0,.05-.01-.05.01.13-.03,0,0-.07,0,.03,0,.11-.02.13,0,.09.07-.11,0,0,0,.09,0,.12-.02,0-.02.03,0,.11.05.12.07-.17-.22.18.24.02,0,.07.09.12.19.17.29-.09-.17.05.16.08.24.19.68.2,1.29.19,2.09-.03,2.26-.42,4.52-.84,6.73-.53,2.81-1.18,5.59-1.88,8.36s-1.41,5.38-2.18,8.05c-.31,1.08-.62,2.15-.94,3.23-.23.77-.59,2.35-1.74,1.88s-.88-2.27-.94-3.23c-.1-1.56-.22-3.11-.33-4.67-.23-3.27-.47-6.54-.62-9.81-.14-2.88-.24-5.78-.1-8.66.05-1.04.13-2.09.33-3.12.08-.4.17-.79.31-1.18.08-.23.16-.43.36-.72-.1.15.08-.08.14-.14-.1.09.14-.07.04-.02.03-.01.2-.05.07-.02s.04,0,.08,0c.1.02-.12-.03.06.01.08.02.17.04.25.07.09.03.23.14.33.33.06.11.04.08.05.08.03.07.05.15.07.23.05.2.07.33.08.44.08.96-.11,1.92-.33,2.84-.32,1.37-.77,2.71-1.24,4.03-1.22,3.38-2.66,6.68-4.09,9.97-.78,1.79-1.56,3.58-2.33,5.38-.39.91-.77,1.81-1.15,2.72-.18.43-.36.87-.54,1.3-.13.33-.26.75-.57.96-.36.25-.82.13-1.13-.13-.42-.34-.43-.79-.35-1.28.22-1.3.48-2.6.75-3.9.63-3.05,1.33-6.08,2.05-9.1s1.4-5.83,2.09-8.74c.45-1.89.93-3.78,1.25-5.7.12-.71.14-1.2-.08-1.91-.6-1.96-1.88-3.65-2.84-5.45-1.91-3.6-3.28-7.45-4.21-11.42-1.87-8-1.89-16.4-.69-24.49,1.11-7.48,3.12-14.84,5.32-22.06s4.51-13.85,7.13-20.64c.35-.9-1.1-1.29-1.45-.4h0Z"/>
      <path d="m103.28,124.88c2.53-2.56,5.48-4.66,8.55-6.5,3.3-1.98,6.79-3.69,10.39-5.07,1.85-.71,3.74-1.34,5.66-1.84.93-.25.54-1.69-.4-1.45-3.61.95-7.12,2.32-10.5,3.91s-6.96,3.62-10.11,5.93c-1.64,1.21-3.22,2.51-4.65,3.96-.68.69.38,1.75,1.06,1.06h0Z"/>
      <ellipse cx="59.02" cy="119.59" rx="17.01" ry="15.63" transform="translate(-25.57 16.49) rotate(-13.1)"/>
      <ellipse cx="68.77" cy="136.67" rx="13.03" ry="12.89" transform="translate(-29.22 19.17) rotate(-13.12)"/>
      <g>
        <path class="cls-2" d="m95.1,123.29c.56-2.09,1.59-4.06,3-5.71.83-.97,1.93-1.89,3.21-1.87,1.35.02,2.56,1.29,2.52,2.64"/>
        <path d="m95.82,123.49c.59-2.16,1.68-4.29,3.28-5.89.64-.64,1.54-1.31,2.49-1.1.85.18,1.49,1,1.49,1.86,0,.96,1.5.97,1.5,0,0-1.29-.78-2.52-1.95-3.07-1.29-.61-2.71-.25-3.81.58s-2.02,2.05-2.75,3.25-1.32,2.58-1.69,3.97c-.25.93,1.19,1.33,1.45.4h0Z"/>
      </g>
      <path class="cls-2" d="m148.84,141.89c-1.18.18-2.14,1.14-2.57,2.25s-1.21,2.48-.96,3.65c.66,3.14,3.57,6.67,6.43,8.12-.24,3.02-.09,3.11,2.46,4.74,2.09,3.99,6.36,15.2,7.02,15.25.56.04,7.43-1.64,10.65-4.14,1.68-1.3,6.16-5.77,6.35-7.89.31-3.56-6.31-11.76-6.32-12.91,0-.91,1.08-2.33,1.4-3.18,2-5.43-1-9.75-6.02-12.62s-12.03-1.57-15.69,2.9"/>
      <path d="m152.11,155.27c-1.43-.84-2.71-1.87-3.77-3.15s-1.84-2.88-2.32-4.52c-.27-.93-1.71-.53-1.45.4,1.06,3.68,3.48,6.64,6.77,8.57.83.49,1.59-.81.76-1.29h0Z"/>
      <g>
        <path class="cls-4" d="m115.59,135.66s.73-15.09-.5-20.12c-1.64-6.67,13.15-10.33,19.17-9.92,5.25.35,18.94.1,17.33,9.92-1.11,6.73.5,20.12.5,20.12,0,8.12-6.58,14.71-14.71,14.71h-7.09c-8.12,0-14.71-6.58-14.71-14.71Z"/>
        <path class="cls-7" d="m116.15,124.35c-1.79-1.82-3.86-3.59-6.38-4s-3.87.82-4.49,2.39c-.51,1.3-.43,2.97-.28,5.24.2,2.96,2.24,5.54,4.11,6.72,1.72,1.09,4.81,2.12,6.48.96.66-.46,2.08-1.85,2.79-1.47.49.26.07,1.67.1,2.22.08,1.24-.55,1.94-1.47,2.77s-3.53.93-4.77.89c-3.39-.11-5.11-1.2-7.28-3.01s-2.14-3.73-3.02-6.42c-.9-2.73-.95-6.89-.04-9.62s3.53-4.5,6.36-5.04c3.18-.6,4.81.96,7.32,3,.79.64,2.82,3.6,3.2,4.54s-.24,2.16-1.04,2.78"/>
        <path d="m117.44,119.45c-2.18-2.84-5.34-4.62-8.99-4.17-3.04.38-5.53,1.92-7.01,4.67-1.95,3.61-1.77,8.23-.54,12.05,1,3.12,2.88,6.48,6.06,7.79,1.72.71,3.63,1.04,5.49,1.08s4.04-.24,5.62-1.43c.79-.6.01-1.96-.79-1.35-2.36,1.79-6.02,1.39-8.69.61-1.24-.36-2.29-.92-3.19-1.85-1.08-1.11-1.88-2.49-2.48-3.9-2.24-5.33-2.19-14.19,4.62-15.9,3.34-.84,6.49.51,8.56,3.2.26.34.67.51,1.07.28.33-.19.54-.74.28-1.07h0Z"/>
        <path d="m116.98,125.18c-1.37-2.66-3.71-5.14-6.81-5.58-2.26-.32-4.23.67-5.1,2.81s-.68,4.88-.07,7.14,1.81,4.74,3.93,5.96c1.26.72,2.85.91,4.28.93s3.34-.15,4.36-1.35c.65-.76-.45-1.88-1.11-1.11-.71.83-2.07.89-3.09.89-1.08,0-2.29-.1-3.3-.54-1.73-.75-2.76-2.72-3.32-4.42-.9-2.69-1.64-8.86,2.62-8.82,2.87.03,5.04,2.52,6.25,4.87.46.9,1.81.11,1.35-.79h0Z"/>
        <ellipse class="cls-2" cx="132.55" cy="112.93" rx="10.63" ry="2.29"/>
        <g>
          <path class="cls-2" d="m122.45,114.82c-3.02-.19-4.29-2.89-3.9-5.08.4-2.19,2.43-3.96,4.65-4.07-.34-1.14.56-2.31,1.6-2.9s2.25-.84,3.25-1.48c.44-.28.85-.66,1.02-1.16.32-.94-.31-1.91-.9-2.7,1.29-.03,2.59-.06,3.88-.04,2.39.03,5.02.31,6.69,2.02.91.94.91,2.44,1.39,3.66,6.3.38,10.18,6.16,5.63,10.17"/>
          <path d="m122.45,114.07c-1.9-.15-3.23-1.68-3.22-3.58.02-2.12,1.89-3.93,3.97-4.07.49-.03.84-.45.72-.95-.49-2.06,3.01-2.69,4.24-3.37.84-.47,1.58-1.17,1.71-2.17.15-1.08-.44-2.04-1.06-2.88l-.65,1.13c2.48-.06,5.15-.3,7.57.38.97.27,2.1.77,2.68,1.64s.62,2.08.99,3.06c.12.33.37.53.72.55,2.36.16,4.92,1.19,6.2,3.29s.55,4.1-1.11,5.59c-.72.65.34,1.7,1.06,1.06,2.11-1.9,2.88-4.76,1.41-7.29s-4.63-3.95-7.57-4.15l.72.55c-.42-1.12-.48-2.39-1.14-3.42s-1.87-1.75-3.04-2.16c-2.67-.95-5.73-.67-8.51-.6-.52.01-1,.65-.65,1.13.55.74,1.34,1.78.47,2.59-.73.68-1.83.94-2.73,1.32-1.66.71-3.26,2.18-2.79,4.15l.72-.95c-2.89.19-5.44,2.6-5.47,5.57-.03,2.76,2.01,4.86,4.72,5.08.96.08.96-1.42,0-1.5h0Z"/>
        </g>
        <path d="m117.99,111.98c-1.24,1.62.87,2.73,2.15,3.11,2.48.72,5.18.83,7.74.9,3.3.09,6.62-.04,9.9-.39,2.72-.29,5.55-.65,8.12-1.62,1.61-.61,4.03-2.05,2.63-4.07-.55-.79-1.85-.04-1.29.76.07.1.24.45.15.25.02.06.04.12.05.18.02.14-.05-.19,0,.03s.01-.1,0,.02c0,.05-.03.12-.05.17.13-.28-.17.25-.1.15.05-.07-.18.18-.25.25-.17.16.08-.04-.09.07-.08.05-.15.11-.23.16-.17.11-.34.2-.52.29-.2.1-.43.2-.49.22-2.28.91-4.79,1.28-7.21,1.57-3.04.36-6.1.51-9.16.5-2.57-.01-5.22-.11-7.65-.59-.51-.1-1.01-.22-1.5-.38-.1-.03-.21-.07-.31-.11-.19-.07.08.05-.12-.05-.15-.07-.3-.16-.44-.24-.21-.12.08.07-.06-.04-.05-.04-.1-.09-.14-.14.02.02.12.06,0-.02-.09-.06.05.16,0,0s.05.22,0,.01c0-.02.04.2,0,0-.02-.11-.09.14.02-.03.04-.06.08-.12.12-.18.59-.77-.72-1.51-1.29-.76h0Z"/>
      </g>
      <path class="cls-2" d="m68.23,157.35c4.79-10.54,6.1-15.12,12.02-23.86,2.35-3.47,12.77-8.51,16.43-10.57,1.71-.97,4.13-2.99,6.08-3.25s3.74-.06,4.75,1.62.6,6.02-1.33,6.39c2.92.88,4.21,3.73,2.63,6.34,1.65-.12,2.74.28,3.39,1.81s.43,4.23-.81,5.34c2.72.98,3.44,3.61,1.8,5.99s-4.84,3.79-6.78,5.93c-3.82,4.22-12.09,13.65-17.01,17.58-4.37,3.49-2.76,4.78-8.33,5.32-3.69.36-7.51-.98-10.18-3.56s-4.13-6.35-3.9-10.06"/>
      <path d="m93.56,135.55c4.52-2.55,9.04-5.1,13.56-7.65.84-.47.09-1.77-.76-1.29-4.52,2.55-9.04,5.1-13.56,7.65-.84.47-.09,1.77.76,1.29h0Z"/>
      <path d="m96.92,142.8c4.22-2.7,8.45-5.4,12.67-8.1.81-.52.06-1.82-.76-1.29-4.22,2.7-8.45,5.4-12.67,8.1-.81.52-.06,1.82.76,1.29h0Z"/>
      <path d="m102.63,147.74c3.17-1.95,6.17-4.15,8.98-6.59.73-.63-.33-1.69-1.06-1.06-2.72,2.35-5.62,4.47-8.68,6.35-.82.5-.07,1.8.76,1.29h0Z"/>
      <path d="m69.49,156.89c1.78-4.23,3.71-8.39,5.74-12.51,1.54-3.13,3.11-6.28,4.9-9.28.25-.41.49-.82.77-1.22.05-.07.09-.13.14-.2.11-.16-.07.08.04-.05.15-.17.31-.33.48-.48,1.39-1.3,2.95-2.42,4.51-3.51,3.74-2.6,7.85-4.61,11.85-6.76,1.27-.68,2.52-1.46,3.83-2.05,1.18-.54,2.62-.9,3.78-.14,2.38,1.57,1.41,4.77,0,6.62-.29.38.02,1,.45,1.1,1.16.27,2.19.94,2.6,2.11s.06,2.42-.6,3.44c-.39.6.25,1.21.85,1.1.74-.13,1.62-.14,2.21.38.45.4.65,1.05.71,1.66.07.72-.01,1.45-.2,2.15-.08.3-.18.6-.3.82-.07.14-.14.27-.22.39-.1.15,0,.03-.16.19-.48.47-.11,1.26.53,1.28.93.03,1.42,1.02,1.63,1.81.24.89.26,2.04-.3,2.83-.8,1.12-2.06,2.01-3.11,2.87-1.35,1.1-2.71,2.19-3.98,3.38-1.08,1-1.85,2.22-2.75,3.38-.77,1-1.56,1.97-2.39,2.91-1.74,2-3.61,3.87-5.55,5.68-2.77,2.58-5.66,5.03-8.55,7.46-.74.62.33,1.68,1.06,1.06,4.97-4.18,9.99-8.39,14.25-13.32.89-1.03,1.74-2.09,2.57-3.17.43-.57.85-1.14,1.27-1.72.55-.77,1.3-1.39,2.01-2.02,1.35-1.19,2.78-2.29,4.15-3.45,1-.85,2.18-1.77,2.66-3.02.86-2.24-.12-6.09-2.97-6.18l.53,1.28c1.24-1.21,1.52-3.49,1.26-5.11-.15-.96-.59-1.87-1.38-2.46-.98-.73-2.22-.74-3.38-.53l.85,1.1c.9-1.38,1.29-3.14.7-4.73s-1.97-2.64-3.6-3.02l.45,1.1c1.47-1.93,2.21-4.49,1.11-6.78-.49-1.01-1.34-1.86-2.39-2.26-1.22-.47-2.57-.29-3.76.17-1.28.48-2.45,1.21-3.65,1.86s-2.28,1.23-3.43,1.84c-2.31,1.22-4.61,2.46-6.85,3.82-1.78,1.07-3.47,2.25-5.12,3.52-1.11.85-2.31,1.71-3.12,2.87-1.83,2.63-3.23,5.64-4.67,8.5-2.46,4.89-4.78,9.85-6.9,14.9-.16.38.17.82.52.92.43.12.77-.15.92-.52h0Z"/>
      <path d="m152.4,160.31c1.65,3.13,3.17,6.31,4.73,9.48.76,1.55,1.53,3.09,2.33,4.62.35.67.67,1.44,1.31,1.88.77.54,1.71.33,2.56.15,3.41-.71,6.63-2.25,9.37-4.38,1.37-1.07,2.63-2.28,3.72-3.64.54-.66,1.04-1.35,1.5-2.07s1.02-1.56,1.03-2.47c.02-1.12-.73-2.12-1.27-3.04-.59-1.01-1.19-2.02-1.79-3.03-1.25-2.11-2.51-4.22-3.75-6.34-.49-.83-1.78-.08-1.29.76,1.99,3.41,4.04,6.79,6.03,10.2.21.36.46.73.54,1.15.09.44-.09.83-.3,1.21-.39.69-.83,1.35-1.3,1.99-.94,1.27-2.04,2.42-3.23,3.45-2.41,2.08-5.3,3.63-8.38,4.47-.69.19-1.6.53-2.32.46-.62-.07-.94-1.08-1.19-1.57-.72-1.39-1.42-2.79-2.11-4.19-1.62-3.29-3.2-6.6-4.91-9.84-.45-.85-1.74-.1-1.29.76h0Z"/>
      <path class="cls-2" d="m160.23,118.99c-5.18,1.4-8.87,2.99-13.29,5.33-1.33.7-2.81,2.06-2.18,3.42.55,1.18,2.96,2.32,4.25,2.43,3.04.26,5.51.36,8.86-2.42-4.2,3.66-7.15,5.63-10.46,9.75-1.05,1.31-2.69,3.52-2.73,5.21s1.17,2.74,2.84,2.53c-1.41.6-1.05,2.94.29,3.69s3.01.38,4.47-.08c3.37-1.04,4.98-1.38,8.05-3.12-2.53,1.28-3.19,1.93-5.12,4-.84.9-2.28,3.28-1.43,4.17.66.69,3.74-.21,4.64-.51,3.21-1.06,5.16-2.42,8.37-3.48,1.92-.63,3.87-1.29,5.48-2.5s2.27-2.02,2.17-4.04-1.07-3.49-2.61-4.33c1.23-1.77.95-3.69-.17-5.53s-1.76-2.54-3.86-2.89c.69-2.5.51-3.15-.55-4.64s-2.9-2.41-4.48-1.48c1.27-1.08.28-4.72-1.19-5.5"/>
      <path d="m160.69,119.64c1.56.82,2.29,2.88,1.46,4.47-.31.59.2,1.24.85,1.1,2.88-.63,5.23,2.12,4.35,4.87-.13.4.15.8.52.92,2.98.97,4.68,4.79,3.34,7.64-.22.47-.03.92.45,1.1,2.58.99,2.21,4.41,1.48,6.46-.53,1.49-1.24,2.93-1.88,4.39s-1.29,2.93-1.94,4.39-1.29,2.93-1.94,4.39c-.54,1.22-.92,2.79-2.31,3.26-2.64.9-5.8.9-8.31-.38-2.38-1.21-4.19-3.61-4.27-6.33-.03-.96-1.53-.97-1.5,0,.09,2.88,1.71,5.46,4.07,7.06,2.68,1.82,6.17,2.11,9.27,1.41.75-.17,1.55-.37,2.2-.79s1.07-1.08,1.4-1.77c.78-1.67,1.49-3.38,2.24-5.07s1.46-3.3,2.18-4.95,1.52-3.29,2.15-4.98.98-3.5.46-5.23c-.45-1.5-1.44-2.72-2.91-3.29l.45,1.1c1.76-3.75-.28-8.56-4.23-9.84l.52.92c.58-1.81.14-3.87-1.17-5.26s-3.23-1.85-5.02-1.46l.85,1.1c1.19-2.29.31-5.32-2-6.53-.85-.45-1.61.85-.76,1.29h0Z"/>
      <path d="m159.74,134.54c-4.63,2.74-8.9,6.07-12.67,9.9-.68.69.38,1.75,1.06,1.06,3.69-3.75,7.84-6.99,12.37-9.67.83-.49.08-1.79-.76-1.29h0Z"/>
      <g>
        <path d="m160.86,118.27c-2.57.44-5.04,1.38-7.41,2.45-2.5,1.13-4.92,2.47-7.24,3.94-.85.54-1.95,1.07-2.47,1.98-.54.95-.09,1.93.72,2.54,1.89,1.43,4.65,2,6.97,1.92,2.7-.09,5.3-1.12,7.21-3.04.68-.69-.38-1.75-1.06-1.06-2.95,2.98-7.68,3.3-11.34,1.49-.37-.18-.99-.41-1.19-.8-.12-.25.03-.4.22-.58.71-.67,1.7-1.16,2.53-1.67,2.01-1.23,4.08-2.35,6.22-3.33,2.31-1.06,4.73-1.96,7.24-2.39.95-.16.55-1.61-.4-1.45h0Z"/>
        <path d="m157.58,126.99c-3.09,2.71-6.37,5.24-9.18,8.25-1.41,1.51-2.83,3.16-3.86,4.96-.6,1.04-.76,2.41-.45,3.57.43,1.63,1.85,2.35,3.45,1.96l-.92-.92c-.38,1.14-.57,2.44,0,3.55.42.83,1.25,1.37,2.13,1.62,2.39.67,4.79-.59,6.93-1.51,1.88-.82,3.75-1.66,5.7-2.31.91-.3.52-1.75-.4-1.45-1.91.64-3.75,1.45-5.59,2.26-.91.4-1.82.78-2.75,1.12-.58.21-1.22.47-1.82.55-.77.1-1.77.04-2.43-.46-.94-.71-.63-2.03-.31-2.97.19-.56-.4-1.05-.92-.92-1,.25-1.55-.28-1.67-1.27-.16-1.25.4-2.15,1.09-3.14,2.03-2.91,4.59-5.38,7.27-7.69,1.6-1.39,3.23-2.74,4.83-4.14.73-.64-.34-1.69-1.06-1.06h0Z"/>
        <path d="m160.78,144.5c-1.78,1.24-3.54,2.52-5.15,3.97-.82.74-1.6,1.53-2.28,2.4-.42.54-.79.99-.79,1.7,0,1.36.98,2.51,2.38,2.51,1.1,0,2.28-.5,3.3-.85,1.11-.37,2.2-.8,3.28-1.25,2.52-1.06,4.99-2.25,7.52-3.3.38-.16.64-.5.52-.92-.09-.35-.55-.68-.92-.52-3.85,1.6-7.56,3.54-11.54,4.8-.88.28-2.8,1.21-3.02-.27,0-.04,0-.1,0-.19,0-.12,0-.14,0-.13.04-.17-.04.04.01-.05.12-.21.29-.41.44-.6.58-.73,1.25-1.41,1.93-2.04,1.58-1.46,3.32-2.72,5.08-3.95.79-.55.04-1.85-.76-1.29h0Z"/>
      </g>
      <g>
        <path class="cls-13" d="m59.34,150.4c3.16-2.54,10.29-.97,12.55,1.84,2.26,2.81,3.2,6.61,5.89,9.01,2.61,2.33,6.31,2.86,9.54,4.21,8.68,3.61,13.67,13.37,13.86,22.78.19,9.4-3.62,18.45-8.37,26.57-4.74,8.12-10.49,15.65-14.76,24.03-8.14,15.98-11.79,35.99-26.94,45.58-5.02,3.17-10.86,4.83-16.73,5.72-9.3,1.42-19.82.63-26.54-5.95-7.23-7.08-7.79-18.48-6.6-28.53,2.52-21.32,10.86-41.92,23.88-58.99,5.42-7.11,11.66-13.65,16.26-21.32,5.34-8.9,8.91-19.74,17.86-24.99"/>
        <path d="m59.87,150.93c1.75-1.36,4.46-1.22,6.5-.77,2.31.51,4.31,1.51,5.63,3.51,1.6,2.43,2.58,5.26,4.56,7.43s4.99,3.18,7.8,4.1,5.25,2.02,7.45,3.87c2.05,1.73,3.74,3.83,5.07,6.16,2.84,4.99,3.9,10.76,3.44,16.45-1.12,13.88-9.87,25.48-17.1,36.82-3.38,5.3-6.38,10.75-8.86,16.53-2.19,5.1-4.13,10.3-6.34,15.39-4.29,9.89-9.9,19.74-19.85,24.82-5.76,2.94-12.44,4.34-18.86,4.68-5.64.3-11.57-.33-16.59-3.07s-8.36-7.49-9.9-12.96-1.52-11.48-.92-17.18c1.35-12.89,5-25.61,10.45-37.35,2.72-5.86,5.91-11.51,9.53-16.86,3.81-5.62,8.22-10.75,12.47-16.03,2.08-2.59,4.11-5.22,5.96-7.98,1.69-2.52,3.17-5.17,4.58-7.85,2.61-4.96,5.06-10.15,8.73-14.45,1.73-2.03,3.73-3.8,6.03-5.17.83-.49.08-1.79-.76-1.29-4.96,2.94-8.41,7.64-11.23,12.56-3.02,5.27-5.5,10.82-8.92,15.86-3.96,5.84-8.7,11.07-13.05,16.62s-7.86,10.89-11.08,16.79c-6.38,11.68-10.85,24.41-13.14,37.53-1.06,6.09-1.81,12.33-1.28,18.52.5,5.74,2.17,11.49,5.99,15.93,8.16,9.45,22.68,9.04,33.76,6.3,6.19-1.53,11.96-4.3,16.64-8.69,3.95-3.7,6.98-8.27,9.48-13.05,5.35-10.23,8.49-21.47,14.1-31.57,6.84-12.32,16.48-23.3,20.29-37.13,1.68-6.09,2.1-12.57.34-18.69-1.53-5.31-4.57-10.27-9.05-13.58-2.41-1.78-5.11-2.74-7.93-3.66-1.49-.49-2.98-1.01-4.31-1.84s-2.28-1.92-3.09-3.19c-1.49-2.36-2.42-5.38-4.54-7.28-1.77-1.59-4.22-2.36-6.53-2.65s-4.68-.03-6.52,1.4c-.76.59.31,1.65,1.06,1.06h0Z"/>
      </g>
      <g>
        <path class="cls-13" d="m155.64,174.23c.62-2.59,1.9-4.27,4.25-5.51,3.58-1.88,8.22-1.38,11.37-3.91,3.14-2.52,3.73-7.22,6.71-9.92,2.33-2.1,5.77-2.6,8.85-1.99,3.08.61,5.86,2.19,8.53,3.85,6.8,4.24,13.17,9.14,19.33,14.26,7.07,5.87,13.96,12.15,18.91,19.89,4.52,7.07,7.29,15.26,8,23.63,1.21,14.43-4.28,29.73-15.74,38.59s-28.91,9.97-40.37,1.12c-7.31-5.65-11.58-14.47-13.73-23.45-2.24-9.36-2.53-19.4-7.1-27.87-2.33-4.32-5.67-8.02-8.02-12.32s-5.36-11.57-.94-16.68"/>
        <path d="m156.36,174.43c.5-2.02,1.55-3.66,3.36-4.75,2.01-1.2,4.35-1.53,6.6-2.03s4.37-1.19,6.01-2.78,2.47-3.55,3.45-5.47,2.13-3.88,4.14-4.96,4.5-1.26,6.72-.82c2.7.53,5.15,1.83,7.49,3.25s4.77,3.04,7.08,4.66c4.62,3.25,9.05,6.75,13.38,10.36,4.06,3.39,8.04,6.9,11.64,10.79s6.81,8.21,9.23,12.97,4.06,9.83,4.92,15.06c1.52,9.23.32,18.94-3.66,27.43-3.84,8.2-10.3,15.16-18.72,18.71s-17.85,3.84-26.06.31c-8.91-3.82-14.7-12.07-17.82-20.99-3.43-9.79-3.27-20.49-7.18-30.12-1-2.48-2.29-4.79-3.78-7.01s-3.16-4.41-4.62-6.7c-2.23-3.53-4.32-7.71-4.35-11.98-.01-2.16.63-4.24,2.04-5.9.62-.73-.44-1.8-1.06-1.06-3.13,3.69-2.88,8.57-1.32,12.89,1.71,4.76,4.73,8.74,7.57,12.86,1.54,2.25,2.95,4.57,3.99,7.1s1.79,5.16,2.39,7.82c1.2,5.32,1.83,10.76,3.04,16.08,2.19,9.65,6.74,19.3,14.94,25.24,7.54,5.47,17.45,6.82,26.43,4.85,4.52-.99,8.89-2.84,12.69-5.48s7.14-6.12,9.77-9.99c5.36-7.87,7.98-17.54,7.84-27.02-.17-10.77-3.88-21.42-10.23-30.1-3.23-4.41-7.04-8.34-11.08-12.01s-8.63-7.43-13.14-10.9c-4.61-3.55-9.38-7.03-14.44-9.91-4.36-2.48-9.91-4.27-14.63-1.59-2.02,1.15-3.3,3.07-4.35,5.09s-1.86,4.09-3.5,5.6c-1.77,1.64-4.26,2.08-6.54,2.55s-4.6,1.04-6.49,2.48c-1.68,1.27-2.69,3.04-3.19,5.06-.23.94,1.21,1.34,1.45.4h0Z"/>
      </g>
      <path d="m40.88,143.84c-4.28,3.03-7.94,6.85-11.17,10.95-3.83,4.87-7.1,10.15-9.95,15.65-3.08,5.96-5.67,12.19-7.77,18.56-2.14,6.49-3.78,13.15-4.79,19.91s-1.4,13.07-.98,19.62c.05.79.12,1.58.19,2.37.09.95,1.59.96,1.5,0-.62-6.38-.4-12.82.39-19.18s2.32-13.25,4.28-19.67,4.38-12.59,7.31-18.57c2.72-5.56,5.87-10.94,9.55-15.91,3.12-4.22,6.68-8.22,10.83-11.45.44-.34.89-.67,1.34-.99.78-.55.03-1.85-.76-1.29h0Z"/>
      <g>
        <line class="cls-6" x1="134.32" y1="121.68" x2="134.32" y2="138.97"/>
        <line class="cls-6" x1="127.24" y1="135.29" x2="141.41" y2="125.37"/>
        <line class="cls-6" x1="141.41" y1="135.29" x2="127.24" y2="125.37"/>
        <circle class="cls-2" cx="134.32" cy="121.98" r="1.51"/>
        <circle class="cls-2" cx="141.41" cy="125" r="1.51"/>
        <circle class="cls-2" cx="143.32" cy="130.33" r="1.51"/>
        <circle class="cls-2" cx="141.93" cy="135.65" r="1.51"/>
        <circle class="cls-2" cx="134.32" cy="139.24" r="1.51"/>
        <circle class="cls-2" cx="125.28" cy="130.33" r="1.51"/>
        <circle class="cls-2" cx="126.79" cy="125" r="1.51"/>
        <circle class="cls-2" cx="127.19" cy="135.29" r="1.51"/>
        <line class="cls-6" x1="125.68" y1="130.33" x2="142.97" y2="130.33"/>
      </g>
      <g>
        <path class="cls-10" d="m125.53,109.32c2.87.29,5.89-.38,8.48-1.62,2.13-1.02,4.4-2.76,4.57-5.31.06-.96-1.44-.96-1.5,0-.13,2.06-2.46,3.41-4.12,4.15-2.29,1.04-4.92,1.53-7.43,1.28-.96-.1-.95,1.4,0,1.5h0Z"/>
        <path class="cls-10" d="m126.23,111.26c2.21.83,4.76.93,7.09.62,1.78-.24,4.29-.77,5.17-2.57.42-.86-.87-1.63-1.29-.76-.67,1.38-2.95,1.74-4.33,1.88-2.07.22-4.27.11-6.23-.62-.9-.34-1.29,1.11-.4,1.45h0Z"/>
        <circle class="cls-13" cx="123.77" cy="103.63" r="1.77"/>
        <circle class="cls-13" cx="126.43" cy="110.15" r="1.77"/>
        <circle class="cls-13" cx="131.98" cy="105.06" r="1.77"/>
        <circle class="cls-13" cx="136.07" cy="98.17" r="1.77"/>
        <circle class="cls-13" cx="142.19" cy="104.15" r="1.77"/>
        <circle class="cls-13" cx="139.12" cy="110.15" r="1.77"/>
      </g>
    </g>
  </g>
</svg>