<?xml version="1.0" encoding="UTF-8"?>
<svg id="_レイヤー_2" data-name="レイヤー 2" xmlns="http://www.w3.org/2000/svg" xmlns:xlink="http://www.w3.org/1999/xlink" viewBox="0 0 239.37 332.74">
  <defs>
    <style>
      .cls-1, .cls-2 {
        stroke-miterlimit: 10;
      }

      .cls-1, .cls-2, .cls-3, .cls-4 {
        stroke: #000;
        stroke-width: 1.5px;
      }

      .cls-1, .cls-3, .cls-5 {
        fill: #e74268;
      }

      .cls-6, .cls-2 {
        fill: #fff;
      }

      .cls-3, .cls-4 {
        stroke-linejoin: round;
      }

      .cls-7 {
        fill: #5fbc9f;
      }

      .cls-8 {
        clip-path: url(#clippath);
      }

      .cls-9 {
        fill: #fff069;
      }

      .cls-10, .cls-4 {
        fill: none;
      }
    </style>
    <clipPath id="clippath">
      <path class="cls-10" d="m116.7,115.81c-3.86-9.23-17.09-18.82-24.33-26.66-3.74-4.05-11.82-27.13-24.15-38.16-4.11-3.68-11.33-7.32-14.28-2.65-1.8,2.85-2.87,6.52-4.7,9.36-1.73,2.68-5.64,5.41-8.26,7.23-4.9,3.4-3.11,9.71,2.64,15.46,4.09,4.09,26.57,24.15,30.16,28.69,10.3,13,12.28,39.61,19.26,42.86.79,10.66,4.32,18.75,2.84,26.32-2.1,10.72-6.52,14.4.32,27.62s44.57,60.91,58.97,64.69c5.57,1.46,3.75-1.48,6.57-8.66,9.38-.86,9.43-5.37,10.48-8.83,2.63-8.65-1.4-22.94-3.15-32.12s-3.25-13.32-1.87-23.15c2.2,7.86,5.99,18.49,7.29,23.46,1.24,4.71,2.63,22.65,3.87,27.36s3.65,10.3,8.12,12.24c5.8,2.52,6.81-1.79,12.89-3.53,3.7-1.06,12.22-.18,14.36-2.71,3.7-4.36,2.4-9.62.08-14.85s-11.04-16.99-13.17-21.79c-5.5-12.43-9.55-27.66-12.7-40.88s-5.15-26.97-12.71-38.27c-7.56-11.3-16.91-14.44-32.07-12.25-4.33.62-8.66,1.75-13.01,1.32-4.35-.43-8.96-3.52-8.98-7.89"/>
    </clipPath>
  </defs>
  <g id="_レイヤー_14" data-name="レイヤー 14">
    <g>
      <g>
        <path class="cls-7" d="m96.88,282.03c15.22,1.94,24.79,4.5,38.86,10.62,7.13,3.1,32.51,5.69,46.71-6.81,15.16-13.36,4.17-14.51,26.87-47.78,2.78-4.08,11.58-21.08,12.52-25.92,2.78-14.32,3.73-23.32-14.66-31.59-15.73-7.08-34.04.98-51.13-1.35-14.1-1.92-28.33-12.84-42.43-14.76-8.33-1.13-17.88-1.91-24.07,3.78-7.43,6.83-5.73,18.63-6.56,28.68-.97,11.78-6.41,23.15-14.98,31.3-6.47,6.16-14.76,10.69-19.3,18.38s-2.41,20.32,6.39,21.87"/>
        <path class="cls-7" d="m96.88,282.78c9.24,1.18,18.36,2.98,27.17,6.05,2.24.78,4.45,1.62,6.65,2.51,1.87.76,3.7,1.64,5.6,2.34,2.18.8,4.49,1.25,6.78,1.59,6.85,1.02,13.91.95,20.72-.28,7.37-1.33,14.36-4.22,19.94-9.29,2.97-2.7,5.75-5.7,7.53-9.34,1.55-3.18,2.42-6.64,3.59-9.96,2.01-5.71,4.71-11.14,7.75-16.37,2.37-4.07,4.99-7.96,7.57-11.9,1.41-2.16,2.63-4.45,3.84-6.72,1.66-3.12,3.26-6.28,4.76-9.48,1.24-2.64,2.49-5.32,3.39-8.11s1.22-5.66,1.59-8.47.55-5.8.09-8.68c-1-6.37-5.59-10.87-10.95-14.03-3.95-2.33-8.21-4.19-12.74-5.05-4.76-.91-9.64-.89-14.46-.54-9.86.7-19.84,2.82-29.73,1.4s-18.42-6.4-27.3-10.16c-4.27-1.81-8.65-3.46-13.23-4.3-4.31-.79-8.84-1.25-13.23-1.05s-8.45,1.13-11.86,3.66c-3.19,2.38-5.25,5.8-6.33,9.59-2.38,8.37-.83,17.28-2.5,25.77-1.79,9.1-6.21,17.67-12.67,24.34s-14.58,10.82-19.78,18.31c-3.86,5.56-4.84,13.56-1.25,19.53,1.56,2.6,4.05,4.49,7.05,5.05.94.18,1.35-1.27.4-1.45-6.82-1.28-8.93-9.23-7.91-15.22,1.42-8.3,8.91-13.71,15.08-18.62,3.47-2.76,6.85-5.62,9.71-9.03s5.36-7.33,7.24-11.46,3.16-8.31,3.87-12.7.69-8.52.83-12.8c.26-7.9,1.16-17.05,8.92-21.23,3.76-2.03,8.19-2.39,12.39-2.26s8.72.64,12.9,1.75c9.21,2.45,17.54,7.33,26.41,10.71,4.33,1.66,8.78,2.9,13.41,3.31s9.61.13,14.38-.33c9.54-.92,19.47-2.76,28.96-.46,4.3,1.04,8.42,3.02,12.12,5.42,2.65,1.72,5.14,3.84,6.79,6.57,2.95,4.85,2.45,10.7,1.57,16.06-.42,2.58-.86,5.12-1.79,7.57-1.12,2.95-2.48,5.81-3.86,8.64-2.69,5.51-5.54,10.9-8.95,15.99-4.34,6.5-8.43,13.23-11.58,20.39-1.68,3.82-2.93,7.77-4.27,11.71-1.04,3.07-2.42,5.91-4.5,8.43-3.9,4.72-8.85,8.54-14.55,10.8-6.75,2.68-14.14,3.61-21.36,3.45-5.05-.11-10.57-.55-15.26-2.57-8.25-3.55-16.67-6.56-25.47-8.4-4.45-.93-8.96-1.61-13.47-2.19-.95-.12-.95,1.38,0,1.5h0Z"/>
      </g>
      <path class="cls-6" d="m195.08,258.91c-1.81,1.26-2.08,4.35-1.2,7.1.7,2.21,3.94,3.94,4.93,6.03-.98,2.85-2.45,6.48-3.27,9.47-.28,1.02.25,3.01,1.19,3.51,1.47.79,4.12-2.23,5.3-3.41,1.91-1.91,2.53-4.9,3.72-6.06,1.99,1.6,3.57,1.77,6.31,3.07,2.89,1.37,5.49,2.54,8.31,4.04s7.02,2.66,10.19,2.25c2.35-.3,2.87-2.36,5.31-2.28,1.21.04,2.21-.3,2.71-1.39.49-1.06-.58-1.37-.83-2.51-1.19-5.45-10.5-9.78-16.33-14.95-2.86-2.53-5.33-5.5-8.3-7.91-2.97-2.4-6.65-4.26-10.46-4-3.81.26-7.59,3.21-7.77,7.03"/>
      <g>
        <path d="m192.27,258.52c-.5,3.21-.01,6.41,1.65,9.22,1.23,2.09,2.97,3.8,4.9,5.25l-.27-1.03c-.95,2.21-1.82,4.45-2.6,6.73-.63,1.85-1.59,3.87-.67,5.78,1.77,3.69,6.22-1.06,7.62-2.73,1.52-1.8,2.67-3.82,3.56-6l-1.1.45c2.15,1.4,4.54,2.37,6.92,3.32,1.11.44,2.22.87,3.31,1.34.45.19.92.37,1.3.66s.77.61,1.18.89c1.92,1.29,4.15,2.21,6.39,2.79,2.06.54,4.34.86,6.44.4,1.72-.37,4.14-1.52,3.19-3.66l-.85,1.1c1.36.53,3.09.51,4.41-.13,1.53-.75,1.8-2.3,1.12-3.75l-1.03,1.03c.44.19.97.31,1.35-.08.33-.35.29-.84.14-1.26-.46-1.26-1.46-2.37-2.34-3.36-1.25-1.4-2.66-2.59-4.18-3.69s-2.93-2.26-4.37-3.42c-1.61-1.31-3.21-2.64-4.83-3.93-1.11-.88-2.02-1.53-3.03-2.41-2.26-1.95-4.43-4.02-6.62-6.07-2.77-2.6-5.53-5.21-8.35-7.75-.72-.64-1.78.41-1.06,1.06,4.56,4.09,8.93,8.39,13.48,12.49,1.94,1.75,4.02,3.31,6.05,4.96,2.76,2.24,5.46,4.56,8.36,6.63,1.58,1.13,3,2.51,4.22,4.02.42.52.81,1.06,1.13,1.64.08.15.08.34.19.44.05.04,0-.05,0-.05-.1.04.34-.44.22-.31.3-.3.17-.1.33-.23.06-.05.08.01.1.02-.69-.3-1.36.31-1.03,1.03,1.04,2.21-2.61,2.16-3.83,1.68-.68-.27-1.08.58-.85,1.1.42.94-2.31,1.48-2.83,1.54-2.06.24-4.18-.18-6.14-.79s-3.77-1.44-5.39-2.61c-.31-.22-.58-.53-.9-.73-.44-.27-.97-.45-1.45-.65-1.01-.43-2.03-.83-3.05-1.23-2.38-.94-4.78-1.91-6.93-3.31-.45-.29-.93.03-1.1.45-1.25,3.03-3.17,5.83-5.76,7.87-.48.38-1.02.77-1.59,1.01-.52.22-.75.14-1.02-.38-.3-.56-.34-1.26-.18-1.87.24-.94.58-1.87.89-2.79.74-2.19,1.57-4.35,2.48-6.48.17-.41.09-.76-.27-1.03-1.68-1.26-3.19-2.78-4.28-4.58-1.5-2.47-2.01-5.34-1.57-8.2.15-.94-1.3-1.35-1.45-.4h0Z"/>
        <path d="m218.54,274.91c4.25,2.35,8.49,4.7,12.74,7.06.6.33,1.2.67,1.8,1,.84.47,1.6-.83.76-1.29-4.25-2.35-8.49-4.7-12.74-7.06-.6-.33-1.2-.67-1.8-1-.84-.47-1.6.83-.76,1.29h0Z"/>
        <path d="m222.54,270.12c4.45,2.94,8.9,5.89,13.35,8.83.62.41,1.25.83,1.87,1.24.81.53,1.56-.76.76-1.29-4.45-2.94-8.9-5.89-13.35-8.83-.62-.41-1.25-.83-1.87-1.24-.81-.53-1.56.76-.76,1.29h0Z"/>
      </g>
      <path class="cls-6" d="m41.34,64.28c-6.42-.51-10.9-3.91-14.06-5.41-2.56-1.22-1.73-2.72-2.07-4.49-.48-2.47-3.99-1.51-2.5-5.24-3.15-3.22-3.32-5.46-2.05-7.35-2.06-2.53-2.07-4.79-.58-6.39,2.3-2.47,5.31-7.19,14.76-4.35,5.04,2.4,12.54,12.41,16.53,16.96,2.27,2.59,3.51,6.46,2.27,9.67-.8,2.06-2.69,3.55-4.75,4.36s-3.69,2.34-5.89,2.56"/>
      <g>
        <path d="m19.33,38.02c1.62-2.77,3.5-5.36,5.66-7.73.44-.48.88-1.09,1.46-1.4.71-.39,1.57-.05,2.27.19,1.56.53,3.08,1.2,4.54,1.97,2.86,1.5,5.63,3.27,7.88,5.6s4.32,5.3,6.37,8.01c2.42,3.18,4.84,6.36,7.26,9.55.58.76,1.88.01,1.29-.76-2.32-3.05-4.64-6.1-6.96-9.15-2.19-2.88-4.27-5.91-6.75-8.54s-5.37-4.46-8.44-6.06c-1.48-.77-3.01-1.44-4.58-1.99s-3.06-.76-4.4.46-2.56,2.81-3.69,4.29-2.24,3.14-3.21,4.81c-.49.84.81,1.59,1.29.76h0Z"/>
        <path d="m20.01,41.41c-.72,1.16-1.09,2.5-.71,3.84.3,1.05.97,1.93,1.69,2.73.32.36.94.84.99,1.34.06.63-.47,1.27-.48,1.92-.03,1.14.84,1.8,1.76,2.26.34.17.85.34,1.09.64.28.36-.12.9-.13,1.33-.04.9.11,2.25.86,2.83,2.55,1.96,5.59,3.41,8.53,4.68,3.4,1.47,6.9,2.67,10.4,3.88.91.32,1.31-1.13.4-1.45-5.8-2-11.68-3.99-16.9-7.29-.31-.2-.62-.4-.93-.61-.19-.13-.52-.28-.63-.46-.18-.3-.18-.91-.21-1.26-.04-.53.25-1,.22-1.53-.02-.49-.27-.93-.62-1.26-.62-.57-1.66-.72-2.19-1.36-.29-.35-.05-.79.09-1.17.23-.64.35-1.26.09-1.91-.42-1.04-1.48-1.75-2.09-2.69-.8-1.24-.69-2.47.08-3.71.51-.82-.78-1.57-1.29-.76h0Z"/>
      </g>
      <g>
        <path class="cls-6" d="m41.8,55.23l-9.1-1.59-3.66-18.89c3.71-1.59,5.94-5.59,5.14-9.71L29.48.75l-17.2,3.33,4.71,24.29c.81,4.2,4.5,7.11,8.63,7.09l3.65,18.86-7.82,4.86c-1.12.7-.44,2.43.85,2.18l19.52-3.78c1.3-.25,1.28-2.11-.02-2.34Z"/>
        <path class="cls-9" d="m34.11,24.35l-2.81-13.6-16.93.13,2.67,17c.95,4.6,5.54,7.54,10.26,6.57h0c4.71-.97,7.76-5.5,6.81-10.1Z"/>
        <path class="cls-4" d="m41.8,55.23l-9.1-1.59-3.66-18.89c3.71-1.59,5.94-5.59,5.14-9.71L29.48.75l-17.2,3.33,4.71,24.29c.81,4.2,4.5,7.11,8.63,7.09l3.65,18.86-7.82,4.86c-1.12.7-.44,2.43.85,2.18l19.52-3.78c1.3-.25,1.28-2.11-.02-2.34Z"/>
      </g>
      <g>
        <path class="cls-6" d="m18.66,38.04c.92,3.01,3.71,5.56,5.33,7.63.32.41.72.86,1.24.83.66-.04,1-.82,1.07-1.47.24-2.28-.88-4.46-1.96-6.48"/>
        <path d="m17.94,38.24c.86,2.74,2.89,4.86,4.72,6.99.8.93,1.78,2.58,3.24,1.85,1.34-.68,1.27-2.62,1.08-3.87-.27-1.8-1.15-3.46-2-5.04-.46-.85-1.75-.09-1.29.76.63,1.18,1.27,2.38,1.63,3.67.17.63.27,1.26.26,1.91,0,.27,0,1.1-.35,1.23-.23.09-.58-.43-.71-.6-.32-.41-.66-.81-1-1.2-.75-.87-1.53-1.72-2.22-2.64-.8-1.05-1.52-2.19-1.91-3.46-.29-.92-1.74-.53-1.45.4h0Z"/>
      </g>
      <g>
        <path class="cls-6" d="m37.53,37.78l-13.26-2.99c-.52-.12-1.16-.19-1.48.23-.15.2-.18.48-.17.73.05,1.46,1.13,2.69,2.3,3.57,2.55,1.92,5.84,2.82,9.01,2.48.51-.06,1.08-.13,1.51.15.3.19.47.52.64.83,2.18,4.08,5.04,8.09,9.24,10.02"/>
        <path d="m37.73,37.06c-3.7-.83-7.39-1.67-11.09-2.5-.83-.19-1.66-.42-2.49-.55-.67-.11-1.41-.06-1.89.49-.97,1.12-.09,2.98.67,3.95,1.88,2.4,5.14,3.73,8.09,4.08.76.09,1.52.12,2.28.08.34-.02.68-.07,1.01-.09.53-.03.76.03,1.03.5.73,1.28,1.43,2.57,2.27,3.79,1.89,2.75,4.27,5.22,7.32,6.66.87.41,1.63-.88.76-1.29-2.46-1.15-4.47-3.01-6.09-5.16-.81-1.08-1.54-2.22-2.21-3.39s-1.13-2.56-2.68-2.61c-.67-.02-1.35.12-2.03.12-.73,0-1.46-.05-2.18-.18-1.41-.26-2.76-.74-4-1.46-1.14-.67-2.41-1.57-2.94-2.84-.11-.27-.21-.59-.2-.89s.03-.31.34-.3c.75.03,1.57.33,2.3.49l11.33,2.56c.94.21,1.34-1.23.4-1.45h0Z"/>
      </g>
      <path class="cls-5" d="m116.7,115.81c-3.86-9.23-17.09-18.82-24.33-26.66-3.74-4.05-11.82-27.13-24.15-38.16-4.11-3.68-11.33-7.32-14.28-2.65-1.8,2.85-2.87,6.52-4.7,9.36-1.73,2.68-5.64,5.41-8.26,7.23-4.9,3.4-3.11,9.71,2.64,15.46,4.09,4.09,26.57,24.15,30.16,28.69,10.3,13,12.28,39.61,19.26,42.86.79,10.66,4.32,18.75,2.84,26.32-2.1,10.72-6.52,14.4.32,27.62s44.57,60.91,58.97,64.69c5.57,1.46,3.75-1.48,6.57-8.66,9.38-.86,9.43-5.37,10.48-8.83,2.63-8.65-1.4-22.94-3.15-32.12s-3.25-13.32-1.87-23.15c2.2,7.86,5.99,18.49,7.29,23.46,1.24,4.71,2.63,22.65,3.87,27.36s3.65,10.3,8.12,12.24c5.8,2.52,6.81-1.79,12.89-3.53,3.7-1.06,12.22-.18,14.36-2.71,3.7-4.36,2.4-9.62.08-14.85s-11.04-16.99-13.17-21.79c-5.5-12.43-9.55-27.66-12.7-40.88s-5.15-26.97-12.71-38.27c-7.56-11.3-16.91-14.44-32.07-12.25-4.33.62-8.66,1.75-13.01,1.32-4.35-.43-8.96-3.52-8.98-7.89"/>
      <g class="cls-8">
        <path class="cls-6" d="m134.3,159.93c-1.36-.97-3.21-.87-4.56.12l-.93.69-.71-.96c-.99-1.34-2.74-1.97-4.32-1.45-2.73.91-3.56,4.03-2.01,6.12l.72.97h0s4.56,6.16,4.56,6.16c.07.09.2.11.29.04l7.11-5.26c2.09-1.55,2.21-4.77-.14-6.44Z"/>
        <path class="cls-6" d="m158.93,159.25c-1.54-.65-3.33-.15-4.42,1.11l-.76.88-.9-.78c-1.26-1.09-3.1-1.33-4.53-.48-2.47,1.48-2.6,4.7-.64,6.41l.91.79h0s5.79,5.02,5.79,5.02c.09.07.21.06.29-.02l5.8-6.68c1.71-1.96,1.12-5.14-1.53-6.25Z"/>
        <path class="cls-6" d="m184.16,155.64c-1.6-.49-3.32.18-4.29,1.55l-.67.95-.98-.69c-1.36-.96-3.22-1.01-4.56-.02-2.31,1.72-2.12,4.94.01,6.44l.99.7h0s6.26,4.42,6.26,4.42c.09.07.22.04.28-.05l5.09-7.23c1.5-2.13.59-5.22-2.15-6.07Z"/>
        <path class="cls-6" d="m111.84,152.49c-1.09-1.26-2.92-1.6-4.46-.96l-1.07.45-.46-1.1c-.65-1.54-2.19-2.56-3.86-2.43-2.87.24-4.41,3.07-3.4,5.47l.47,1.12h0s2.98,7.06,2.98,7.06c.04.1.16.15.27.11l8.15-3.43c2.4-1.01,3.27-4.12,1.39-6.29Z"/>
        <path class="cls-6" d="m138.78,188.04c-1.36-.97-3.21-.87-4.56.12l-.93.69-.71-.96c-.99-1.34-2.74-1.97-4.32-1.45-2.73.91-3.56,4.03-2.01,6.12l.72.97h0s4.56,6.16,4.56,6.16c.07.09.2.11.29.04l7.11-5.26c2.09-1.55,2.21-4.77-.14-6.44Z"/>
        <path class="cls-6" d="m162.94,187.85c-1.54-.65-3.33-.15-4.42,1.11l-.76.88-.9-.78c-1.26-1.09-3.1-1.33-4.53-.48-2.47,1.48-2.6,4.7-.64,6.41l.91.79h0s5.79,5.02,5.79,5.02c.09.07.21.06.29-.02l5.8-6.68c1.71-1.96,1.12-5.14-1.53-6.25Z"/>
        <path class="cls-6" d="m188.64,183.75c-1.6-.49-3.32.18-4.29,1.55l-.67.95-.98-.69c-1.36-.96-3.22-1.01-4.56-.02-2.31,1.72-2.12,4.94.01,6.44l.99.7h0s6.26,4.42,6.26,4.42c.09.07.22.04.28-.05l5.09-7.23c1.5-2.13.59-5.22-2.15-6.07Z"/>
        <path class="cls-6" d="m117.75,182.33c-1.22-1.14-3.07-1.29-4.53-.48l-1.02.56-.58-1.05c-.81-1.46-2.45-2.32-4.09-2.01-2.82.54-4.06,3.52-2.81,5.79l.58,1.06h0s3.7,6.71,3.7,6.71c.05.1.18.13.28.08l7.74-4.27c2.28-1.26,2.82-4.44.72-6.4Z"/>
        <path class="cls-6" d="m99.17,176.8c-1.18-1.18-3.02-1.39-4.51-.64l-1.04.53-.54-1.07c-.76-1.49-2.37-2.4-4.02-2.15-2.84.44-4.18,3.38-3,5.69l.55,1.08h0s3.47,6.83,3.47,6.83c.05.1.17.14.27.09l7.88-4c2.32-1.18,2.97-4.34.94-6.37Z"/>
        <path class="cls-6" d="m212.03,231.57c-1.66-.19-3.24.78-3.93,2.3l-.49,1.06-1.09-.5c-1.52-.7-3.35-.41-4.48.81-1.96,2.11-1.19,5.24,1.18,6.33l1.1.51h0s6.96,3.21,6.96,3.21c.1.05.22,0,.27-.1l3.7-8.03c1.09-2.36-.36-5.25-3.22-5.58Z"/>
        <path class="cls-6" d="m193.78,238.15c-1.65-.25-3.26.67-4.01,2.16l-.52,1.04-1.07-.54c-1.49-.75-3.33-.53-4.51.65-2.03,2.04-1.36,5.2.96,6.37l1.08.54h0s6.85,3.44,6.85,3.44c.1.05.22.01.27-.09l3.97-7.9c1.17-2.32-.18-5.25-3.03-5.68Z"/>
        <path class="cls-6" d="m49.9,95.36c1.52-.69,2.36-2.35,2.18-4l-.13-1.15,1.19-.13c1.66-.19,3.08-1.38,3.42-3.01.58-2.82-1.7-5.1-4.28-4.81l-1.2.14h0s-7.62.86-7.62.86c-.11.01-.19.11-.18.23l.99,8.79c.29,2.58,3.02,4.3,5.64,3.11Z"/>
        <path class="cls-6" d="m62.11,80.29c1.54-.64,2.44-2.26,2.31-3.93l-.09-1.16,1.19-.09c1.66-.13,3.13-1.27,3.52-2.89.68-2.79-1.52-5.15-4.12-4.95l-1.21.09h0s-7.64.6-7.64.6c-.11,0-.2.11-.19.22l.69,8.81c.2,2.59,2.88,4.4,5.53,3.3Z"/>
        <path class="cls-6" d="m76.41,65.85c1.54-.64,2.44-2.26,2.31-3.93l-.09-1.16,1.19-.09c1.66-.13,3.13-1.27,3.52-2.89.68-2.79-1.52-5.15-4.12-4.95l-1.21.09h0s-7.64.6-7.64.6c-.11,0-.2.11-.19.22l.69,8.81c.2,2.59,2.88,4.4,5.53,3.3Z"/>
        <path class="cls-6" d="m86.42,126.47c1.52-.69,2.36-2.35,2.18-4l-.13-1.15,1.19-.13c1.66-.19,3.08-1.38,3.42-3.01.58-2.82-1.7-5.1-4.28-4.81l-1.2.14h0s-7.62.86-7.62.86c-.11.01-.19.11-.18.23l.99,8.79c.29,2.58,3.02,4.3,5.64,3.11Z"/>
        <path class="cls-6" d="m98.62,111.4c1.54-.64,2.44-2.26,2.31-3.93l-.09-1.16,1.19-.09c1.66-.13,3.13-1.27,3.52-2.89.68-2.79-1.52-5.15-4.12-4.95l-1.21.09h0s-7.64.6-7.64.6c-.11,0-.2.11-.19.22l.69,8.81c.2,2.59,2.88,4.4,5.53,3.3Z"/>
        <path class="cls-6" d="m112.92,96.95c1.54-.64,2.44-2.26,2.31-3.93l-.09-1.16,1.19-.09c1.66-.13,3.13-1.27,3.52-2.89.68-2.79-1.52-5.15-4.12-4.95l-1.21.09h0s-7.64.6-7.64.6c-.11,0-.2.11-.19.22l.69,8.81c.2,2.59,2.88,4.4,5.53,3.3Z"/>
      </g>
      <path class="cls-5" d="m166.58,196.99c-1.98,11.95,1.85,23.59,4.28,35.16.59,2.79,1.13,5.6,1.35,8.44s.19,5.45-.09,8.15c-.32,3.19-.89,6.83-2.95,9.41-1,1.25-2.34,2.15-3.9,2.52-2.41.58-4.94-.06-7.2-.9-.9-.34-1.3,1.11-.4,1.45,3.76,1.41,8.17,1.9,11.45-.86,2.32-1.96,3.35-4.96,3.94-7.84,1.11-5.42,1-11.08.06-16.52-1.04-6.09-2.68-12.05-3.94-18.09-1.4-6.74-2.29-13.67-1.15-20.52.16-.94-1.29-1.35-1.45-.4h0Z"/>
      <path d="m160.02,177.28c3.81,11.67,7.26,23.46,10.91,35.18,1.03,3.3,2.07,6.59,3.14,9.88.3.91,1.75.52,1.45-.4-3.81-11.67-7.26-23.46-10.91-35.18-1.03-3.3-2.07-6.59-3.14-9.88-.3-.91-1.75-.52-1.45.4h0Z"/>
      <path class="cls-5" d="m178.8,147.3c2.02,5.34,3.58,10.84,5.03,16.35,1.62,6.16,3.08,12.36,4.6,18.54s3.15,12.58,5.04,18.79c1.74,5.73,3.73,11.41,6.28,16.84,1.19,2.54,2.53,5,4.04,7.36,1.88,2.95,3.95,5.78,5.85,8.72s3.63,5.97,4.72,9.29c.94,2.84,1.73,6.42.24,9.22-.83,1.55-2.32,2.37-3.91,2.98-.9.34-1.79.64-2.76.71-.91.06-1.81,0-2.72-.06-1.85-.14-3.74-.27-5.53.37-1.44.52-2.74,1.36-4.03,2.18s-2.57,1.69-4,2.2-2.59.44-3.93-.12c-2.57-1.08-4.38-3.31-5.65-5.71-1.35-2.57-2.17-5.41-2.79-8.24-.86-3.94-1.55-7.92-2.17-11.9-1.27-8.17-2.09-16.4-2.48-24.66-.09-2.03-.16-4.06-.2-6.09-.02-.96-1.52-.97-1.5,0,.17,8.45.8,16.89,1.89,25.28.54,4.18,1.2,8.34,1.96,12.48.63,3.41,1.25,6.86,2.39,10.14.95,2.75,2.27,5.47,4.32,7.57,1.92,1.96,4.76,3.57,7.58,2.98,3.1-.66,5.51-3.05,8.32-4.37,3.49-1.65,7.4.25,10.99-1.04,1.65-.59,3.38-1.27,4.57-2.61,1.05-1.18,1.61-2.67,1.82-4.22.45-3.38-.61-6.85-1.92-9.93-2.77-6.5-7.49-11.87-11.04-17.92-2.96-5.05-5.17-10.52-7.07-16.05-2.12-6.16-3.84-12.46-5.45-18.77s-3.16-12.91-4.77-19.35c-1.48-5.89-3.02-11.78-4.96-17.55-.43-1.27-.88-2.54-1.35-3.79-.34-.89-1.79-.51-1.45.4h0Z"/>
      <path class="cls-5" d="m143.76,125.53c2.54.78,5.16,1.08,7.81,1.19,2.4.1,4.81.14,7.17.7,6.01,1.44,11.19,5.79,14.95,10.55,2.2,2.79,4,5.94,5.11,9.32.3.91,1.75.52,1.45-.4-2.03-6.16-6.14-11.67-11.18-15.72-2.52-2.03-5.33-3.76-8.42-4.77-2.49-.81-5.08-1.03-7.68-1.13-3-.11-5.92-.3-8.81-1.19-.92-.28-1.32,1.16-.4,1.45h0Z"/>
      <path class="cls-5" d="m58.06,46.78c2.58-.11,5.02,1.29,7.07,2.72,2.39,1.67,4.52,3.72,6.48,5.87,4.29,4.72,7.28,10.32,10.04,16.02s5.54,11.98,9.43,17.3c3.63,4.96,8.25,9.01,12.76,13.14,4.96,4.55,9.89,9.35,12.78,15.53.41.87,1.7.11,1.29-.76-5.3-11.35-16.81-17.73-24.45-27.25-8.31-10.36-11.22-23.97-19.94-34.07-2.15-2.49-4.54-4.81-7.2-6.76-2.36-1.72-5.25-3.38-8.27-3.25-.96.04-.97,1.54,0,1.5h0Z"/>
      <path d="m58.46,45.28c-1.67.02-3.21.61-4.41,1.79s-1.97,2.71-2.64,4.22c-.75,1.66-1.39,3.38-2.24,5s-1.78,2.88-3.19,3.95c-1.56,1.19-3.26,2.18-4.81,3.36-1.35,1.03-2.75,2.23-3.32,3.89-1.39,4.03.84,8.23,3.32,11.28,1.21,1.49,2.57,2.84,3.9,4.21,1.7,1.75,3.31,3.57,5.05,5.28,3.91,3.81,8.11,7.3,12.25,10.84s8.31,6.96,11.46,11.3c1.59,2.2,2.78,4.62,3.91,7.07,1.06,2.29,2.21,4.55,3.09,6.92,1.54,4.12,2.49,8.41,3.7,12.63,1.34,4.69,3.07,9.25,5.53,13.47.72,1.23,1.5,2.43,2.32,3.6.55.78,1.85.04,1.29-.76-2.93-4.18-5.16-8.73-6.75-13.58-1.36-4.14-2.28-8.41-3.57-12.57-.65-2.1-1.4-4.16-2.3-6.16-1.07-2.38-2.17-4.76-3.35-7.09-2.4-4.73-5.94-8.53-9.86-12.05-4-3.59-8.17-6.97-12.18-10.54-2.01-1.78-3.98-3.61-5.86-5.53-1.5-1.52-2.92-3.13-4.41-4.66-2.65-2.71-5.6-5.71-6.31-9.58-.31-1.68-.17-3.6.96-4.96s2.77-2.41,4.27-3.42,3.09-1.97,4.27-3.32,1.96-2.93,2.66-4.51,1.35-3.31,2.19-4.89c.68-1.29,1.54-2.58,2.88-3.25.66-.33,1.39-.45,2.12-.46.96-.01.97-1.51,0-1.5h0Z"/>
      <path d="m106.43,109.61c5.11,4.1,10.28,8.45,16.31,11.14.87.39,1.64-.9.76-1.29-5.91-2.65-10.99-6.89-16-10.91-.75-.6-1.81.46-1.06,1.06h0Z"/>
      <path d="m87.81,127.51c1.66,9.68,3.31,19.35,4.97,29.03.82,4.77,1.79,9.55,2.41,14.35.3,2.28.39,4.6.03,6.88-.33,2.06-.92,4.07-1.53,6.07-1.35,4.4-2.82,8.9-1.96,13.55.18.95,1.62.55,1.45-.4-.76-4.09.54-8.16,1.74-12.04.61-2,1.23-4,1.62-6.06.42-2.21.5-4.44.3-6.68s-.66-4.66-1.05-6.98l-1.24-7.26c-.83-4.84-1.66-9.68-2.48-14.51-.93-5.45-1.87-10.91-2.8-16.36-.16-.95-1.61-.55-1.45.4h0Z"/>
      <circle cx="160.07" cy="84.47" r="17.63"/>
      <circle cx="172.9" cy="107.36" r="16.17"/>
      <ellipse cx="157.88" cy="124.05" rx="10.78" ry="11.07"/>
      <path class="cls-1" d="m142.88,46.65l-14.18,19.06c-.53.71-.15,1.73.71,1.93l18.7,4.26c.86.2,1.65-.56,1.48-1.43l-4.52-23.32c-.2-1.05-1.55-1.36-2.19-.5Z"/>
      <circle class="cls-2" cx="144.04" cy="46.34" r="3.7"/>
      <g>
        <path class="cls-5" d="m155.92,98.88c6.45-11.9-5.88-26.69-19-28.54s-27.85,8.26-26.83,22.76c.08,1.1-1.49,2.48-.45,2.85.88.31,1.79-.37,2.42-1.05,2.05-2.22,3.41-4.97,5.28-7.34,3.29-4.16,8.21-7.01,13.46-7.79,2.79-.42,5.72-.25,8.28.92,2.61,1.2,4.66,3.35,6.29,5.72,1.63,2.36,3.73,4.63,4.33,7.43.81,3.78,5.07,8.33,5.72,4.75"/>
        <path d="m156.36,99.13c4.73-8.84-.56-18.8-7.85-24.33-3.81-2.89-8.38-4.8-13.17-5.13-4.52-.31-9.1.73-13.13,2.77s-7.59,5.18-9.89,9.11c-1.13,1.92-1.95,4.03-2.38,6.22-.23,1.19-.36,2.4-.38,3.61,0,.58.05,1.15.05,1.73,0,.53-.3.98-.52,1.45-.38.81-.43,1.7.62,1.94,1.44.33,2.62-1.07,3.42-2.05,1.89-2.32,3.24-5.03,5.21-7.28,3.77-4.33,9.48-7.12,15.26-7.09,3.17.01,6.09,1.07,8.44,3.2,1.09.98,2.02,2.12,2.86,3.32s1.74,2.34,2.55,3.55,1.45,2.44,1.79,3.85c.27,1.11.71,2.16,1.3,3.14s1.25,1.83,2.1,2.52c.55.44,1.28.89,2.02.73s1.12-.92,1.26-1.63c.13-.63-.84-.9-.96-.27s-.35,1.12-1.04.82c-.83-.36-1.51-1.2-2.02-1.92-.65-.9-1.18-1.9-1.51-2.97-.39-1.24-.68-2.42-1.33-3.57s-1.49-2.26-2.29-3.35-1.51-2.16-2.36-3.17c-1.72-2.04-3.86-3.73-6.41-4.57-5.19-1.69-11.25-.12-15.73,2.75-2.22,1.42-4.15,3.23-5.73,5.34-1.71,2.28-2.99,5.07-5.1,7.02-.28.26-.6.52-.97.63-.17.05-.62.1-.66.01-.11-.21.44-1,.53-1.2.43-.98.21-2.03.24-3.07.05-2.2.49-4.37,1.29-6.41,1.57-4.03,4.54-7.45,8.1-9.86s7.75-3.92,12.04-4.24c4.53-.35,8.96.72,12.91,2.93,7.41,4.16,14.21,12.97,11.83,21.91-.29,1.08-.71,2.11-1.23,3.09-.3.57.56,1.07.86.5h0Z"/>
      </g>
      <g>
        <path class="cls-6" d="m152.11,72.97c1.33-.67-.08-2.49-1.38-3.21-1.3-.72-3-.38-3.77.73-.54-2.44-3.05-4.27-5.53-4.05-.77.07-1.57.3-2.29.03-.55-.21-.95-.67-1.4-1.04-1.56-1.28-3.94-1.45-5.66-.4-.47.29-.92.66-1.46.71-.5.05-.99-.18-1.47-.34-1.74-.55-3.89.1-4.77,1.71s-.05,3.98,1.72,4.45c1.16.3,2.43-.18,3.57.19.59.19,1.09.6,1.64.88,3.28,1.68,7.89-1.65,8.26-1.65,1.78,3.51,5.26,2.92,6.66,2.63.35.84.46,1.29.79,1.82.79,1.27,2.36,1.91,3.72,2.55.81.37,1.92.54,2.46-.18s2.98-5.74-4.14-4.43"/>
        <path d="m152.49,73.62c1.98-1.14.25-3.4-1.03-4.28-1.66-1.15-3.93-.83-5.15.79l1.37.18c-.4-1.66-1.55-3.09-3.06-3.89-.75-.4-1.56-.64-2.4-.71-.9-.07-2.03.42-2.88.06-.39-.16-.68-.51-.99-.78-.35-.3-.73-.57-1.15-.77-.78-.38-1.63-.59-2.5-.6s-1.79.19-2.6.57c-.39.19-.72.46-1.1.66-.56.3-.99.08-1.55-.11-3.09-1.01-6.87,1.31-6.06,4.81.36,1.58,1.61,2.72,3.23,2.87,1,.09,2.1-.27,3.06.15.8.35,1.45.91,2.32,1.13,1.65.42,3.4.02,4.94-.61.65-.26,1.29-.56,1.91-.89.22-.12.44-.24.66-.36.08-.04.16-.07.23-.12.11-.07-.07.01-.16.02l-.65-.37c.81,1.53,2.14,2.7,3.86,3.07,1.22.26,2.45.15,3.65-.09l-.92-.52c.4.96.69,1.94,1.42,2.72s1.67,1.27,2.6,1.71c1.44.68,3.4,1.46,4.45-.26.84-1.37,1.33-3.57-.06-4.76s-3.46-.86-5.06-.58c-.95.17-.55,1.61.4,1.45,1.06-.19,2.48-.41,3.45.1.5.27.59.63.58,1.21,0,.39-.25,1.13-.42,1.47-.08.16-.16.39-.29.51-.45.43-1.32,0-1.78-.21-.85-.39-1.76-.78-2.48-1.4s-.99-1.49-1.36-2.36c-.16-.39-.48-.61-.92-.52-.89.18-1.82.28-2.73.12-1.42-.26-2.43-1.15-3.09-2.41-.11-.21-.4-.4-.65-.37-.69.07-1.36.6-1.96.9-1.08.54-2.25,1.02-3.45,1.18-.61.08-1.25.07-1.84-.09-.76-.21-1.36-.73-2.07-1.04-.83-.36-1.69-.33-2.57-.28-.73.04-1.49.08-2.08-.42-.91-.78-1.09-2.29-.4-3.26.81-1.12,2.39-1.47,3.67-1.11.88.25,1.62.57,2.52.19.75-.32,1.34-.86,2.15-1.07,1.59-.41,3,.15,4.19,1.19.75.65,1.53,1,2.54.91.9-.07,1.73-.26,2.63-.02,1.63.43,2.94,1.73,3.34,3.37.17.69,1.01.66,1.37.18.64-.85,1.94-.93,2.82-.43.33.19,1.98,1.49,1.31,1.87-.84.48-.08,1.78.76,1.29h0Z"/>
      </g>
      <path class="cls-2" d="m154.57,98.9c1.3-11.55-6.84-22.1-18.43-23.69-11.58-1.59-22.27,6.36-24.14,17.83-3.6-.27-6.73,1.69-7.12,4.55-.41,3.01,2.35,5.88,6.18,6.4.69.09,1.36.1,2.01.04,2.36,6.29,7.61,11.3,14.35,13.17v6.39c0,1.6,1.3,2.91,2.91,2.91h6.28c1.6,0,2.91-1.3,2.91-2.91v-6.54c4.44-1.36,8.32-4.13,11.05-7.86.61.23,1.26.41,1.95.5,3.83.53,7.27-1.48,7.68-4.49.39-2.86-2.09-5.59-5.63-6.3Z"/>
      <g>
        <path d="m126.08,102.69c.82,1.57,2.49,2.62,4.26,2.7s3.5-.9,4.44-2.39c.52-.82-.78-1.57-1.3-.76-.67,1.06-1.89,1.7-3.14,1.65s-2.39-.86-2.96-1.95c-.45-.86-1.74-.1-1.3.76h0Z"/>
        <path d="m129.12,95.53c.07,1.2.13,2.4.2,3.61.02.39.33.77.75.75.39-.02.77-.33.75-.75-.07-1.2-.13-2.4-.2-3.61-.02-.39-.33-.77-.75-.75-.39.02-.77.33-.75.75h0Z"/>
        <path d="m121.45,95.76c.09-.75.91-1.62,2.02-1.15.7.29.8.71.71,1.47s-.77,1.29-1.52,1.21-1.29-.77-1.21-1.52Z"/>
        <path d="m135.77,97.43c.09-.75.47-1.28,1.23-1.24,1.01.05,1.59.81,1.5,1.56s-.77,1.29-1.52,1.21-1.29-.77-1.21-1.52Z"/>
      </g>
      <path d="m135.94,75.93c2.3.47,4.18,1.76,5.47,3.73s1.91,4.1,2.44,6.28c.48,1.99.79,4.03,1.37,6,.75,2.55,2.26,5.3,4.35,6.99.99.81,2.2,1.42,3.51,1.38,1.38-.05,2.57-.77,3.5-1.74.67-.7-.39-1.76-1.06-1.06-4.1,4.29-8.16-3.29-9.02-6.59-1.06-4.1-1.45-8.51-3.86-12.12-1.48-2.23-3.65-3.77-6.29-4.31-.94-.19-1.35,1.25-.4,1.45h0Z"/>
      <path d="m135.16,74.35c-2.88-.19-5.85.25-8.34,1.78-1.81,1.11-3.26,2.72-4.33,4.55-.94,1.63-1.56,3.42-2.22,5.17-.81,2.11-1.66,4.44-3.2,6.15-.66.73-1.5,1.35-2.52,1.4-1.43.07-2.75-.82-3.81-1.69-.74-.61-1.81.44-1.06,1.06,1.92,1.59,4.42,2.87,6.84,1.58,2.03-1.08,3.21-3.41,4.1-5.42,1.65-3.73,2.49-7.85,5.74-10.62,2.44-2.09,5.67-2.65,8.8-2.45.96.06.96-1.44,0-1.5h0Z"/>
      <path d="m137.02,75.88c-.54,2.67-.57,5.46-.25,8.15s.94,5.54,2.45,7.84c.71,1.09,1.64,2.06,2.84,2.61.87.4,1.63-.89.76-1.29-1.99-.91-3.03-3.06-3.67-5.05-.81-2.52-1.11-5.2-1.07-7.84.02-1.35.12-2.7.39-4.03.19-.94-1.25-1.35-1.45-.4h0Z"/>
      <path d="m134.88,75.7c-1.14,2.57-1.81,5.39-2,8.2-.21,3.24.38,6.7,2.73,9.1.68.69,1.74-.37,1.06-1.06-2.11-2.16-2.49-5.31-2.28-8.2.18-2.46.77-5.02,1.78-7.28.39-.87-.9-1.64-1.29-.76h0Z"/>
      <path d="m133.27,75.01c-2.01,2.29-3.22,5.32-3.82,8.28s-.73,6.14.86,8.67c.51.82,1.81.06,1.29-.76-1.4-2.23-1.19-5.21-.67-7.68.56-2.64,1.59-5.4,3.39-7.45.63-.72-.42-1.79-1.06-1.06h0Z"/>
      <path d="m131.28,74.56c-2.8,2.15-4.83,5.11-6.13,8.38-1.08,2.73-1.77,5.94-1.02,8.84.24.93,1.69.54,1.45-.4-.67-2.59,0-5.46.95-7.89,1.14-2.92,3-5.72,5.51-7.64.32-.25.49-.64.27-1.03-.18-.32-.71-.52-1.03-.27h0Z"/>
      <path d="m139.9,75.93c2.19,2.06,3.36,4.98,4.14,7.88s1.26,5.9,2.39,8.69c1.13,2.79,3.03,5.43,5.81,6.59.69.29,1.64.41,2.04-.22.14-.22.18-.49.21-.75.52-4.62-.55-9.4-3-13.35s-6.26-7.04-10.63-8.63"/>
      <path d="m128.51,75.87c-3.47,2.01-5.07,4.27-6.67,7.94-.78,1.8-2.04,5.21-2.98,6.93s-2.86,2.68-4.78,3.05c-.93.18-2.12-.11-2.34-1.03-.08-.33-.01-.68.06-1.01,1.85-8.06,8.58-14.8,16.64-16.66"/>
      <g>
        <path class="cls-3" d="m124.53,118.79s5.41,3.23,10.65,3.74c4.95.49,6.59-1.66,9.31-1.87,1.68.97,3.27,2.81,3.17,4.55-5.66,4.64-17.35,7.23-27.13-2.88.28-1.98,1.5-2.76,3.99-3.54Z"/>
        <path d="m124.53,121.28c-.72,1-1.44,2-2.16,3-.23.32-.07.85.27,1.03.39.2.78.07,1.03-.27.72-1,1.44-2,2.16-3,.23-.32.07-.85-.27-1.03-.39-.2-.78-.07-1.03.27h0Z"/>
        <path d="m127.74,123.02c-.49,1.14-.98,2.27-1.46,3.41-.08.19-.13.37-.08.58.05.17.18.36.34.45.32.17.86.12,1.03-.27.49-1.14.98-2.27,1.46-3.41.08-.19.13-.37.08-.58-.05-.17-.18-.36-.34-.45-.32-.17-.86-.12-1.03.27h0Z"/>
        <path d="m131.45,124.54c-.3,1.2-.6,2.4-.9,3.6-.1.38.12.83.52.92s.82-.12.92-.52c.3-1.2.6-2.4.9-3.6.1-.38-.12-.83-.52-.92s-.82.12-.92.52h0Z"/>
        <path d="m142.72,123.56c.41,1.17.82,2.33,1.23,3.5.13.37.52.65.92.52.36-.12.66-.53.52-.92-.41-1.17-.82-2.33-1.23-3.5-.13-.37-.52-.65-.92-.52-.36.12-.66.53-.52.92h0Z"/>
      </g>
      <path class="cls-5" d="m75.99,280.7c-1.36,10.27-6.85,26.42-12.48,40.3-.62,1.53-1.97,5.35-1.7,6.98.66,4.01,6.04,5.08,9.76,3.44,6.45-2.84,10.61-12.32,13.01-15.61,5.69-7.8,16.3-14.97,20.98-19.16,2.6-2.33,3.28-6.17-.46-11.22-1.73-2.34-4.54-3.56-6.95-5.19-2.64-1.77-4.87-4.09-7.48-5.9-2.61-1.81-5.83-3.11-8.94-2.45-3.11.66-5.77,3.89-4.9,6.94"/>
      <g>
        <path d="m73.26,290.5c-2.35,8.05-4.89,16.06-7.89,23.89-1.03,2.69-2.14,5.1-3.1,7.83s-2.25,6.28.1,8.49c2.5,2.37,6.77,2.45,9.83,1.28,1.93-.74,3.33-2.08,4.64-3.66,1.57-1.88,2.87-3.95,4.17-6.02,2.57-4.12,5.36-8.01,8.75-11.51,1.7-1.76,3.5-3.41,5.4-4.95s3.73-2.77,5.65-4.09c3.31-2.27,6.86-5.06,7.29-9.35.48-4.91-3.35-8.86-7.33-11.05-1.06-.58-2.15-1.09-3.26-1.56-.88-.38-1.64.92-.76,1.29,4.09,1.75,8.57,4.25,9.68,8.93,1.01,4.26-2.17,7.42-5.33,9.7-1.68,1.21-3.44,2.32-5.1,3.57-1.86,1.4-3.65,2.9-5.34,4.5-3.34,3.15-6.33,6.69-8.88,10.51-1.31,1.95-2.49,3.99-3.79,5.95-1.22,1.84-2.57,3.76-4.28,5.19-2.35,1.97-6.44,2.38-9.16.97-1.1-.57-1.95-1.39-1.98-2.65-.03-1.46.42-2.93.86-4.3.82-2.53,1.95-4.95,2.91-7.43,2.74-7.05,5.12-14.23,7.29-21.48.37-1.22.73-2.44,1.09-3.67.27-.93-1.18-1.32-1.45-.4h0Z"/>
        <path d="m97.64,279.93c-2.37-2.15-4.43-4.6-6.8-6.75-.71-.65-1.78.41-1.06,1.06,2.37,2.15,4.43,4.6,6.8,6.75.71.65,1.78-.41,1.06-1.06h0Z"/>
        <path d="m74.51,290.17c-2.27-2.25-4.21-4.8-6.48-7.05-.69-.68-1.75.38-1.06,1.06,2.27,2.25,4.21,4.8,6.48,7.05.69.68,1.75-.38,1.06-1.06h0Z"/>
      </g>
      <path class="cls-6" d="m123.39,269.45c-10.38,5.06-19.85,8.67-27.67,3.74l.99,2.36c-7.84,6.91-20.24,13.57-28.05,16.36-6.79-7.43-10.99-16.47-16.37-24.98-4.71-7.46-7.26-11.75-8.66-15.14-5.68-13.68-8.08-19.18-9.41-29.65-1.33-10.47,3.72-15.56,9.39-21.22,3.89-3.89,11.98-5.07,17.44-4.35s9.19,4.39,14.01,7.06c12.38,6.85,22.51,17.28,30.58,28.9,8.07,11.62,14.2,24.46,19.94,37.4"/>
      <g>
        <path d="m66.58,280.17c1.79,3.3,3.8,6.49,6,9.53.24.33.65.49,1.03.27.32-.19.51-.7.27-1.03-2.2-3.05-4.2-6.23-6-9.53-.46-.85-1.76-.09-1.29.76h0Z"/>
        <path d="m70.98,278.48c1.79,3.3,3.8,6.49,6,9.53.24.33.65.49,1.03.27.32-.19.51-.7.27-1.03-2.2-3.05-4.2-6.23-6-9.53-.46-.85-1.76-.09-1.29.76h0Z"/>
        <path d="m75.8,275.36c1.79,3.3,3.8,6.49,6,9.53.24.33.65.49,1.03.27.32-.19.51-.7.27-1.03-2.2-3.05-4.2-6.23-6-9.53-.46-.85-1.76-.09-1.29.76h0Z"/>
        <path d="m80.86,272.96c1.79,3.3,3.8,6.49,6,9.53.24.33.65.49,1.03.27.32-.19.51-.7.27-1.03-2.2-3.05-4.2-6.23-6-9.53-.46-.85-1.76-.09-1.29.76h0Z"/>
        <path d="m86.2,269.73c1.79,3.3,3.8,6.49,6,9.53.24.33.65.49,1.03.27.32-.19.51-.7.27-1.03-2.2-3.05-4.2-6.23-6-9.53-.46-.85-1.76-.09-1.29.76h0Z"/>
      </g>
      <path d="m74.51,202.74c-4.18-3.47-9.06-6.1-14.52-6.77-4.3-.52-8.65.34-12.53,2.22-3.44,1.66-6.53,4.13-8.95,7.08-2.61,3.18-4.15,6.81-4.74,10.9-.88,6.11.35,12.26,2.22,18.08s4.17,11.44,6.59,17c3.59,8.25,7.72,16.27,12.6,23.84,3.43,5.32,7.25,10.34,10.95,15.47.41.57.82,1.15,1.23,1.73.21.3.49.41.85.34,2.3-.43,4.52-1.36,6.65-2.3,2.8-1.23,5.52-2.65,8.17-4.17s5.28-3.17,7.76-4.99c1.85-1.35,3.76-2.8,5.22-4.59.26-.33.53-.67.74-1.04.36-.64.05-1.1-.23-1.7-.49-1.06-.99-2.12-1.49-3.17-1.16-2.46-2.35-4.9-3.55-7.34-3.08-6.25-6.25-12.45-9.47-18.63-4.09-7.84-8.28-15.63-12.53-23.38-.59-1.08-1.19-2.16-1.78-3.24-.47-.85-1.76-.09-1.29.76,4.96,9,9.84,18.04,14.59,27.15,3.58,6.85,7.09,13.74,10.47,20.7,1.4,2.87,2.77,5.76,4.11,8.66v-.76c-.68,1.31-1.91,2.38-3.07,3.37-1.7,1.45-3.54,2.74-5.41,3.97-4.2,2.76-8.63,5.23-13.24,7.23-1.94.84-3.95,1.65-6.03,2.03l.85.34c-3.45-4.9-7.12-9.64-10.47-14.61-4.55-6.76-8.51-13.87-11.97-21.25-2.39-5.09-4.55-10.29-6.54-15.55-2.13-5.61-4.17-11.41-4.62-17.44-.35-4.74.29-9.81,2.8-13.93,1.81-2.96,4.35-5.51,7.21-7.45,3.29-2.23,7.11-3.7,11.1-3.94,4.85-.3,9.55,1.22,13.64,3.78,1.28.8,2.49,1.7,3.65,2.66.74.61,1.8-.44,1.06-1.06h0Z"/>
      <path d="m94.88,273.58c4.09,2.13,8.82,2.9,13.4,2.18,2.71-.42,5.15-1.88,7.81-2.54,2.39-.6,4.85-.73,7.31-.62.96.04.96-1.46,0-1.5-3.82-.16-7.47.38-11.03,1.77-1.16.45-2.31.95-3.52,1.25-1.79.45-3.75.43-5.58.32-2.69-.16-5.24-.92-7.62-2.16-.86-.44-1.61.85-.76,1.29h0Z"/>
      <path class="cls-5" d="m39.82,273.52c-2.26,3.49-3.68,5.51-6.41,10.28-6.38,3.35-14.32,10.59-20.49,13.83-2.89,1.52-5.17,4-8.14,5.35-4.79,2.17-4.91,6.23-1.67,8.99,2.47,2.11,6.97,3.68,10.15,3.02,8.42-1.76,18.43-6.64,28.46-7.14,4.22-.21,9.2.47,13.41.06,4.21-.42,7.55-2.06,8.71-6.13.66-2.33-.7-7.51-1.24-9.87-1.21-5.18-2.2-7.76-3.4-12.95-.84-3.64-1.85-7.54-4.75-9.9-2.89-2.36-8.26-1.85-9.29,1.74"/>
      <g>
        <path d="m33.03,283.16c-8,5.3-16,10.61-24.01,15.91-2.01,1.33-4.02,2.66-6.03,3.99-.83.55-1.7,1.1-2.28,1.93-.52.74-.74,1.66-.71,2.56.12,3.58,3.27,6.24,6.39,7.39,3.58,1.33,7.46.98,11.07-.04,4.24-1.2,8.24-3.1,12.5-4.28s8.86-1.92,13.38-2.12c2.16-.09,4.32-.06,6.48.06,1.86.1,3.74.22,5.6.07,3.65-.29,7.13-1.81,8.68-5.34,1.63-3.72.8-7.79-.84-11.35-.45-.98-.96-1.94-1.5-2.88-.48-.84-1.77-.08-1.29.76,1.87,3.3,3.64,7.11,2.85,11-.34,1.67-1.11,3.22-2.4,4.34s-2.86,1.61-4.47,1.86c-3.65.56-7.44-.11-11.11-.07-4.19.05-8.38.52-12.47,1.41s-7.97,2.34-11.89,3.79c-3.56,1.32-7.32,2.52-11.16,2.06-3.07-.37-6.35-1.86-7.78-4.76-.37-.75-.59-1.63-.49-2.47.11-.92.68-1.57,1.41-2.09,1.79-1.28,3.67-2.44,5.5-3.65,7.52-4.98,15.03-9.96,22.55-14.95l2.81-1.86c.8-.53.05-1.83-.76-1.29h0Z"/>
        <path d="m34.05,284.18c1.75-2.65,3.5-5.3,5.24-7.95.53-.81-.77-1.56-1.29-.76-1.75,2.65-3.5,5.3-5.24,7.95-.53.81.77,1.56,1.29.76h0Z"/>
      </g>
      <path class="cls-6" d="m150.8,253.26c-8.38-15.62-24.94-37.76-43.89-49.19-6.63-4-16.8-10.21-25.87-5.93-6.63,3.13-15.59,17.84-19.57,24-12.56,19.49-17.67,34.93-27.12,56.26,8.31,7.32,17.14,10.86,30.25,13.5,9.63-18.1,16.37-32.04,26-50.14,7.78,7.08,11.9,16.35,19.6,23.35,7.34,6.67,14.48,12.98,24.89,13.14s16.2-4.05,21.07-11.93c0,0-2.18-1.99-2.68-2.83-1.24-2.05-2.69-10.24-2.69-10.24Z"/>
      <g>
        <path d="m151.45,252.88c-6.47-10.7-13.45-21.17-21.78-30.52s-17.69-17.15-28.81-22.35c-5.48-2.56-11.43-4.82-17.54-3.38-4.2.98-7.76,3.6-10.51,6.85-4.34,5.1-7.73,10.99-11.08,16.76s-7.01,11.89-10.29,17.96c-6.09,11.29-11.22,23.03-15.9,34.96-.64,1.63-1.27,3.26-1.9,4.9-.35.9,1.1,1.29,1.45.4,4.6-11.95,9.49-23.79,15.37-35.18,3.06-5.92,6.38-11.67,9.75-17.42s6.73-11.87,10.69-17.43c2.6-3.66,5.49-7.23,9.61-9.22,2.18-1.06,4.6-1.56,7.02-1.55,3.21.02,6.25.98,9.21,2.17,11.16,4.48,20.86,11.92,29.12,20.58,8.46,8.87,15.51,18.98,21.97,29.37.8,1.28,1.59,2.57,2.37,3.86.5.82,1.8.07,1.29-.76h0Z"/>
        <path d="m33.81,278.79c2.55,3.05,6.26,5.12,9.78,6.85,3.91,1.92,8.01,3.48,12.16,4.81,2.62.84,5.33,1.73,8.06,2.14.56.09,1.08.16,1.49-.31.36-.41.64-.92.93-1.39,2.99-4.93,5.63-10.08,8.31-15.17,4.1-7.78,8.09-15.61,11.94-23.51,3.43-7.04,6.84-14.12,9.7-21.41.26-.65.51-1.31.75-1.97.33-.91-1.12-1.3-1.45-.4-2.51,6.83-5.69,13.44-8.84,19.99-3.78,7.86-7.72,15.65-11.75,23.38-2.96,5.67-5.93,11.35-9.13,16.9-.39.67-.77,1.34-1.19,1.99-.12.19-.25.37-.37.56-.11.17.15-.12-.02.03-.14.11.02-.02.06-.03.23-.09.41-.02.15-.09-.05-.01-.11-.01-.16-.01-.16-.01.16.03-.08-.01-.43-.07-.86-.16-1.28-.25-1.38-.31-2.75-.68-4.11-1.08-3.92-1.14-7.8-2.5-11.55-4.13s-7.53-3.49-10.61-6.18c-.62-.55-1.21-1.13-1.74-1.77-.62-.74-1.67.32-1.06,1.06h0Z"/>
        <path d="m90.08,242.29c3.52,4.15,6.9,8.43,10.36,12.64s6.93,8.47,10.8,12.31c4.29,4.27,9.41,7.95,15.03,10.25s11.92,2.67,17.64.5c5.28-2.01,9.75-5.82,12.91-10.46.54-.8-.75-1.55-1.29-.76-2.69,3.96-6.43,7.27-10.8,9.27-5.32,2.43-11.32,2.45-16.79.5-10.82-3.85-18.37-12.88-25.45-21.45-3.8-4.6-7.5-9.3-11.36-13.85-.63-.74-1.68.33-1.06,1.06h0Z"/>
      </g>
      <path d="m146.74,245.01c2.46,2.75,3.55,6.07,3.98,9.67.35,3,.43,6.17,1.95,8.88.95,1.7,2.41,3.01,4.06,4.02.83.5,1.58-.79.76-1.29-1.41-.87-2.65-1.97-3.48-3.42-.72-1.26-1.08-2.69-1.31-4.12-.5-3.13-.5-6.32-1.58-9.34-.73-2.04-1.86-3.86-3.3-5.47-.65-.72-1.7.34-1.06,1.06h0Z"/>
      <path d="m153.68,270.99c1.42.43,3.24.76,4.67.23,1.09-.4,1.58-1.41,2.05-2.4.4-.83.69-1.69.91-2.58.35-1.39.71-2.78,1.15-4.14.3-.92-1.15-1.31-1.45-.4-.39,1.18-.72,2.37-1.01,3.57-.19.79-.39,1.59-.7,2.34-.13.32-.38.82-.59,1.2-.13.24-.25.49-.41.71.07-.1-.07.07-.09.09-.09.08.08-.05-.02.02-.05.04-.1.07-.15.1-.12.07-.21.1-.43.15-.25.06-.3.06-.55.08-.45.02-.9,0-1.35-.06s-1.12-.19-1.64-.35c-.93-.28-1.32,1.17-.4,1.45h0Z"/>
      <g>
        <path d="m141,268.58l-2.23.3c-.21.03-.38.07-.53.22-.13.13-.23.34-.22.53s.07.4.22.53c.14.12.34.25.53.22l2.23-.3c.21-.03.38-.07.53-.22.13-.13.23-.34.22-.53s-.07-.4-.22-.53c-.14-.12-.34-.25-.53-.22h0Z"/>
        <path d="m139.38,273.38c-1.09-1.29-2.17-2.57-3.26-3.86-.25-.3-.8-.28-1.06,0-.29.32-.27.74,0,1.06,1.09,1.29,2.17,2.57,3.26,3.86.25.3.8.28,1.06,0,.29-.32.27-.74,0-1.06h0Z"/>
        <path d="m135.13,265.86l-2.23.3c-.21.03-.38.07-.53.22-.13.13-.23.34-.22.53s.07.4.22.53c.14.12.34.25.53.22l2.23-.3c.21-.03.38-.07.53-.22.13-.13.23-.34.22-.53s-.07-.4-.22-.53c-.14-.12-.34-.25-.53-.22h0Z"/>
        <path d="m133.52,270.66c-1.09-1.29-2.17-2.57-3.26-3.86-.25-.3-.8-.28-1.06,0-.29.32-.27.74,0,1.06,1.09,1.29,2.17,2.57,3.26,3.86.25.3.8.28,1.06,0,.29-.32.27-.74,0-1.06h0Z"/>
        <path d="m128.04,263.13c-.74.1-1.49.2-2.23.3-.21.03-.38.07-.53.22-.13.13-.23.34-.22.53s.07.4.22.53c.14.12.34.25.53.22.74-.1,1.49-.2,2.23-.3.21-.03.38-.07.53-.22.13-.13.23-.34.22-.53s-.07-.4-.22-.53c-.14-.12-.34-.25-.53-.22h0Z"/>
        <path d="m126.42,267.93c-1.09-1.29-2.17-2.57-3.26-3.86-.25-.3-.8-.28-1.06,0-.29.32-.27.74,0,1.06,1.09,1.29,2.17,2.57,3.26,3.86.25.3.8.28,1.06,0,.29-.32.27-.74,0-1.06h0Z"/>
        <path d="m120.54,259.84c-.74.1-1.49.2-2.23.3-.21.03-.38.07-.53.22-.13.13-.23.34-.22.53s.07.4.22.53c.14.12.34.25.53.22.74-.1,1.49-.2,2.23-.3.21-.03.38-.07.53-.22.13-.13.23-.34.22-.53s-.07-.4-.22-.53c-.14-.12-.34-.25-.53-.22h0Z"/>
        <path d="m118.92,264.64c-1.09-1.29-2.17-2.57-3.26-3.86-.25-.3-.8-.28-1.06,0-.29.32-.27.74,0,1.06,1.09,1.29,2.17,2.57,3.26,3.86.25.3.8.28,1.06,0,.29-.32.27-.74,0-1.06h0Z"/>
        <path d="m114.49,249.04c-.74.1-1.49.2-2.23.3-.21.03-.38.07-.53.22-.13.13-.23.34-.22.53s.07.4.22.53c.14.12.34.25.53.22.74-.1,1.49-.2,2.23-.3.21-.03.38-.07.53-.22.13-.13.23-.34.22-.53s-.07-.4-.22-.53c-.14-.12-.34-.25-.53-.22h0Z"/>
        <path d="m112.87,253.84c-1.09-1.29-2.17-2.57-3.26-3.86-.25-.3-.8-.28-1.06,0-.29.32-.27.74,0,1.06,1.09,1.29,2.17,2.57,3.26,3.86.25.3.8.28,1.06,0,.29-.32.27-.74,0-1.06h0Z"/>
        <path d="m127.38,254.64l-2.23.3c-.21.03-.38.07-.53.22-.13.13-.23.34-.22.53s.07.4.22.53c.14.12.34.25.53.22l2.23-.3c.21-.03.38-.07.53-.22.13-.13.23-.34.22-.53s-.07-.4-.22-.53c-.14-.12-.34-.25-.53-.22h0Z"/>
        <path d="m125.77,259.44c-1.09-1.29-2.17-2.57-3.26-3.86-.25-.3-.8-.28-1.06,0-.29.32-.27.74,0,1.06,1.09,1.29,2.17,2.57,3.26,3.86.25.3.8.28,1.06,0,.29-.32.27-.74,0-1.06h0Z"/>
        <path d="m133.96,257.04c-.74.1-1.49.2-2.23.3-.21.03-.38.07-.53.22-.13.13-.23.34-.22.53s.07.4.22.53c.14.12.34.25.53.22.74-.1,1.49-.2,2.23-.3.21-.03.38-.07.53-.22.13-.13.23-.34.22-.53s-.07-.4-.22-.53c-.14-.12-.34-.25-.53-.22h0Z"/>
        <path d="m132.34,261.84c-1.09-1.29-2.17-2.57-3.26-3.86-.25-.3-.8-.28-1.06,0-.29.32-.27.74,0,1.06,1.09,1.29,2.17,2.57,3.26,3.86.25.3.8.28,1.06,0,.29-.32.27-.74,0-1.06h0Z"/>
        <path d="m121.1,251.93c-.74.1-1.49.2-2.23.3-.21.03-.38.07-.53.22-.13.13-.23.34-.22.53s.07.4.22.53c.14.12.34.25.53.22.74-.1,1.49-.2,2.23-.3.21-.03.38-.07.53-.22.13-.13.23-.34.22-.53s-.07-.4-.22-.53c-.14-.12-.34-.25-.53-.22h0Z"/>
        <path d="m119.48,256.73c-1.09-1.29-2.17-2.57-3.26-3.86-.25-.3-.8-.28-1.06,0-.29.32-.27.74,0,1.06,1.09,1.29,2.17,2.57,3.26,3.86.25.3.8.28,1.06,0,.29-.32.27-.74,0-1.06h0Z"/>
      </g>
      <g>
        <path d="m40.93,270.72c-1.37,3.5-2.51,7.08-3.42,10.73-.23.94,1.21,1.34,1.45.4.91-3.65,2.06-7.23,3.42-10.73.35-.9-1.1-1.29-1.45-.4h0Z"/>
        <path d="m45.05,272.99c-1.37,3.5-2.51,7.08-3.42,10.73-.23.94,1.21,1.34,1.45.4.91-3.65,2.06-7.23,3.42-10.73.35-.9-1.1-1.29-1.45-.4h0Z"/>
        <path d="m50.55,274.67c-1.37,3.5-2.51,7.08-3.42,10.73-.23.94,1.21,1.34,1.45.4.91-3.65,2.06-7.23,3.42-10.73.35-.9-1.1-1.29-1.45-.4h0Z"/>
        <path d="m55.64,276.99c-1.37,3.5-2.51,7.08-3.42,10.73-.23.94,1.21,1.34,1.45.4.91-3.65,2.06-7.23,3.42-10.73.35-.9-1.1-1.29-1.45-.4h0Z"/>
        <path d="m61.56,278.99c-1.37,3.5-2.51,7.08-3.42,10.73-.23.94,1.21,1.34,1.45.4.91-3.65,2.06-7.23,3.42-10.73.35-.9-1.1-1.29-1.45-.4h0Z"/>
      </g>
      <path class="cls-7" d="m124.94,286.64c-1.8.44-3.63-1.23-3.8-3.07-.47-5.16,3.64-3.38,5.96-4.99,6.07-4.2,16.13-7.33,26.65-10.43,5.92-1.74,19.14-1.9,24.64-7.77,1.33-1.42.09,4.02,2.04,3.99,2.42-.03,7.21-.43,7.72,1.93s-7.63,4.47-8.62,6.68c-4.8,10.62-9.48,13.49-20.96,15.47-11.48,1.98-23.24.19-34.76-1.61"/>
      <path d="m125.42,279.98c8.36-4.53,17.1-8.14,26.37-10.34,5.74-1.37,11.66-2.25,17-4.9,3.49-1.73,6.6-4.11,9.44-6.75.71-.66-.35-1.72-1.06-1.06-2.53,2.35-5.27,4.48-8.34,6.11-2.48,1.32-5.12,2.24-7.83,2.95-2.89.76-5.83,1.33-8.74,2-3.7.86-7.35,1.88-10.93,3.15-5.76,2.04-11.3,4.64-16.66,7.55-.85.46-.09,1.76.76,1.29h0Z"/>
      <path d="m112.23,92.9c1.61-4.99,4.21-9.76,8.25-13.19,3.14-2.66,7.08-4.3,11.18-4.57,3.88-.26,7.8.64,11.22,2.48s6.38,4.65,8.32,8.07c2.09,3.68,2.89,7.94,2.46,12.14-.06.59-.15,1.18-.25,1.76-.11.63.85.9.96.27.81-4.47.36-9.08-1.56-13.22-1.75-3.76-4.64-6.93-8.14-9.13s-7.49-3.39-11.57-3.41-8.45,1.32-11.91,3.8c-4.28,3.08-7.23,7.6-9.13,12.47-.29.75-.56,1.5-.8,2.27-.2.61.77.88.96.27h0Z"/>
    </g>
  </g>
</svg>