<?xml version="1.0" encoding="UTF-8"?>
<svg id="_レイヤー_2" data-name="レイヤー 2" xmlns="http://www.w3.org/2000/svg" xmlns:xlink="http://www.w3.org/1999/xlink" viewBox="0 0 151.09 225">
  <defs>
    <style>
      .cls-1, .cls-2, .cls-3 {
        fill: #fff;
      }

      .cls-2 {
        stroke-width: 1.5px;
      }

      .cls-2, .cls-4, .cls-3, .cls-5, .cls-6 {
        stroke: #000;
      }

      .cls-2, .cls-4, .cls-5 {
        stroke-miterlimit: 10;
      }

      .cls-3, .cls-6 {
        stroke-linecap: round;
        stroke-linejoin: round;
        stroke-width: 1.42px;
      }

      .cls-5 {
        stroke-width: 1.5px;
      }

      .cls-5, .cls-7 {
        fill: #f4c544;
      }

      .cls-6, .cls-8 {
        fill: none;
      }

      .cls-9 {
        clip-path: url(#clippath);
      }

      .cls-10 {
        fill: #fff069;
      }

      .cls-11 {
        fill: #8ca4d4;
      }

      .cls-12 {
        opacity: .99;
      }
    </style>
    <clipPath id="clippath">
      <path class="cls-8" d="m147.63,72.28c-10.39-34.53-31.27-35.42-42.69-33.78-8.69,1.24-19.36,12.37-24.1,19.99-14.24,22.93-22.43,57.26-22.43,57.26.98.45,2,.89,3.05,1.33-8.64,10.65-28.13,38-32.2,53.56,5.07,4.6,15.97,11.56,25.69,18.42,7.46-10.34,33.35-41.31,35.58-44.4,2.53.82,7.14,2.68,11.39,4.71,3.11,14.16,9.33,36.77,14.96,44.99,7.61-2.02,21.58-1.72,34.21-2.57-2.32-11.8-6.93-51.31-7.42-62.59-.02-.5-.11-.99-.22-1.48,1.28-.22,2.54-.46,3.76-.74,0,0,6.92-33.12.43-54.71Z"/>
    </clipPath>
  </defs>
  <g id="_レイヤー_20" data-name="レイヤー 20">
    <g>
      <g>
        <path class="cls-1" d="m111.36,169l8.9,28.6c-2.29,5.38-19.81,10.92-16.69,23.59l45.12-11.49c-.33-6-11.42-48.96-11.42-48.96"/>
        <path class="cls-6" d="m110.98,167.54c1.91,7.63,9.28,30.06,9.28,30.06-2.29,5.38-19.81,10.92-16.69,23.59l45.12-11.49c1.87-2.53-9.98-37.55-11.15-50.4"/>
        <path d="m117.58,199c-2.88.61-22.58,14.62-14.54,22.32l29.58-7.53c-3.28-8.44-12.49-15.34-15.04-14.79Z"/>
        <rect class="cls-3" x="102.72" y="215.55" width="47.9" height="3.07" transform="translate(-48.24 36.59) rotate(-13.84)"/>
      </g>
      <g>
        <path class="cls-1" d="m51.32,144.5c-8.68,5.39-18.77,20.47-20.55,27.81-6.54,2.45-22.06-4.99-28.14,6.55l41.37,21.38s11.65-23.02,18.83-29.87"/>
        <path class="cls-6" d="m54.29,142.13c-18.8,14.31-23.52,30.18-23.52,30.18-5.28,2.5-22.06-4.99-28.14,6.55l41.37,21.38s15.8-32.08,26.27-35.75"/>
        <path d="m26.59,170.95c-2.5-1.67-24.46-1.77-23.98,7.92l22.44,12.29s9.95-14.6,1.54-20.2Z"/>
        <rect class="cls-3" x="-1.34" y="189.59" width="47.9" height="3.07" transform="translate(91.7 11.5) rotate(27.78)"/>
      </g>
      <path class="cls-10" d="m63.5,114.58c-9.47,10.91-30.42,38.98-34.23,56.07,5.07,4.6,16.59,11.52,25.69,18.42,8.56-11.87,33.35-41.31,35.58-44.4,2.53.82,7.14,2.68,11.39,4.71,3.11,14.16,9.33,36.77,14.96,44.99,7.57,0,22.52-.41,33.5-2.57-1.42-13.02-6.22-51.31-6.71-62.59s-26.76-18.36-36.42-21.37"/>
      <path class="cls-10" d="m58.41,115.76s8.19-34.33,22.43-57.26c4.74-7.62,15.4-18.75,24.1-19.99,11.42-1.64,32.3-.75,42.69,33.78,6.49,21.59-.43,54.71-.43,54.71-26.63,6.06-66.95-1.15-88.79-11.23Z"/>
      <g class="cls-9">
        <path class="cls-11" d="m39.64,149.29c1.35.22,2.8.69,3.42,2.02.53,1.12.41,2.5.23,3.68-.43,2.95-1.65,5.97-1.24,8.99.18,1.3.73,2.49,1.84,3.23s2.41.97,3.63,1.33c1.71.52,3.34,1.21,4.77,2.3,1.67,1.27,3.39,3.1,4.04,5.15,1.26,3.98-1.04,8.55-4.96,9.93-.9.32-.51,1.77.4,1.45,3.88-1.37,6.49-5.18,6.41-9.3-.04-2.17-.89-4-2.22-5.68-1.42-1.79-3.2-3.29-5.28-4.26-1.49-.69-3.05-1.08-4.61-1.58-1.12-.37-1.98-.81-2.35-1.96-.44-1.35-.22-2.86.03-4.22.29-1.61.72-3.19.97-4.8s.4-3.39-.32-4.93c-.8-1.71-2.59-2.5-4.36-2.79-.94-.16-1.35,1.29-.4,1.45h0Z"/>
        <path class="cls-11" d="m53.72,135.65c2.87-3.76,7.14-7.5,12.22-6.81,1.32.18,2.51.62,3.62,1.29.6.36.71.46,1.17.87.94.84,1.83,1.82,2.32,2.99,1.46,3.5-1.71,6.92-2.83,10.04-.64,1.77-.76,3.79.12,5.52.53,1.03,1.59,1.75,2.49,2.41,2.47,1.82,4.96,3.74,5.63,6.92.49,2.33-.08,4.81-.93,6.98-.76,1.93-2.16,3.58-3.96,4.62-3.39,1.95-7.94,1.63-10.89-1-1.65-1.47-2.9-3.68-3.03-5.91-.12-2.02.8-3.73,1.81-5.41.89-1.49,1.8-3.08,1.48-4.89-.19-1.1-.82-2.19-1.7-2.88s-1.87-.93-2.91-1.08-2.09-.21-3.04-.61c-1.12-.47-1.83-1.47-2.35-2.53-1.11-2.27-1.2-5.08-.58-7.5.27-1.08.7-2.11,1.37-3.01.57-.78-.73-1.53-1.29-.76-1.52,2.06-2.04,4.87-1.92,7.39s1.02,5.72,3.28,7.29c.94.65,2.08.9,3.2,1.05,1.01.14,2.12.2,3.02.73s1.46,1.54,1.51,2.54c.05.78-.25,1.53-.6,2.22-.93,1.8-2.19,3.42-2.6,5.45-.49,2.44.25,4.99,1.63,7.03,2.53,3.74,7.22,5.39,11.58,4.32,2.08-.51,4.02-1.66,5.43-3.27,1.72-1.95,2.66-4.54,3.03-7.09.31-2.12.13-4.26-.82-6.21-.75-1.56-1.96-2.85-3.28-3.94-1.11-.91-2.37-1.7-3.39-2.59-.19-.16-.36-.34-.53-.52-.12-.13-.21-.23-.34-.52-.38-.8-.49-1.75-.39-2.62.44-3.87,4.07-6.8,3.66-10.88-.37-3.58-3.64-6.44-6.92-7.5-4.35-1.4-8.74.32-12.04,3.24-1.31,1.16-2.45,2.49-3.51,3.88-.58.77.72,1.51,1.29.76Z"/>
        <path class="cls-11" d="m56.23,123.69c1.18.97,2.5,1.88,4.05,2.06,1.13.13,2.21-.22,3.2-.75,1.08-.58,2.07-1.31,3.16-1.88,1.39-.73,2.88-1.14,4.45-1.22.96-.05.97-1.55,0-1.5-1.61.08-3.14.45-4.6,1.13-1.09.5-2.08,1.18-3.1,1.8-.79.48-1.64.95-2.58.96-1.33.01-2.54-.85-3.51-1.66-.74-.61-1.81.45-1.06,1.06h0Z"/>
        <path class="cls-11" d="m132.68,129.8c-1.66.25-3.31.82-4.55,2-.99.94-1.59,2.19-1.95,3.49-.34,1.23-.49,2.49-.75,3.74s-.65,2.61-1.76,3.38c-1.28.88-2.99.87-4.48,1.06-1.75.22-3.44.64-4.83,1.79-3.12,2.58-4.47,7.41-2.92,11.18s5.58,6.12,9.51,5.31c2.78-.58,4.57-3.15,5.83-5.49,1.35-2.48,2.26-5.31,3.97-7.57.61-.81,1.26-1.21,2.17-1.63,1.29-.59,2.54-1.27,3.71-2.06,2.84-1.92,5.31-4.63,4.95-8.29-.32-3.31-2.71-6.26-6.06-6.87-.96-.17-1.89-.16-2.85-.03-.4.05-.62.57-.52.92.11.43.52.58.92.52,3.14-.42,6.03,1.46,6.83,4.53.36,1.37.28,2.9-.37,4.18-.7,1.38-1.91,2.48-3.15,3.38-1.16.84-2.41,1.55-3.69,2.17-.86.42-1.69.73-2.39,1.41-1.78,1.74-2.71,4.3-3.77,6.49s-2.26,4.89-4.43,6.24c-2.82,1.77-6.69.18-8.48-2.34-2.25-3.18-1.45-7.66,1.14-10.39,1.18-1.24,2.67-1.73,4.32-1.95,1.44-.2,2.96-.22,4.33-.77,5.41-2.15,2.04-9.99,7.26-12.32.76-.34,1.58-.51,2.39-.64.95-.15.55-1.59-.4-1.45Z"/>
        <path class="cls-11" d="m110.75,166.07c1.74-.15,3.61-.01,5.05,1.09,1.11.86,1.78,2.16,2.19,3.49.89,2.86.75,5.87,1.42,8.77.23,1.01.65,2.14,1.62,2.65,1.51.8,3.24-.03,4.53-.87,1.42-.93,2.8-2.19,4.52-2.51,2.18-.41,4.12,1.39,5.29,3.02,1.49,2.07,2.36,4.67,2.23,7.23-.11,2.12-1.09,4.17-3.29,4.7-.94.22-.54,1.67.4,1.45,4.94-1.18,5.02-7.4,3.51-11.23-.94-2.38-2.57-4.75-4.86-6.01-1.94-1.06-3.98-.8-5.86.26-1.49.84-2.84,2.29-4.53,2.71-.25.06-.55.09-.8.06-.09-.01-.53-.17-.33-.07-.07-.03-.34-.23-.18-.09-.31-.26-.45-.56-.58-.93-.45-1.31-.52-2.6-.66-3.96-.18-1.67-.36-3.36-.8-4.99-.46-1.74-1.26-3.5-2.67-4.67-1.73-1.44-3.99-1.78-6.18-1.59-.95.08-.96,1.58,0,1.5h0Z"/>
        <path class="cls-11" d="m147.99,158.8c-2.02-1.86-4.8-2.65-7.48-1.9-2.24.63-4.35,2.38-4.76,4.77-.23,1.34.11,2.55.64,3.78.58,1.35,1.35,2.59,2.27,3.73,1.58,1.95,3.6,3.46,5.65,4.89,1.49,1.03,3.69,2.24,4.27,4,.3.91,1.75.52,1.45-.4-.54-1.64-1.93-2.74-3.28-3.72-1.73-1.26-3.55-2.39-5.14-3.84-1.87-1.69-3.46-3.81-4.24-6.23-.67-2.06.42-3.99,2.24-5,2.39-1.33,5.33-.84,7.31.99.71.65,1.77-.4,1.06-1.06h0Z"/>
        <path class="cls-11" d="m76.09,67.76c2.38,1.64,5.25,1.06,7.69-.13,1.76-.85,2.08-3.24,2.56-4.93.16-.56.38-1.85.92-2.16.26-.15.62,0,.88.08.49.16.95.39,1.45.51,1.27.32,2.2-.25,3.2-.98,1.07-.78,2.05-1.73,2.59-2.96.2-.46.31-.9.37-1.4.07-.54.15-.63.1-1.21-.09-1-.69-1.87-1.45-2.5-1.78-1.46-4.45-2.03-6.62-1.18-1.12.44-1.94,1.19-2.39,2.31-.31.77-.39,1.6-.69,2.36-.02.04-.19.2-.04.12-.05.03-.2.02-.36,0-.46-.03-.92-.15-1.37-.24-1.1-.22-2.25-.45-3.37-.27-2.44.39-4.04,2.89-4.88,4.97-.62,1.52-.88,2.98-.4,4.59.3.99.83,2.23,1.67,2.88.75.58,1.82-.47,1.06-1.06-.62-.48-1-1.33-1.23-2.05-.43-1.31-.25-2.42.24-3.68.63-1.63,1.75-3.58,3.55-4.13,1.7-.52,3.45.63,5.15.48s1.58-2.46,2.17-3.65c.92-1.88,3.68-1.77,5.32-1.07.78.33,1.64.89,2.02,1.69.27.57.13,1.23.04,1.72-.22,1.15-1.08,2.09-1.97,2.8-.43.35-.95.75-1.47.98-.36.16-.71.07-1.08-.05-.83-.27-1.66-.75-2.56-.6-.82.14-1.31.76-1.64,1.48-.41.9-.64,1.87-.91,2.81-.24.86-.45,1.94-1.03,2.66-.22.27-.6.4-.94.55-.57.25-1.16.46-1.76.61-1.42.34-2.82.18-4.03-.66-.8-.55-1.55.75-.76,1.29Z"/>
        <path class="cls-11" d="m91.47,106.04c-3.07-1.83-4.3-6.47-1.7-9.21,1.14-1.2,2.58-2.08,3.66-3.35.79-.93,1.47-2.09,1.08-3.33-.34-1.08-1.08-2.01-1.72-2.92-.78-1.11-1.59-2.26-2.09-3.53s-.64-2.7-.13-4.03c.45-1.17,1.31-2.17,2.36-2.86,1.88-1.24,4.33-1.63,6.5-1.03,1.99.55,3.56,2.05,3.61,4.2.03,1.24-.29,2.52-1.07,3.49-.38.47-.75.92-.96,1.5-.27.73-.23,1.51-.09,2.26.27,1.49,1.14,2.31,2.39,3.06s2.59,1.45,3.29,2.8c1.64,3.15.78,7.38-1.22,10.14-2.33,3.21-6.78,5.04-10.66,4.12-1.14-.27-2.21-.74-3.23-1.32-.84-.48-1.6.82-.76,1.29,2.06,1.17,4.39,1.91,6.79,1.75,2.27-.15,4.41-1.02,6.28-2.3,3.27-2.24,5.2-6.09,5.11-10.05-.04-1.84-.46-3.87-1.65-5.33-1.02-1.26-2.49-1.89-3.79-2.78-1.05-.72-1.59-2.29-.92-3.46.28-.49.7-.88,1.01-1.35.43-.65.66-1.42.81-2.18.51-2.62-.4-5.2-2.77-6.57-2.19-1.27-5.04-1.35-7.4-.54-2.75.95-5.08,3.23-5.43,6.22-.37,3.15,1.73,5.74,3.39,8.19.31.45.63.92.84,1.43.19.45.21.58.03,1.01-.64,1.55-2.31,2.56-3.51,3.62-1.54,1.36-2.46,2.92-2.63,5s.58,4.07,1.88,5.65c.55.67,1.22,1.24,1.96,1.68.83.5,1.59-.8.76-1.29Z"/>
        <path class="cls-11" d="m126.23,32.71c-1.34-.97-2.97-1.42-4.62-1.37-1.48.05-3.19.4-4.46,1.2-1.06.67-1.78,1.71-2.51,2.7-.62.84-1.36,1.82-2.48,1.97-1.39.19-2.89-.34-4.24-.61s-2.72-.54-4.02-.16c-2.61.76-4.11,3.32-4.35,5.91-.26,2.93,1.2,5.68,3.4,7.53s5.32,3.18,8.23,3.05c3.06-.13,5.21-2.42,7.57-4.07,1.11-.78,2.29-1.37,3.6-1.75.96-.28,1.95-.47,2.88-.83,2.79-1.11,4.63-4.35,4.64-7.3.01-2.64-1.62-4.74-3.64-6.26-.77-.58-1.52.72-.76,1.29,1.38,1.05,2.71,2.61,2.88,4.47.13,1.46-.4,2.88-1.12,4.12-.5.86-1.15,1.59-2.04,2.05-.8.42-1.72.59-2.59.82-1.07.28-2.11.64-3.09,1.15-2.33,1.21-4.09,3.38-6.53,4.38s-5.46.03-7.62-1.26-4.09-3.5-4.3-6.13c-.17-2.18.7-4.69,2.85-5.6,1.09-.46,2.32-.24,3.44-.02,1.34.27,2.69.65,4.06.71,1.28.06,2.4-.36,3.32-1.26.86-.84,1.45-1.92,2.26-2.82.95-1.06,2.29-1.49,3.67-1.72,1.71-.28,3.41.05,4.82,1.08.78.57,1.53-.73.76-1.29Z"/>
        <path class="cls-11" d="m65.02,88.38c1.56-.81,3.33-1.18,5.07-.83,1.62.33,3.08,1.19,4.25,2.35,2.48,2.43,3.89,6.2,3.33,9.66-.31,1.91-1.52,3.59-2.4,5.28-.8,1.54-1.67,3.45-1.2,5.23.77,2.92,4.66,2.77,6.36,4.79.44.52.59,1.27.73,1.92.17.79.23,1.6.17,2.4-.12,1.63-.94,2.9-2.61,3.19-.95.17-.55,1.61.4,1.45,3.71-.64,4.16-4.79,3.4-7.82-.19-.74-.42-1.46-.91-2.06-.46-.56-1.07-.99-1.7-1.34-1.26-.7-2.85-1.11-3.89-2.13-1.23-1.22-.21-3.36.43-4.62.95-1.87,2.28-3.7,2.66-5.8.69-3.81-.67-7.9-3.25-10.73-1.38-1.51-3.2-2.71-5.21-3.16-2.19-.5-4.4-.09-6.38.94-.86.45-.1,1.74.76,1.29h0Z"/>
        <path class="cls-11" d="m128.59,121.56c-1.45-2.71-1.31-6.62.16-9.28.4-.73.92-1.47,1.64-1.92.68-.43,1.47-.6,2.25-.72,1.43-.23,3.04-.31,4.04-1.51.76-.9.9-1.94.4-2.99-.44-.92-1.13-1.7-1.57-2.62-1.15-2.4-.4-5.37,1.68-6.98,1.68-1.29,4.2-2.15,6.31-1.61.82.21,1.53.66,1.85,1.46.22.56.21,1.16.16,1.75-.07.92-.26,1.83-.55,2.71-.42,1.25-1.15,2.36-1.61,3.59-.51,1.35-.43,2.73-.09,4.11.43,1.74,1.09,3.42,1.62,5.13s1.06,3.45.85,5.19c-.2,1.65-1.18,3.36-2.32,4.54-.96,1-2.16,1.73-3.45,2.21-1.67.63-3.4.94-5.18.63s-3.58-1.11-4.97-2.3c-.47-.41-.91-.85-1.23-1.4-.48-.84-1.78-.08-1.29.76.82,1.44,2.32,2.51,3.77,3.24,1.91.97,4.09,1.5,6.24,1.28,3.24-.34,6.46-2.03,8.29-4.77,1.05-1.57,1.76-3.46,1.66-5.36s-.74-3.89-1.35-5.75c-.56-1.67-1.36-3.48-1.42-5.26-.04-1.31.57-2.4,1.13-3.54.83-1.68,1.34-3.45,1.43-5.33.06-1.21-.28-2.46-1.19-3.31-1.84-1.7-4.84-1.4-7-.56-1.27.49-2.48,1.2-3.44,2.19-1.05,1.08-1.61,2.4-1.82,3.89-.23,1.59.03,3.14.79,4.56.44.83,1.3,1.76,1.5,2.57.04.15.02.07.03.16,0,.05-.02.28,0,.16-.04.26-.17.47-.37.71-.47.54-1.22.69-1.89.81-1.74.3-3.48.43-4.83,1.72-2.7,2.58-3.18,7.07-2.31,10.54.18.72.44,1.43.79,2.08.46.85,1.75.09,1.29-.76Z"/>
        <path class="cls-11" d="m135.71,56.28c-1.43-.15-3.17-.23-4.42.64-.92.64-1.29,1.71-1.2,2.8.19,2.32,1.57,4.42,2.69,6.39.7,1.23,1.19,2.57,2.22,3.58,1.1,1.08,2.53,1.49,4.04,1.48.58,0,1.17-.06,1.75-.04.47.02.83.1,1.16.39.99.89,1.51,2.29,1.98,3.5,1.06,2.68,2.4,6.86,6.13,5.75.92-.27.53-1.72-.4-1.45-1.06.31-1.86.01-2.51-.88-.78-1.06-1.21-2.37-1.69-3.58-.5-1.28-1-2.6-1.84-3.7-.75-.99-1.64-1.5-2.89-1.54-1.12-.04-2.26.18-3.35-.17-1.51-.49-2.22-1.95-2.87-3.27-.87-1.76-2.05-3.36-2.66-5.24-.17-.52-.29-.98-.3-1.47,0-.42.08-.81.25-1.03.29-.37.69-.53,1.2-.64.87-.2,1.8-.12,2.68-.02.96.1.95-1.4,0-1.5h0Z"/>
        <path class="cls-11" d="m120.62,82.21c-.44,1.42-.18,2.84.53,4.12.28.51.63.98.97,1.45.13.17.26.34.37.52.04.06.07.14.12.2.02.02,0-.11-.02-.02-.19,1.13-.83,1.72-1.77,2.33-1.01.66-2.06,1.28-2.78,2.28-1.25,1.73-1.39,4.56-.1,6.3,1.09,1.49,2.96,2.17,4.76,2.19,1.68.02,3.57-.54,4.59-1.96.71-.99.71-2.3.86-3.46.21-1.64.39-3.72,1.47-5.06,1.49-1.87,4.58-2.21,5.28-4.75.25-.92.18-2.07.07-3.01-.13-1.21-.46-2.41-1.19-3.4-1.37-1.83-3.77-2.36-5.94-2.39-2.4-.03-4.81.77-6.27,2.76-.42.57-.72,1.22-.95,1.89-.32.91,1.13,1.31,1.45.4.75-2.16,2.62-3.34,4.84-3.52,1.67-.14,3.91.04,5.21,1.24,1.38,1.27,1.59,3.53,1.39,5.31-.11.98-.93,1.58-1.7,2.06-1,.63-2.07,1.17-2.92,2-1.05,1.03-1.53,2.49-1.83,3.9-.32,1.52-.29,3.16-.73,4.65-.14.48-.54.91-1.01,1.19-.58.35-1.28.56-1.95.62-1.4.13-2.96-.19-3.95-1.22-1.2-1.25-1.12-3.58-.12-4.94,1.38-1.88,4.29-2.24,4.73-4.87.09-.55.07-.98-.22-1.46-.24-.4-.55-.76-.82-1.14-.81-1.16-1.36-2.41-.92-3.83.29-.92-1.16-1.32-1.45-.4Z"/>
      </g>
      <g>
        <path class="cls-6" d="m61.46,117.09c-5.01,3.46-30.31,40.73-32.2,53.56l25.69,18.42s31.22-40.81,36.14-44.23"/>
        <path class="cls-6" d="m101.62,146.22c-.15,6.08,11.55,45.91,15.25,48.14l33.5-2.57s-7.45-59.74-6.71-62.59"/>
        <path class="cls-6" d="m84.92,143.13c8.09,2.1,9.3,2.59,16.53,6.25"/>
      </g>
      <g>
        <path d="m57.81,116.36c10.81,4.86,22.29,8.24,33.9,10.53s24.55,3.64,36.91,3.24c6.45-.21,12.89-.88,19.2-2.23.94-.2.54-1.65-.4-1.45-11.4,2.44-23.23,2.67-34.82,1.79-12.21-.93-24.35-3.16-36.1-6.63-6.11-1.8-12.13-3.94-17.94-6.56-.87-.39-1.64.9-.76,1.3h0Z"/>
        <path d="m72.84,71.9c-5.64,10.82-9.91,22.41-13.07,34.19-.84,3.12-1.59,6.27-2.23,9.44-.19.94,1.25,1.35,1.45.4,2.38-11.71,6.07-23.23,10.83-34.19,1.34-3.08,2.77-6.11,4.32-9.09.45-.86-.85-1.61-1.3-.76h0Z"/>
        <path d="m105.67,38.4c4.89,0,9.78.57,14.46,2.01,3.92,1.21,7.63,3.05,10.9,5.52,3.02,2.27,5.63,5.1,7.76,8.21s3.88,6.62,5.22,10.2,2.4,7.64,3.14,11.57,1.19,7.96,1.45,11.97.32,7.87.25,11.8c-.06,3.6-.24,7.2-.5,10.79-.22,3.02-.49,6.03-.79,9.04-.21,2.17-.45,4.34-.62,6.51-.03.38-.05.76-.07,1.15-.05.96,1.45.96,1.5,0,.1-1.97.32-3.93.51-5.89.28-2.87.56-5.74.79-8.61.28-3.53.5-7.07.61-10.62.12-3.92.12-7.84-.06-11.76s-.57-8.21-1.2-12.27-1.52-7.98-2.78-11.84-2.82-7.43-4.88-10.83-4.51-6.42-7.45-9c-3.1-2.72-6.65-4.85-10.48-6.38-4.41-1.75-9.12-2.65-13.84-2.96-1.31-.09-2.62-.13-3.94-.13-.97,0-.97,1.5,0,1.5h0Z"/>
      </g>
      <g>
        <path d="m67.6,20.38c-1.13.04-2.35,2.63-2.31,3.76.18,5.19,2.86,8.8,3.79,13.91.28,1.57.45,3.12-.12,4.61-.7,1.82-2.86,3.63-4.72,4.22-1.85.6-3.37,1.29-5.27.85,1.06-1.65,2.01-3.14,1.4-5.21-.8-2.71-2.06-5.86-2.85-8.58-.92-3.14-1.01-5.3.16-8.35.75-1.94,3.02-4.3,4.98-5,1.96-.71,3.76-1.64,4.94-.21Z"/>
        <g>
          <path d="m68.7,19.33c-4.06-1.92-8.64,1.4-10.92,4.62-1.4,1.98-1.85,4.46-1.7,6.85.2,3.04,1.38,5.69,2.54,8.45.98,2.33,2.01,6.03-.63,7.72-.81.52-.06,1.82.76,1.3,2.01-1.29,2.64-3.67,2.34-5.94-.38-2.82-1.99-5.26-2.81-7.94s-1.13-5.63-.05-8.22c.71-1.7,2.16-3.19,3.64-4.24,1.69-1.2,4.03-2.27,6.07-1.3.87.41,1.63-.88.76-1.3h0Z"/>
          <path d="m67.67,19.49c-4.12,2.35-2.63,7.76-1.47,11.39.8,2.51,1.75,5.06,2.21,7.66.27,1.49.26,3.09-.4,4.47-.47.98-1.23,1.8-2.11,2.44-2.06,1.48-4.86,2.23-7.33,1.46-.92-.29-1.32,1.16-.4,1.45,4.55,1.42,10.72-1.43,11.72-6.3.66-3.18-.67-6.35-1.55-9.35-.59-2-1.34-3.97-1.71-6.03-.39-2.17-.34-4.67,1.79-5.89.84-.48.08-1.77-.76-1.3h0Z"/>
        </g>
      </g>
      <g>
        <path class="cls-1" d="m59.96,26.44c-.45,2.3-.31,4.67.43,6.89.2.61,1.17.35.96-.27-.69-2.05-.85-4.24-.43-6.36.12-.63-.84-.9-.96-.27h0Z"/>
        <path class="cls-1" d="m63.08,28.75l.15,2.46c.02.26.22.51.5.5.26-.01.52-.22.5-.5l-.15-2.46c-.02-.26-.22-.51-.5-.5-.26.01-.52.22-.5.5h0Z"/>
      </g>
      <g>
        <path d="m97.49,5.83c.7-.89,3.51-.35,4.4.35,4.08,3.2,5.43,7.5,9.01,11.25,1.1,1.16,2.26,2.2,3.8,2.62,1.88.5,4.62-.18,6.19-1.33s3.03-1.97,3.79-3.76c-1.96-.12-3.72-.22-5.03-1.94-1.72-2.24-3.53-5.11-5.25-7.36-1.99-2.59-3.69-3.94-6.85-4.79-2.01-.54-5.25-.09-6.97,1.08s-3.54,2.08-3.08,3.87Z"/>
        <g>
          <path d="m97.47,6.38c.71-3.77,5.88-5.08,9.15-4.86,2.27.15,4.34,1.48,5.93,3.02,2.07,2.01,3.23,4.54,4.82,6.89,1.68,2.49,4.58,4.94,7.78,3.71.89-.34.5-1.79-.4-1.45-3.08,1.19-5.43-1.87-6.81-4.18-1.48-2.48-2.93-4.94-5.18-6.81-1.82-1.51-4-2.61-6.39-2.71-2.04-.08-4.13.36-5.99,1.19-2.03.9-3.93,2.51-4.36,4.79-.18.94,1.27,1.35,1.45.4h0Z"/>
          <path d="m97.41,6.7c2.1-.94,4.09.4,5.54,1.86,1.57,1.57,2.78,3.44,4.12,5.2,1.63,2.12,3.1,4.47,5.34,6s4.75,1.65,7.15.77c2.72-1.01,5.16-3.11,6.1-5.9.31-.92-1.14-1.31-1.45-.4-.78,2.32-2.96,4.12-5.22,4.91-1.12.39-2.34.59-3.51.34s-2.27-.88-3.18-1.7c-1.81-1.64-3.22-3.77-4.66-5.73-1.33-1.81-2.62-3.71-4.32-5.19-1.92-1.67-4.24-2.55-6.67-1.45-.88.39-.12,1.69.76,1.3h0Z"/>
        </g>
      </g>
      <g>
        <path class="cls-1" d="m109.44,4.93c1.6,1.46,2.79,3.31,3.44,5.38.19.61,1.16.35.96-.27-.7-2.22-1.98-4.24-3.7-5.82-.47-.43-1.18.27-.71.71h0Z"/>
        <path class="cls-1" d="m108.12,8.45l1.33,2.08c.14.22.45.33.68.18.22-.14.33-.45.18-.68l-1.33-2.08c-.14-.22-.45-.33-.68-.18-.22.14-.33.45-.18.68h0Z"/>
      </g>
      <ellipse class="cls-4" cx="88.09" cy="24.33" rx="22.87" ry="21.87" transform="translate(-1.48 42.45) rotate(-26.88)"/>
      <g id="_グループ_顔" data-name="&amp;lt;グループ&amp;gt;顔">
        <path class="cls-2" d="m115.4,18.5c-1.29-2.59-4.89-3.43-8.22-2.01-5.46-10.26-18.12-14.37-28.58-9.14-10.46,5.23-14.77,17.83-9.83,28.35-3.13,1.81-4.61,5.2-3.32,7.79,1.36,2.72,5.26,3.52,8.72,1.79.62-.31,1.18-.68,1.68-1.1,6.02,4.22,14.03,5.21,21.14,2.02l1.32,1.06c-.53,1.56-.41,2.88.7,3.59,2.25,1.43,5.72.28,8.47-2.99,2.75-3.27,3.05-7.04,1.49-8.86-.58-.68-1.4-.81-2.34-.56l-.32-.26c2.09-3.27,3.27-7.05,3.39-10.93.63-.15,1.27-.38,1.89-.69,3.46-1.73,5.16-5.33,3.8-8.05Z"/>
        <path d="m77.94,33.92c-.34-.68-.12-1.85,1.06-2.07.75-.14,1.06.16,1.4.84s.06,1.51-.61,1.84-1.51.06-1.84-.61Z"/>
        <path d="m90.18,26.49c-.34-.68-.31-1.33.35-1.71.88-.52,1.77-.2,2.11.48s.06,1.51-.61,1.84-1.51.06-1.84-.61Z"/>
        <path d="m83.56,28.52c.71.97,1.43,1.94,2.14,2.91.12.16.25.29.45.34.18.05.42.03.58-.08.31-.2.52-.69.27-1.03-.71-.97-1.43-1.94-2.14-2.91-.12-.16-.25-.29-.45-.34-.18-.05-.42-.03-.58.08-.31.2-.52.69-.27,1.03h0Z"/>
        <path d="m85.25,36.7c1.67.68,3.63.33,5.02-.8s1.98-2.96,1.73-4.7c-.06-.4-.57-.62-.92-.52-.43.12-.58.52-.52.92.03.21.03.65-.01.94-.03.19-.13.57-.23.82-.2.52-.6,1.08-1.06,1.44-1.03.81-2.4.93-3.6.44-.38-.15-.82.17-.92.52-.12.43.15.77.52.92h0Z"/>
      </g>
      <g>
        <ellipse cx="101.45" cy="13.01" rx="3.16" ry="7.74" transform="translate(23.06 78.71) rotate(-47.27)"/>
        <path d="m67.45,31.19c.01,2.89,6.34-2.9,5.86-7.88,2.01.89,5.22,1.46,8.46-4.45,2.96,2.21,7.71-3.5,7.71-3.5,0,0,4.74.37,6.55-4.19s.92-6.71.46-6.82c-4.79-1.16-10.29-.81-15.35,1.12s-9.65,5.45-12.51,9.77c-1.8,2.71-3.28,12.29-1.18,15.95Z"/>
        <g>
          <path class="cls-1" d="m69.33,32.59c1.78-.99,3.3-2.37,3.99-4.33.86-2.44.29-5.21-.45-7.6-.29-.92-1.73-.53-1.45.4.66,2.12,1.22,4.52.49,6.7-.55,1.63-1.88,2.73-3.34,3.54-.84.47-.09,1.76.76,1.3h0Z"/>
          <path class="cls-1" d="m72.72,24.98c1.94.43,4.03.15,5.7-.97s2.79-2.93,3.05-4.96c.17-1.3-.03-2.62-.45-3.86-.31-.91-1.76-.52-1.45.4.72,2.14.64,4.57-.96,6.3-1.39,1.51-3.51,2.08-5.5,1.64-.94-.21-1.34,1.24-.4,1.45h0Z"/>
          <path class="cls-1" d="m81.11,20.27c3.59.47,7.4-1.63,8.08-5.36.25-1.39.12-2.79-.2-4.15-.23-.94-1.67-.54-1.45.4.44,1.82.46,3.81-.61,5.39-.79,1.17-2.11,1.87-3.52,2.16-.38.08-.63.11-1.07.12-.41.01-.82,0-1.23-.06s-.75.38-.75.75c0,.45.35.7.75.75h0Z"/>
          <path class="cls-1" d="m88.53,16.28c1.94.47,4.1.04,5.72-1.12s2.59-2.88,2.2-4.85c-.08-.4-.55-.63-.92-.52-.41.11-.6.52-.52.92.11.57,0,1.22-.27,1.74-.33.62-.82,1.13-1.39,1.52-1.29.87-2.91,1.23-4.42.87-.94-.23-1.34,1.22-.4,1.45h0Z"/>
        </g>
      </g>
      <path class="cls-7" d="m52.6,91.4c-2.85,9.59-5.27,27.63,1.09,37.29,5.63,8.55,10.05,5.02,11.9,3.46,1.3,5.1,7.3,9.52,10.94,10.22.76,5.2,3.19,33.7,14.88,33.22,3.03-.12,5.11-1.06,6.24-2.81,1.53,2.37,4.67,4.19,10.39,1.07,5.81-3.17,7.81-19.8,7.08-32.88,13.1-13.1,13.82-26.66,10.15-40.38-3.67-13.72-15.82-27.4-28.69-33.4-8.93-4.16-19.77-4.33-28.81-.42s-15.56,14.27-13,23.78"/>
      <path d="m58.7,99.69c.04,7.08.79,14.16,2.26,21.09,1.3,6.16,3.18,12.51,7.55,17.25,2.13,2.32,4.8,4.14,7.83,5.05.93.28,1.32-1.17.4-1.45-5.49-1.66-9.28-6.42-11.47-11.52-1.22-2.85-2.02-5.88-2.68-8.91-.74-3.34-1.31-6.72-1.7-10.11-.44-3.79-.66-7.6-.68-11.41,0-.96-1.5-.97-1.5,0h0Z"/>
      <path d="m75.78,142.36c.24,4.47.89,8.95,1.78,13.33.73,3.6,1.68,7.19,3.1,10.58,1.22,2.91,2.81,5.91,5.33,7.92,3.46,2.75,9.86,3.39,12.31-1.04h-1.29c1.34,2.25,3.93,3.27,6.48,3.13,2.89-.16,5.32-1.66,7.06-3.92,1.95-2.52,2.95-5.63,3.69-8.69.89-3.69,1.4-7.47,1.64-11.26.27-4.29.19-8.6-.08-12.88-.06-.96-1.56-.97-1.5,0,.44,7.06.39,14.22-.95,21.18-.97,5.02-2.64,12.36-8.41,13.85-2.39.62-5.29.1-6.63-2.16-.28-.48-1.02-.5-1.29,0-1.96,3.53-7.21,2.88-9.96.74-2.34-1.82-3.84-4.63-4.97-7.32-2.51-5.96-3.66-12.52-4.39-18.92-.17-1.51-.33-3.02-.41-4.54-.05-.96-1.55-.97-1.5,0h0Z"/>
      <path d="m82.88,64.71c6.8.5,13.32,2.81,19.03,6.51s10.12,8.2,13.92,13.43c3.53,4.87,6.41,10.26,8.37,15.94.85,2.46,1.53,4.99,1.97,7.56.54,3.21.49,6.45-.06,9.65-1.29,7.5-4.68,15-9.71,20.73-.58.66-1.18,1.29-1.81,1.9-.7.67.36,1.73,1.06,1.06,5.63-5.41,9.44-12.94,11.31-20.46.9-3.62,1.37-7.43.95-11.16-.29-2.6-.86-5.15-1.61-7.65-1.76-5.85-4.49-11.43-7.9-16.49-3.73-5.55-8.33-10.53-13.76-14.45-5.61-4.05-12.12-6.83-18.99-7.77-.92-.13-1.84-.22-2.77-.29s-.96,1.43,0,1.5h0Z"/>
      <path d="m51.88,91.2c-1.25,4.11-2.13,8.32-2.66,12.58-.48,3.91-.68,7.89-.3,11.82.33,3.38,1.07,6.78,2.35,9.93s3,5.92,5.71,7.85c1.44,1.03,3,1.71,4.79,1.51,1.69-.19,3.49-.9,4.46-2.36.54-.81-.76-1.56-1.29-.76-.71,1.07-2.27,1.56-3.49,1.65-1.41.1-2.59-.53-3.72-1.33-2.45-1.75-4.07-4.53-5.15-7.29-2.49-6.38-2.72-13.31-1.99-20.05.49-4.45,1.41-8.87,2.72-13.15.28-.93-1.17-1.32-1.45-.4h0Z"/>
      <path class="cls-5" d="m86.35,51.81c-4.51-9.01-13.73-14.26-23.79-14.66,1.19-1.99,1.47-4.32.55-6.37-1.63-3.66-6.43-5.07-10.72-3.15s-6.45,6.43-4.82,10.09c.33.73.78,1.37,1.33,1.91-.75.31-1.5.64-2.24,1.01-6.19,3.1-10.96,7.83-13.95,13.28-.93-.83-2.06-1.39-3.33-1.58-3.96-.59-7.73,2.7-8.42,7.35s1.96,8.89,5.92,9.48c.77.11,1.53.08,2.27-.08.19,3.42,1.05,6.81,2.65,10.02,6.85,13.71,24.63,18.71,39.69,11.18s21.72-24.75,14.87-38.46Z"/>
      <ellipse class="cls-1" cx="52.55" cy="70.51" rx="8" ry="7.13" transform="translate(-32.58 48.47) rotate(-38.79)"/>
      <path d="m40.5,74.98c-.4-.65-.28-1.84.88-2.15.73-.2,1.07.07,1.46.72s.19,1.49-.46,1.89-1.49.19-1.89-.46Z"/>
      <path d="m49.83,71.52c-.63-.72-.5-2.42,1.24-3.39,1.1-.61,1.62-.39,2.25.32s.36,1.99-.61,2.83-2.26.95-2.89.23Z"/>
      <path d="m58.57,60.98c-.4-.65-.42-1.29.2-1.73.83-.59,1.75-.35,2.15.3s.19,1.49-.46,1.89-1.49.19-1.89-.46Z"/>
      <path d="m51.36,70.41c1.74,1.78,3.59,3.45,5.54,5,.32.25.75.31,1.06,0,.26-.26.32-.81,0-1.06-1.94-1.55-3.79-3.22-5.54-5-.68-.69-1.74.37-1.06,1.06h0Z"/>
      <path d="m93.54,145.2c-.33,2.75-.06,5.61.15,8.35.26,3.4.64,6.8,1.14,10.18.2,1.36.42,2.73.73,4.07.21.92,1.63.53,1.42-.39-.61-2.67-.94-5.41-1.26-8.13-.38-3.32-.69-6.65-.8-9.99-.04-1.36-.07-2.74.09-4.1.11-.94-1.36-.93-1.47,0h0Z"/>
      <g class="cls-12">
        <path class="cls-1" d="m107.13,121.46c15.07-13.08,17.85-19.65,24.2-30.71,3.96-6.89,1.75-9.17-2.46-11.85h0c-4.21-2.69-9.92-3.45-14.55,4.6,0,0-10.44,17.34-16.98,24.21-5.61,5.88-10.63,11.93-7.08,20.77,1.19,2.97,11.51-2.37,16.86-7.02Z"/>
        <rect class="cls-1" x="87.63" y="120.73" width="2.56" height="7.59" rx=".88" ry=".88" transform="translate(200.39 19.72) rotate(82.29)"/>
        <rect class="cls-1" x="87.7" y="122.23" width="4.67" height="9.93" rx="1.62" ry="1.62" transform="translate(200.22 16.99) rotate(80.29)"/>
        <rect class="cls-1" x="88.64" y="117.78" width="2.88" height="7.59" rx="1" ry="1" transform="translate(198.48 16.01) rotate(82.29)"/>
        <path class="cls-1" d="m92.12,118.92c1.76-.87,6.65-4.18,6.65-4.18,1.96-1.32,2.26-3.2,1.09-4.63-1.45-1.77-3.7-.99-4.34-.36-2.35,2.29-4.6,3.88-6.08,5.51-1.1,1.21-2.44,2.68-1.82,3.32.62.64,2.56,1.3,4.5.34Z"/>
      </g>
      <g class="cls-12">
        <path d="m130.69,90.37c-5.18,10.25-11.93,19.74-20.54,27.4-2.68,2.39-5.53,4.57-8.53,6.56-.8.53-.05,1.83.76,1.3,10.28-6.81,18.7-16.02,25.14-26.49,1.6-2.6,3.09-5.28,4.46-8,.43-.86-.86-1.62-1.3-.76h0Z"/>
        <path d="m104.66,97.08c-1.96,2.49-3.88,5.01-5.87,7.48s-4.2,4.98-6.4,7.38c-.65.71.41,1.77,1.06,1.06,2.2-2.4,4.36-4.84,6.4-7.38s3.9-4.99,5.87-7.48c.59-.75-.46-1.82-1.06-1.06h0Z"/>
        <path d="m101.53,124.48c-3.05,1.8-6.18,3.62-9.63,4.51-1.54.4-3.45.78-5.02.35-.6-.16-1.18-.59-1.35-1.22-.14-.51.22-.52.66-.49.98.06.94-1.4,0-1.5.16.02-.06-.09-.12-.18-.1-.14-.18-.3-.25-.46-.08-.2-.23-.58-.17-.77.16-.52,1.27-.96,1.76-.85.79.19,1.38-1,.58-1.37-.27-.12-1.02-.75-.74-1.09.09-.11.8-.15,1.02-.17.92-.08,2.07-.04,2.65-.88.55-.8-.75-1.55-1.3-.76.1-.14-.29.03-.4.05-.32.05-.64.06-.96.09-.59.05-1.25.09-1.78.4-1.52.88-.51,3.08.75,3.65l.58-1.37c-1.3-.32-3.3.59-3.62,1.97-.29,1.26.67,3.09,2,3.24v-1.5c-.79-.05-1.61.2-2,.94-.35.66-.18,1.47.17,2.09,1.08,1.93,3.47,1.94,5.4,1.74,4.56-.49,8.65-2.84,12.54-5.12.83-.49.08-1.79-.76-1.3h0Z"/>
        <path d="m94.98,121.98c-2.65,1.22-5.73,1.2-8.41.07-.37-.16-.83.17-.92.52-.12.43.15.76.52.92,3.06,1.29,6.56,1.16,9.56-.23.37-.17.46-.7.27-1.03-.22-.38-.66-.44-1.03-.27h0Z"/>
        <path d="m94.34,125.83c-2.88,1.15-6.17,1.17-9.04-.07-.37-.16-.8-.11-1.03.27-.19.32-.1.87.27,1.03,3.23,1.4,6.91,1.53,10.19.22.38-.15.64-.5.52-.92-.1-.36-.54-.67-.92-.52h0Z"/>
        <path d="m92.39,111.94c-1.52,1.34-3.05,2.66-4.55,4.01-1.04.93-1.9,2.46-.66,3.63.98.93,2.55.88,3.78.61,1.65-.36,3.25-.99,4.71-1.83,1.63-.94,3.09-2.17,4.31-3.6.62-.73-.44-1.8-1.06-1.06-2.18,2.57-5.45,4.73-8.87,5.15-.54.07-1.24.06-1.7-.26-.59-.4-.07-.98.3-1.34,1.54-1.48,3.21-2.84,4.81-4.25.73-.64-.34-1.7-1.06-1.06h0Z"/>
      </g>
      <path class="cls-10" d="m121.61,51.26c-6.1,4.24-9.41,29.64-12.1,34.18-7.18,12.12-13.47,18.97-16.58,25.53,3.43,5.87,11.86,13.6,17.25,13.22,11.95-9.13,22.51-23.23,27.96-43.53,3.55-13.26,4.9-24.2-4.5-29.4"/>
      <path class="cls-11" d="m134.43,88.24c-1.82,2.75-5.31,3.21-8.27,2.29-1.04-.32-2.18-.83-2.88-1.7-1.16-1.45-2.05-3.37-2.29-5.21s.24-3.91,1.91-4.82c1.16-.63,2.57-.62,3.84-.83s2.38-.71,2.85-1.94.31-2.77-.83-3.56-2.63-.83-3.92-.93c-1.11-.09-2.67,0-3.61-.56-2.75-1.62-3.19-5.2-1.99-7.9s3.77-5.08,6.77-5.28c1.57-.11,3.02.44,4.26,1.12,4.91,2.68,6.93,8.3,7.26,13.64.07,1.11.07,2.22.04,3.34-.03.97,1.47.96,1.5,0,.21-6.48-1.29-13.71-6.96-17.61-1.28-.88-2.78-1.59-4.32-1.88-3.24-.59-6.43,1.11-8.42,3.61s-3.1,6.24-1.53,9.36c.69,1.36,1.96,2.82,3.47,3.25,1.41.4,2.93.34,4.37.5.94.1,2.53.26,2.63,1.29.05.55-.03,1.22-.47,1.59-.39.32-1,.44-1.51.52-1.43.24-2.89.28-4.2.99-1.78.96-2.64,3.04-2.7,4.98-.07,2.16.77,4.32,1.9,6.13.79,1.28,1.71,2.21,3.09,2.84,2.91,1.34,6.73,1.52,9.41-.45.76-.56,1.38-1.23,1.89-2.01s-.76-1.56-1.29-.76h0Z"/>
      <path class="cls-11" d="m101.74,106.07c.23-2.18,1.37-4.05,3.39-4.98,1.9-.87,4.17-.86,6.18-.43,1.05.22,2.08.56,3.04,1.04.47.23.92.49,1.35.78s.8.66,1.26.91c1.84,1.01,3.68-.02,5.34-.87.79-.41,1.71-.88,2.63-.74,1.34.2,2.22,1.6,2.83,2.67.48.84,1.78.08,1.29-.76-.71-1.23-1.61-2.51-2.95-3.11-.99-.44-2.08-.39-3.09-.03s-1.83.88-2.76,1.31c-.76.36-1.61.65-2.4.3-.45-.2-.82-.57-1.22-.86-.45-.32-.93-.61-1.43-.86-1.07-.54-2.21-.95-3.38-1.21-2.33-.52-4.88-.54-7.11.4-2.71,1.14-4.19,3.57-4.49,6.43-.1.96,1.4.95,1.5,0h0Z"/>
      <path d="m121.08,50.73c-1.4,1.22-2.42,2.86-3.24,4.5-1.02,2.03-1.81,4.18-2.5,6.34-1.51,4.73-2.55,9.59-3.68,14.41-.75,3.22-1.39,6.66-3.03,9.47-2.19,3.76-4.75,7.33-7.19,10.93-2.81,4.14-5.66,8.28-8.23,12.58-.24.4-.47.8-.7,1.2-.31.54-.66.98-.33,1.61.59,1.12,1.4,2.14,2.22,3.09,1.88,2.18,4.12,4.07,6.48,5.72,2.07,1.45,4.28,2.76,6.65,3.68.78.3,1.79.72,2.65.68.65-.03,1.35-.95,1.81-1.36.6-.54,1.2-1.09,1.8-1.64,4.14-3.84,8.05-7.93,11.51-12.4s6.15-8.87,8.42-13.77c2.48-5.35,4.28-10.98,5.56-16.72.35-1.58.66-3.16.95-4.75.17-.94-1.28-1.35-1.45-.4-1.39,7.84-3.59,15.57-7.13,22.73-3.23,6.53-7.51,12.45-12.45,17.79-3.01,3.26-6.23,6.31-9.56,9.25l.53-.22c-2.25-.25-4.59-1.64-6.51-2.82-2.67-1.64-5.18-3.6-7.34-5.87-1.11-1.17-2.13-2.44-2.91-3.86v.76c2.27-4.17,5-8.1,7.66-12.03s5.46-7.91,8-11.98c.73-1.17,1.44-2.35,1.94-3.64.65-1.69,1.09-3.46,1.52-5.21,1.18-4.77,2.16-9.58,3.5-14.31.73-2.56,1.54-5.12,2.64-7.54.86-1.87,1.89-3.77,3.46-5.14.73-.63-.34-1.69-1.06-1.06h0Z"/>
      <g>
        <path class="cls-7" d="m86.98,85.22c-2.06,15.95,7.78,42.39,18.9,42.39,5.06,0,18.83-10.51-3.64-43.99"/>
        <path d="m86.23,85.22c-.54,4.24-.24,8.56.42,12.77.72,4.55,1.92,9.03,3.6,13.32,1.5,3.85,3.36,7.63,5.9,10.91,1.93,2.5,4.4,4.94,7.52,5.82s6.13-.48,8.23-2.85c3.07-3.46,3.84-8.31,3.47-12.78-.31-3.72-1.31-7.37-2.63-10.85-1.9-5-4.43-9.75-7.24-14.29-.84-1.36-1.71-2.7-2.6-4.03-.53-.8-1.83-.05-1.29.76,3.15,4.7,6.06,9.6,8.38,14.78,1.59,3.57,2.9,7.31,3.58,11.17.79,4.52.64,9.51-1.99,13.29-.27.39-.34.48-.68.86-.25.29-.52.56-.8.82-.13.12-.27.24-.41.36-.03.03-.21.17-.13.11.07-.06-.14.1-.17.13-.27.19-.55.37-.84.54-.27.15-.54.29-.82.41.22-.1-.14.06-.22.08-.14.05-.28.1-.43.14-.24.07-.48.12-.72.16-.16.03.19-.02,0,0-.06,0-.11.01-.17.02-.13,0-.26.01-.39.01-2.82-.03-5.27-1.96-7.11-3.95-2.57-2.78-4.45-6.2-5.99-9.64-1.8-4.04-3.12-8.31-4.03-12.64s-1.35-8.39-1.16-12.62c.04-.94.12-1.87.24-2.8s-1.38-.95-1.5,0h0Z"/>
      </g>
      <g>
        <path class="cls-11" d="m75.83,77.86c-8.51-2.58-21.81.48-25.01,5.28,6.7,7.33,9.59,13.85,13.33,19.94,1.99-1.01,2.76-1.31,4.75-2.31-2.77,8-5.7,25.74-3.75,35.61,3.66-1.87,5.34-8.12,9.45-7.94,4.24.19,8.11,2.84,11.66,5.35-1.34-18.85-4.16-45.66-3.65-47.13,2.1-1.11,3.48-3.35,6.61-3.69,4.51,6.97,11.41,26.9,15.7,41.97,2.67-2.86,5.08-7.4,8.56-9.18,2.91-1.48,9.15,3.55,11.88,3.32-2.89-15.16-15.94-31.72-23.96-37.51,3.36-.99,11.8-3.72,13.14-6.23-1.2-6.5-5.98-10.51-6.61-11.61-3.11-5.46-3.77-8.06-5.66-8.92-6.31,1.44-14.49,4.68-17.46,17.51-4.63.19-8.21,2.05-9.5,4.65"/>
        <path d="m75.29,76.23c-3.4-.3-6.83-.25-10.21.15-2.99.36-5.98.95-8.81,2.03-1.17.45-2.33.97-3.39,1.64-.75.47-2.16,1.26-2.17,2.24-.03,2.82,2.26,5.23,4,7.2.97,1.11,2.11,2.2,2.89,3.45.42.67.74,1.42,1.07,2.14.94,2.05,1.82,4.15,3,6.07.49.79,1.04,1.61,1.8,2.17.38.28.76.48,1.23.29.77-.32,1.5-.92,2.21-1.36,2.15-1.34,4.26-2.73,6.25-4.31,3.87-3.07,6.91-7.03,10.15-10.72.64-.72-.42-1.79-1.06-1.06-2.12,2.41-4.16,4.92-6.37,7.25-1.86,1.96-3.92,3.67-6.15,5.21-1.88,1.3-3.83,2.51-5.79,3.69h.76c-.94-.41-1.58-1.61-2.08-2.5-.79-1.39-1.46-2.85-2.12-4.3-.5-1.1-.95-2.26-1.59-3.3-1.05-1.69-2.6-3.14-3.89-4.64s-2.83-3.32-2.81-5.44l-.22.53c1.75-1.82,4.32-2.78,6.69-3.48,3.32-.99,6.79-1.47,10.24-1.61,2.12-.09,4.25-.03,6.37.15.96.09.96-1.41,0-1.5h0Z"/>
        <path d="m65.07,102.97c.07-2.83,1.86-5.44,3.69-7.47,2.37-2.63,5.31-4.76,8.51-6.27,1.81-.86,3.73-1.48,5.71-1.81.95-.16.55-1.6-.4-1.45-3.74.61-7.3,2.3-10.37,4.49-2.88,2.05-5.58,4.64-7.26,7.79-.78,1.46-1.34,3.06-1.38,4.72-.02.97,1.48.96,1.5,0h0Z"/>
        <path d="m89.09,83.51c6.46.07,13.19-1.09,19.21-3.47,2.21-.88,4.53-1.94,6.26-3.63.16-.16.32-.32.46-.5.27-.35.26-.64.21-1.07-.09-.74-.25-1.46-.49-2.16-.56-1.62-1.42-3.12-2.39-4.53-1.06-1.54-2.31-2.88-3.48-4.33-.01-.01.02.02-.05-.08-.05-.07-.09-.14-.14-.21-.11-.18-.22-.36-.33-.55-.25-.44-.48-.89-.72-1.34-1.11-2.16-2.14-4.46-3.7-6.33-.31-.37-.64-.7-1.03-.98-.54-.38-.95-.48-1.59-.24-1.54.58-3.06,1.19-4.55,1.89-2.23,1.03-4.4,2.25-6.26,3.87-3.05,2.66-4.54,6.33-5.96,10.02-.21.54-.41,1.08-.62,1.63-.35.9,1.1,1.29,1.45.4.95-2.48,1.81-5.03,3.16-7.32,1.28-2.18,3.07-3.9,5.19-5.26,1.49-.95,3.08-1.74,4.7-2.45,1.01-.45,2.04-.86,3.08-1.25.13-.05.6-.14.27-.22.1.02.22.12.3.18.2.14.37.32.53.49,1.02,1.09,1.74,2.5,2.44,3.81s1.32,2.67,2.07,3.96c.35.61.77,1.11,1.23,1.64.96,1.09,1.88,2.23,2.71,3.43,1.31,1.9,2.57,4.08,2.72,6.43l.22-.53c-1.73,2.09-4.58,3.25-7.07,4.15-3.6,1.31-7.39,2.17-11.18,2.65-2.21.28-4.43.42-6.66.4-.97-.01-.97,1.49,0,1.5h0Z"/>
        <path d="m101.18,54.67c.15,2.78-1.17,5.45-2.73,7.66-1.94,2.74-4.55,5.05-7.45,6.73-1.69.98-3.5,1.74-5.4,2.21-.94.23-.54,1.68.4,1.45,3.59-.88,6.88-2.76,9.67-5.16,2.59-2.23,4.83-5,6.12-8.18.61-1.49.98-3.1.89-4.71-.05-.96-1.55-.97-1.5,0h0Z"/>
        <path d="m82.03,86.7c-.3,12.43.94,24.91,2.3,37.24.36,3.29.75,6.57,1.16,9.85.12.95,1.62.96,1.5,0-1.53-12.35-2.89-24.75-3.36-37.19-.13-3.3-.18-6.6-.1-9.91.02-.97-1.48-.96-1.5,0h0Z"/>
        <path d="m68.48,99.69c-1.63,4.53-2.77,9.24-3.59,13.99-.86,5-1.37,10.09-1.26,15.17.06,2.6.29,5.19.79,7.74.12.59.87.68,1.25.33,1.72-1.56,3.31-3.25,5.02-4.82.76-.69,1.54-1.36,2.39-1.93.38-.26.78-.5,1.18-.72.47-.25.59-.29,1.13-.24,1.83.16,3.55,1.15,5.1,2.06,1.79,1.05,3.51,2.23,5.36,3.17.86.44,1.62-.86.76-1.29-3-1.53-5.67-3.72-8.85-4.89-.69-.26-1.4-.44-2.13-.52-.34-.04-.71-.08-1.06-.04-.41.05-.81.3-1.17.5-1.51.83-2.85,1.96-4.1,3.13-1.59,1.49-3.09,3.07-4.71,4.53l1.25.33c-.9-4.56-.89-9.28-.55-13.89.37-5.01,1.2-10,2.41-14.88.61-2.47,1.33-4.92,2.2-7.32.33-.91-1.12-1.3-1.45-.4h0Z"/>
        <path d="m68.48,99.69c-1.63,4.53-2.77,9.24-3.59,13.99-.86,5-1.37,10.09-1.26,15.17.06,2.6.29,5.19.79,7.74.12.59.87.68,1.25.33,1.72-1.56,3.31-3.25,5.02-4.82.76-.69,1.54-1.36,2.39-1.93.38-.26.78-.5,1.18-.72.47-.25.59-.29,1.13-.24,1.83.16,3.55,1.15,5.1,2.06,1.79,1.05,3.51,2.23,5.36,3.17.86.44,1.62-.86.76-1.29-3-1.53-5.67-3.72-8.85-4.89-.69-.26-1.4-.44-2.13-.52-.34-.04-.71-.08-1.06-.04-.41.05-.81.3-1.17.5-1.51.83-2.85,1.96-4.1,3.13-1.59,1.49-3.09,3.07-4.71,4.53l1.25.33c-.9-4.56-.89-9.28-.55-13.89.37-5.01,1.2-10,2.41-14.88.61-2.47,1.33-4.92,2.2-7.32.33-.91-1.12-1.3-1.45-.4h0Z"/>
        <path d="m88.44,83.14c3.09,5.61,5.71,11.45,7.93,17.45,1.98,5.34,3.66,10.78,5.29,16.23.88,2.95,1.75,5.9,2.67,8.83.29.92,1.73.53,1.45-.4-3.45-11.06-6.45-22.24-11.11-32.87-1.49-3.41-3.14-6.75-4.93-10.01-.47-.85-1.76-.09-1.29.76h0Z"/>
        <path d="m101.01,82.23c5,3.49,9.07,8.26,12.5,13.25s6.33,10.38,8.58,16c1.02,2.54,1.91,5.14,2.53,7.81l.92-.92c-3.6-1.15-7.1-2.91-10.9-3.29-.4-.04-.88-.11-1.28-.05-.33.05-.66.24-.95.4-.63.34-1.21.8-1.73,1.28-1.16,1.08-2.1,2.38-2.99,3.67-1.05,1.52-2.01,3.09-3.16,4.53-.6.75.46,1.82,1.06,1.06,1.23-1.54,2.28-3.22,3.39-4.84,1.02-1.48,2.14-3.08,3.66-4.1.3-.2.66-.47,1.01-.52.48-.08,1.09.06,1.57.13,1.07.16,2.13.45,3.16.78,2.28.73,4.48,1.65,6.76,2.38.57.18,1.05-.39.92-.92-1.23-5.27-3.42-10.35-5.89-15.15-2.93-5.69-6.47-11.13-10.74-15.9-2.3-2.57-4.84-4.93-7.67-6.91-.79-.55-1.54.75-.76,1.29h0Z"/>
        <path d="m125.55,118.37c-3.6-1.15-7.1-2.91-10.9-3.29-.4-.04-.88-.11-1.28-.05-.33.05-.66.24-.95.4-.63.34-1.21.8-1.73,1.28-1.16,1.08-2.1,2.38-2.99,3.67-1.05,1.52-2.01,3.09-3.16,4.53-.6.75.46,1.82,1.06,1.06,1.23-1.54,2.28-3.22,3.39-4.84,1.02-1.48,2.14-3.08,3.66-4.1.3-.2.66-.47,1.01-.52.48-.08,1.09.06,1.57.13,1.07.16,2.13.45,3.16.78,2.28.73,4.48,1.65,6.76,2.38.92.29,1.32-1.15.4-1.45h0Z"/>
        <path d="m74.64,77.36c2.12,3.51,4.6,7.05,7.61,9.87.24.23.62.29.91.12,2.13-1.26,4.26-2.55,6.31-3.93.8-.54.05-1.84-.76-1.29-2.05,1.39-4.18,2.67-6.31,3.93l.91.12c-2.92-2.74-5.32-6.16-7.38-9.57-.5-.83-1.8-.07-1.29.76h0Z"/>
        <path d="m84.13,72.23c-.1-.12.03.04.05.07.05.08.1.15.15.23.1.15.19.31.28.47.22.4.43.81.63,1.22.47.98.88,1.97,1.28,2.98.71,1.82,1.45,3.7,1.81,5.62.18.95,1.63.55,1.45-.4-.38-2.01-1.16-3.99-1.92-5.88s-1.44-3.82-2.66-5.36c-.25-.32-.79-.26-1.06,0-.32.31-.25.74,0,1.06h0Z"/>
        <path d="m75.94,77.36c2.11-2.74,5.62-4.21,8.92-4.93.94-.21.54-1.65-.4-1.45-3.72.81-7.45,2.55-9.82,5.62-.25.32-.05.84.27,1.03.39.23.78.05,1.03-.27h0Z"/>
      </g>
    </g>
  </g>
</svg>