<?xml version="1.0" encoding="UTF-8"?>
<svg id="_レイヤー_2" data-name="レイヤー 2" xmlns="http://www.w3.org/2000/svg" xmlns:xlink="http://www.w3.org/1999/xlink" viewBox="0 0 276.2 324.91">
  <defs>
    <style>
      .cls-1, .cls-2 {
        fill: #fff;
      }

      .cls-3 {
        fill: #8cc63f;
      }

      .cls-2, .cls-4, .cls-5, .cls-6 {
        stroke: #000;
      }

      .cls-2, .cls-4, .cls-6 {
        stroke-width: 1.5px;
      }

      .cls-2, .cls-5, .cls-7 {
        stroke-miterlimit: 10;
      }

      .cls-8 {
        fill: #faf25c;
      }

      .cls-4, .cls-9 {
        fill: #5fbc9f;
      }

      .cls-4, .cls-6 {
        stroke-linejoin: round;
      }

      .cls-10 {
        fill: #ee8eab;
      }

      .cls-7 {
        stroke: #fff;
        stroke-dasharray: 0 0 0 0 0 0 4.25 4.25 4.25 4.25 4.25 4.25;
        stroke-linecap: round;
      }

      .cls-7, .cls-11, .cls-6 {
        fill: none;
      }

      .cls-12 {
        clip-path: url(#clippath);
      }

      .cls-13 {
        fill: #fff069;
      }

      .cls-14 {
        fill: #ff8fa9;
      }

      .cls-15 {
        fill: #eb6d51;
      }

      .cls-16 {
        fill: #e74268;
      }
    </style>
    <clipPath id="clippath">
      <path class="cls-11" d="m166.59,231.86c-10.53,3.44-21.77,1.1-32.59,1.36-3.84.09-8.51-1.49-10.87-3.98-2.19-2.31-15.56,3.32-15.18.04-4.78-8.74,4.92-26.38,4.92-46.89,0-10.93-11.82-13.5-7.52-23.55,3.6-8.42,12.13-18.97,20.15-23.39,13.62-7.53,31.93-11.51,49.74-9.26,17.81,2.25,13.55,6.22,20.13,23.54-2.8,16.95-3.47,20.07-3.84,28.04-.13,2.91,6.73,24.27,5.02,35.36-.44,2.88,1.26,8.41,1.26,8.41,0,0-5.43,7.07-11.1,9.35-2.34.94-9.6,1.43-12.42,1.99s-4.27-1.17-6.89-2.34"/>
    </clipPath>
  </defs>
  <g id="_レイヤー_32" data-name="レイヤー 32">
    <g>
      <g>
        <path class="cls-14" d="m127.24,298.68c-15.22,1.94-24.79,4.5-38.86,10.62-7.13,3.1-32.51,5.69-46.71-6.81-15.16-13.36-4.17-14.51-26.87-47.78-2.78-4.08-11.58-21.08-12.52-25.92-2.78-14.32-3.73-23.32,14.66-31.59,15.73-7.08,34.04.98,51.13-1.35,14.1-1.92,28.33-12.84,42.43-14.76,8.33-1.13,17.88-1.91,24.07,3.78,7.43,6.83,5.73,18.63,6.56,28.68.97,11.78,6.41,23.15,14.98,31.3,6.47,6.16,14.76,10.69,19.3,18.38,4.54,7.69,2.41,20.32-6.39,21.87"/>
        <path class="cls-10" d="m127.24,297.93c-9.01,1.15-17.92,2.83-26.54,5.75-4.32,1.46-8.5,3.24-12.7,4.97-2.02.83-4.2,1.3-6.35,1.66-6.5,1.1-13.3,1.1-19.8.07-7.3-1.16-14.46-3.78-20.03-8.76-2.95-2.64-5.74-5.54-7.54-9.11-1.49-2.96-2.32-6.24-3.4-9.38-1.86-5.38-4.3-10.53-7.09-15.49-3.58-6.37-7.97-12.22-11.47-18.63-3.11-5.69-6.19-11.54-8.46-17.62-.92-2.47-1.33-5.08-1.74-7.68-.46-2.88-.79-5.82-.55-8.74.21-2.56.97-5.05,2.35-7.22,1.74-2.73,4.31-4.83,7.01-6.54,3.77-2.38,7.92-4.32,12.28-5.3,4.68-1.05,9.53-1.08,14.3-.78,9.67.61,19.35,2.64,29.07,1.65s17.87-5.35,26.34-9.13c4.36-1.94,8.79-3.8,13.43-4.98,4.17-1.06,8.59-1.53,12.89-1.62s8.59.37,12.29,2.52c3.49,2.03,5.8,5.39,6.97,9.2s1.4,8.18,1.53,12.31.18,8.59.91,12.83c1.53,8.84,5.53,17.23,11.37,24.03s13.92,11.09,19.73,17.87c2.43,2.84,4.23,6.02,4.77,9.75.47,3.21.11,6.71-1.36,9.63-1.35,2.68-3.62,4.63-6.61,5.19-.95.18-.55,1.62.4,1.45,6.86-1.28,9.66-8.75,9.21-15.02-.26-3.68-1.55-7.02-3.71-10-2.6-3.59-5.97-6.5-9.41-9.27s-7.28-5.65-10.44-9.01-5.91-7.29-8.02-11.48-3.54-8.49-4.37-13.01-.82-8.81-.96-13.24c-.25-7.95-1.06-16.92-8.17-21.87-3.49-2.43-7.8-3.26-11.98-3.39-4.39-.13-8.94.32-13.24,1.18-9.5,1.88-18.06,6.84-26.94,10.48-4.4,1.8-8.97,3.38-13.71,3.97s-9.79.37-14.66-.06c-9.74-.87-19.71-2.78-29.44-.77-4.47.92-8.7,2.84-12.59,5.19-2.88,1.75-5.59,3.87-7.59,6.61-3.46,4.76-3.55,10.62-2.79,16.23.38,2.77.73,5.67,1.62,8.33.94,2.82,2.21,5.55,3.48,8.24,1.51,3.19,3.1,6.34,4.77,9.46,1.18,2.21,2.37,4.45,3.76,6.54,4.61,6.94,9.13,13.95,12.58,21.56,1.79,3.94,3.1,8.02,4.48,12.12,1.09,3.24,2.51,6.23,4.65,8.92,3.78,4.73,8.71,8.64,14.26,11.04,6.82,2.94,14.35,4.06,21.75,4.03,3.22-.01,6.44-.25,9.61-.74,2.24-.35,4.51-.8,6.64-1.61,4.21-1.62,8.29-3.48,12.56-4.95,4.19-1.44,8.46-2.63,12.79-3.57,4.58-.99,9.22-1.71,13.86-2.3.94-.12.96-1.62,0-1.5h0Z"/>
      </g>
      <path d="m43.19,234.14c5.34,6.96,11.38,13.4,17.97,19.19,7.16,6.29,15.04,11.9,23.7,15.94,4.76,2.22,9.76,3.97,14.93,4.96.94.18,1.35-1.27.4-1.45-9.13-1.74-17.65-5.81-25.38-10.88s-14.87-11.26-21.28-17.99c-3.19-3.35-6.22-6.86-9.04-10.53-.25-.32-.64-.49-1.03-.27-.32.18-.52.71-.27,1.03h0Z"/>
      <path d="m216.32,286.86l-26.38-83.5-38.84,12.27,18.48,58.51-45.91,1.14-.67,29.13,72.39,9.65c11.22.81,21.78-5.11,21.78-18.85h0c0-.08,0-.15,0-.23.26-2.65,0-5.4-.85-8.11Z"/>
      <path class="cls-7" d="m131.61,287.63l52.37,1.74c-1.78-9.05-13.86-36.82-13.86-36.82"/>
      <path d="m194.65,221.81c1.54,3.67,2.85,7.44,4.15,11.2,1.87,5.42,3.66,10.86,5.4,16.32,1.93,6.05,3.81,12.12,5.63,18.21,1.7,5.69,3.35,11.4,4.91,17.13.75,2.75,1.67,5.54,1.8,8.4.16,3.42-.42,6.95-1.71,10.12-2.39,5.86-8.96,9.95-15.28,9.61-1.79-.1-3.58-.35-5.36-.53-1.92-.2-3.84-.39-5.75-.59-3.47-.35-6.94-.71-10.42-1.06-7.69-.78-15.38-1.52-23.08-2.14-6.3-.51-12.6-.95-18.91-1.37-3.81-.26-7.64-.46-11.44-.83-.26-.03-.52-.05-.78-.08-.12-.01-.24-.03-.36-.04-.07,0-.43-.06-.19-.02l.45.34c.06.13.05.37.06.08,0-.17,0-.34.01-.51.03-.55.09-1.09.16-1.63.21-1.76.5-3.51.81-5.26.9-5.14,2.02-10.26,3.37-15.3.81-3.04,1.72-6.05,2.78-9.01.33-.91-1.12-1.3-1.45-.4-2.73,7.6-4.57,15.55-6.01,23.49-.46,2.52-.91,5.06-1.13,7.61-.04.49-.18,1.22.09,1.68.33.56,1.65.5,2.25.56,5.05.48,10.12.73,15.18,1.08,8.62.59,17.24,1.25,25.85,2.04,9.05.83,18.09,1.8,27.13,2.72,2.24.23,4.49.55,6.74.67,1.98.11,4-.22,5.88-.85,3.83-1.29,7.36-3.83,9.55-7.26s2.97-7.55,3.08-11.41-.97-7.2-1.93-10.74c-1.94-7.16-4.03-14.28-6.19-21.37s-4.54-14.68-6.95-21.97c-1.85-5.59-3.72-11.18-5.84-16.68-.34-.88-.69-1.76-1.05-2.63-.16-.38-.49-.64-.92-.52-.35.09-.68.55-.52.92h0Z"/>
      <g>
        <path class="cls-9" d="m91.4,288.89c-6.29-.65-24.5,3.48-28.25.08-1.1-1-2.34-4.52-7.52-5.59-8.46-1.74-10.18,5.31-13.34,6.62-9.87,4.09-24.87,8.24-30,17.61-1.23,2.25-2.33,5.09-.94,7.24,1,1.55,3.01,2.16,4.85,2.04s3.58-.81,5.33-1.36c4.48-1.4,9.27-1.83,13.93-1.25,3.56.44,7.09,1.46,10.66,1.16,7.2-.62,36.18,1.77,36.17,1.58"/>
        <path d="m91.4,288.14c-2.29-.23-4.65.04-6.93.25-3,.28-5.99.64-8.99.89-2.74.23-5.52.44-8.26.2-.93-.08-1.9-.22-2.77-.59-.6-.25-.96-.64-1.36-1.19-.66-.91-1.33-1.82-2.18-2.57-1.2-1.07-2.64-1.82-4.18-2.26-2.91-.83-6.13-.73-8.73.95-1.87,1.21-3.11,3-4.67,4.53-.71.7-1.45,1.03-2.43,1.42-1.49.59-2.99,1.16-4.48,1.73-6.33,2.41-12.91,4.82-18.41,8.87-2.48,1.83-4.76,4.02-6.28,6.74-.96,1.71-1.87,3.73-1.75,5.74.12,1.89,1.22,3.48,2.95,4.24,1.84.8,3.84.65,5.73.15,2.22-.59,4.34-1.42,6.61-1.86s4.6-.63,6.93-.58,4.66.44,6.98.84,4.61.74,6.95.56c.75-.06,1.51-.09,2.26-.1,2.22-.03,4.44.03,6.65.12,5.43.2,10.86.53,16.29.89,3.52.23,7.05.56,10.57.68.48.02.9-.01,1.12-.56.35-.9-1.1-1.29-1.45-.4h0c.11-.15.23-.3.34-.45.17-.12.51-.08.17-.09-.16,0-.32-.01-.48-.02-.55-.03-1.1-.06-1.65-.1-1.88-.12-3.75-.25-5.63-.37-5.22-.35-10.44-.68-15.67-.93-4.14-.2-8.36-.5-12.5-.18-4.54.35-8.97-1.21-13.5-1.38-2.22-.08-4.44.06-6.64.41s-4.39,1.01-6.55,1.7c-1.84.59-3.84,1.1-5.72.39s-2.56-2.47-2.18-4.34c.64-3.17,2.8-6.01,5.15-8.14,4.86-4.41,11.25-6.96,17.28-9.31,2.91-1.13,5.91-2.1,8.74-3.41,1.68-.77,2.78-2.54,4.03-3.83,1.7-1.76,3.74-2.91,6.24-2.93,3.09-.03,6.04,1.17,8,3.58.52.64.94,1.41,1.53,1.99s1.37.91,2.14,1.13c2.25.64,4.72.57,7.03.47,5.62-.24,11.19-1.22,16.81-1.44.95-.04,1.9-.05,2.85.04s.95-1.41,0-1.5h0Z"/>
      </g>
      <path class="cls-5" d="m176.78,211.05l-63.69,3v69.59l-47.23,1.6-6.92,31.79,72.9,6.5c11.22.81,20.97-7.63,21.78-18.85h0c0-.08,0-.16,0-.24.12-.91.21-1.82.21-2.76l3.38-47.1,15.5-3.72,4.08-39.81Z"/>
      <path d="m156.45,254.58c0,12.55-.78,25.09-2.1,37.57-.31,2.96-.66,5.91-1.02,8.86s-.67,5.78-1.36,8.6c-.65,2.66-1.65,5.3-3.36,7.48-1.52,1.92-3.48,3.46-5.66,4.57s-4.63,1.77-7.08,1.75c-1.3,0-2.61-.21-3.9-.34-1.41-.14-2.81-.29-4.22-.43-5.18-.53-10.35-1.05-15.53-1.58-11.05-1.13-22.12-2.08-33.21-2.86-6.38-.45-12.8-.71-19.16-1.37-.19-.02-.37-.04-.56-.06-.09-.01-.18-.02-.26-.03-.06,0-.34-.04-.09-.01l.45.34c.06.13.05.37.06.08,0-.17,0-.34.01-.51.03-.55.09-1.09.16-1.63.21-1.76.5-3.51.81-5.26.9-5.14,2.02-10.26,3.37-15.3.81-3.04,1.72-6.05,2.78-9.01.33-.91-1.12-1.3-1.45-.4-2.22,6.18-3.81,12.58-5.14,19-.54,2.61-1.03,5.23-1.44,7.86-.25,1.61-.53,3.25-.6,4.88-.02.49-.05,1.13.49,1.36.46.2,1.16.17,1.66.22,1.48.15,2.96.25,4.44.36,4.82.34,9.65.65,14.47.99,7,.49,13.99,1.04,20.97,1.67s14.2,1.39,21.29,2.11c3.67.37,7.33.75,11,1.12,1.65.17,3.29.4,4.95.25s3.18-.51,4.68-1.1c2.97-1.16,5.71-3.04,7.71-5.54,2.29-2.85,3.48-6.35,4.17-9.9s1.09-7.51,1.52-11.27.86-7.8,1.21-11.71c.73-8.15,1.21-16.32,1.37-24.49.04-2.09.06-4.18.06-6.27,0-.96-1.5-.97-1.5,0h0Z"/>
      <path class="cls-7" d="m64.06,299.15c16.83-.71,40.56-1.13,59.08-.2-1.28-15.63-1.47-34.66-2.12-42.59"/>
      <path class="cls-1" d="m150.76,257.09c8.28-2.39,16.73-4.19,25.1-6.22.94-.23.54-1.67-.4-1.45-8.38,2.03-16.82,3.83-25.1,6.22-.93.27-.53,1.71.4,1.45h0Z"/>
      <path class="cls-1" d="m246.39,64.28c6.42-.51,10.9-3.91,14.06-5.41,2.56-1.22,1.73-2.72,2.07-4.49.48-2.47,3.99-1.51,2.5-5.24,3.15-3.22,3.32-5.46,2.05-7.35,2.06-2.53,2.07-4.79.58-6.39-2.3-2.47-5.31-7.19-14.76-4.35-5.04,2.4-12.54,12.41-16.53,16.96-2.27,2.59-3.51,6.46-2.27,9.67.8,2.06,2.69,3.55,4.75,4.36s3.69,2.34,5.89,2.56"/>
      <g>
        <path d="m269.7,37.26c-1.71-2.94-3.74-5.69-6.04-8.2-.49-.53-.98-1.11-1.62-1.47-.74-.42-1.56-.44-2.38-.27-1.66.34-3.3,1.13-4.82,1.86-3.11,1.49-6.17,3.36-8.67,5.76s-4.53,5.38-6.65,8.16c-2.62,3.45-5.24,6.89-7.86,10.34-.58.77.72,1.52,1.29.76,2.17-2.85,4.33-5.7,6.5-8.55s4.03-5.52,6.28-8.08,4.77-4.33,7.62-5.93c1.44-.81,2.93-1.54,4.46-2.14.72-.28,1.47-.59,2.23-.74.85-.16,1.37.14,1.95.73,2.48,2.54,4.6,5.45,6.39,8.52.49.83,1.78.08,1.29-.76h0Z"/>
        <path d="m266.43,42.16c.66,1.06.9,2.19.3,3.33-.44.83-1.12,1.46-1.72,2.17-.43.51-.77,1.05-.75,1.74.02.65.46,1.21.48,1.83.02.74-1.3,1.07-1.81,1.38-.89.56-1.34,1.36-1.05,2.42.13.48.12.84.05,1.32-.03.2-.04.46-.13.64-.11.22-.42.36-.64.51-2.51,1.69-5.22,3.07-8,4.26-3.22,1.38-6.53,2.5-9.84,3.64-.91.31-.52,1.76.4,1.45,6.13-2.11,12.36-4.22,17.82-7.8.52-.34,1.23-.68,1.54-1.25.26-.48.31-1.06.37-1.59.03-.25.07-.5.06-.75-.01-.32-.17-.61-.21-.92-.06-.38.17-.51.49-.7.81-.47,1.78-.78,2.24-1.67.3-.59.22-1.24.02-1.84-.09-.27-.26-.58-.28-.87-.03-.4.26-.68.5-.97.78-.88,1.58-1.72,2.02-2.83.58-1.46.25-2.96-.56-4.26-.51-.82-1.81-.07-1.29.76h0Z"/>
      </g>
      <g>
        <path class="cls-1" d="m258.25.75l-4.71,24.29c-.8,4.12,1.44,8.12,5.14,9.71l-3.66,18.89-9.1,1.59c-1.3.23-1.32,2.09-.02,2.34l19.52,3.78c1.3.25,1.97-1.48.85-2.18l-7.82-4.86,3.65-18.86c4.13.02,7.81-2.89,8.63-7.09l4.71-24.29-17.2-3.33Z"/>
        <path class="cls-13" d="m253.62,24.35l2.81-13.6,16.93.13-2.67,17c-.95,4.6-5.54,7.54-10.26,6.57h0c-4.71-.97-7.76-5.5-6.81-10.1Z"/>
        <path class="cls-6" d="m258.25.75l-4.71,24.29c-.8,4.12,1.44,8.12,5.14,9.71l-3.66,18.89-9.1,1.59c-1.3.23-1.32,2.09-.02,2.34l19.52,3.78c1.3.25,1.97-1.48.85-2.18l-7.82-4.86,3.65-18.86c4.13.02,7.81-2.89,8.63-7.09l4.71-24.29-17.2-3.33Z"/>
      </g>
      <g>
        <path class="cls-1" d="m269.08,38.04c-.92,3.01-3.71,5.56-5.33,7.63-.32.41-.72.86-1.24.83-.66-.04-1-.82-1.07-1.47-.24-2.28.88-4.46,1.96-6.48"/>
        <path d="m268.35,37.84c-.7,2.24-2.34,4.04-3.85,5.77-.34.39-.68.78-1.01,1.18-.17.21-.65,1.03-.97.96-.19-.05-.31-.57-.33-.73-.1-.62-.03-1.31.11-1.93.32-1.49,1.04-2.84,1.75-4.18.46-.85-.84-1.61-1.29-.76-.76,1.42-1.53,2.88-1.89,4.46-.29,1.29-.48,3.16.58,4.17.55.52,1.35.57,1.99.2.56-.33.93-.92,1.34-1.41.87-1.04,1.8-2.04,2.64-3.12,1-1.29,1.89-2.66,2.39-4.23.29-.92-1.16-1.32-1.45-.4h0Z"/>
      </g>
      <g>
        <path class="cls-1" d="m250.2,37.78l13.26-2.99c.52-.12,1.16-.19,1.48.23.15.2.18.48.17.73-.05,1.46-1.13,2.69-2.3,3.57-2.55,1.92-5.84,2.82-9.01,2.48-.51-.06-1.08-.13-1.51.15-.3.19-.47.52-.64.83-2.18,4.08-5.04,8.09-9.24,10.02"/>
        <path d="m250.4,38.5l10.01-2.26,2.41-.54c.35-.08.71-.19,1.07-.23s.48-.08.48.29c0,1.33-1.27,2.47-2.27,3.17-2.35,1.65-5.23,2.41-8.09,2.15-.65-.06-1.32-.16-1.93.14-.64.32-.94.94-1.26,1.54-.63,1.16-1.3,2.29-2.05,3.37-1.74,2.51-3.93,4.73-6.73,6.04-.87.41-.11,1.7.76,1.29,2.72-1.28,4.9-3.39,6.69-5.78.91-1.21,1.71-2.5,2.44-3.83.33-.59.51-1.36,1.29-1.35s1.56.14,2.35.12c3.07-.11,6.27-1.26,8.52-3.38,1.02-.96,1.96-2.39,1.75-3.86-.25-1.82-2.16-1.4-3.42-1.11-4.14.93-8.28,1.87-12.42,2.8-.94.21-.54,1.66.4,1.45h0Z"/>
      </g>
      <path class="cls-1" d="m171.04,115.81c3.86-9.23,17.09-18.82,24.33-26.66,3.74-4.05,11.82-27.13,24.15-38.16,4.11-3.68,11.33-7.32,14.28-2.65,1.8,2.85,2.87,6.52,4.7,9.36,1.73,2.68,5.64,5.41,8.26,7.23,4.9,3.4,3.11,9.71-2.64,15.46-4.09,4.09-26.57,24.15-30.16,28.69-10.3,13-12.28,39.61-19.26,42.86-.79,10.66-4.32,18.75-2.84,26.32,1.56,7.97,6.91,26.06,4.59,36.97.04,1,2.48,4.89,1.38,6.31-2.7,8.9-27.28,15.92-42.62,19.19-8.49,4.02-17.45,9.6-22.09,12.19-9.78,5.46-20.24,10.37-22.4,1.05-3.19.19-5.11-4.57-5.88-7.91-1.78-7.69-.65-18.64,1.62-27.7,2.44-9.71,8.17-27.71,6.3-35.44-7.01,3.82-6.34-8.3-7.38-13.83-2.51-13.36-.44-18.97,7.12-30.27,7.56-11.3,16.91-14.44,32.07-12.25,4.33.62,8.66,1.75,13.01,1.32,4.35-.43,8.96-3.52,8.98-7.89"/>
      <path class="cls-9" d="m171.04,115.81c3.86-9.23,17.09-18.82,24.33-26.66,3.74-4.05,11.82-27.13,24.15-38.16,4.11-3.68,11.33-7.32,14.28-2.65,1.8,2.85,2.87,6.52,4.7,9.36,1.73,2.68,5.64,5.41,8.26,7.23,4.9,3.4,3.11,9.71-2.64,15.46-4.09,4.09-26.57,24.15-30.16,28.69-10.3,13-12.28,39.61-19.26,42.86,0-8.64-3.47-29.78-24.55-34.89"/>
      <path class="cls-9" d="m229.67,45.28c-2.66-.11-5.22,1.18-7.38,2.62-2.49,1.67-4.73,3.72-6.77,5.91-4.37,4.67-7.49,10.18-10.29,15.9-2.94,6.02-5.62,12.24-9.53,17.73-3.6,5.06-8.33,9.16-12.88,13.34-5.05,4.63-10.08,9.54-13.02,15.84-.41.87.89,1.63,1.29.76,5.21-11.16,16.54-17.47,24.09-26.8,8.27-10.22,11.18-23.68,19.66-33.75,2.04-2.43,4.32-4.73,6.85-6.66,2.25-1.71,5.03-3.5,7.96-3.37.96.04.96-1.46,0-1.5h0Z"/>
      <path d="m229.27,46.78c3.46.04,4.93,3.33,6.11,6.08.72,1.68,1.4,3.39,2.32,4.98s1.99,2.72,3.41,3.78c1.53,1.14,3.18,2.11,4.69,3.27,1.29.99,2.51,2.12,2.83,3.78.76,4.07-1.84,7.7-4.44,10.54-1.18,1.29-2.45,2.5-3.62,3.8-1.81,1.99-3.7,3.91-5.66,5.75-3.93,3.68-8.1,7.09-12.17,10.61s-7.87,6.84-10.77,11.16c-1.49,2.23-2.6,4.68-3.72,7.11-1,2.16-2.05,4.28-2.88,6.52-1.49,4.04-2.43,8.24-3.61,12.37-1.32,4.64-3.02,9.13-5.47,13.3-.7,1.2-1.46,2.36-2.26,3.5-.56.79.74,1.54,1.29.76,3-4.28,5.27-8.97,6.9-13.94,1.37-4.2,2.3-8.52,3.62-12.74.67-2.16,1.45-4.28,2.42-6.33,1.15-2.44,2.23-4.92,3.5-7.3,2.56-4.77,6.46-8.48,10.48-12.02s8.45-7.14,12.54-10.88c3.43-3.14,6.59-6.54,9.79-9.91,2.75-2.9,5.51-6.35,5.67-10.52.07-1.9-.38-3.62-1.65-5.05s-2.98-2.52-4.58-3.59c-1.41-.95-2.98-1.89-4.04-3.24-1.14-1.45-1.9-3.19-2.62-4.87-1.25-2.92-2.48-6.65-5.67-7.97-.77-.32-1.59-.45-2.42-.46-.97-.01-.97,1.49,0,1.5h0Z"/>
      <path d="m180.25,108.55c-5.01,4.02-10.09,8.26-16,10.91-.88.39-.12,1.69.76,1.29,6.03-2.7,11.2-7.04,16.31-11.14.75-.6-.31-1.66-1.06-1.06h0Z"/>
      <path d="m109.99,254.16c2.11,9.7,14.89,3.71,20.38.99,4.14-2.05,8.22-4.24,12.25-6.52,4.68-2.65,9.17-5.61,13.62-8.62,5.32-3.61,10.7-7.1,16.41-10.07.86-.45.1-1.74-.76-1.29-4.97,2.59-9.71,5.55-14.36,8.69s-9.28,6.29-14.12,9.12c-3.62,2.12-7.32,4.09-11.04,6.02s-7.15,3.67-11.01,4.77c-1.98.57-4.2,1.05-6.25.58s-3.22-2.03-3.66-4.06c-.21-.94-1.65-.54-1.45.4h0Z"/>
      <path d="m153.51,241.69c4.03-.44,8-1.38,11.9-2.44,4.33-1.17,8.61-2.53,12.81-4.09,3.38-1.25,6.71-2.64,9.89-4.34,1.89-1.01,3.73-2.13,5.45-3.41s3.47-2.67,4.6-4.42c.83-1.28.3-3.25-.01-4.61-.27-1.13-.6-2.26-.99-3.35-.33-.9-1.77-.51-1.45.4.31.85.57,1.71.8,2.58.31,1.18.79,2.72.5,3.91-.13.55-.95,1.29-1.42,1.77-.73.75-1.52,1.44-2.34,2.08-1.63,1.28-3.4,2.38-5.22,3.38-6.72,3.71-14.17,6.16-21.53,8.24-4.25,1.2-8.59,2.31-12.99,2.8-.95.1-.96,1.6,0,1.5h0Z"/>
      <g>
        <path class="cls-9" d="m96.29,191.85c.63-15.3-18.03-21.38-18.03-21.38,0,0-13.91,12.98-6.65,28.6"/>
        <path class="cls-9" d="m96.79,191.85c.2-5.4-2.09-10.35-5.86-14.13-2.87-2.88-6.39-5.11-10.1-6.76-.8-.35-1.61-.7-2.44-.97-.17-.06-.36.01-.49.13-1.71,1.6-3.16,3.56-4.42,5.52-2.63,4.12-4.4,8.89-4.48,13.82-.06,3.42.74,6.77,2.16,9.86.27.58,1.13.08.86-.5-2.37-5.15-2.6-10.87-.81-16.23,1.23-3.68,3.28-7.11,5.8-10.06.5-.59,1.02-1.17,1.58-1.7l-.49.13c2.11.69,4.14,1.73,6.04,2.85,3.9,2.3,7.5,5.39,9.66,9.42,1.42,2.66,2.07,5.62,1.96,8.62-.02.64.98.64,1,0h0Z"/>
      </g>
      <g>
        <path class="cls-9" d="m71.43,198.86c.46,12.73-6.66,26.81,6.08,30.42,5.99,1.7,8.38-.93,11-3.56,3.86-3.86,13.18-2.66,13.94-8.29,1.08-7.9-6.2-24.84-6.17-25.58"/>
        <path class="cls-9" d="m70.93,198.86c.13,3.72-.36,7.42-.84,11.11-.43,3.28-.93,6.62-.67,9.93.22,2.79,1.1,5.57,3.27,7.46,1.19,1.04,2.62,1.75,4.11,2.23,1.9.62,3.96.95,5.94.56,1.51-.3,2.83-1.08,4-2.05s2.05-2.17,3.31-2.95c2.58-1.6,5.72-1.93,8.51-3.04,1.2-.48,2.42-1.09,3.27-2.1s1.14-2.27,1.21-3.59c.15-3.03-.5-6.11-1.22-9.03-.78-3.17-1.78-6.29-2.85-9.37-.68-1.96-1.47-3.89-2.1-5.86-.03-.09-.05-.17-.08-.26-.04-.14-.02-.1-.02-.05,0-.64-1-.64-1,0,0,.44.25.92.39,1.32.32.91.66,1.82.99,2.73.99,2.75,1.94,5.51,2.76,8.31.89,3.04,1.7,6.16,2.02,9.32.13,1.27.2,2.58.01,3.85s-.9,2.22-1.94,2.9c-2.38,1.56-5.41,1.9-8.04,2.87-1.31.48-2.6,1.1-3.64,2.05s-2.01,2.08-3.24,2.89c-3.02,1.98-7.03,1.32-10.07-.32-2.5-1.35-3.94-3.65-4.44-6.41-.54-3.04-.15-6.23.22-9.27.43-3.53.98-7.06,1.11-10.62.03-.87.03-1.74,0-2.61-.02-.64-1.02-.64-1,0h0Z"/>
      </g>
      <g class="cls-12">
        <rect class="cls-9" x="107.84" y="166.06" width="5.27" height="26" rx="1.83" ry="1.83" transform="translate(-21.01 14.81) rotate(-7)"/>
        <rect class="cls-9" x="114.99" y="165.43" width="5.27" height="26" rx="1.83" ry="1.83" transform="translate(-20.88 15.68) rotate(-7)"/>
        <rect class="cls-9" x="122.89" y="164.92" width="5.27" height="26" rx="1.83" ry="1.83" transform="translate(-20.76 16.64) rotate(-7)"/>
        <rect class="cls-9" x="130.01" y="163.79" width="5.27" height="26" rx="1.83" ry="1.83" transform="translate(-20.57 17.5) rotate(-7)"/>
        <rect class="cls-9" x="137.33" y="162.4" width="5.27" height="26" rx="1.83" ry="1.83" transform="translate(-20.35 18.38) rotate(-7)"/>
        <rect class="cls-9" x="144.9" y="161.39" width="5.27" height="26" rx="1.83" ry="1.83" transform="translate(-20.17 19.29) rotate(-7)"/>
        <rect class="cls-9" x="152.19" y="160.49" width="5.27" height="26" rx="1.83" ry="1.83" transform="translate(-20 20.18) rotate(-7)"/>
        <rect class="cls-9" x="159.28" y="159.19" width="5.27" height="26" rx="1.83" ry="1.83" transform="translate(-19.79 21.03) rotate(-7)"/>
        <rect class="cls-9" x="166.87" y="158.26" width="5.27" height="26" rx="1.83" ry="1.83" transform="translate(-19.62 21.95) rotate(-7)"/>
        <rect class="cls-9" x="174.15" y="157.36" width="5.27" height="26" rx="1.83" ry="1.83" transform="translate(-19.46 22.83) rotate(-7)"/>
        <rect class="cls-9" x="181.25" y="156.49" width="5.27" height="26" rx="1.83" ry="1.83" transform="translate(-19.3 23.69) rotate(-7)"/>
        <rect class="cls-9" x="188.38" y="155.62" width="5.27" height="26" rx="1.83" ry="1.83" transform="translate(-19.14 24.55) rotate(-7)"/>
        <rect class="cls-9" x="196.04" y="154.67" width="5.27" height="26" rx="1.83" ry="1.83" transform="translate(-18.97 25.48) rotate(-7)"/>
        <rect class="cls-9" x="203.6" y="153.74" width="5.27" height="26" rx="1.83" ry="1.83" transform="translate(-18.8 26.4) rotate(-7)"/>
        <rect class="cls-9" x="211.12" y="152.82" width="5.27" height="26" rx="1.83" ry="1.83" transform="translate(-18.63 27.31) rotate(-7)"/>
      </g>
      <path d="m198.48,127.11c-1.35,7.87-2.7,15.74-4.04,23.61-.66,3.85-1.32,7.71-1.98,11.56s-1.54,7.72-1.67,11.63,1.16,8.03,2.17,11.92c1.31,5.08,2.57,10.2,3.15,15.43.62,5.56.62,11.65-2.07,16.72-.45.85.84,1.61,1.29.76,2.41-4.55,2.82-9.88,2.5-14.94-.34-5.36-1.48-10.65-2.79-15.85-.55-2.22-1.15-4.43-1.7-6.65-.39-1.57-.83-3.3-.98-4.82-.37-3.54.4-7.12,1-10.6.67-3.94,1.35-7.87,2.02-11.81,1.52-8.86,3.03-17.71,4.55-26.57.16-.94-1.28-1.35-1.45-.4h0Z"/>
      <path d="m111.75,180.8c.49,2.95.44,5.99.21,8.97-.27,3.47-.82,6.91-1.49,10.33-1.38,7.1-3.26,14.1-4.93,21.13-1.09,4.57-2.16,9.15-2.31,13.86-.13,4.33.11,8.93,1.59,13.03.66,1.82,1.6,3.64,3.13,4.88s3.55,1.69,5.55,1.38c.57-.09,1.14-.23,1.69-.41.91-.3.52-1.75-.4-1.45-1.79.58-3.7.72-5.32-.27-1.45-.89-2.41-2.5-3.04-4.09-1.55-3.94-1.8-8.39-1.72-12.58.02-.9.06-1.8.13-2.69.03-.37.06-.74.1-1.1.02-.16.04-.32.06-.49.03-.26,0-.05.04-.32.43-2.84,1.07-5.65,1.72-8.44,1.61-6.86,3.45-13.67,4.86-20.58,1.3-6.35,2.47-13.02,1.84-19.52-.07-.69-.16-1.37-.27-2.06-.16-.95-1.6-.55-1.45.4h0Z"/>
      <path d="m110.71,184.99c2.38-.24,4.76-.48,7.12-.94,2.56-.49,5.38-1.16,7.49-2.78.79-.61,0-1.97-.79-1.35-2.01,1.54-4.67,2.15-7.11,2.62-2.22.43-4.46.66-6.7.88-.99.1-1,1.67,0,1.57h0Z"/>
      <path class="cls-9" d="m96.29,191.85s23.77-11.89,31.5-19.63c5.75-9.67,1.71-40.55-6.34-42.17-13.41,6.7-31.5,28.03-40.4,38.04-4.29,4.83-10.72,8.79-11.55,19.45-1.05,13.4,26.79,4.31,26.79,4.31Z"/>
      <path d="m90.78,196.23c3.07-1.48,6.08-3.08,9.07-4.71,6.14-3.35,12.19-6.92,17.9-10.97,3.08-2.18,6.09-4.51,8.77-7.18.68-.68-.38-1.74-1.06-1.06-4.89,4.88-10.81,8.73-16.68,12.33-5.08,3.11-10.29,6-15.59,8.71-1.05.54-2.1,1.07-3.17,1.59-.87.42-.11,1.71.76,1.29h0Z"/>
      <path class="cls-9" d="m78.79,171.41c3.29-3.09,6.26-6.52,9.23-9.92,3.63-4.15,7.22-8.34,10.97-12.38s7.96-8.26,12.37-11.93c4.15-3.45,8.67-6.56,13.63-8.73,4.54-1.98,9.5-3.03,14.46-2.57.61.06,1.22.14,1.82.24.94.16,1.35-1.28.4-1.45-5.09-.86-10.25-.23-15.08,1.53-5.1,1.86-9.73,4.77-14.01,8.08-4.61,3.56-8.82,7.61-12.84,11.83s-7.61,8.35-11.31,12.61c-3.14,3.6-6.25,7.25-9.66,10.6-.35.34-.7.68-1.05,1.01-.7.66.36,1.72,1.06,1.06h0Z"/>
      <polygon class="cls-1" points="81.11 231.22 78.26 218.36 96.69 213.12 96.18 229.28 81.11 231.22"/>
      <path d="m95.62,214.42c.19,3.34.3,6.68.32,10.02,0,.96,1.51.97,1.5,0-.03-3.34-.13-6.69-.32-10.02-.05-.96-1.55-.97-1.5,0h0Z"/>
      <g>
        <g>
          <path class="cls-1" d="m90.04,227.17c5.32-4.2,12.95-7.72,17.91-9.89,1.49,7.72,1.51,13.01,2.18,20.84.06.77-4.83,1.08-5.1,1.8-.63,1.69-5.65,3.55-7.44,3.82-5.69.86-9.79,2.17-14.82-4.1l-3.75-19.01"/>
          <path class="cls-15" d="m90.39,227.53c5.33-4.19,11.63-7.1,17.81-9.81l-.73-.3c.73,3.79,1.18,7.62,1.48,11.47.15,1.91.27,3.82.41,5.73.07,1.01.15,2.01.23,3.02,0,.1,0,.27.03.36.1.26-.09.04.06-.03.08-.04-.04.02-.05.03-.14,0-.37.15-.51.2-1.02.31-2.08.45-3.1.72-.37.1-.77.2-1.09.41s-.4.56-.64.84c-.79.91-2.08,1.47-3.16,1.94s-2.27.9-3.45,1.13c-1.35.26-2.73.47-4.1.63-1.25.14-2.54.22-3.79,0-1.34-.24-2.58-.8-3.68-1.6-.71-.52-1.36-1.12-1.95-1.77-.27-.29-.79-.76-.9-1.02-.13-.29-.14-.7-.2-1.02l-.41-2.07c-.39-2-.79-4-1.18-6-.64-3.22-1.15-6.5-1.91-9.7-.01-.06-.02-.11-.03-.17-.12-.63-1.09-.36-.96.27.58,2.94,1.16,5.89,1.74,8.83.42,2.14.84,4.28,1.27,6.41.24,1.2.42,2.44.72,3.63.05.18.11.28.23.45.59.78,1.29,1.5,2.02,2.15,1.1.98,2.36,1.79,3.76,2.26,2.62.87,5.4.39,8.05-.04s5.21-1.16,7.46-2.61c.47-.31.95-.65,1.31-1.09.14-.17.22-.38.35-.55.09-.12,0-.03-.01-.01.05-.04.13-.08.19-.1.98-.4,2.09-.51,3.12-.76.68-.16,1.79-.34,1.88-1.2.05-.52-.09-1.15-.14-1.68s-.08-1.07-.12-1.61c-.07-1.02-.14-2.03-.21-3.05-.26-3.82-.57-7.63-1.16-11.41-.17-1.08-.36-2.16-.57-3.24-.07-.35-.47-.42-.73-.3-6.26,2.75-12.6,5.72-18.01,9.97-.51.4.21,1.1.71.71h0Z"/>
        </g>
        <g>
          <path class="cls-1" d="m107.95,217.28c6,2.28,11.68,6.03,13.67,8.02,1.49,1.49,4.83,5.57,4.96,6.8.12,1.17.2,2.27-.99,2.53.94,2,1.72,2.82.6,4.29-.96,1.26-3.18.96-4.09.48,1.96,2.25-.99,3.83-3.42,2.45-1.1,1.1-.97,2.17-5.26,1.73-2.57-.26-5.71-.98-8.39-3.66"/>
          <path class="cls-15" d="m107.81,217.76c4,1.53,7.86,3.6,11.32,6.13,2.36,1.73,4.3,3.99,5.94,6.41.35.51.77,1.08.96,1.68.22.72.31,1.94-.58,2.18-.33.09-.44.45-.3.73.57,1.21,1.71,2.64.52,3.85-.8.81-2.39.7-3.34.23-.52-.26-.97.35-.61.79.53.64.74,1.47-.13,1.9s-1.89.2-2.69-.23c-.19-.1-.45-.08-.61.08-.41.42-.73.98-1.23,1.31-.89.57-2.23.41-3.22.32-3.19-.26-6.18-1.28-8.5-3.55-.46-.45-1.17.26-.71.71,2.51,2.47,5.75,3.56,9.2,3.85,1.17.1,2.55.19,3.62-.4.66-.36,1.03-1,1.54-1.52l-.61.08c1.2.65,2.85.89,4.01.03s.84-2.27.01-3.27l-.61.79c1.35.67,3.42.77,4.55-.39.58-.6.94-1.43.82-2.26-.14-.99-.77-1.91-1.19-2.8l-.3.73c1.65-.45,1.71-2.52,1.1-3.85-.69-1.49-1.83-2.83-2.86-4.08-.96-1.17-1.96-2.3-3.15-3.26-1.56-1.26-3.25-2.36-4.97-3.37-2.48-1.46-5.07-2.72-7.76-3.75-.6-.23-.86.74-.27.96h0Z"/>
        </g>
      </g>
      <g>
        <path d="m104.49,239.39c-1.6,1.33-3.62,2.3-5.54,3.07-1.72.69-3.45.97-5.28,1.24-1.6.23-3.26.38-4.82-.1-1.96-.6-3.52-2.1-4.83-3.61-.1-.11-.19-.22-.29-.34.02.03-.41-.55-.27-.28.04.07.03.09.02.05-.02-.06-.03-.14-.04-.2-.05-.29-.11-.58-.17-.87l-.64-3.23c-.58-2.96-1.17-5.92-1.75-8.88-.38-1.93-.76-3.87-1.14-5.8-.19-.95-1.63-.55-1.45.4.94,4.79,1.89,9.58,2.83,14.37l.67,3.42c.14.72.18,1.24.65,1.82,1.44,1.76,3.13,3.44,5.26,4.33,1.6.66,3.33.73,5.03.54,2.1-.23,4.25-.5,6.23-1.26,2.31-.89,4.66-2.01,6.57-3.6.74-.62-.32-1.67-1.06-1.06h0Z"/>
        <path d="m90.57,227.7c5.31-4.17,11.6-7.07,17.75-9.77.88-.39.12-1.68-.76-1.29-6.29,2.76-12.63,5.75-18.06,10.01-.76.6.31,1.65,1.06,1.06h0Z"/>
        <path d="m107.75,218c3.98,1.52,7.82,3.59,11.26,6.1,2.33,1.7,4.23,3.94,5.85,6.32.34.49.77,1.08.93,1.62.17.58.32,1.67-.4,1.87-.5.14-.65.67-.45,1.1.51,1.07,1.64,2.47.56,3.55-.72.73-2.18.62-3.03.19-.78-.39-1.45.52-.91,1.18.43.52.64,1.16-.08,1.5-.77.37-1.72.16-2.43-.23-.29-.16-.67-.13-.91.12s-.43.49-.64.74c-.17.21-.42.45-.54.52-.83.51-2.12.37-3.09.29-3.12-.26-6.05-1.25-8.32-3.48-.69-.68-1.75.38-1.06,1.06,2.56,2.52,5.86,3.63,9.38,3.92,1.22.1,2.63.18,3.74-.43.68-.37,1.06-1.03,1.59-1.56l-.91.12c1.29.69,3.01.93,4.27.03,1.34-.97.99-2.54.06-3.66l-.91,1.18c1.46.72,3.64.81,4.85-.43.64-.65,1.02-1.56.89-2.47-.15-1.03-.78-1.97-1.22-2.89l-.45,1.1c1.82-.5,1.93-2.75,1.25-4.22s-1.85-2.86-2.9-4.13c-.96-1.17-1.96-2.3-3.15-3.26-1.58-1.27-3.28-2.39-5.02-3.41-2.5-1.47-5.11-2.74-7.82-3.78-.9-.35-1.29,1.1-.4,1.45h0Z"/>
        <path d="m108.21,233.55c3.47,2.77,6.84,5.63,9.94,8.82.67.69,1.73-.37,1.06-1.06-3.09-3.19-6.47-6.05-9.94-8.82-.32-.25-.75-.31-1.06,0-.26.26-.32.81,0,1.06h0Z"/>
        <path d="m111.3,230.13c1.86,1.64,3.74,3.24,5.57,4.91,1.68,1.54,3.45,3.12,4.77,4.98.55.78,1.85.03,1.29-.76-1.37-1.94-3.15-3.58-4.88-5.18-1.86-1.71-3.79-3.35-5.69-5.02-.72-.64-1.79.42-1.06,1.06h0Z"/>
        <path d="m114.08,226.38c2,1.48,3.95,3.02,5.87,4.6s3.94,3.18,5.55,5.09c.62.74,1.68-.33,1.06-1.06-1.64-1.95-3.71-3.58-5.67-5.19s-3.99-3.21-6.05-4.73c-.78-.57-1.53.73-.76,1.29h0Z"/>
      </g>
      <path class="cls-9" d="m72.8,226.79c1.15,2.03,5.3,1.52,7.63,1.38s3.95-.86,5.78-2.29,3.66-3.67,5.33-5.29,4.09-1.79,6.26-2.64c1.51-.59,2.36-1.01,2.99-2.5.35-.83-.54-4.07-.81-4.93-1.11-3.53-4.41-3.77-7.94-4.88s-7.47-.64-10.8.97-6.09,4.29-8.1,7.39c-1.24,1.9-2.23,4.03-2.43,6.29s.27,4.88,1.94,6.42"/>
      <path d="m78.26,228.83c1.77.19,3.59.08,5.26-.55,1.42-.53,2.68-1.36,3.8-2.38,2.21-1.99,3.88-4.49,6.49-6.03,1.84-1.09,3.87-1.36,5.97-1.07.4.06.8-.1.92-.52.1-.35-.12-.87-.52-.92-1.88-.27-3.78-.25-5.57.46-1.68.67-3.17,1.76-4.47,3.01-2.01,1.92-3.61,4.3-6.13,5.61-1.78.93-3.77,1.1-5.74.89-.96-.1-.95,1.4,0,1.5h0Z"/>
      <path class="cls-2" d="m182.86,97.59c-.39-2.86-3.53-4.82-7.12-4.55-1.87-11.48-12.56-19.43-24.14-17.83-11.58,1.59-19.73,12.14-18.43,23.69-3.54.71-6.02,3.44-5.63,6.3.41,3.01,3.85,5.02,7.68,4.49.69-.09,1.34-.27,1.95-.5,2.73,3.73,6.62,6.5,11.05,7.86v6.54c0,1.6,1.3,2.91,2.91,2.91h6.28c1.6,0,2.91-1.3,2.91-2.91v-6.39c6.74-1.88,12-6.88,14.35-13.17.65.06,1.32.05,2.01-.04,3.83-.53,6.6-3.39,6.18-6.4Z"/>
      <g>
        <path d="m160.35,101.93c-.57,1.1-1.7,1.9-2.96,1.95s-2.47-.59-3.14-1.65c-.52-.81-1.81-.06-1.3.76.94,1.49,2.66,2.46,4.44,2.39s3.44-1.13,4.26-2.7c.45-.85-.85-1.61-1.3-.76h0Z"/>
        <path d="m157.11,95.53c-.07,1.2-.13,2.4-.2,3.61-.02.39.36.77.75.75.43-.02.73-.33.75-.75.07-1.2.13-2.4.2-3.61.02-.39-.36-.77-.75-.75-.43.02-.73.33-.75.75h0Z"/>
        <path d="m166.29,95.76c-.09-.75-.91-1.62-2.02-1.15-.7.29-.8.71-.71,1.47s.77,1.29,1.52,1.21,1.29-.77,1.21-1.52Z"/>
        <path d="m151.96,97.43c-.09-.75-.47-1.28-1.23-1.24-1.01.05-1.59.81-1.5,1.56s.77,1.29,1.52,1.21,1.29-.77,1.21-1.52Z"/>
      </g>
      <path d="m151.39,74.48c-2.56.52-4.75,1.94-6.34,4s-2.44,4.32-3.07,6.7c-.55,2.09-.87,4.23-1.16,6.37-.31,2.25-.73,4.91-2.88,6.17-1.8,1.06-4.13.65-5.87-.33-.84-.47-1.6.82-.76,1.29,1.75.99,3.91,1.46,5.89.95,2.57-.66,4.08-2.95,4.68-5.4.52-2.12.62-4.34,1.05-6.48.47-2.39,1.14-4.8,2.36-6.93,1.44-2.51,3.63-4.31,6.5-4.89.95-.19.55-1.64-.4-1.45h0Z"/>
      <path d="m154.93,74.25c-2.18.44-4.24,1.39-5.82,2.97-1.37,1.37-2.31,3.1-2.91,4.93-.57,1.73-.83,3.55-.95,5.35s.03,3.69-.32,5.5c-.52,2.66-2,4.77-4.66,5.59-.92.29-.53,1.73.4,1.45,2.35-.73,4.15-2.31,5.1-4.59.83-2.01.87-4.13.91-6.27.07-3.43.53-7.18,2.68-9.99,1.48-1.93,3.62-3.02,5.97-3.49.95-.19.55-1.64-.4-1.45h0Z"/>
      <path d="m152.57,75.84c2.86-.19,5.75.26,8.14,1.94,1.64,1.15,2.85,2.81,3.74,4.59s1.49,3.76,2.28,5.65c.88,2.12,1.93,4.45,3.81,5.88,2.5,1.91,5.36.65,7.52-1.13.74-.62-.32-1.67-1.06-1.06-1.67,1.38-3.91,2.46-5.78.83-1.69-1.48-2.61-3.79-3.41-5.83-.72-1.82-1.32-3.7-2.23-5.43-.96-1.82-2.27-3.44-3.94-4.66-2.61-1.9-5.89-2.46-9.05-2.26-.96.06-.97,1.56,0,1.5h0Z"/>
      <path d="m147.83,75.93c-2.19,2.06-3.36,4.98-4.14,7.88-.79,2.9-1.26,5.9-2.39,8.69-1.13,2.79-1.86,7.09-5.81,6.59-.74-.09-1.64.41-2.04-.22-.14-.22-.18-.49-.21-.75-.52-4.62.55-9.4,3-13.35,2.45-3.95,6.26-7.04,10.63-8.63"/>
      <path d="m159.22,75.87c3.47,2.01,5.07,4.27,6.67,7.94.78,1.8,2.04,5.21,2.98,6.93s2.86,2.68,4.78,3.05c.93.18,2.12-.11,2.34-1.03.08-.33.01-.68-.06-1.01-1.85-8.06-8.58-14.8-16.64-16.66"/>
      <g>
        <path class="cls-4" d="m163.2,118.79s-5.41,3.23-10.65,3.74c-4.95.49-6.59-1.66-9.31-1.87-1.68.97-3.27,2.81-3.17,4.55,5.66,4.64,17.35,7.23,27.13-2.88-.28-1.98-1.5-2.76-3.99-3.54Z"/>
        <path d="m161.91,122.03c.72,1,1.44,2,2.16,3,.12.16.25.29.45.34.18.05.42.03.58-.08.31-.2.51-.69.27-1.03-.72-1-1.44-2-2.16-3-.12-.16-.25-.29-.45-.34-.18-.05-.42-.03-.58.08-.31.2-.51.69-.27,1.03h0Z"/>
        <path d="m158.7,123.78c.49,1.14.98,2.27,1.46,3.41.07.16.29.3.45.34.18.05.42.03.58-.08.38-.24.44-.64.27-1.03-.49-1.14-.98-2.27-1.46-3.41-.07-.16-.29-.3-.45-.34-.18-.05-.42-.03-.58.08-.38.24-.44.64-.27,1.03h0Z"/>
        <path d="m154.84,124.94c.3,1.2.6,2.4.9,3.6.1.38.54.65.92.52s.63-.51.52-.92c-.3-1.2-.6-2.4-.9-3.6-.1-.38-.54-.65-.92-.52s-.63.51-.52.92h0Z"/>
        <path d="m143.57,123.16l-1.23,3.5c-.13.37.15.84.52.92.42.1.78-.13.92-.52.41-1.17.82-2.33,1.23-3.5.13-.37-.15-.84-.52-.92-.42-.1-.78.13-.92.52h0Z"/>
      </g>
      <path class="cls-3" d="m198.09,106l-14.93-8.14,5.38-.53c8-.79,10.73-10.06,4.13-14.01l-16.22-9.7,1.6-.16c8.21-.81,10.99-10.34,4.2-14.36l-27.32-16.17c-3.46-2.05-8.12-1.59-11.12,1.1l-23.63,21.2c-5.88,5.27-1.28,14.07,6.92,13.26l1.6-.16-14.01,12.68c-5.7,5.16-1.21,13.72,6.79,12.93l5.38-.53-13.05,10.9c-6.06,5.06-1.64,13.96,6.54,13.15l73.89-7.29c8.17-.81,10.77-10.4,3.84-14.18Zm-39.66,8.78c-10.33,1.02-19.55-6.71-20.59-17.26-1.04-10.55,6.49-19.93,16.82-20.95,10.33-1.02,19.55,6.71,20.59,17.26,1.04,10.55-6.49,19.93-16.82,20.95Z"/>
      <path class="cls-8" d="m150.02,33l1.97,4.23c.28.61.92.98,1.59.91l4.71-.46c1.56-.15,2.38,1.81,1.16,2.81l-3.35,2.75c-.56.46-.74,1.24-.43,1.9l1.81,3.89c.65,1.39-.85,2.79-2.19,2.07l-4.35-2.34c-.57-.3-1.26-.24-1.76.17l-3.82,3.14c-1.18.97-2.92-.12-2.55-1.61l1.02-4.17c.17-.7-.15-1.44-.79-1.78l-3.82-2.05c-1.38-.74-.97-2.83.6-2.98l4.71-.46c.67-.07,1.23-.55,1.39-1.2l1.11-4.54c.36-1.46,2.35-1.65,2.98-.29Z"/>
      <circle class="cls-8" cx="135.91" cy="64.59" r="2.81"/>
      <circle class="cls-16" cx="167.95" cy="66.9" r="2.81"/>
      <circle class="cls-16" cx="128.8" cy="93.84" r="2.81"/>
      <circle class="cls-8" cx="183.65" cy="84.59" r="2.81"/>
      <circle class="cls-16" cx="180.33" cy="111.68" r="2.81"/>
      <circle class="cls-8" cx="124.67" cy="116.99" r="2.81"/>
    </g>
  </g>
</svg>