<?xml version="1.0" encoding="UTF-8"?>
<svg id="_レイヤー_2" data-name="レイヤー 2" xmlns="http://www.w3.org/2000/svg" xmlns:xlink="http://www.w3.org/1999/xlink" viewBox="0 0 213.26 257.5">
  <defs>
    <style>
      .cls-1, .cls-2, .cls-3 {
        fill: #fff;
      }

      .cls-2, .cls-3, .cls-4, .cls-5 {
        stroke: #000;
        stroke-width: 1.5px;
      }

      .cls-2, .cls-5 {
        stroke-linejoin: round;
      }

      .cls-3, .cls-4 {
        stroke-miterlimit: 10;
      }

      .cls-6 {
        clip-path: url(#clippath-2);
      }

      .cls-7 {
        clip-path: url(#clippath-1);
      }

      .cls-8 {
        clip-path: url(#clippath);
      }

      .cls-9 {
        fill: #fff069;
      }

      .cls-10, .cls-5 {
        fill: none;
      }

      .cls-11 {
        fill: #f4c544;
      }

      .cls-12 {
        fill: #e74268;
      }
    </style>
    <clipPath id="clippath">
      <path class="cls-10" d="m154.5,197.7c-21.58,3.06-75.78-6-98.83-19.64.05-1.04.6-2.29.96-2.79-1.87-4.96-.74-6.66,1.09-8.76-5.01-6.96-7.23-23.56-6.76-30.57,1.67-24.68,7.08-45.73,19.52-55.18,15-11.4,35.87-16.93,54.35-13.25,13.54,2.7,27.58,9.77,33.9,16.95,15.07,17.12,7.23,37.83,2.36,55.21,1.22,5.68-2.89,19.84-2.89,26.24,2.22,4.62,2.31,8.46.08,13.43,1.23,3.39,1.76,11.13-3.46,15.02l-.32,3.33Z"/>
    </clipPath>
    <clipPath id="clippath-1">
      <path class="cls-10" d="m60.04,146.21c11.83-9.51,13.77-11.03,22.75-18.25,3.15-2.53,8.71-6.7,12.23-4.71,3.81,2.16,1.03,4.05,3.5,7.66,2.91,4.24,11.99,6.41,11.64,15.98-.17,4.48-4.83,8.58-8.82,10.63-7.08,3.63-8.88,2.77-15.96,6.41-4.51,2.31-13.77,8.27-18.8,7.63-5.35-.67-9.89-4.91-11.61-10.02"/>
    </clipPath>
    <clipPath id="clippath-2">
      <path class="cls-10" d="m152.5,94.17c-6.48,7.05-6.92,10.98-10.68,22.14-3.06,9.08-8.3,23.91-10.08,35.7-3.24,7.11-24.49,31.41-30.41,40.78-1.94,3.06-2.42,6.44-.75,9.66,2.1,4.05,10.66,4.25,13.54,7.8,1.46,1.8,1.72,5.6,3.42,7.16,2.28,2.09,7-.02,8.79-1.33,2.51-1.85,7.02-11.75,8.58-15.69s2.54-8.01,4.85-11.55c8.14-12.47,13.81-21.12,18.98-36.2s8.74-28.81,9.24-44.64c.12-3.91-.9-8.71-3.1-11.95-4.12-6.07-6.19-7.55-12.22-8.02"/>
    </clipPath>
  </defs>
  <g id="_レイヤー_26" data-name="レイヤー 26">
    <g>
      <path class="cls-12" d="m108.25,236.43c4.7,10.7,17.51,15.45,29.2,15.45,15.61,0,26.39-8.1,37.6-11.44,7.62-2.28,17.13.54,24.22-2.51,13.51-5.81,15.11-22.01,9.8-35.19s-21.04-15.84-31.19-23.13c-6.38-4.58-7.55-13.62-15.08-16.89-10.03-4.37-21.38-1.62-32.31-1.55-25.88.17-47.3-2.96-73.18-2.78-5.21.03-15.3,3.51-19.41,6.7-4.82,3.74-6.07,10.66-5.04,16.67,1.56,9.05,7.3,16.85,13.81,23.34,8.67,8.65,19,15.63,30.26,20.45,8.17,3.5,17.42,6.33,22.42,13.69"/>
      <path class="cls-12" d="m35.55,189.74c-1.84-5.2-3.43-11.11-2.19-16.64.78-3.51,2.85-6.42,5.85-8.39,2.79-1.84,6.02-2.87,9.23-3.71,1.97-.52,3.97-1.05,5.97-1.42,3.97-.73,8.05-.79,12.07-.55,8.27.49,16.45,2.08,24.69,2.86s16.87,1.19,25.32,1.15,16.81-.73,25.22-1.21c4.22-.24,8.45-.35,12.67-.01,3.07.24,6.45.42,9.08,2.2,2.17,1.47,3.89,3.6,5.46,5.67,1.65,2.18,3.19,4.45,4.87,6.61,1.58,2.03,3.3,3.88,5.47,5.29,2.66,1.73,5.46,3.22,8.29,4.66,5.18,2.62,10.66,5.04,15.01,8.97,5.02,4.53,7.81,11.09,8.87,17.68s-.89,13.55-5.09,18.76c-2.83,3.51-6.7,5.77-11.06,6.84-3.99.98-8.13,1.03-12.21,1.01-1.84-.01-3.67-.05-5.51.02-1.46.05-2.91.14-4.3.62-4.09,1.4-7.92,3.63-11.86,5.39-5.46,2.44-11.16,4.53-17.1,5.41-3.1.46-6.3.55-9.4.12s-6.23-1.5-9.13-2.85c-6.43-2.99-12.33-7.18-17.69-11.79-2.44-2.1-4.78-4.33-6.98-6.69-.66-.71-1.72.35-1.06,1.06,4.84,5.2,10.36,9.83,16.27,13.77,5.58,3.71,11.81,7.1,18.54,7.99,12.06,1.6,23.52-3.88,34.09-8.92,1.64-.78,3.3-1.61,5.04-2.16,1.42-.45,2.95-.45,4.43-.48,4.03-.08,8.05.15,12.07-.22,4.34-.4,8.69-1.45,12.35-3.89,4.56-3.04,7.47-7.79,9.21-12.9,2.48-7.29.72-15.42-2.62-22.16-2.69-5.44-7.23-9.35-12.41-12.34-5.51-3.17-11.41-5.59-16.77-9.03-4.65-2.98-7.39-8.12-10.71-12.38-1.62-2.08-3.4-4.13-5.64-5.55-2.69-1.7-6.09-1.91-9.18-2.17-8.64-.74-17.29.38-25.91.84s-17.48.48-26.21.04c-8.68-.43-17.27-1.43-25.87-2.6s-16.56-2.03-24.68-.07c-3.29.79-6.61,1.57-9.74,2.87s-6.3,3.33-8.3,6.31c-2.53,3.78-2.88,8.51-2.3,12.9.42,3.25,1.31,6.42,2.4,9.51.32.9,1.77.51,1.45-.4h0Z"/>
      <path d="m147.42,227.82c7.65-8.31,15.97-16,24.86-22.97,2.52-1.97,5.08-3.88,7.68-5.73.78-.56.03-1.86-.76-1.29-9.29,6.61-18.04,13.96-26.14,21.98-2.29,2.27-4.52,4.59-6.71,6.96-.65.71.4,1.77,1.06,1.06h0Z"/>
      <path class="cls-1" d="m14.54,209.33c1.72-3.85,2.3-6.26,4.02-10.1-3.82-1.86-7.79-2.78-10.63-4.76-2.83-1.99-2.99-4.35-1.45-7.44,1.48-2.99,6.87-3.72,10.17-3.27s5.35,1.44,8.67,1.75c4.74.44,9.08-.05,12.98,2.3,4.49,2.7,6.22,9.15,3.69,13.73-1.75,3.17-5.02,5.18-8.28,6.77-2.8,1.37-5.75,2.55-8.85,2.88s-6.39-.27-8.87-2.16"/>
      <g>
        <path d="m22.24,196.15c-.75,1.92-1.5,3.83-2.25,5.75-.15.38.16.82.52.92.43.12.77-.15.92-.52.75-1.92,1.5-3.83,2.25-5.75.15-.38-.16-.82-.52-.92-.43-.12-.77.15-.92.52h0Z"/>
        <path d="m26.06,195.22c-.75,1.92-1.5,3.83-2.25,5.75-.15.38.16.82.52.92.43.12.77-.15.92-.52.75-1.92,1.5-3.83,2.25-5.75.15-.38-.16-.82-.52-.92-.43-.12-.77.15-.92.52h0Z"/>
        <path d="m29.62,195.22c-.75,1.92-1.5,3.83-2.25,5.75-.15.38.16.82.52.92.43.12.77-.15.92-.52.75-1.92,1.5-3.83,2.25-5.75.15-.38-.16-.82-.52-.92-.43-.12-.77.15-.92.52h0Z"/>
        <path d="m22.62,195.3c1.74-.2,3.52-.1,5.24.18,1.82.29,3.66.75,5.32,1.55.87.42,1.63-.87.76-1.29-1.79-.86-3.72-1.39-5.68-1.7-1.86-.29-3.76-.44-5.64-.23-.41.05-.75.31-.75.75,0,.37.35.8.75.75h0Z"/>
      </g>
      <g>
        <path d="m19.7,195.82c-1.54,3.32-3.27,6.56-5.17,9.69-.5.83.79,1.58,1.29.76,1.9-3.13,3.63-6.36,5.17-9.69.17-.37.1-.8-.27-1.03-.32-.19-.86-.1-1.03.27h0Z"/>
        <path d="m19.02,198.61c-2.8-1.11-5.66-2.09-8.4-3.35-1.45-.67-2.84-1.64-3.67-3.03s-.83-3.06-.04-4.49c1.86-3.36,6.03-3.8,9.47-3.28,2,.3,3.95.87,5.93,1.29s4.1.61,6.19.71c2.24.11,4.52.2,6.67.91,1.46.49,2.95,1.31,3.64,2.75.41.87,1.71.11,1.29-.76-1.6-3.37-6.18-4.06-9.46-4.29-2.34-.17-4.7-.16-7.01-.59s-4.4-1.08-6.63-1.45c-3.91-.63-8.33-.25-10.88,3.16-1.09,1.46-1.59,3.33-1.15,5.11s1.65,3.14,3.07,4.17c1.54,1.12,3.42,1.76,5.17,2.45s3.6,1.38,5.4,2.1c.9.36,1.29-1.09.4-1.45h0Z"/>
      </g>
      <path class="cls-11" d="m62.04,176.27c-6.63.98-11.38,4.76-17.3,9.09-5.41,3.96-8.96,7.63-14.1,15.03-15.83,1.05-23.65,11.13-29.84,21.19,3.96,11.86,9.68,18.95,20.69,24.86,8.81,4.72,23.72,6.83,36.12,5.25,7.47-.95,24.6-2.64,31.99-1.19,5.3,1.04,14.46,5.55,19.83,6.19,11.33,1.34,25.11-6.42,34.94-19.44,9.83-13.02,12.81-22.22,10.17-40.25-8.76-8.6-18.8-15.89-29.69-21.56-10.63-5.54-22.29-9.57-34.27-9.74-11.98-.17-24.34,3.85-32.65,12.49"/>
      <g>
        <path class="cls-11" d="m30.64,199.64c-7.4.03-14.27,3.06-19.86,7.8-4.03,3.42-7.61,7.72-10.02,12.45-.18.35-.34.69-.5,1.05-.28.64-.13,1.05.08,1.7.4,1.25.84,2.5,1.33,3.72,1.08,2.68,2.4,5.25,4.04,7.63,4.39,6.36,10.72,11.01,17.68,14.24,4.44,2.06,9.07,3.48,13.92,4.15s9.61.71,14.43.48c10.01-.48,19.96-2.11,30-2.06,2.44.01,4.92.08,7.34.39,2.29.3,4.51,1.09,6.65,1.95,4.21,1.69,8.38,3.89,12.98,4.27,8.39.7,16.87-2.57,23.61-7.35,7.19-5.09,13.13-12.03,17.59-19.6s7.48-16.97,6.59-26.2c-.22-2.29-.65-4.55-1.27-6.76-.26-.93-1.71-.53-1.45.4,2.45,8.77,1.42,17.9-2.26,26.18s-9.06,15.39-15.6,21.21c-6.06,5.39-13.51,9.55-21.67,10.47-2.03.23-4.14.34-6.17.08-2.21-.29-4.35-1.03-6.42-1.85-4.12-1.63-8.15-3.76-12.6-4.31-9.55-1.17-19.3.19-28.82,1.05s-19.14,1.49-28.39-.97c-4.46-1.18-8.75-3.11-12.71-5.47-3.19-1.91-6.16-4.18-8.73-6.88-3.94-4.14-6.65-9.17-8.43-14.57-.09-.29-.19-.57-.28-.86-.02-.08-.06-.35-.12-.39-.03-.02-.11.2-.02.11.22-.21.36-.78.5-1.05.44-.86.93-1.7,1.44-2.52,1.39-2.21,3-4.29,4.78-6.21,4.54-4.9,10.3-8.79,16.9-10.21,1.8-.38,3.63-.56,5.47-.57.96,0,.97-1.5,0-1.5h0Z"/>
        <path d="m15.9,217.45c1.49-5.12,6.58-8.81,11.91-8.67.3,0,.67-.24.72-.55,1.01-5.72,4.4-10.68,8.31-14.84,3.9-4.15,8.42-7.68,13.13-10.84,1.99-1.34,4.02-2.6,6.07-3.83.83-.5.07-1.79-.76-1.29-4.21,2.52-8.31,5.22-12.16,8.25-4.72,3.72-9.19,7.98-12.4,13.1-1.74,2.77-3.08,5.83-3.65,9.06l.72-.55c-5.99-.15-11.68,4.03-13.35,9.77-.27.93,1.18,1.32,1.45.4h0Z"/>
      </g>
      <g>
        <path d="m80.64,204.68c8.19,1.75,16.35,3.68,24.46,5.78,2.31.6,4.61,1.21,6.9,1.84.93.25,1.33-1.19.4-1.45-8.08-2.21-16.21-4.24-24.38-6.09-2.32-.53-4.65-1.04-6.98-1.54-.94-.2-1.34,1.24-.4,1.45h0Z"/>
        <path d="m83.95,194.15c10.37,4.42,20.41,9.59,30.01,15.49,2.7,1.66,5.36,3.37,7.98,5.13.8.54,1.55-.76.76-1.29-9.35-6.29-19.17-11.89-29.34-16.73-2.86-1.36-5.74-2.66-8.66-3.9-.88-.37-1.64.92-.76,1.29h0Z"/>
      </g>
      <path class="cls-1" d="m154.5,197.7c-21.58,3.06-75.78-6-98.83-19.64.05-1.04.6-2.29.96-2.79-1.87-4.96-.74-6.66,1.09-8.76-5.01-6.96-7.23-23.56-6.76-30.57,1.67-24.68,7.08-45.73,19.52-55.18,15-11.4,35.87-16.93,54.35-13.25,13.54,2.7,27.58,9.77,33.9,16.95,15.07,17.12,7.23,37.83,2.36,55.21,1.22,5.68-2.89,19.84-2.89,26.24,2.22,4.62,2.31,8.46.08,13.43,1.23,3.39,1.76,11.13-3.46,15.02l-.32,3.33Z"/>
      <g class="cls-8">
        <g>
          <path class="cls-12" d="m73.42,89.17c-1.32-1.02-3.18-.99-4.56-.05l-.96.66-.67-.99c-.94-1.38-2.66-2.08-4.26-1.61-2.76.8-3.71,3.89-2.25,6.03l.68,1h0s4.32,6.33,4.32,6.33c.06.09.19.12.28.05l7.3-4.98c2.15-1.47,2.39-4.68.11-6.44Z"/>
          <path class="cls-12" d="m94.25,93.23c-1.36-.96-3.22-.86-4.55.14l-.93.7-.71-.96c-1-1.34-2.75-1.96-4.33-1.43-2.72.92-3.54,4.04-1.99,6.12l.72.97h0s4.59,6.14,4.59,6.14c.07.09.2.11.29.04l7.08-5.29c2.08-1.56,2.18-4.78-.17-6.44Z"/>
          <path class="cls-12" d="m116.49,95.27c-1.54-.65-3.33-.15-4.42,1.11l-.76.88-.9-.78c-1.26-1.09-3.1-1.33-4.53-.48-2.47,1.48-2.6,4.7-.64,6.41l.91.79h0s5.79,5.02,5.79,5.02c.09.07.21.06.29-.02l5.8-6.68c1.71-1.96,1.12-5.14-1.53-6.25Z"/>
          <path class="cls-12" d="m146.88,95.27c-1.54-.65-3.33-.15-4.42,1.11l-.76.88-.9-.78c-1.26-1.09-3.1-1.33-4.53-.48-2.47,1.48-2.6,4.7-.64,6.41l.91.79h0s5.79,5.02,5.79,5.02c.09.07.21.06.29-.02l5.8-6.68c1.71-1.96,1.12-5.14-1.53-6.25Z"/>
          <path class="cls-12" d="m62.64,117.6c-1.36-.96-3.22-.86-4.55.14l-.93.7-.71-.96c-1-1.34-2.75-1.96-4.33-1.43-2.72.92-3.54,4.04-1.99,6.12l.72.97h0s4.59,6.14,4.59,6.14c.07.09.2.11.29.04l7.08-5.29c2.08-1.56,2.18-4.78-.17-6.44Z"/>
          <path class="cls-12" d="m88.34,124.47c-1.36-.96-3.22-.86-4.55.14l-.93.7-.71-.96c-1-1.34-2.75-1.96-4.33-1.43-2.72.92-3.54,4.04-1.99,6.12l.72.97h0s4.59,6.14,4.59,6.14c.07.09.2.11.29.04l7.08-5.29c2.08-1.56,2.18-4.78-.17-6.44Z"/>
          <path class="cls-12" d="m117.07,128.35c-1.47-.79-3.3-.47-4.51.68l-.84.8-.82-.87c-1.15-1.21-2.96-1.62-4.47-.91-2.6,1.23-3.04,4.43-1.25,6.32l.83.88h0s5.28,5.55,5.28,5.55c.08.08.21.09.29,0l6.41-6.09c1.88-1.79,1.6-5.01-.93-6.37Z"/>
          <path class="cls-12" d="m141.44,126.52c-1.54-.65-3.33-.15-4.42,1.11l-.76.88-.9-.78c-1.26-1.09-3.1-1.33-4.53-.48-2.47,1.48-2.6,4.7-.64,6.41l.91.79h0s5.79,5.02,5.79,5.02c.09.07.21.06.29-.02l5.8-6.68c1.71-1.96,1.12-5.14-1.53-6.25Z"/>
          <path class="cls-12" d="m165.26,119.36c-1.62-.41-3.31.34-4.21,1.75l-.62.98-1.01-.64c-1.41-.9-3.26-.86-4.55.2-2.22,1.83-1.88,5.04.32,6.43l1.02.65h0s6.47,4.11,6.47,4.11c.1.06.22.03.28-.06l4.74-7.46c1.4-2.19.35-5.25-2.44-5.96Z"/>
        </g>
      </g>
      <g>
        <path d="m160.3,138.79c.26,4.31-.07,8.6-.8,12.85-.59,3.45-1.42,6.86-1.84,10.34-.18,1.52-.32,3.09-.18,4.62.05.54.4,1.07.6,1.58.21.54.39,1.08.54,1.64.25.94.41,1.89.44,2.86.05,1.62-.27,3.19-.8,4.71-.22.62-.79,1.5-.69,2.16.07.48.27.96.37,1.43.12.54.21,1.08.27,1.63.5,4.45-.87,8.98-4.24,12.02-.72.65.34,1.71,1.06,1.06,4.61-4.16,5.7-10.75,3.98-16.53l-.08.58c.92-2.17,1.65-4.4,1.63-6.79-.01-1.47-.28-2.93-.74-4.32-.12-.35-.25-.7-.38-1.05s-.38-.72-.46-1.04c-.14-.51-.04-1.21-.03-1.73.12-5.09,1.65-10.07,2.36-15.09.51-3.62.71-7.26.49-10.92-.06-.96-1.56-.97-1.5,0h0Z"/>
        <path d="m57.7,166.32c-2.64,1.39-3.49,5.3-2.23,7.88.31.63.8,1.13,1.47,1.36.91.32,1.31-1.13.4-1.45-.11-.04.12.09-.05-.03-.02-.01-.19-.13-.1-.06s-.07-.07-.09-.08c-.05-.05-.09-.1-.13-.15-.03-.04-.02-.03.03.04-.02-.03-.05-.07-.07-.1-.04-.07-.09-.14-.12-.21-.03-.06-.06-.11-.08-.17.07.15-.04-.1-.05-.13-.25-.71-.29-1.23-.24-2,.08-1.42.71-2.92,2.03-3.61.85-.45.1-1.74-.76-1.29h0Z"/>
        <path d="m69.51,175.45c10.76,5.33,21.64,10.72,33.31,13.76s23.95,3.72,35.9,2.02c1.48-.21,2.95-.53,4.43-.66,1.25-.11,2.51-.12,3.76-.03,2.5.18,5.16.72,7.23,2.21.78.57,1.53-.74.76-1.29-1.83-1.32-4.11-1.93-6.31-2.24s-4.54-.32-6.78.02c-2.97.44-5.91.91-8.91,1.14s-5.96.32-8.94.25c-6.06-.13-12.09-.86-18-2.2s-11.59-3.3-17.15-5.6c-6.31-2.61-12.43-5.65-18.55-8.68-.86-.43-1.62.87-.76,1.29h0Z"/>
        <path d="m58.05,173.27c-1.43,1.16-2.44,2.91-3.1,4.59-.1.25.03.54.19.73.98,1.1,2.35,1.88,3.63,2.57,2.04,1.1,4.19,2.01,6.35,2.87,6.05,2.39,12.3,4.27,18.58,5.96,7.73,2.09,15.54,3.86,23.41,5.32s16.21,2.7,24.4,3.37c6.94.57,13.99.83,20.92.03.75-.09,1.51-.19,2.26-.3.34-.05.53-.42.55-.72.15-1.95-.19-4-.78-5.86-.29-.92-1.74-.53-1.45.4.55,1.75.86,3.64.72,5.47l.55-.72c-6.62,1.01-13.42.86-20.07.42-7.99-.53-15.94-1.61-23.82-3s-15.79-3.1-23.57-5.12c-6.49-1.69-12.95-3.56-19.24-5.9-2.28-.84-4.53-1.75-6.71-2.81-.83-.4-1.64-.83-2.43-1.31-.33-.2-.66-.41-.98-.63-.14-.1-.28-.2-.42-.31.05.04.03.03-.07-.06-.06-.05-.13-.1-.19-.16-.21-.18-.41-.37-.59-.57l.19.73c.57-1.45,1.49-2.93,2.72-3.93.75-.61-.32-1.66-1.06-1.06h0Z"/>
      </g>
      <path d="m56.97,103.61c1.25-4.54,3.14-8.87,5.71-12.82,2.42-3.73,5.42-7.06,8.81-9.92s7.18-5.22,11.17-7.13,8.38-3.4,12.77-4.44,9.03-1.66,13.62-1.85,9.19,0,13.73.63,8.89,1.62,13.17,3.05,8.02,3.13,11.71,5.33c3.5,2.09,6.75,4.59,9.58,7.53s5.02,6.08,6.69,9.64c.4.85.76,1.71,1.08,2.59s1.78.51,1.45-.4c-1.42-3.85-3.49-7.4-6.09-10.56s-5.78-5.98-9.2-8.33c-3.6-2.48-7.52-4.47-11.58-6.08s-8.64-2.89-13.12-3.71-9.33-1.27-14.04-1.28-9.42.42-14.05,1.28-9.05,2.13-13.34,3.9-8.27,3.94-11.95,6.66-6.98,5.92-9.76,9.57-5.12,7.99-6.7,12.45c-.41,1.14-.77,2.3-1.09,3.47-.26.93,1.19,1.33,1.45.4h0Z"/>
      <path class="cls-1" d="m111.39,189.9c-5.38,10.93-12.46,14.54-18.4,25.63-1.54,5.93-2.59,18.71-2.55,19.18.14,1.85,1.97,1.47,2.7.61.77-.91,2.26-3.93,2.96-7.98,1.24,4.36.14,13.97,4.98,11.08.25,1.36,3.15,1.7,4.05.65,1.7-1.99.26-7.32.62-10.34,1.73,2.1,3.26,7.8,5.21,6.58,1.09-.69,1.09-2.27.97-3.55-.32-3.57-1.63-6.3-2.68-9.73,3.22-3,10.52-13.05,13.5-17.12,3.83-5.24,11.32-13.29,15.28-19.96-3.69-5.72-18.72-9.54-20.75-6.13"/>
      <g>
        <path d="m108.13,194.62c-5.54,6.34-10.72,13.03-15.65,19.84-.57.78.73,1.53,1.29.76,4.86-6.71,9.96-13.3,15.42-19.54.63-.72-.42-1.79-1.06-1.06h0Z"/>
        <path d="m92.4,214.64c-1.11,5.88-2.11,11.8-2.71,17.75-.14,1.36-.32,3.86,1.13,4.59,1.1.55,2.23-.25,2.85-1.12.53-.74.89-1.6,1.25-2.43.63-1.46,1.21-2.94,1.79-4.42.35-.9-1.1-1.29-1.45-.4-.78,1.97-1.47,4.03-2.51,5.88-.13.23-.27.47-.43.68.05-.07-.1.12-.14.15-.04.04-.29.25-.15.15-.07.05-.14.1-.21.13.06-.03.04,0-.09.02-.21.05.1,0-.08.01-.09,0-.26-.04-.19,0-.24-.13-.33-1.17-.35-1.56-.04-.73.03-1.44.1-2.17.28-2.65.65-5.29,1.06-7.92.47-2.99.99-5.97,1.55-8.94.18-.94-1.27-1.35-1.45-.4h0Z"/>
        <path d="m98.71,227.11c.68,3.97,1.37,7.94,2.05,11.91.16.95,1.61.55,1.45-.4-.68-3.97-1.37-7.94-2.05-11.91-.16-.95-1.61-.55-1.45.4h0Z"/>
        <path d="m95.24,226.2c.27,3.37.8,6.72,1.62,10,.31,1.23.66,2.75,1.95,3.31,1.08.47,2.37.05,2.77-1.09l-1.25.33c1.19,1.06,2.79,2.18,4.45,1.46,1.32-.58,1.78-2.04,1.94-3.37.2-1.68.09-3.41,0-5.09-.1-1.8-.26-3.59-.44-5.38l-1.47.2c.53,1.9,1.1,3.8,1.96,5.59.68,1.42,1.79,3.45,3.4,3.98.68.22,1.42.04,1.87-.52.55-.69.54-1.64.52-2.48-.05-2.08-.42-4.16-.91-6.17-.46-1.9-1.05-3.79-1.86-5.56l-.12.91c1.85-1.54,3.47-3.39,5.06-5.19,2.05-2.34,4.03-4.76,5.81-7.31.79-1.13,1.55-2.29,2.16-3.54.42-.86-.87-1.63-1.29-.76-1.15,2.37-2.8,4.52-4.43,6.58-1.84,2.33-3.78,4.59-5.84,6.74-.81.84-1.63,1.67-2.52,2.42-.27.23-.25.62-.12.91,1.28,2.78,2.07,5.96,2.42,8.99.06.5.52,3.53-.19,3.59-.5.04-1.15-.9-1.41-1.22-.48-.62-.87-1.32-1.22-2.03-.82-1.69-1.35-3.51-1.85-5.32-.22-.79-1.56-.67-1.47.2.29,2.94.57,5.9.53,8.85-.01,1.03.03,2.35-.63,3.22-.92,1.21-2.49-.04-3.29-.75-.44-.39-1.06-.22-1.25.33-.08.24-.52.2-.7.13-.41-.16-.62-.67-.76-1.05-.4-1.09-.61-2.28-.85-3.41-.52-2.48-.88-4.98-1.08-7.5-.08-.96-1.58-.96-1.5,0h0Z"/>
      </g>
      <path class="cls-1" d="m118.97,73.48l-5.06,24.22c-.87,4.19,1.4,8.3,5.21,9.88l-3.93,18.8-9.09,1.45c-1.3.21-1.35,2.07-.06,2.34l19.47,4.06c1.29.27,1.99-1.45.88-2.16l-7.77-4.98,3.93-18.84c4.03-.03,7.64-2.86,8.5-6.97l5.06-24.22-17.15-3.58Z"/>
      <path class="cls-9" d="m114.33,97.28l2.84-13.6,16.93.16-2.7,17c-.96,4.6-5.56,7.53-10.27,6.55h0c-4.71-.98-7.75-5.51-6.79-10.11Z"/>
      <path class="cls-5" d="m118.97,73.48l-5.06,24.22c-.87,4.19,1.4,8.3,5.21,9.88l-3.93,18.8-9.09,1.45c-1.3.21-1.35,2.07-.06,2.34l19.47,4.06c1.29.27,1.99-1.45.88-2.16l-7.77-4.98,3.93-18.84c4.03-.03,7.64-2.86,8.5-6.97l5.06-24.22-17.15-3.58Z"/>
      <path class="cls-1" d="m79.67,136.16c5.13-2.92,10.94-6.18,16.07-9.1-.01-6.5,1.33-13.17,2.86-19.49,3.29-2.23,3.2-1.62,6.38-2.49,3.17-.87,6.62-1.58,9.48-.7,1.67,1.13,7.73,9.65,8.8,11.96.48,1.04.95,2.2.64,3.31s-1.79,1.9-2.66,1.14c.35,1.68-.72,2.87-2.43,3.06-.09,2.98-1.73,3.39-3.65,3.2-.26,3.42-3.74,4.48-6.04,3.26.03,3.19-.12,6.37-2,8.95-1.02,1.39-3.2,3.82-5.2,4.31-4.17,4.03-7.95,8.09-12.11,12.11-3.72-6.28-7.44-12.56-11.15-18.85"/>
      <g>
        <path d="m96.55,129.95c-.17-4.07,0-8.16.54-12.2.28-2.04.65-4.07,1.11-6.08.39-1.72.84-3.32,2.41-4.32,1.41-.89,3.1-1.26,4.72-1.57,1.94-.38,3.95-.73,5.93-.87.9-.06,1.83-.03,2.63.42.73.41,1.3,1.06,1.82,1.71,1.22,1.54,2.37,3.15,3.5,4.76,1.29,1.83,2.68,3.68,3.78,5.64.44.77.53,1.87-.42,2.33-.62.3-1.56.04-2.03-.42-.69-.68-1.75.38-1.06,1.06,1.18,1.16,3.36,1.39,4.54.12.61-.66.92-1.56.78-2.46-.17-1.1-.92-2.04-1.52-2.94-1.3-1.98-2.65-3.92-4.04-5.84-.67-.93-1.36-1.85-2.05-2.76-.59-.77-1.2-1.53-1.98-2.11-1.76-1.33-3.89-1.03-5.94-.76-2.23.3-4.49.6-6.66,1.23-1.75.51-3.48,1.34-4.55,2.86-.59.84-.9,1.86-1.14,2.85-.27,1.12-.51,2.26-.73,3.4-.98,5.26-1.37,10.62-1.14,15.96.04.96,1.54.97,1.5,0h0Z"/>
        <path d="m113.85,112.47c1.76,2.48,3.51,4.96,5.27,7.44.5.7,1.58,1.82,1.21,2.79-.31.84-1.1.67-1.83.46-.52-.15-1.11.38-.92.92.2.59.22,1.3-.14,1.84-.48.72-1.34.64-2.08.43-.36-.1-.86.13-.92.52-.12.73-.26,1.86-.83,2.4-.53.5-1.47.76-2.16.88-1.57.26-3.11-1.16-4.32-1.98-.8-.54-1.55.76-.76,1.29,1.72,1.16,3.45,2.57,5.64,2.1.91-.2,2.01-.59,2.69-1.26.75-.74,1.01-2.02,1.17-3.02l-.92.52c1.31.38,2.76.26,3.62-.9.67-.9.81-2.16.44-3.21l-.92.92c1.16.34,2.48.39,3.25-.69.71-.98.62-2.12.11-3.18-.33-.71-.9-1.34-1.35-1.98l-1.71-2.41-3.27-4.62c-.55-.78-1.85-.03-1.29.76h0Z"/>
        <path d="m108.38,130.33c.17,2.65-.53,5.37-1.55,7.8-.94,2.25-2.59,4.29-5.11,4.74-.95.17-.55,1.61.4,1.45,2.81-.5,4.84-2.78,5.94-5.29,1.18-2.69,2-5.74,1.81-8.69-.06-.96-1.56-.97-1.5,0h0Z"/>
        <path d="m108.07,120.8c2.23,2.23,4.34,4.57,6.56,6.8.68.68,1.74-.38,1.06-1.06-2.23-2.23-4.34-4.57-6.56-6.8-.68-.68-1.74.38-1.06,1.06h0Z"/>
        <path d="m112.5,117.42c1.69,2.3,3.47,4.53,5.16,6.84.24.33.65.49,1.03.27.32-.19.51-.7.27-1.03-1.69-2.3-3.47-4.53-5.16-6.84-.24-.33-.65-.49-1.03-.27-.32.19-.51.7-.27,1.03h0Z"/>
      </g>
      <g>
        <path d="m65.68,144.23c7.78-4.35,15.54-8.75,23.43-12.91,2.32-1.23,4.66-2.43,7.01-3.61.86-.43.1-1.73-.76-1.29-8.12,4.08-16.07,8.48-23.99,12.91-2.15,1.2-4.29,2.41-6.44,3.61-.84.47-.09,1.77.76,1.29h0Z"/>
        <path d="m68.34,106.38c.94,9.07,1.93,18.13,2.69,27.22.17,2.03.33,4.07.46,6.11.06.96,1.56.97,1.5,0-.53-8.47-1.45-16.91-2.32-25.35-.27-2.66-.55-5.31-.83-7.97-.1-.95-1.6-.96-1.5,0h0Z"/>
      </g>
      <g>
        <path class="cls-11" d="m90.32,40.72c-4.77-12.67,10.58-25.99,23.82-26.03,13.25-.04,26.71,12.74,22.36,26.56-.33,1.05,1.14,2.66.06,2.89-.91.19-1.72-.61-2.25-1.37-1.73-2.47-2.7-5.39-4.23-7.99-2.7-4.57-7.18-8.06-12.27-9.55-2.7-.79-5.63-1.03-8.33-.21-2.75.83-5.08,2.69-7.01,4.81s-4.32,4.07-5.31,6.77c-1.32,3.63-6.16,7.56-6.31,3.93"/>
        <path d="m91.05,40.52c-3.22-8.72,3.38-17.1,10.56-21.35,3.87-2.29,8.36-3.79,12.89-3.73s9.02,1.67,12.75,4.24,6.84,6.21,8.35,10.5c.75,2.14,1.1,4.39.98,6.65-.06,1.16-.25,2.3-.55,3.41-.13.49-.34.98-.3,1.5.03.49.2.94.36,1.39.01.03.14.48.14.48.05,0,.16-.2.16-.21.01.05-.32-.04-.32-.04-.6-.19-1.02-.86-1.35-1.35-.81-1.23-1.45-2.56-2.08-3.88-1.19-2.5-2.43-4.9-4.26-7-3.41-3.91-8.3-6.66-13.47-7.28-2.92-.35-5.84.16-8.4,1.64-2.38,1.38-4.16,3.41-6.06,5.35-.92.94-1.83,1.9-2.61,2.97s-1.12,2.14-1.68,3.25c-.48.95-1.11,1.82-1.86,2.59-.57.59-1.27,1.24-2.07,1.48-.24.07-.38.08-.46,0-.04-.04-.14-.42-.15-.65-.06-.96-1.56-.97-1.5,0,.05.86.33,1.81,1.24,2.1.78.25,1.61-.08,2.27-.48,1.9-1.15,3.42-3.16,4.22-5.21,1.03-2.62,3.17-4.43,5.03-6.44s4.2-4.03,7.03-4.82c5.61-1.58,11.97,1.24,16.02,5.08,2.1,1.99,3.6,4.35,4.85,6.95.67,1.39,1.3,2.81,2.08,4.15.65,1.13,1.48,2.59,2.82,2.98,1.09.32,2.24-.25,2.02-1.5-.08-.43-.26-.82-.38-1.24-.16-.56.05-.98.19-1.53.63-2.4.75-4.89.39-7.35-.7-4.8-3.36-9.17-6.89-12.44-3.56-3.3-8.1-5.65-12.89-6.48s-9.63,0-14.08,1.95c-8.09,3.55-16.42,11.79-15.23,21.36.14,1.14.41,2.24.81,3.32.33.9,1.78.51,1.45-.4h0Z"/>
      </g>
      <path class="cls-4" d="m93.48,61.56c1.8-8.5-4.81-21.96,2.54-33.09,8.43-12.78,28.41-11.28,34.96-.41,9.34,15.49.04,28.94,3.53,33.25-8.7,3.62-30.85,4.67-41.03.25Z"/>
      <path class="cls-3" d="m134.62,40.92c-.29-11.62-9.78-20.96-21.47-20.96s-21.18,9.34-21.47,20.96c-3.61.22-6.45,2.59-6.45,5.48,0,3.04,3.13,5.5,7,5.5.7,0,1.36-.08,2-.23,2.7,5,7.33,8.79,12.88,10.42v8.67c0,1.6,1.3,2.91,2.91,2.91h6.28c1.6,0,2.91-1.3,2.91-2.91v-8.67c5.55-1.63,10.18-5.42,12.88-10.42.63.15,1.3.23,2,.23,3.87,0,7-2.46,7-5.5s-2.84-5.26-6.45-5.48Z"/>
      <g>
        <path d="m110.92,48.08c1,1.47,2.76,2.42,4.55,2.26s3.36-1.22,4.13-2.81c.18-.36.1-.81-.27-1.03-.33-.19-.85-.1-1.03.27-.53,1.1-1.59,1.94-2.83,2.07s-2.55-.47-3.26-1.52c-.23-.33-.66-.48-1.03-.27-.33.19-.5.69-.27,1.03h0Z"/>
        <path d="m113.18,40.81c.21,1.19.41,2.37.62,3.56.07.39.56.64.92.52.42-.14.6-.51.52-.92-.21-1.19-.41-2.37-.62-3.56-.07-.39-.56-.64-.92-.52-.42.14-.6.51-.52.92h0Z"/>
        <path d="m105.56,41.82c0-.76.72-1.71,1.87-1.38.73.21.87.62.87,1.38s-.62,1.38-1.37,1.38-1.37-.62-1.37-1.38Z"/>
        <path d="m119.98,41.82c0-.76.32-1.32,1.07-1.38,1.01-.07,1.67.62,1.67,1.38s-.62,1.38-1.37,1.38-1.37-.62-1.37-1.38Z"/>
      </g>
      <path d="m111.23,19.56c-4.5,1.12-6.9,5.11-8.48,9.15-.71,1.82-1.27,3.7-2.02,5.5-.91,2.16-2.41,4.29-4.28,5.72-.84.64-1.88,1.19-2.97,1.13s-1.91-.76-2.5-1.59c-.56-.77-1.86-.03-1.29.76,1.3,1.81,3.3,2.82,5.51,2.08,2.69-.91,4.68-3.48,6.07-5.83.95-1.6,1.5-3.43,2.12-5.17.72-2.05,1.49-4.1,2.64-5.95,1.31-2.11,3.16-3.75,5.61-4.36.94-.23.54-1.68-.4-1.45h0Z"/>
      <path d="m114.15,21.04c4.97.58,9.41,3.98,11.03,8.77.67,1.99.94,4.12,1.55,6.13s1.38,4.13,3,5.46c2.21,1.81,4.96.98,7.16-.39.82-.51.07-1.8-.76-1.29-1.65,1.02-3.88,1.96-5.54.45-1.49-1.35-2.12-3.53-2.64-5.4s-.78-3.97-1.5-5.83c-.79-2.05-2.05-3.93-3.64-5.45-2.38-2.27-5.41-3.57-8.66-3.94-.96-.11-.95,1.39,0,1.5h0Z"/>
      <path d="m109.19,20.84c.5,2.48.04,5.15-.63,7.56-.71,2.58-1.8,5.19-3.47,7.32-.76.97-1.66,1.84-2.79,2.36-.88.4-.12,1.69.76,1.29,2.34-1.07,3.95-3.48,5.08-5.7,1.38-2.73,2.29-5.73,2.63-8.78.16-1.48.17-2.98-.13-4.44-.19-.95-1.64-.55-1.45.4h0Z"/>
      <path d="m111.17,20.67c-.05-.12.04.1.05.13.03.09.06.18.09.27.06.2.11.41.16.62.1.47.17.95.21,1.42.12,1.23.12,2.47.06,3.7-.13,2.67-.53,5.44-1.56,7.92-.42,1.01-1,2.12-1.89,2.8-.76.58-.01,1.88.76,1.29,2.08-1.58,2.98-4.33,3.52-6.79.62-2.82.87-5.79.64-8.67-.1-1.18-.26-2.36-.73-3.45-.39-.88-1.68-.12-1.29.76h0Z"/>
      <path d="m113.12,20.8c.85,1.04,1.34,2.36,1.7,3.64.43,1.53.67,3.11.75,4.69.15,2.78,0,6.09-1.62,8.47-.55.8.75,1.55,1.29.76,1.37-2.01,1.74-4.65,1.84-7.03.11-2.7-.2-5.51-1.06-8.08-.43-1.27-1-2.48-1.84-3.52-.61-.75-1.66.32-1.06,1.06h0Z"/>
      <path d="m114.9,20.61c2.34,2.37,3.92,5.46,4.83,8.64.74,2.59,1.24,5.68.18,8.26-.37.89,1.08,1.28,1.45.4,1.15-2.8.62-6.24-.18-9.05-.98-3.42-2.69-6.75-5.21-9.3-.68-.69-1.74.37-1.06,1.06h0Z"/>
      <path d="m109.32,20.16c-2.45,1.74-4,4.47-5.18,7.24s-2.06,5.67-3.55,8.28-3.75,4.96-6.65,5.74c-.72.19-1.68.18-2-.5-.11-.24-.11-.51-.1-.77.11-4.65,1.83-9.24,4.8-12.82s7.16-6.12,11.7-7.1"/>
      <path d="m120.62,21.66c3.16,2.46,4.44,4.92,5.52,8.78.53,1.89,1.31,5.44,2,7.27s2.47,3.05,4.32,3.68c.89.3,2.11.18,2.46-.7.12-.32.1-.67.07-1.01-.74-8.24-6.48-15.83-14.22-18.77"/>
      <g>
        <path class="cls-11" d="m92.44,19.67c-3.54-1.27-6.21-4.69-6.56-8.44-.36-3.74,1.62-7.61,4.86-9.52.56-.33,2.75-1.37,3.87-.58,1.35.94-.02,4.03-1.48,5.95,1.32-.24,2.24-.65,3.15-.21,1.49.72-.85,3.31-1.43,4.3,1.31-.82,2.66-.71,2.95-.09.54,1.13-1.56,2.5-1.46,3.75.06.83.91,1.36,1.22,2.13.47,1.17-.52,2.51-1.72,2.89s-2.5.08-3.72-.21"/>
        <path d="m92.62,19.45c-3.41-1.71-6.04-5.2-6.13-9.1-.08-3.67,2.26-7.54,5.86-8.65.56-.17,1.25-.32,1.79.02s.42.84.24,1.36c-.44,1.29-1.2,2.47-1.92,3.62-.29.47.08,1.16.65,1.13.64-.04,1.11-.33,1.67-.6.46-.23.8-.12,1.05.34.61,1.15-.68,2.29-1.42,3-.61.59.18,1.62.91,1.18.31-.19,1.79-1.11,1.98-.26.1.46-.76,1.23-.99,1.55-.44.61-.73,1.3-.59,2.06.18.93.91,1.57,1.64,2.09.78.56,1.53-.74.76-1.29-.36-.26-.87-.64-.94-1.11-.05-.34.19-.67.38-.94.46-.64,1.08-1.21,1.21-2.03.14-.88-.38-1.68-1.19-2-1.07-.42-2.11.07-3.02.63l.91,1.18c1.26-1.21,2.61-2.85,1.73-4.67-.33-.69-.95-1.24-1.73-1.35-.42-.06-.81.04-1.19.21s-.75.49-1.16.52l.65,1.13c1.09-1.76,3.78-5.43,1.13-7.03-2.07-1.25-4.96.5-6.49,1.92-3.55,3.27-4.32,8.52-2.2,12.78,1.2,2.42,3.24,4.42,5.65,5.63.86.43,1.62-.86.76-1.29h0Z"/>
        <g>
          <path class="cls-1" d="m92,24.18c-1.3-.98-.59-2.65.54-2.52-1-1.47.1-4.21,2.38-4.07.48.03,1.06.19,1.46-.07.2-.13.33-.35.45-.56.77-1.24,1.78-2.41,3.68-1.73.5.18.97.47,1.49.51.31.02.63-.05.94-.02,1.12.12,1.6,1.67,1.07,2.67-1.22,2.26-3.1,1.93-4.01,1.86-.08.73,0,2.02-2.12,2.97-.84.38-1.87.37-2.65-.12.42,1.58-.53,2.68-1.46,2.97-.75.23-2.34-.39-1.8-1.87"/>
          <path d="m92.53,23.65c-.27-.22-.55-.51-.47-.89.06-.26.22-.36.48-.35.56.03.94-.66.65-1.13-.54-.85-.21-2.09.61-2.65.6-.41,1.21-.22,1.89-.21.98.02,1.43-.51,1.93-1.26.32-.5.73-1.04,1.3-1.27.82-.32,1.59.19,2.34.45.41.14.81.17,1.24.14.32-.02.56-.04.77.23.41.5.23,1.16-.09,1.65-.77,1.17-1.89,1.25-3.16,1.15-.43-.04-.71.37-.75.75-.05.57-.11,1.09-.56,1.55-.77.81-2.07,1.24-3.09.65-.58-.34-1.25.22-1.1.85.18.77-.1,1.93-1.01,2.06-.6.09-.99-.39-.81-.96.3-.92-1.15-1.32-1.45-.4-.49,1.53.72,2.96,2.31,2.86,1.94-.13,2.79-2.3,2.41-3.96l-1.1.85c1.54.89,3.38.44,4.68-.68.88-.76,1.11-1.72,1.22-2.82l-.75.75c1.51.12,2.96-.08,4.01-1.3.67-.79,1.1-1.71.91-2.76-.15-.82-.69-1.63-1.52-1.88-.5-.15-1,0-1.5-.09-.61-.12-1.14-.49-1.76-.61-.94-.18-1.85.02-2.61.61-.36.28-.66.62-.93.99s-.45.95-.93.95c-.46,0-.88-.11-1.34-.05s-.87.19-1.25.43c-1.54.95-2.19,3.18-1.2,4.74l.65-1.13c-.86-.05-1.63.52-1.89,1.33-.29.92.09,1.87.82,2.46s1.81-.45,1.06-1.06h0Z"/>
        </g>
      </g>
      <g>
        <path class="cls-11" d="m134.71,19.67c3.54-1.27,6.2-4.7,6.55-8.45.35-3.74-1.63-7.61-4.87-9.52-.56-.33-2.76-1.36-3.87-.58-1.35.95.02,4.03,1.49,5.95-1.32-.24-2.24-.64-3.15-.2-1.49.72.85,3.31,1.43,4.3-1.32-.82-2.66-.7-2.95-.08-.54,1.13,1.56,2.49,1.47,3.75-.06.83-.91,1.36-1.22,2.13-.47,1.17.52,2.51,1.72,2.89s2.5.08,3.72-.22"/>
        <path d="m135.28,20.75c4.17-2.1,7.27-6.7,6.82-11.47-.22-2.34-1.19-4.56-2.77-6.31-.75-.83-1.65-1.55-2.64-2.07-1.09-.57-2.43-1.08-3.67-.79-1.4.33-2.19,1.6-1.85,2.99.38,1.56,1.35,3.01,2.19,4.36l.65-1.13c-.39-.02-.73-.31-1.07-.48-.38-.18-.77-.29-1.18-.26-.82.06-1.49.65-1.83,1.37-.88,1.83.47,3.47,1.73,4.67l.91-1.18c-.88-.54-1.89-1.03-2.93-.66-.86.3-1.42,1.12-1.28,2.04.13.79.71,1.35,1.17,1.97.19.26.44.57.43.91-.01.51-.56.92-.94,1.19-.77.56-.03,1.86.76,1.29.71-.51,1.41-1.12,1.62-2.01.19-.78-.13-1.53-.58-2.15-.25-.35-1.01-1.02-.99-1.49.05-.94,1.69.02,1.98.2.72.44,1.53-.59.91-1.18-.75-.71-2.03-1.84-1.43-3,.25-.47.58-.56,1.05-.35.57.27,1.02.56,1.67.6.57.03.94-.66.65-1.13-.64-1.03-1.3-2.06-1.76-3.19-.16-.4-.46-.99-.26-1.42s.71-.56,1.13-.56c1.86-.02,3.76,1.54,4.86,2.91,2.44,3.05,2.6,7.23.67,10.57-1.11,1.92-2.78,3.45-4.76,4.45-.86.43-.1,1.73.76,1.29h0Z"/>
        <g>
          <path class="cls-1" d="m135.15,24.18c1.3-.98.59-2.65-.54-2.52,1-1.47-.1-4.21-2.39-4.06-.48.03-1.06.19-1.46-.07-.2-.13-.33-.35-.45-.56-.77-1.24-1.78-2.41-3.68-1.72-.5.18-.97.47-1.49.51-.31.02-.63-.05-.94-.02-1.12.12-1.6,1.67-1.06,2.67,1.22,2.25,3.11,1.93,4.01,1.86.08.73,0,2.02,2.13,2.97.84.38,1.87.37,2.65-.12-.41,1.58.54,2.67,1.47,2.96.75.23,2.34-.39,1.8-1.87"/>
          <path d="m135.68,24.71c.72-.59,1.11-1.55.82-2.46-.26-.81-1.03-1.39-1.89-1.33l.65,1.13c.85-1.34.48-3.24-.65-4.31-.64-.61-1.5-.93-2.39-.88-.25.01-.51.08-.76.08-.29,0-.36-.09-.51-.33-.26-.39-.51-.78-.82-1.12-.63-.7-1.48-1.17-2.43-1.17-.5,0-1,.12-1.46.3-.28.11-.54.25-.83.34s-.54.06-.84.06c-2.1-.06-2.95,2.32-1.98,3.97.54.92,1.37,1.66,2.41,1.95.71.2,1.42.16,2.14.1l-.75-.75c.11,1.1.34,2.06,1.22,2.82,1.3,1.11,3.14,1.57,4.68.68l-1.1-.85c-.38,1.66.47,3.83,2.41,3.95,1.59.11,2.8-1.33,2.31-2.86-.29-.91-1.74-.52-1.45.4.18.57-.2,1.05-.8.97-.91-.13-1.19-1.3-1.02-2.06.14-.63-.52-1.19-1.1-.85-1.01.59-2.32.17-3.09-.65-.44-.46-.5-.98-.56-1.55-.04-.38-.31-.79-.75-.75-1.02.08-2.01.12-2.78-.68-.46-.47-.85-1.09-.64-1.76.24-.79.86-.52,1.51-.59.86-.08,1.59-.71,2.46-.7.67,0,1.18.46,1.57.96.47.61.74,1.37,1.55,1.59.73.2,1.48-.18,2.2.09,1.07.41,1.57,1.87.96,2.84-.29.46.08,1.16.65,1.13.26-.02.42.09.48.35.09.38-.2.67-.46.89-.75.61.32,1.67,1.06,1.06h0Z"/>
        </g>
      </g>
      <path d="m61.48,138.72c2.34-.14,4.59-.64,6.9-.96,1.97-.27,3.75.02,5.52.95.85.45,1.61-.84.76-1.29-1.9-1-3.88-1.43-6.02-1.18-2.4.28-4.74.85-7.16.99-.96.06-.97,1.56,0,1.5h0Z"/>
      <path class="cls-1" d="m60.04,146.21c11.83-9.51,13.77-11.03,22.75-18.25,3.15-2.53,8.71-6.7,12.23-4.71,3.81,2.16,1.03,4.05,3.5,7.66,2.91,4.24,11.99,6.41,11.64,15.98-.17,4.48-4.83,8.58-8.82,10.63-7.08,3.63-8.88,2.77-15.96,6.41-4.51,2.31-13.77,8.27-18.8,7.63-5.35-.67-9.89-4.91-11.61-10.02"/>
      <g class="cls-7">
        <path class="cls-12" d="m71.49,140.13c.3,1.64,1.69,2.87,3.35,3.09l1.15.16-.16,1.18c-.23,1.65.58,3.32,2.08,4.05,2.59,1.26,5.36-.4,5.71-2.97l.16-1.2h0s1.04-7.59,1.04-7.59c.02-.11-.06-.21-.17-.23l-8.76-1.19c-2.58-.35-4.91,1.88-4.39,4.71Z"/>
        <path class="cls-12" d="m82.81,157.43c.3,1.64,1.69,2.87,3.35,3.09l1.15.16-.16,1.18c-.23,1.65.58,3.32,2.08,4.05,2.59,1.26,5.36-.4,5.71-2.97l.16-1.2h0s1.04-7.59,1.04-7.59c.02-.11-.06-.21-.17-.23l-8.76-1.19c-2.58-.35-4.91,1.88-4.39,4.71Z"/>
      </g>
      <path d="m55.52,103.22c-2.95,8.9-4.48,18.35-5.09,27.68-.33,5.09-.36,10.22.11,15.3.42,4.64,1.22,9.3,2.8,13.7.81,2.26,1.78,4.6,3.17,6.56,1.5,2.11,3.57,3.56,5.89,4.65.87.4,1.63-.89.76-1.29-1.99-.92-3.85-2.1-5.18-3.87-1.25-1.66-2.12-3.64-2.87-5.56-1.63-4.19-2.5-8.65-2.97-13.1-1.04-9.82-.33-19.88,1.38-29.58.84-4.76,1.93-9.49,3.45-14.08.3-.92-1.14-1.31-1.45-.4h0Z"/>
      <path d="m60.57,146.74c6.29-6.27,13.88-10.88,20.9-16.26,1.74-1.33,3.39-2.78,5.15-4.07.95-.69,1.93-1.34,2.97-1.9.98-.52,2.07-1.06,3.2-1.14,2.51-.17,3.26,2.51,3.75,4.45s1.25,3.69,2.67,5.17c2.47,2.58,5.89,4,8.32,6.62,2.69,2.9,3.21,7.45,1.25,10.89-1.1,1.93-2.93,3.35-4.76,4.56-1.96,1.3-4.06,2.38-6.21,3.32s-4.42,1.75-6.66,2.51c-1.84.63-3.69,1.19-5.44,2.03-6.31,3.02-12.31,8.4-19.79,7.5-1-.12-1.97-.37-2.92-.69s-1.31,1.14-.4,1.45c3.85,1.29,7.87.95,11.63-.51s6.77-3.5,10.1-5.35c1.51-.84,3.05-1.6,4.7-2.14,2.35-.78,4.7-1.56,7.01-2.46s4.54-1.89,6.68-3.1,4.16-2.53,5.79-4.27c2.94-3.13,3.76-7.76,2.09-11.72-1.57-3.71-5.16-5.59-8.23-7.87-1.44-1.07-2.82-2.32-3.61-3.96-1.02-2.1-.95-4.57-2.51-6.43-1.64-1.95-4.1-1.65-6.21-.73-2.26.99-4.24,2.48-6.15,4.02-3.4,2.73-6.9,5.28-10.45,7.81-3.88,2.76-7.74,5.57-11.29,8.75-.89.8-1.76,1.62-2.61,2.46-.68.68.38,1.74,1.06,1.06h0Z"/>
      <path d="m142.32,96.05c0,7.13.05,14.28-.43,21.4-.06.96,1.44.96,1.5,0,.48-7.12.43-14.27.43-21.4,0-.96-1.5-.97-1.5,0h0Z"/>
      <path class="cls-1" d="m152.5,94.17c-6.48,7.05-6.92,10.98-10.68,22.14-3.06,9.08-8.3,23.91-10.08,35.7-3.24,7.11-24.49,31.41-30.41,40.78-1.94,3.06-2.42,6.44-.75,9.66,2.1,4.05,10.66,4.25,13.54,7.8,1.46,1.8,1.72,5.6,3.42,7.16,2.28,2.09,7-.02,8.79-1.33,2.51-1.85,7.02-11.75,8.58-15.69s2.54-8.01,4.85-11.55c8.14-12.47,13.81-21.12,18.98-36.2s8.74-28.81,9.24-44.64c.12-3.91-.9-8.71-3.1-11.95-4.12-6.07-6.19-7.55-12.22-8.02"/>
      <g class="cls-6">
        <path class="cls-12" d="m169.26,97.52c-1.54-.65-3.33-.15-4.42,1.11l-.76.88-.9-.78c-1.26-1.09-3.1-1.33-4.53-.48-2.47,1.48-2.6,4.7-.64,6.41l.91.79h0s5.79,5.02,5.79,5.02c.09.07.21.06.29-.02l5.8-6.68c1.71-1.96,1.12-5.14-1.53-6.25Z"/>
        <path class="cls-12" d="m149.13,125.95c-1.31-1.03-3.17-1.03-4.56-.11l-.97.64-.66-1c-.92-1.39-2.63-2.11-4.24-1.67-2.77.77-3.76,3.84-2.32,6.01l.67,1.01h0s4.24,6.38,4.24,6.38c.06.09.19.12.28.06l7.37-4.89c2.17-1.44,2.45-4.65.19-6.44Z"/>
        <path class="cls-12" d="m170.21,130.77c-1.32-1.02-3.18-1-4.56-.06l-.96.65-.67-.99c-.94-1.38-2.66-2.08-4.26-1.62-2.76.8-3.72,3.88-2.26,6.03l.68,1h0s4.31,6.34,4.31,6.34c.06.09.19.12.28.05l7.31-4.97c2.15-1.46,2.39-4.68.12-6.44Z"/>
        <path class="cls-12" d="m119.56,187.11c-.96-1.37-2.74-1.9-4.33-1.41l-1.11.34-.35-1.14c-.49-1.6-1.92-2.78-3.59-2.81-2.87-.06-4.7,2.6-3.95,5.09l.35,1.16h0s2.23,7.33,2.23,7.33c.03.11.15.17.26.14l8.46-2.57c2.49-.76,3.68-3.76,2.03-6.11Z"/>
        <path class="cls-12" d="m137.3,199.74c-.96-1.37-2.74-1.9-4.33-1.41l-1.11.34-.35-1.14c-.49-1.6-1.92-2.78-3.59-2.81-2.87-.06-4.7,2.6-3.95,5.09l.35,1.16h0s2.23,7.33,2.23,7.33c.03.11.15.17.26.14l8.46-2.57c2.49-.76,3.68-3.76,2.03-6.11Z"/>
      </g>
      <path d="m130.79,152.82c-5.26,7.95-11.4,15.26-17.39,22.66-2.98,3.68-5.93,7.38-8.72,11.2-1.38,1.88-2.74,3.78-4,5.73-.98,1.52-1.43,3.36-1.59,5.15s0,3.69.84,5.27c.71,1.35,2.17,2.08,3.52,2.64,1.53.63,3.15,1.01,4.69,1.62,1.77.7,3.34,1.94,4.53,3.41,2.28,2.8,2.66,7.81,6.74,8.77s7.54-2.56,9.65-5.52c2.5-3.5,4.11-7.53,5.62-11.52s3.13-8.27,5.27-12.17c4.15-7.54,9.56-14.34,13.26-22.14,1.73-3.64,3.28-7.36,4.76-11.11,2.25-5.73,4.27-11.56,5.97-17.49,1.9-6.62,3.42-13.37,4.22-20.22.74-6.35.88-12.92-.53-19.19-.31-1.37-.7-2.73-1.18-4.05-.33-.9-1.78-.51-1.45.4,2.07,5.67,2.41,11.82,2.09,17.79-.36,6.69-1.6,13.32-3.24,19.82-1.55,6.15-3.48,12.2-5.66,18.15-1.6,4.35-3.33,8.66-5.23,12.88-.83,1.85-1.7,3.69-2.68,5.48-2.15,3.96-4.66,7.7-7.1,11.48s-4.84,7.66-6.71,11.79c-1.74,3.85-3.03,7.88-4.66,11.78-.8,1.93-1.7,3.83-2.78,5.62s-2.22,3.45-3.75,4.79c-1.34,1.18-3.16,2.25-5.01,2.08s-2.99-1.77-3.75-3.36c-.85-1.78-1.54-3.55-2.8-5.1s-2.78-2.73-4.52-3.52c-1.44-.65-2.98-1.03-4.46-1.56-1.24-.44-2.83-1.01-3.49-2.24-.8-1.47-.82-3.41-.61-5.02.11-.89.33-1.79.66-2.62s.86-1.59,1.36-2.34c2.6-3.86,5.41-7.58,8.3-11.23,5.74-7.27,11.79-14.3,17.26-21.78,1.33-1.82,2.62-3.67,3.87-5.55.53-.81-.76-1.56-1.29-.76h0Z"/>
      <path d="m147.8,97.49c-1.36,2.94-2.48,5.99-3.55,9.05-1.38,3.93-2.65,7.9-3.87,11.88-2.52,8.21-4.86,16.47-7.09,24.77-.88,3.27-1.74,6.54-2.57,9.82-.24.94,1.21,1.34,1.45.4,1.69-6.69,3.5-13.34,5.38-19.98,2.36-8.35,4.8-16.69,7.61-24.91,1.18-3.46,2.41-6.94,3.94-10.26.4-.87-.89-1.63-1.29-.76h0Z"/>
      <g>
        <path class="cls-2" d="m102.68,65.72s5.7,2.68,10.97,2.68c4.98,0,6.4-2.3,9.09-2.77,1.76.8,3.53,2.48,3.6,4.22-5.17,5.17-16.56,8.89-27.28-.22.08-2,1.23-2.9,3.63-3.91Z"/>
        <path d="m102.96,68.13l-1.85,3.19c-.2.34-.09.84.27,1.03s.82.09,1.03-.27l1.85-3.19c.2-.34.09-.84-.27-1.03s-.82-.09-1.03.27h0Z"/>
        <path d="m106.24,69.74c-.37,1.18-.75,2.36-1.12,3.53-.12.37.14.83.52.92.41.09.8-.12.92-.52l1.12-3.53c.12-.37-.14-.83-.52-.92-.41-.09-.8.12-.92.52h0Z"/>
        <path d="m110.14,70.7l-.54,3.67c-.03.21-.03.39.08.58.09.16.27.3.45.34.36.08.86-.11.92-.52l.54-3.67c.03-.21.03-.39-.08-.58-.09-.16-.27-.3-.45-.34-.36-.08-.86.11-.92.52h0Z"/>
        <path d="m121.3,68.81c.52,1.12,1.04,2.24,1.57,3.36.17.36.71.47,1.03.27.37-.24.45-.64.27-1.03-.52-1.12-1.04-2.24-1.57-3.36-.17-.36-.71-.47-1.03-.27-.37.24-.45.64-.27,1.03h0Z"/>
      </g>
    </g>
  </g>
</svg>