<?xml version="1.0" encoding="UTF-8"?>
<svg id="_レイヤー_2" data-name="レイヤー 2" xmlns="http://www.w3.org/2000/svg" xmlns:xlink="http://www.w3.org/1999/xlink" viewBox="0 0 163.37 326.55">
  <defs>
    <style>
      .cls-1, .cls-2, .cls-3, .cls-4, .cls-5, .cls-6, .cls-7 {
        stroke: #000;
      }

      .cls-1, .cls-2, .cls-3, .cls-5, .cls-6 {
        stroke-miterlimit: 10;
      }

      .cls-1, .cls-5, .cls-6 {
        stroke-width: 1.5px;
      }

      .cls-1, .cls-8 {
        fill: #e74268;
      }

      .cls-9, .cls-2, .cls-4 {
        fill: #fff;
      }

      .cls-2 {
        stroke-width: 1.5px;
      }

      .cls-10, .cls-6 {
        fill: #8cc63f;
      }

      .cls-4, .cls-7 {
        stroke-linecap: round;
        stroke-linejoin: round;
        stroke-width: 1.42px;
      }

      .cls-11 {
        clip-path: url(#clippath-1);
      }

      .cls-5, .cls-7, .cls-12 {
        fill: none;
      }

      .cls-13 {
        clip-path: url(#clippath);
      }

      .cls-14 {
        opacity: .99;
      }
    </style>
    <clipPath id="clippath">
      <rect class="cls-12" x="3.8" y="40.7" width="138" height="39" transform="translate(2.18 -2.54) rotate(2.03)"/>
    </clipPath>
    <clipPath id="clippath-1">
      <path class="cls-12" d="m145.99,241.43c-9.09-2.79-19.96-13.76-28.88-24.37.2-.15.41-.29.6-.44,0,0-4.43-20.57-11.27-48.47,9.57-8.34,30.36-28.83,31.98-70.4-6.17-4.52-17.17-4.57-20.71-3.4-9.24,35.71-26.44,49.71-26.44,49.71h0c-.19,0-.37,0-.56.03-9.53,1.42-28.71-.59-36.33-3.38-.34-.12-.71-.2-1.08-.25-7.71-8.24-14.52-37.43-13.92-48.03-3.86-2.41-14.55-2.7-20.14,0-3.46,27.54,6.42,52.81,12.49,63.18.24.41.49.81.76,1.2-12.31,31.18-7.26,65.05-7.26,65.05.8.24,1.64.46,2.5.69-4.49,19.2-3.65,57.89,2.17,72.83,6.77,1,20.19.33,31.59,1,.5-14.63,3.69-55.88,3.82-59.69,2.56-.73,8.43-.75,13.08-1.43,10.47,10.03,24.15,30.71,46.48,35.03,6.24-4.19,16.81-16.63,21.29-28.51.06-.15-.02-.31-.18-.36Z"/>
    </clipPath>
  </defs>
  <g id="_レイヤー_23" data-name="レイヤー 23">
    <g>
      <g class="cls-14">
        <path class="cls-9" d="m25.61,59.7c-3.16.22-1.3,10.99-1.74,12.32-1.91,5.72-1.48,10.82-.95,15.71-1.99,10.21.55,41.72,4.64,49.47,8.48.18,16.91-1.32,16.93-10.6,0,0-8.26-27.64-7.04-36.97.53-1.07,3.19-5.3,1.65-12.9,3.6-2.99,7.56-5.9,6.6-8.07-.75-1.7-6.09,1.4-9.01,4.52,1.44-3.99,6.85-12.59,4.16-13.93-1.91-.95-6.66,6.99-8.37,10.42.04-4.16,5.84-11.06,1.27-12.62-4.04-1.38-5.92,13.62-6.06,12.23,0,0,.16-9.74-2.09-9.59Z"/>
      </g>
      <g class="cls-14">
        <path d="m41.9,162.89c-4.07-4.61-7.25-9.94-9.76-15.54-2.62-5.82-4.52-11.96-5.93-18.18-1.4-6.15-2.31-12.41-2.79-18.7-.43-5.6-.54-11.23-.24-16.84.07-1.24.15-2.47.27-3.7.05-.57.11-1.14.17-1.71s.21-1.23.17-1.82c-.26-3.83-.29-7.57.31-11.37.15-.94.32-1.87.5-2.8s-1.26-1.35-1.45-.4c-.72,3.72-1.19,7.46-1.08,11.25.03,1.07.1,2.13.2,3.2.05.6-.07,1.22-.14,1.82-.14,1.2-.24,2.41-.33,3.62-.4,5.55-.37,11.14-.03,16.7.4,6.35,1.21,12.68,2.5,18.91s3.14,12.68,5.67,18.69,5.47,11.3,9.42,16.18c.48.6.98,1.18,1.49,1.76.64.72,1.7-.34,1.06-1.06h0Z"/>
        <path d="m36.71,89.64c-.31,2.39-.23,4.82-.05,7.22.22,2.92.64,5.83,1.16,8.72,1.03,5.71,2.43,11.39,4.3,16.88.75,2.22,1.56,4.45,2.68,6.52.46.85,1.75.09,1.29-.76-.92-1.71-1.61-3.54-2.25-5.37-.9-2.55-1.67-5.15-2.36-7.76-1.5-5.67-2.71-11.47-3.24-17.31-.25-2.7-.37-5.45-.03-8.14.12-.95-1.38-.95-1.5,0h0Z"/>
        <path d="m37.99,90.17c1.39-1.75,1.81-4.07,2.02-6.25.23-2.38.16-4.81-.15-7.18-.12-.94-1.62-.96-1.5,0,.28,2.2.36,4.44.19,6.65-.14,1.88-.41,4.19-1.63,5.72-.59.75.46,1.82,1.06,1.06h0Z"/>
        <path d="m24.58,71.3c-.38-1.78-.51-3.61-.44-5.43.06-1.49.22-3.14.91-4.49.2-.39.52-.85.84-.99.19-.08.31-.09.48-.08.06,0,.14.02.2.03.29.05-.07.02.03,0,.08,0,.02.02-.06-.05.1.08-.04-.02-.03-.04,0,0,.05.07.05.09,0-.17,0,.02.01.09.01.09,0-.05.02.15,0,.13.01.25.01.38,0,.63-.04,1.26-.07,1.89-.1,2.36.06,4.69.52,7.01.17.85,1.45.62,1.47-.2.04-1.92.45-3.88.94-5.73.3-1.13.65-2.27,1.15-3.33.41-.87.92-1.82,1.7-2.42.27-.21.55-.35.89-.41.07-.01.3-.02.45,0,0,0,.15.03.2.04.03,0,.07.02.1.03.2.07-.07-.04.03.02.04.02.16.13.12.07.16.19.1.14.15.32.07.27.08.55.06.94-.13,2.03-1.03,4.1-1.68,6.03-.34,1.01-.69,2.03-.86,3.08-.12.71-.22,1.72.43,2.23.33.26.96.34,1.18-.15.79-1.81,1.66-3.6,2.64-5.31.62-1.08,1.27-2.15,2.05-3.13.55-.7,1.29-1.55,2.09-1.87.29-.11.48-.14.74-.03.06.02.08.03.13.09.06.07-.05-.12.02.05.04.1-.04-.12.02.07.06.21.04.05.05.3,0,.19,0,.37-.02.56-.03.3-.14.8-.24,1.19-.59,2.2-1.58,4.29-2.59,6.33-.7,1.41-1.43,2.81-2.21,4.17-.48.84.81,1.59,1.3.76.73-1.26,1.4-2.55,2.06-3.86,1.12-2.24,2.25-4.57,2.9-7,.42-1.58.69-4.14-1.63-4.22-1.03-.03-1.95.62-2.67,1.29-.95.9-1.72,1.99-2.42,3.09-1.36,2.14-2.49,4.43-3.51,6.75l1.18-.15c-.09-.07-.09-.04-.06-.04-.05,0,.08.02.03.06.02-.02-.05-.23-.05-.3.01-.42.04-.57.13-1,.23-1.05.59-2.07.94-3.09.68-2.01,1.66-4.27,1.56-6.43-.04-.82-.3-1.66-1.05-2.1-.84-.49-1.96-.38-2.8.05-2.03,1.05-2.99,3.71-3.62,5.74-.72,2.32-1.27,4.84-1.32,7.28l1.47-.2c-.46-2.3-.56-4.61-.45-6.95.04-.99.34-2.55-.48-3.31-.91-.84-2.49-.33-3.26.58-1.12,1.33-1.42,3.25-1.59,4.93-.23,2.32-.08,4.7.41,6.98.2.94,1.65.54,1.45-.4h0Z"/>
        <path d="m39.64,77.27c1.23-1.23,2.65-2.26,3.98-3.39,1.14-.98,2.5-2.12,2.97-3.6.4-1.22-.29-2.76-1.64-2.99-1.49-.26-3.11.59-4.34,1.34-1.76,1.06-3.43,2.46-4.56,4.19-.53.81.77,1.56,1.3.76.84-1.29,2.07-2.36,3.33-3.22.65-.44,1.32-.84,2.04-1.16.28-.12.56-.23.86-.31s.54-.14.71-.15c.12,0,.25,0,.37,0s-.17-.05.01,0c.05.01.09.02.14.04-.13-.04.1.07.05.03-.1-.08.24.27.16.17.04.06.08.12.11.18.1.18-.02-.08.02.03.02.05.03.1.05.16.05.19,0-.1,0,.02,0,.06-.01.31,0,.26.02-.11-.03.1-.03.1-.02.07-.04.14-.06.2-.08.22.06-.12-.04.09-.03.06-.06.12-.09.17-.07.12-.14.24-.22.35-.17.25-.36.47-.58.71-.51.55-1.07,1.06-1.64,1.55-1.32,1.13-2.74,2.16-3.98,3.39-.68.68.38,1.74,1.06,1.06h0Z"/>
      </g>
      <g>
        <rect class="cls-10" x="3.8" y="40.7" width="138" height="39" transform="translate(2.18 -2.54) rotate(2.03)"/>
        <g class="cls-13">
          <rect class="cls-9" x="11.96" y="47.81" width="8.93" height="30.79" transform="translate(2.25 -.54) rotate(2.03)"/>
          <rect class="cls-9" x="33.74" y="47.87" width="7.64" height="30.79" transform="translate(2.27 -1.29) rotate(2.03)"/>
          <rect class="cls-9" x="56.2" y="48.96" width="8" height="30.79" transform="translate(2.32 -2.09) rotate(2.03)"/>
          <rect class="cls-9" x="87.18" y="49.55" width="7.94" height="30.79" transform="translate(2.36 -3.19) rotate(2.03)"/>
          <rect class="cls-9" x="108.18" y="50.3" width="7.92" height="30.79" transform="translate(2.4 -3.93) rotate(2.03)"/>
          <rect class="cls-9" x="131.13" y="51.17" width="6.93" height="30.79" transform="translate(2.44 -4.73) rotate(2.03)"/>
        </g>
        <rect class="cls-5" x="3.8" y="40.7" width="138" height="39" transform="translate(2.18 -2.54) rotate(2.03)"/>
        <rect class="cls-6" x="1" y="33.93" width="145.65" height="15" transform="translate(1.52 -2.59) rotate(2.03)"/>
        <g>
          <path class="cls-8" d="m75.79,26.44c2.95-12.65,13.7-20.7,15.9-20.25,1.18.24,4.16,6.26,4.73,7.32.69,1.28,9.4,7.89,10.25,11.05-6.48,6.87-20.59,9.2-28.6,9.52-2.16.09-5.9-2.11-3.4-2.82"/>
          <path d="m82.94,34.68c6.37-.94,12.94-2.41,18.75-5.27,2.02-1,4.18-2.27,5.45-4.2.64-.98-.28-2.38-.84-3.23-.83-1.26-1.87-2.37-2.95-3.42-1.21-1.16-2.49-2.25-3.79-3.31-.89-.73-2.02-1.39-2.66-2.35-1.29-1.92-2.09-4.12-3.55-5.93-.55-.67-1.46-1.6-2.41-1.57-.41.01-.83.36-1.17.56-.38.22-.76.45-1.13.68-.7.43-1.39.88-2.06,1.34-2.28,1.58-4.44,3.38-6.18,5.55-3.3,4.12-4.48,9.1-5.55,14.15-.2.94,1.25,1.34,1.45.4.65-3.07,1.26-6.21,2.53-9.09,1.36-3.09,3.46-5.67,6.04-7.84,1.99-1.67,4.2-3.07,6.46-4.35l-.58.08c1.1.2,1.83,1.49,2.37,2.37.77,1.25,1.39,2.57,2.13,3.83.28.48.58.97.97,1.37.58.6,1.33,1.09,1.98,1.62,1.6,1.3,3.19,2.64,4.65,4.11,1.27,1.28,2.68,2.79,3.1,4.59l.08-.58c-1.31,2.22-4.06,3.51-6.32,4.51-3.41,1.51-7.06,2.52-10.69,3.34-2.14.48-4.3.88-6.47,1.2-.95.14-.55,1.59.4,1.45h0Z"/>
          <path d="m90.21,6.34c.3,1.4.13,2.92-.14,4.32-.37,1.87-.97,3.69-1.7,5.44-1.61,3.88-3.89,7.62-6.83,10.63-1.48,1.51-3.15,2.84-5.11,3.67-.38.16-.45.71-.27,1.03.22.39.66.43,1.03.27,3.83-1.62,6.77-5.04,9.03-8.42,2.38-3.56,4.31-7.62,5.22-11.83.39-1.79.62-3.69.22-5.51-.21-.94-1.65-.54-1.45.4h0Z"/>
        </g>
        <g>
          <path class="cls-8" d="m63.75,26.25c-7.17-10.83-5.64-24.17-3.81-25.46.98-.69,2.9-.58,4.06-.27s2.22.91,3.34,1.36c3,1.2,6.42,1.29,9.47.25,2.15-.73,5.33-1.63,7.33-.56.5,5.69-2.93,25.51-8.2,31.55-1.42,1.63-12.38.92-11.18-1.38"/>
          <path d="m76.1,31.91c4.09-5.47,6.75-12.04,8.02-18.73.5-2.62.82-5.31.71-7.98-.04-.99-.13-2-.36-2.96-.13-.55-.23-1.02-.76-1.3-.7-.37-1.47-.56-2.26-.66-1.72-.21-3.47.1-5.15.43-.97.19-1.93.41-2.9.6-.49.1-.98.2-1.48.29-.12.02-.23.04-.35.06-.38.06.09,0-.06,0-.08,0-.15,0-.23,0-.92,0-1.87-.27-2.79-.47-1.28-.28-2.56-.58-3.85-.82-1.18-.22-2.4-.43-3.61-.39-.46.01-.94.06-1.37.21-.68.23-1,.54-1.15,1.27-.76,3.64-1.18,7.38-.95,11.09.36,5.96,2.51,11.44,5.85,16.35.39.57.79,1.13,1.2,1.68.57.77,1.87.02,1.29-.76-1.98-2.69-3.77-5.56-4.98-8.69-1.34-3.48-1.95-7.17-1.92-10.9.02-2.32.26-4.63.67-6.91.03-.16.42-1.64.33-1.7.09.07-.38.14.01.02-.06.02.22-.07.29-.08.52-.12,1.11-.1,1.66-.06,2.93.2,5.72,1.23,8.61,1.59.69.09,1.28.01,1.97-.11,1.35-.25,2.7-.56,4.05-.83,2.11-.42,4.58-.91,6.57.18l-.34-.45c.39,1.2.49,2.47.52,3.72.04,1.77-.11,3.56-.36,5.31-.66,4.47-1.97,8.88-3.88,12.97-1.19,2.55-2.62,4.98-4.3,7.24-.58.77.72,1.52,1.29.76h0Z"/>
          <path d="m58.97,1.86c1.25.71,2.17,1.94,2.92,3.15,1.05,1.7,1.83,3.56,2.48,5.45,1.45,4.23,2.29,8.75,2.3,13.23,0,2.19-.19,4.41-.9,6.49-.31.92,1.14,1.31,1.45.4,1.41-4.16,1.09-8.88.41-13.14-.7-4.4-1.96-8.92-4.22-12.8-.91-1.57-2.07-3.17-3.68-4.08-.84-.48-1.6.82-.76,1.29h0Z"/>
        </g>
        <g>
          <path class="cls-8" d="m58.44,33.05c-12.93-1.15-22.09-8.89-21.95-11.13.07-1.2,1.35-2.63,2.32-3.34s2.1-1.17,3.14-1.77c2.8-1.59,5.01-4.21,6.11-7.25.77-2.13,2.05-5.19,4.13-6.07,4.76,3.16,14.73,12.27,15.02,27.73.04,2.16-2.18.9-4.04,2"/>
          <path d="m67.92,31.68c-.13-7.13-3.01-14.17-6.85-20.09-1.56-2.41-3.34-4.76-5.48-6.7-.76-.69-1.58-1.35-2.5-1.82-.2-.1-.41-.21-.62-.28-.41-.13-.78.09-1.14.27-.61.31-1.16.76-1.61,1.27-1.04,1.19-1.62,2.67-2.24,4.1-.38.89-.78,1.78-1.22,2.65-.18.36-.36.74-.59,1.07-.06.09.07-.07-.06.07-.07.07-.14.14-.21.21-.75.73-1.65,1.32-2.49,1.94-1.17.85-2.34,1.69-3.46,2.61-1.03.85-2.04,1.76-2.82,2.86-.31.44-.57.91-.74,1.42-.19.57-.1.98.14,1.51.89,1.95,2.7,3.46,4.4,4.69,5.6,4.04,12.74,6.03,19.57,6.45,1.06.07,2.12.09,3.18.07.96-.01.97-1.51,0-1.5-6.88.08-13.95-1.47-19.92-4.97-1.9-1.12-3.84-2.47-5.19-4.25-.24-.32-.46-.67-.64-1.03-.06-.11-.1-.33-.16-.36-.14-.08.32-.3-.03.17.02-.03.02-.1.03-.14.04-.1.06-.22.1-.33.38-.99,1.22-1.81,1.98-2.52,1.89-1.76,4.08-3.13,6.11-4.7.72-.56,1.34-1.11,1.78-1.92.84-1.54,1.47-3.17,2.2-4.76.54-1.18,1.18-2.42,2.32-3.12.08-.05.41-.17.46-.25.09-.15-.03.04-.15-.05-.03-.02-.07-.07.04.02.14.12.38.19.54.28.36.21.71.45,1.05.71,1.99,1.54,3.64,3.58,5.09,5.63,3.79,5.36,6.76,11.76,7.49,18.33.09.82.14,1.65.16,2.47.02.96,1.52.97,1.5,0h0Z"/>
          <path d="m37.55,22.42c2.83-1.1,6.2-.31,8.97.61,3.65,1.21,7.15,3.14,10.08,5.63,1.58,1.33,3.02,2.84,4.11,4.6.51.82,1.81.06,1.29-.76-2.11-3.38-5.34-6.01-8.75-8.01s-7.14-3.51-11.03-3.96c-1.68-.19-3.48-.16-5.07.46-.89.35-.5,1.8.4,1.45h0Z"/>
        </g>
        <rect class="cls-1" x="62.6" y="32.94" width="16.03" height="48.54" transform="translate(2.07 -2.47) rotate(2.03)"/>
        <g>
          <path class="cls-8" d="m71.91,32.36c4.42-1.8,12.07-1.15,16.35.28,3.9,1.3,12.63,9.02,15.46,13.4-3.74-.58-11.7-2.39-11.7-2.39,0,0-5.31,6.69-8.48,8.89-3.49-8.21-6.16-14.38-11.32-20.01"/>
          <g>
            <path d="m72.08,32.94c1.22-.54,2.63-.66,3.94-.73,1.63-.08,3.28,0,4.91.14,2.49.21,4.97.58,7.42,1.06.16.03.32.08.48.1-.12,0-.22-.14-.11-.03.06.06.14.1.21.14.64.44,1.28.88,1.92,1.33,2.29,1.62,4.54,3.32,6.68,5.13,1.24,1.05,2.45,2.14,3.55,3.34.75.82,1.63,1.86,1.94,2.82l.72-.95c-2.46-.07-4.91-.64-7.29-1.22-1.41-.34-2.82-.72-4.21-1.14-.24-.07-.56,0-.73.19-1.04,1.23-2.1,2.43-3.18,3.62-1.66,1.83-3.35,3.74-5.3,5.27-.76.6.31,1.65,1.06,1.06,1.95-1.54,3.63-3.44,5.3-5.27,1.08-1.19,2.14-2.39,3.18-3.62l-.73.19c1.44.44,2.9.82,4.36,1.17,2.46.59,5,1.16,7.53,1.24.48.01.87-.49.72-.95-.34-1.09-1.06-2.02-1.79-2.88-.94-1.11-2-2.11-3.09-3.08-2.29-2.03-4.73-3.9-7.22-5.69-.79-.57-1.59-1.13-2.39-1.68-.3-.2-.55-.4-.9-.49-2.29-.57-4.71-.83-7.04-1.08-1.92-.2-3.86-.32-5.8-.25-1.67.06-3.37.26-4.91.94-.88.39-.12,1.68.76,1.29h0Z"/>
            <path d="m71.17,32.83c2.72,2.74,4.76,6.08,6.58,9.46s3.5,7.07,5.16,10.65c.41.87,1.7.11,1.29-.76-1.69-3.64-3.34-7.3-5.26-10.83s-3.96-6.81-6.72-9.58c-.68-.69-1.74.37-1.06,1.06h0Z"/>
          </g>
        </g>
      </g>
      <g class="cls-14">
        <path class="cls-9" d="m136.18,63.03c3.11.63-.14,11.06.13,12.44,1.15,5.92.07,10.92-1.1,15.7.65,10.38-5.96,41.3-11.03,48.45-8.43-.92-16.6-3.5-15.41-12.71,0,0,11.78-26.33,11.78-35.74-.39-1.13-2.47-5.67.04-13-3.18-3.43-6.73-6.83-5.5-8.86.97-1.59,5.86,2.18,8.34,5.66-.91-4.15-5.16-13.37-2.32-14.35,2.01-.69,5.7,7.79,6.95,11.42.5-4.13-4.35-11.73.38-12.68,4.18-.84,4.11,14.28,4.43,12.91,0,0,1.11-9.68,3.32-9.23Z"/>
      </g>
      <g class="cls-14">
        <path d="m107.62,164.36c4.67-4.07,8.57-8.98,11.83-14.23s6.15-11.39,8.41-17.44,3.98-12.15,5.31-18.4c1.19-5.58,2.05-11.25,2.5-16.94.1-1.25.18-2.5.23-3.74.05-1.15-.05-2.36.09-3.49.13-1.02.43-2.04.61-3.06s.3-1.96.4-2.94c.19-1.88.25-3.76.2-5.65-.02-.99-.07-1.99-.14-2.98s-1.56-.97-1.5,0c.24,3.82.2,7.62-.45,11.39-.18,1.05-.55,2.14-.64,3.2-.05.56,0,1.14-.02,1.7-.03,1.18-.07,2.36-.14,3.54-.33,5.48-1.07,10.94-2.13,16.33-1.2,6.13-2.81,12.2-4.86,18.1-2.1,6.05-4.68,11.95-7.89,17.49s-6.74,10.3-11.19,14.53c-.55.52-1.11,1.03-1.68,1.53-.73.64.34,1.69,1.06,1.06h0Z"/>
        <path d="m119.8,91.18c0,2.34-.38,4.67-.86,6.96-.59,2.83-1.38,5.63-2.26,8.38-1.74,5.44-3.83,10.8-6.35,15.92-1.01,2.04-2.07,4.09-3.4,5.95-.56.78.74,1.53,1.29.76,1.17-1.63,2.13-3.41,3.03-5.2,1.24-2.45,2.35-4.95,3.39-7.49,2.27-5.51,4.24-11.2,5.55-17.01.61-2.7,1.1-5.49,1.11-8.27,0-.96-1.5-.97-1.5,0h0Z"/>
        <path d="m121.19,90.8c-1.03-1.71-1.02-3.96-.92-5.88.11-2.21.47-4.41,1.04-6.54.25-.93-1.2-1.33-1.45-.4-.61,2.32-1,4.73-1.1,7.12-.09,2.14,0,4.57,1.14,6.46.5.83,1.79.07,1.3-.76h0Z"/>
        <path d="m137.12,75.16c.7-1.95,1.1-4.01,1.25-6.08.12-1.72.11-3.62-.6-5.22-.52-1.17-1.68-2.11-3.03-1.77-1.18.3-1.2,1.87-1.28,2.83-.23,2.57-.6,5.06-1.43,7.51l1.47.2c.22-2.05.06-4.19-.22-6.22-.3-2.27-.77-4.94-2.38-6.69-1.24-1.34-3.76-1.72-4.52.3-.33.87-.29,1.87-.2,2.79.11,1.19.33,2.37.56,3.55s.51,2.41.66,3.63c.06.46.09.92.07,1.39-.01.18,0,.04-.01.12-.02.07-.04.15-.06.22,0,.01,0-.01.02-.02l1.1.45c-.61-2.11-1.32-4.2-2.18-6.23-.53-1.24-1.11-2.48-1.86-3.6-.6-.9-1.35-1.85-2.39-2.26-.82-.32-1.85-.22-2.42.51-.52.66-.55,1.61-.5,2.42.15,2.45.94,4.88,1.71,7.2.56,1.68,1.17,3.35,1.84,4.99.36.88,1.81.49,1.45-.4-1.37-3.32-2.65-6.79-3.31-10.33-.08-.45-.15-.91-.19-1.37-.01-.2-.02-.41-.02-.61,0-.18.03-.46.03-.48.03-.15.06-.29.11-.43-.04.1.12-.14.07-.09.12-.11-.09.04.02-.01.07-.04-.09.02.09-.03.04-.01.26-.05.12-.03.04,0,.3.01.16,0,.34.05.57.2.83.42.35.3.66.66.93,1.04.71,1,1.26,2.11,1.76,3.22.93,2.09,1.66,4.28,2.3,6.49.13.46.68.7,1.1.45,1.4-.82.7-3.38.48-4.61-.38-2.11-.98-4.24-1.03-6.4,0-.41,0-.81.07-1.13.02-.09.04-.17.07-.26.04-.12.01-.06.03-.08.1-.21.11-.22.19-.29,0,0,.15-.09.11-.07.16-.07.19-.06.46-.05.32.01.6.12.9.33,1.53,1.1,1.97,3.77,2.26,5.53.35,2.17.52,4.48.29,6.67-.09.88,1.22.96,1.47.2.7-2.07,1.13-4.19,1.35-6.36.07-.7.11-1.41.19-2.11.02-.2.04-.37.1-.59.02-.08.04-.16.07-.24-.05.14.07-.11.06-.11.06.08-.23.09-.14.11.23.04.38-.03.56.05.34.13.6.52.78.92.57,1.32.54,2.92.45,4.32-.12,2.01-.53,4.02-1.21,5.92-.33.91,1.12,1.3,1.45.4h0Z"/>
        <path d="m121.23,77.79c-.96-1.25-2.08-2.36-3.15-3.51-.89-.96-2.01-2.11-2.47-3.29-.04-.11-.08-.23-.11-.35-.02-.06-.03-.12-.04-.19.02.12,0,0,0-.02,0-.05.02-.36,0-.22,0-.04.02-.09.03-.13.01-.04.03-.09.04-.13-.03.06-.03.07,0,.02.07-.15.2-.25.33-.38.08-.07.18-.09.3-.08.07,0,.14,0,.21.01-.04,0-.13-.02.02,0,.13.03.26.06.39.1.28.09.5.19.76.33.65.34,1.25.76,1.82,1.23,1.37,1.14,2.64,2.51,3.42,4.13.42.87,1.71.11,1.3-.76-.79-1.65-2.09-3.1-3.47-4.28-1.16-.99-2.6-2.08-4.16-2.26-1.33-.15-2.49.95-2.48,2.28.01,1.5,1.18,2.86,2.1,3.93,1.25,1.46,2.7,2.76,3.88,4.28.25.32.64.49,1.03.27.32-.18.52-.7.27-1.03h0Z"/>
      </g>
      <g>
        <path class="cls-9" d="m29.66,272.08l4.94,29.54c-3,5.02-21.1,8.14-19.73,21.11l46.26-5.28c.49-5.99-4.69-50.06-4.69-50.06"/>
        <path class="cls-7" d="m29.48,270.58c.86,7.82,5.13,31.04,5.13,31.04-3,5.02-21.1,8.14-19.73,21.11l46.26-5.28c2.2-2.25-4.81-38.56-4.23-51.45"/>
        <path d="m31.76,302.64c-2.94.22-24.35,11.43-17.43,20.15l30.32-3.45c-2.11-8.8-10.3-16.89-12.9-16.69Z"/>
        <rect class="cls-4" x="14.36" y="320.25" width="47.9" height="3.07" transform="translate(-33.74 5.84) rotate(-6.06)"/>
      </g>
      <g>
        <path class="cls-9" d="m100.94,251.44c6.29,8.05,22.37,16.46,29.86,17.44,3.14,6.24-2.59,22.47,9.54,27.27l16.8-43.43s-24.14-9.11-31.72-15.5"/>
        <path class="cls-7" d="m98.26,248.74c16.26,17.15,32.54,20.14,32.54,20.14,3.05,4.99-2.59,22.47,9.54,27.27l16.8-43.43s-33.59-12.26-38.37-22.26"/>
        <path d="m129.89,273.17c-1.39,2.67.87,24.5,10.45,22.98l9.8-23.63s-15.59-8.32-20.25.65Z"/>
        <rect class="cls-4" x="126.43" y="273.42" width="47.9" height="3.07" transform="translate(-160.62 313.55) rotate(-68.4)"/>
      </g>
      <path class="cls-8" d="m29.11,217.76c-5.99,16.63-5.56,61.31.79,77.63,6.77,1,20.19.33,31.59,1,.5-14.63,3.69-55.88,3.82-59.69,2.56-.73,8.43-.75,13.08-1.43,10.47,10.03,24.15,30.71,46.48,35.03,6.24-4.19,16.81-16.63,21.29-28.51.06-.15-.02-.31-.18-.36-15.98-4.9-37.5-35.12-44.15-44.16-7.01-9.53-32.45-.35-42.15,2.53"/>
      <path class="cls-8" d="m25.23,221.87s-5.18-34.61,7.65-66.06c2.48-6.08,15.36-17.34,21.5-15.1,7.62,2.78,26.8,4.8,36.33,3.38,5.59-.83,13.21,13.78,15.14,21.66,7.17,29.12,11.86,50.87,11.86,50.87-17.37,14.12-69.41,12.07-92.48,5.26Z"/>
      <path class="cls-8" d="m138.42,97.75c-1.67,42.86-23.71,63.31-32.83,71.14-6.46,5.54-14.41,4.36-24.36,1.44l10.05-26.27s17.2-14,26.44-49.71c3.53-1.17,14.54-1.12,20.71,3.4Z"/>
      <path class="cls-8" d="m19.24,92.44c-3.46,27.54,6.42,52.81,12.49,63.18,4.3,7.35,12.43,12.78,22.79,13.26,0,0,.62-21.25-.93-28.11-7.82-7.82-14.81-37.61-14.2-48.33-3.86-2.41-14.55-2.7-20.14,0Z"/>
      <g class="cls-11">
        <path class="cls-10" d="m121.06,241.99c2.9,3.75,5.4,8.84,3.42,13.57-.53,1.26-1.3,2.33-2.28,3.25-.16.15-.33.3-.51.44-.15.12.13-.09-.01.01-.04.03-.08.06-.12.09-.24.17-.48.33-.73.48-.92.57-1.91,1.04-2.98,1.23-3.38.59-5.74-2.55-8.06-4.45-1.33-1.09-2.79-2.01-4.53-2.22-1.49-.18-2.7.2-3.89,1.07-2.8,2.05-5.34,4.62-9.1,4.44-2.56-.12-5.19-1.49-7.1-3.14-1.59-1.38-2.67-3.23-3.06-5.3-.74-3.92,1.18-8.11,4.72-9.99,1.93-1.03,4.41-1.43,6.52-.73,1.75.58,3,1.94,4.25,3.22,1.16,1.19,2.46,2.32,4.2,2.41,2.23.12,3.88-1.25,4.76-3.18.41-.91.73-1.87,1.27-2.72.59-.93,1.47-1.45,2.51-1.76,2.63-.77,5.61-.18,7.98,1.1,1.04.56,1.99,1.27,2.73,2.19.6.75,1.66-.31,1.06-1.06-1.71-2.14-4.55-3.42-7.21-3.87s-5.85-.26-7.72,1.78c-.75.82-1.19,1.83-1.62,2.85-.35.83-.69,1.74-1.37,2.37-1.34,1.26-3.24.91-4.52-.18-1.46-1.25-2.61-2.82-4.28-3.83-2.09-1.27-4.62-1.4-6.95-.81-4.41,1.12-7.49,5-7.94,9.47-.22,2.16.24,4.38,1.29,6.28,1.33,2.38,3.61,4.1,6.04,5.24,2.21,1.04,4.64,1.5,7.04.92,1.86-.45,3.51-1.48,5.01-2.63.65-.5,1.32-1.06,1.94-1.54.27-.21.54-.41.83-.59.11-.07.22-.13.33-.2.15-.08.31-.16.33-.16,1.47-.55,3.15.08,4.38.89,2.87,1.88,4.93,5.25,8.59,5.68,3.37.39,6.77-1.94,8.58-4.64,2.59-3.86,2.07-8.62.08-12.62-.78-1.57-1.77-3.01-2.84-4.4-.25-.32-.8-.26-1.06,0-.32.31-.25.74,0,1.06Z"/>
        <path class="cls-10" d="m152.66,221.22c-1.66.25-3.31.82-4.55,2-.99.94-1.59,2.19-1.95,3.49-.34,1.23-.49,2.49-.75,3.74s-.65,2.61-1.76,3.38c-1.28.88-2.99.87-4.48,1.06-1.75.22-3.44.64-4.83,1.79-3.12,2.58-4.47,7.41-2.92,11.18s5.58,6.12,9.51,5.31c2.78-.58,4.57-3.15,5.83-5.49,1.35-2.48,2.26-5.31,3.97-7.57.61-.81,1.26-1.21,2.17-1.63,1.29-.59,2.54-1.27,3.71-2.06,2.84-1.92,5.31-4.63,4.95-8.29-.32-3.31-2.71-6.26-6.06-6.87-.96-.17-1.89-.16-2.85-.03-.4.05-.62.57-.52.92.11.43.52.58.92.52,3.14-.42,6.03,1.46,6.83,4.53.36,1.37.28,2.9-.37,4.18-.7,1.38-1.91,2.48-3.15,3.38-1.16.84-2.41,1.55-3.69,2.17-.86.42-1.69.73-2.39,1.41-1.78,1.74-2.71,4.3-3.77,6.49s-2.26,4.89-4.43,6.24c-2.82,1.77-6.69.18-8.48-2.34-2.25-3.18-1.45-7.66,1.14-10.39,1.18-1.24,2.67-1.73,4.32-1.95,1.44-.2,2.96-.22,4.33-.77,5.41-2.15,2.04-9.99,7.26-12.32.76-.34,1.58-.51,2.39-.64.95-.15.55-1.59-.4-1.45Z"/>
        <path class="cls-10" d="m60.47,230.65c-1.66.25-3.31.82-4.55,2-.99.94-1.59,2.19-1.95,3.49-.34,1.23-.49,2.49-.75,3.74s-.65,2.61-1.76,3.38c-1.28.88-2.99.87-4.48,1.06-1.75.22-3.44.64-4.83,1.79-3.12,2.58-4.47,7.41-2.92,11.18s5.58,6.12,9.51,5.31c2.78-.58,4.57-3.15,5.83-5.49,1.35-2.48,2.26-5.31,3.97-7.57.61-.81,1.26-1.21,2.17-1.63,1.29-.59,2.54-1.27,3.71-2.06,2.84-1.92,5.31-4.63,4.95-8.29-.32-3.31-2.71-6.26-6.06-6.87-.96-.17-1.89-.16-2.85-.03-.4.05-.62.57-.52.92.11.43.52.58.92.52,3.14-.42,6.03,1.46,6.83,4.53.36,1.37.28,2.9-.37,4.18-.7,1.38-1.91,2.48-3.15,3.38-1.16.84-2.41,1.55-3.69,2.17-.86.42-1.69.73-2.39,1.41-1.78,1.74-2.71,4.3-3.77,6.49s-2.26,4.89-4.43,6.24c-2.82,1.77-6.69.18-8.48-2.34-2.25-3.18-1.45-7.66,1.14-10.39,1.18-1.24,2.67-1.73,4.32-1.95,1.44-.2,2.96-.22,4.33-.77,5.41-2.15,2.04-9.99,7.26-12.32.76-.34,1.58-.51,2.39-.64.95-.15.55-1.59-.4-1.45Z"/>
        <path class="cls-10" d="m50.92,214.31c-5.7,1.06-11.72-2.32-13.51-7.88-1.05-3.27.35-6.91.87-10.15.27-1.66.43-3.37.06-5.03-.2-.91-.53-1.77-1.25-2.38-1.28-1.09-3.07-1.51-4.66-1.92-2.11-.54-4.24-1-6.3-1.72s-4.1-1.72-5.64-3.31c-1.7-1.77-2.53-4.16-2.6-6.59-.15-5,2.87-9.76,6.87-12.57,3.55-2.49,8.66-3.8,12.28-.7,1.93,1.64,3.49,4.32,3.57,6.88.03,1.16-.1,2.34.25,3.47.49,1.58,1.73,2.73,3.04,3.67,2.77,1.97,6.23.51,9.28.17,1.89-.21,3.82-.11,5.54.76,1.53.77,2.92,1.8,4.14,3,4.97,4.89,6.83,12.37,4.82,19.02-.91,3.03-2.31,5.95-4.36,8.38s-4.58,4.25-7.47,5.44c-1.59.66-3.26,1.12-4.95,1.45-.95.18-.55,1.63.4,1.45,3.42-.67,6.76-1.94,9.58-4.02,2.62-1.93,4.73-4.46,6.24-7.34,1.62-3.09,2.73-6.54,2.87-10.04s-.73-7.25-2.4-10.44-4.17-5.9-7.25-7.72c-1.72-1.02-3.58-1.55-5.59-1.54-1.84,0-3.65.42-5.45.72-1.39.24-2.99.48-4.25-.33s-2.61-2-2.88-3.61c-.2-1.18.01-2.39-.15-3.57-.21-1.5-.91-2.98-1.71-4.26-1.34-2.16-3.34-3.89-5.83-4.56-2.31-.62-4.8-.31-7.01.55-4.88,1.91-8.91,6.21-10.45,11.22-.8,2.61-.88,5.49-.02,8.1.8,2.41,2.4,4.36,4.51,5.75,3.82,2.52,8.41,2.88,12.64,4.33.43.15.7.25,1.05.42.16.08.32.16.47.26.07.04.13.08.2.13.1.06.18.13.13.09.12.1.23.2.33.31.09.1.05.06.05.05.04.06.09.12.12.19.31.55.44,1.24.5,1.86.4,3.63-1.16,7.21-1.41,10.8s1.28,6.85,3.81,9.21c2.21,2.06,5.08,3.25,8.06,3.57,1.28.14,2.57.09,3.84-.15.95-.18.55-1.62-.4-1.45Z"/>
        <path class="cls-10" d="m15.06,107.51c1.62.61,3.4.59,5.03.04,1.45-.49,3.06-1.34,4.02-2.56.79-1,1.15-2.22,1.62-3.38s1.04-2.01,2.26-2.32c2.64-.67,5.78.18,8.08-1.59s2.73-4.7,2-7.25c-.83-2.92-3.24-4.97-6.02-6.01s-6.32-1.31-8.94.08-3.77,4.02-5.61,6.03c-.89.98-1.92,1.73-3.06,2.39-.91.53-1.84,1.02-2.62,1.74-1.94,1.81-2.59,5.14-1.97,7.65.53,2.15,2.18,3.77,4.12,4.73.35.17.71.32,1.07.47.9.36,1.29-1.09.4-1.45-1.39-.56-2.92-1.53-3.7-2.99-.58-1.07-.69-2.32-.54-3.51s.47-2.42,1.22-3.36c.57-.71,1.37-1.18,2.15-1.63.96-.55,1.91-1.12,2.77-1.82,1.95-1.6,3.1-3.89,4.86-5.68.87-.89,1.88-1.53,3.11-1.77,1.36-.27,2.82-.26,4.18-.01,2.67.47,5.37,1.87,6.65,4.37,1.01,1.96,1.08,4.72-.51,6.41-.84.89-1.91,1.17-3.1,1.29-1.34.14-2.7.13-4.04.32s-2.51.65-3.33,1.78c-.72.99-1.03,2.2-1.51,3.31-.62,1.42-1.65,2.26-3.03,2.94-1.64.81-3.46,1.01-5.19.36-.9-.34-1.3,1.11-.4,1.45Z"/>
        <path class="cls-10" d="m155.52,104.84c-2.93-2.17-6.54-3.13-10.16-3.01-1.79.06-3.57.37-5.29.85-1.52.43-3.13.95-4.47,1.82-2.3,1.49-3.84,3.81-5.44,5.97-1.47,1.98-3.16,4.09-5.69,4.66-1.39.31-2.91.15-4.3-.05-1.66-.25-3.3-.62-4.94-.97-3.03-.65-6.33-1.46-9.43-.82-5.8,1.2-9.26,6.96-9.85,12.48-.68,6.47,2.45,12.52,7.29,16.67,2.58,2.21,5.57,3.9,8.75,5.08s6.54,1.98,9.82,1.78c6.64-.41,11.42-5.52,16.55-9.14,2.48-1.75,5.13-3.1,8.02-3.99,2.23-.69,4.54-1.1,6.73-1.92s4.2-2.17,5.72-4.04c2.12-2.63,3.74-6,4.31-9.33.51-2.97.12-5.96-1.18-8.69-1.03-2.15-2.59-4.04-4.35-5.64-.67-.6-1.37-1.16-2.08-1.7-.77-.58-1.52.72-.76,1.29,3.42,2.58,6.51,6.22,7.02,10.69.38,3.35-.67,6.6-2.23,9.53-1.19,2.24-2.76,4.29-4.99,5.58-1.83,1.05-3.9,1.53-5.92,2.05-2.53.65-5.02,1.43-7.36,2.62-2.78,1.42-5.23,3.38-7.68,5.29s-4.78,3.74-7.56,4.89c-2.95,1.22-5.96,1.2-9.06.59s-6.23-1.76-9.01-3.39c-5.28-3.09-9.82-8.24-10.52-14.51-.58-5.26,1.38-11.22,6.29-13.82,2.58-1.37,5.37-1.17,8.17-.67,3.17.56,6.28,1.48,9.5,1.76,1.31.12,2.67.11,3.94-.27,1.19-.36,2.26-1.03,3.19-1.85,1.93-1.7,3.25-3.96,4.85-5.95.77-.96,1.62-1.9,2.62-2.62,1.22-.87,2.66-1.37,4.09-1.8,3.24-.97,6.75-1.29,10.04-.38,1.68.46,3.23,1.24,4.63,2.28.78.57,1.52-.73.76-1.29Z"/>
        <path class="cls-10" d="m66.69,293.1c.21-3.53-.85-6.98-2.82-9.9-.95-1.41-2.08-2.7-3.33-3.84s-2.56-2.25-4.04-2.99c-2.78-1.39-5.96-1.32-8.98-1.54-1.45-.11-2.93-.28-4.29-.82s-2.34-1.44-3.11-2.61c-1.66-2.52-2.56-5.5-3.65-8.29-1.03-2.62-2.16-5.55-4.33-7.46-4.64-4.08-11.49-3.59-16.53-.54-6.03,3.64-8.95,10.45-9.17,17.3-.12,3.66.49,7.37,1.71,10.82,1.12,3.15,2.67,6.19,5.3,8.34,4.89,3.98,11.42,4.75,16.93,7.54,2.58,1.31,4.81,3.07,6.93,5.01,1.7,1.56,3.4,3.2,5.49,4.25,2.52,1.27,5.35,1.54,8.14,1.29,3.21-.29,6.44-1.07,9.11-2.94,3.76-2.64,5.75-6.89,6.39-11.34.11-.76.19-1.53.24-2.29.07-.96-1.43-.96-1.5,0-.24,3.56-1.17,7.34-3.56,10.17-1.69,2-3.94,3.38-6.44,4.12-2.89.86-6.24,1.23-9.21.55-2.17-.5-3.99-1.67-5.65-3.11-1.85-1.61-3.58-3.33-5.57-4.78-2.46-1.8-5.19-3.06-8.04-4.1s-5.73-1.86-8.44-3.15-4.99-2.92-6.54-5.39c-1.83-2.91-2.92-6.38-3.47-9.76-1.06-6.54.18-14.06,5.05-18.87,3.88-3.85,10.25-6.05,15.44-3.57,1.18.57,2.28,1.33,3.13,2.33s1.5,2.23,2.06,3.42c1.29,2.75,2.18,5.66,3.42,8.43,1.15,2.56,2.63,4.91,5.33,6s5.66.92,8.48,1.17c1.42.13,2.88.35,4.21.92,1.41.61,2.68,1.66,3.82,2.67,2.45,2.18,4.49,4.9,5.44,8.06.47,1.58.64,3.21.54,4.86-.06.96,1.44.96,1.5,0Z"/>
        <path class="cls-10" d="m99.88,234.48c4.23-.05,8.14-1.61,11.41-4.27,2.97-2.43,5.29-5.6,7.18-8.92.74-1.29,1.57-2.6,1.75-4.1.18-1.42-.06-2.88-.37-4.27-.79-3.51-2.22-6.85-3.46-10.22-.58-1.6-1.15-3.21-1.57-4.86-.29-1.17-.6-2.5-.35-3.71.58-2.73,4.31-3.18,6.52-3.8,1.44-.4,2.93-.87,4.16-1.75,1.58-1.13,2.18-2.76,2.87-4.52,1.86-4.74,3.12-10.12,1.85-15.18-.42-1.68-1.2-3.09-2.04-4.58-.58-1.03-1.13-2.03-2.01-2.83-2.08-1.89-4.97-2.6-7.72-2.69-6.72-.2-13.76,3.08-17.72,8.54-1.16,1.6-2.1,3.44-2.42,5.41s-.06,3.83.52,5.67c.52,1.64,1.28,3.19,1.92,4.79.47,1.17,1.01,2.56.64,3.83-.09.31-.04.2-.21.45.03-.04-.03.05-.11.13-.09.09-.17.17-.26.25-.34.3-.83.6-1.28.86-1.3.75-2.68,1.35-4.04,1.98-3.1,1.44-6.36,2.9-8.9,5.24-2.39,2.21-3.64,5.65-4.23,8.78-.78,4.14-.3,8.38.66,12.45.56,2.36,1.16,4.82,2.28,6.98.88,1.7,2.09,3.24,3.48,4.56,2.4,2.29,5.37,4.09,8.51,5.16.94.32,1.94.6,2.94.61s.97-1.5,0-1.5c-.48,0-.62-.04-1.1-.14-.56-.12-1.11-.29-1.65-.48-1.39-.49-2.72-1.15-3.98-1.91-3.02-1.83-5.71-4.39-7.2-7.64-1.01-2.2-1.57-4.71-2.07-7.06-.45-2.11-.75-4.25-.77-6.4-.04-3.42.71-6.75,2.26-9.8,1.44-2.85,4.37-4.51,7.12-5.91s5.54-2.37,8.05-3.98c.86-.56,1.66-1.2,1.95-2.22.39-1.33.05-2.75-.41-4.02-1.15-3.16-2.98-6.15-2.74-9.64s2.82-6.8,5.53-8.97c2.53-2.03,5.6-3.4,8.76-4.07,2.79-.6,5.83-.67,8.54.31,1.09.39,2.11,1,2.92,1.83.76.79,1.23,1.81,1.76,2.76.3.53.62,1.05.88,1.6.49,1.02.77,2.19.95,3.3.41,2.48.17,5.06-.36,7.5s-1.39,4.85-2.38,7.18c-.57,1.35-1.47,2.18-2.79,2.8-2.59,1.21-5.7,1.25-8.1,2.88-1.14.77-1.91,1.88-2.1,3.25-.18,1.27.05,2.57.34,3.81.78,3.32,2.16,6.5,3.33,9.7.59,1.63,1.16,3.28,1.6,4.96.34,1.33.62,2.71.54,4.09s-.8,2.43-1.45,3.59c-.88,1.56-1.84,3.07-2.92,4.49-2.26,2.98-5.15,5.66-8.66,7.07-1.87.75-3.85,1.12-5.86,1.15-.96.01-.97,1.51,0,1.5Z"/>
        <path class="cls-10" d="m67.98,163.46c-.48-2.8.75-6.16,2.65-8.21.56-.6,1.2-1.15,1.94-1.51.8-.4,1.68-.42,2.55-.31,1.55.2,3.22.83,4.71.03,1.2-.64,1.65-1.74,1.43-3.04-.2-1.22-.68-2.35-.64-3.61.05-1.53.83-3.19,2.01-4.19.85-.72,1.96-1.11,3.04-1.31,1.93-.36,4.7-.18,6.06,1.45.59.71.64,1.59.34,2.48-.54,1.61-1.56,3.02-2.74,4.21-.88.88-1.82,1.73-2.34,2.89-.64,1.43-.67,3.05-.69,4.59-.04,3.24.47,7.22-1.78,9.87-1.16,1.37-2.62,2.41-4.36,2.89-1.29.36-2.65.43-3.98.34-3.17-.2-6.18-2.4-7.67-5.16-.24-.45-.43-.91-.53-1.42-.18-.95-1.63-.55-1.45.4.26,1.35,1.09,2.58,1.96,3.61,1.12,1.34,2.57,2.46,4.16,3.18,3.02,1.35,6.89,1.27,9.83-.27,1.7-.89,3.39-2.42,4.23-4.16.78-1.61.95-3.46,1.02-5.23.08-1.86-.01-3.73.1-5.59.09-1.48.44-2.72,1.48-3.82,1.1-1.17,2.26-2.22,3.1-3.62.79-1.32,1.56-2.9,1.26-4.49-.48-2.52-3.31-3.55-5.56-3.76-2.53-.23-5.54.47-7.21,2.53-1.18,1.45-1.9,3.34-1.78,5.22.05.73.2,1.45.39,2.16.14.51.32,1.04.31,1.56-.01.42-.32.79-.83,1.02-.71.32-1.56.13-2.29,0-1.95-.36-3.76-.54-5.5.61-2.94,1.94-4.57,5.57-4.79,9.02-.04.69,0,1.37.11,2.05.16.95,1.61.55,1.45-.4Z"/>
        <path class="cls-10" d="m34.68,119.55c-.15,2.29.77,4.37,2.28,6.05.62.7,1.33,1.32,2.05,1.91.49.4,1.03.78,1.44,1.27.13.16-.1-.11.02.03.02.02.04.06.05.09.06.15-.05-.16-.01-.02.03.12.06.25.07.38.06.47.06.96-.04,1.43-.18.86-.63,1.62-1.17,2.31-1.24,1.57-2.82,2.85-3.87,4.57-1.92,3.14-1.49,7.93,1.05,10.64,2.1,2.25,5.39,2.77,8.31,2.25,2.65-.47,5.58-1.93,6.85-4.42.9-1.77.53-3.62.31-5.52-.21-1.79-.43-3.58-.44-5.38-.01-1.5.04-3.13.61-4.54,1.54-3.8,6.79-5.7,6.86-10.18.01-.82-.21-1.64-.4-2.43-.2-.85-.44-1.69-.75-2.51-.72-1.92-1.79-3.72-3.44-4.97-2.86-2.18-6.88-1.97-10.2-1.17-3.82.92-7.37,3.14-8.86,6.91-.42,1.05-.63,2.17-.72,3.3-.08.96,1.42.96,1.5,0,.17-1.98.88-3.9,2.24-5.37,1.16-1.27,2.67-2.19,4.27-2.79,2.75-1.03,6.32-1.63,9.17-.62,3.51,1.25,4.79,5.05,5.52,8.36.18.83.25,1.6-.02,2.42s-.84,1.59-1.42,2.25c-1.35,1.53-2.95,2.82-4.14,4.49-1.62,2.26-1.81,5.11-1.69,7.81.08,1.68.3,3.35.48,5.02.11.93.32,2.2.2,3-.36,2.29-2.65,3.83-4.82,4.53-2.45.79-5.34.78-7.5-.75-1.11-.79-1.87-2-2.25-3.31-.5-1.71-.59-3.78.15-5.43,1.49-3.35,5.73-5.19,5.77-9.21,0-.77-.07-1.57-.57-2.17-.4-.48-.92-.85-1.4-1.25-1.36-1.12-2.71-2.34-3.46-3.97-.44-.95-.58-1.97-.51-3.01.06-.96-1.44-.96-1.5,0Z"/>
      </g>
      <path d="m25.24,222.28c5.89,1.8,11.98,2.97,18.07,3.84,7,1,14.05,1.58,21.12,1.81s14.18.1,21.24-.52c6.23-.55,12.49-1.44,18.53-3.15,4.58-1.29,9.28-3.05,12.97-6.14.37-.31.73-.64,1.07-.98.69-.68-.37-1.74-1.06-1.06-3.15,3.14-7.53,4.92-11.71,6.23-5.75,1.8-11.76,2.78-17.74,3.39-6.92.71-13.88.92-20.83.78-7.05-.14-14.09-.64-21.08-1.53-6.14-.79-12.28-1.89-18.25-3.56-.64-.18-1.29-.37-1.92-.56-.93-.28-1.32,1.16-.4,1.45h0Z"/>
      <path d="m41.92,134.95c2,1.97,4.68,3.29,7.21,4.44,2.94,1.34,6,2.49,9.13,3.33,1.37.37,2.76.68,4.17.81.96.08.96-1.42,0-1.5-2.58-.23-5.15-1.09-7.57-1.94-2.95-1.03-5.86-2.26-8.56-3.82-1.18-.68-2.34-1.42-3.31-2.38-.69-.68-1.75.38-1.06,1.06h0Z"/>
      <path class="cls-8" d="m73.57,144.88c6.56,1.59,13.81.98,20.13-1.37.9-.33.51-1.78-.4-1.45-6.07,2.26-13.02,2.9-19.33,1.37-.94-.23-1.34,1.22-.4,1.45h0Z"/>
      <path class="cls-3" d="m50.3,114.73c3.06-14.41,15.34-18.83,27.72-16.32,12.38,2.51,20.47,14.14,18.07,25.98s-14.38,19.4-26.77,16.89-21.54-14.74-19.03-26.56Z"/>
      <g id="_グループ_顔" data-name="&amp;lt;グループ&amp;gt;顔">
        <path class="cls-2" d="m93.53,125.55c2.09-11.44-5.31-22.52-16.76-24.9-11.45-2.39-22.66,4.81-25.31,16.13-3.57-.51-6.83,1.22-7.42,4.05-.62,2.97,1.95,6.02,5.73,6.81.68.14,1.35.2,2,.18,1.68,5.64,5.65,10.44,11.04,13.11l-.77,3.68c-.04.2-.07.39-.09.59-2.55.8-4.14,2.05-3.75,3.71.65,2.82,4.69,4.6,10.01,4.2,5.32-.4,8.98-3.06,9.27-5.65.16-1.38-1.11-2.29-3.1-2.8l.34-1.61c5.52-.6,10.58-3.33,14.11-7.51.59.27,1.23.49,1.91.63,3.78.79,7.36-.98,7.97-3.96.59-2.83-1.7-5.72-5.18-6.68Z"/>
        <path d="m61.79,118.16c.15-.74,1.06-1.53,2.12-.96.67.36.73.78.58,1.52s-.88,1.22-1.63,1.07-1.22-.88-1.07-1.63Z"/>
        <path d="m76,119.93c.15-.74.58-1.23,1.33-1.13,1.01.14,1.51.94,1.36,1.69s-.88,1.22-1.63,1.07-1.22-.88-1.07-1.63Z"/>
        <path d="m67.52,117.74c-.04,1.2-.08,2.41-.12,3.61-.01.39.35.77.75.75.42-.02.74-.33.75-.75.04-1.2.08-2.41.12-3.61.01-.39-.35-.77-.75-.75-.42.02-.74.33-.75.75h0Z"/>
        <path d="m63.74,125.04c.88,1.54,2.57,2.55,4.34,2.56s3.47-1.01,4.36-2.53c.49-.84-.81-1.59-1.3-.76-.63,1.08-1.81,1.79-3.06,1.79s-2.43-.73-3.05-1.82c-.48-.84-1.78-.08-1.3.76h0Z"/>
      </g>
      <g>
        <ellipse cx="91.18" cy="119.26" rx="3.16" ry="7.74" transform="translate(-17.41 15.6) rotate(-8.93)"/>
        <path d="m53.24,112.43c-1.78,2.28,6.77,1.65,9.48-2.55,1.02,1.94,3.19,4.39,9.4,1.75.95,3.57,8.22,2.04,8.22,2.04,0,0,3.48,3.23,7.73.78s4.88-4.69,4.59-5.06c-3.03-3.88-7.57-7.01-12.74-8.64s-10.95-1.71-15.87-.1c-3.09,1.01-10.19,7.61-10.82,11.78Z"/>
        <g>
          <path class="cls-9" d="m53.75,114.67c2.02.33,4.12.25,5.89-.89,2.23-1.43,3.49-3.95,4.41-6.35.15-.38-.16-.82-.52-.92-.42-.12-.78.14-.92.52-.77,2.01-1.84,4.25-3.72,5.45-1.42.91-3.07,1.01-4.74.73-.4-.07-.81.1-.92.52-.1.36.12.86.52.92h0Z"/>
          <path class="cls-9" d="m61.3,110.91c1.63,2,4.2,3.03,6.75,2.62,2.85-.46,4.85-2.71,5.79-5.32.33-.91-1.12-1.3-1.45-.4-.77,2.13-2.42,3.95-4.75,4.28-2.05.29-4.01-.66-5.29-2.23-.61-.75-1.67.32-1.06,1.06h0Z"/>
          <path class="cls-9" d="m70.66,112.28c1.52,1.56,3.74,2.59,5.94,2.44,2.91-.2,4.99-2.33,6.16-4.86.4-.87-.89-1.63-1.3-.76-.95,2.05-2.55,4.01-4.97,4.12-1.79.09-3.53-.74-4.77-2.01-.67-.69-1.74.37-1.06,1.06h0Z"/>
          <path class="cls-9" d="m79.09,113.9c2.2,2.8,7.87,3.98,9.8.23.44-.86-.85-1.62-1.3-.76-.66,1.28-2.05,1.7-3.43,1.61-1.57-.11-3.05-.91-4.01-2.14-.25-.32-.8-.26-1.06,0-.31.31-.25.74,0,1.06h0Z"/>
        </g>
      </g>
    </g>
  </g>
</svg>