<?xml version="1.0" encoding="UTF-8"?>
<svg id="_レイヤー_2" data-name="レイヤー 2" xmlns="http://www.w3.org/2000/svg" xmlns:xlink="http://www.w3.org/1999/xlink" viewBox="0 0 275.26 378.86">
  <defs>
    <style>
      .cls-1 {
        stroke: #fff069;
      }

      .cls-1, .cls-2, .cls-3, .cls-4, .cls-5, .cls-6, .cls-7 {
        stroke-miterlimit: 10;
      }

      .cls-1, .cls-8, .cls-9 {
        fill: #fff069;
      }

      .cls-10, .cls-5 {
        fill: #fff;
      }

      .cls-11 {
        fill: #8cc63f;
      }

      .cls-2, .cls-12 {
        stroke: #f4c544;
      }

      .cls-2, .cls-12, .cls-13 {
        fill: #f4c544;
      }

      .cls-3, .cls-4, .cls-14, .cls-6 {
        fill: none;
      }

      .cls-3, .cls-4, .cls-5, .cls-6 {
        stroke: #fff;
      }

      .cls-15 {
        clip-path: url(#clippath-2);
      }

      .cls-4 {
        stroke-dasharray: 0 0 0 0 0 0 0 6 0 6 0 6;
        stroke-linecap: round;
        stroke-width: 2px;
      }

      .cls-16 {
        clip-path: url(#clippath-1);
      }

      .cls-17 {
        clip-path: url(#clippath-4);
      }

      .cls-18, .cls-19 {
        fill: #0071bc;
      }

      .cls-20 {
        stroke: #adadad;
      }

      .cls-20, .cls-21 {
        fill: #adadad;
      }

      .cls-20, .cls-9, .cls-12, .cls-22, .cls-19 {
        stroke-linejoin: round;
      }

      .cls-20, .cls-12, .cls-22, .cls-7, .cls-19 {
        stroke-dasharray: 0 0 0 0 0 0 0 0 0 0 0 0;
      }

      .cls-23 {
        clip-path: url(#clippath);
      }

      .cls-9 {
        opacity: .99;
        stroke-width: 1.5px;
      }

      .cls-9, .cls-7 {
        stroke: #000;
      }

      .cls-24 {
        clip-path: url(#clippath-3);
      }

      .cls-22 {
        stroke: #e74268;
      }

      .cls-22, .cls-25 {
        fill: #e74268;
      }

      .cls-26 {
        clip-path: url(#clippath-5);
      }

      .cls-6 {
        stroke-width: 1px;
      }

      .cls-19 {
        stroke: #0071bc;
      }
    </style>
    <clipPath id="clippath">
      <circle class="cls-14" cx="130.54" cy="60.94" r="6.75"/>
    </clipPath>
    <clipPath id="clippath-1">
      <circle class="cls-14" cx="172.5" cy="202.25" r="6.75"/>
    </clipPath>
    <clipPath id="clippath-2">
      <ellipse class="cls-14" cx="120.85" cy="238.24" rx="14" ry="13.14"/>
    </clipPath>
    <clipPath id="clippath-3">
      <ellipse class="cls-14" cx="57.89" cy="298.54" rx="14" ry="13.14"/>
    </clipPath>
    <clipPath id="clippath-4">
      <ellipse class="cls-14" cx="170.35" cy="134.11" rx="14" ry="13.14"/>
    </clipPath>
    <clipPath id="clippath-5">
      <circle class="cls-14" cx="192.95" cy="300.73" r="6.75"/>
    </clipPath>
  </defs>
  <g id="_レイヤー_31" data-name="レイヤー 31">
    <g>
      <g>
        <path class="cls-7" d="m140.17,328.74l-58.53,29.53c-4.47,2.26-2.87,9.01,2.14,9.01h68.53c3.26,0,5.55-3.2,4.51-6.28l-9.99-29.53c-.93-2.74-4.07-4.03-6.65-2.72Z"/>
        <path class="cls-7" d="m147.26,330.42l58.1,14.87c4.99,1.28,4.68,8.46-.4,9.3l-63.36,10.57c-3.3.55-6.12-2.38-5.44-5.66l5.26-25.43c.55-2.66,3.21-4.32,5.84-3.65Z"/>
        <path class="cls-7" d="m155.05,333.12l37.22,37.78c3.22,3.27.17,7.89-4.9,7.42l-47.34-10.29c-3.55-.33-6.02-3.13-5.19-5.89l10.12-27.49c1.11-3.7,7.06-4.6,10.09-1.53Z"/>
      </g>
      <path class="cls-11" d="m138.37,21c-4.16,8.89-8.75,13.16-16.55,18.51-1.72,1.18-8.72,2.34-10.44,3.52-1.81,1.24-3.33,3.81,4.47,5.4-2.65,2.46-5.75,1.95-8.64,1.95-3.45,0-6.66,1.16-6.66,4.05,0,4.3,6.48,4.73,8.77,2.7-3.74,2.33-11.08,3.91-15.12,5.95s-4.04,7.08-.04,9.19c6.41,3.38,10.14.32,15.17-2.1-4.01,11.81-17.83,14.67-10.55,23.6-5.49-.73-20.13,4.39-14.41,11.41-5.58,4.35-15.94,2.48-19.43,5.19s-3.48,4.05-1.64,8.07c1.11,2.43,6.1,2.29,10.65,1.72-2.35,3.14.21,7.26,2.88,7.26,2.53,0,7.01-2.82,7.85-5.35.09,1.05,1.98,2.91,3.01,3.13,4.77,1.01,4.51-3.16,7.03-5.14-2.25,4.12-3.66,7.54.34,13.02-11.58,5.65-13.3,10.44-11.08,15.22-3-.7-4.63,2.45-2.55,4.72-4.03,2.63-6.28,4.23-10.38,6.53-3.37,1.89-9.47,1.75-11.54,5.02s-.21,7.68,3.59,6.97c-8.72,5.78-16.76,8.36-26.12,12.82-1.64.78-2.92,2.23-3.36,4-1.07,4.35.86,6.78,4.67,8,1.98.64,6.32-.51,8.67-1.53,2.03,5.87,7.62,3.84,11.05,2.13,2.43,4.2,10.7,1.53,15.41-3.18-3.91,7.24-9.46,13.35-15.17,16.76-7.19,4.3-29.43,11.73-27.64,22.05,1.13,6.56,8.57,8.45,16.45,6.3-4.79,9.86-13.97,13.58-18.94,15.28-3.77,1.29-17.57,3.49-18.49,10.56s6.16,9.66,11.19,9.52c3.49-.09,9.05-1.16,14.35-2.92,1.97-.66,3.74,1.44,2.8,3.29-3.05,5.99-14.86,10.08-4.09,12.57-8.48,2.44-25.63,14.05-11.03,16.12-4.24,2.33-10.46,6.11-9.76,10.2.57,3.32,7.83,1.63,11.8.4s7.63-2.55,11.38-5.02c-1.5,4.73,1.63,5.22,3.21,4.68-4.61,4.21-9.35,8.11-14.55,11.42s-14.15,5.27-16.84,10.62,3.33,9.32,7.7,9.68c-4.7,2.27-9.82,1-13.73,5.14-.12.13-.22.3-.29.47-4.41,11.81,11.19,7.73,18.71,2.9-1.57,7.5,10.03,7.38,16.71-4.55,2.76-4.93,7.39-3.86,7.49-2.17.13,2.13-1.17,8.39,1.6,8.12,6.15-.62,6.9-7.26,9.99-11.72,0,4.95-3.03,12.05,1.6,13.66,4.08,1.41,7.79-1.4,9.98-3.59,3.47-3.47,4.8-5.57,8.09-9.68.81,6.47-.46,8.74,3.44,11.35s8-2.27,9.61-4.06c1.86-2.06,2.85-4.33,5.64-8.79-.94,4.78-1.33,6.76,1.11,8.51,2.12,1.51,3.96-.31,6.31-2.17.7,4.98,4.81,7.37,6.78,6.94,2.73-.6,2.99-7.96,3.69-15.21.17-1.8,4.04-2.72,4.84-1.1,1.24,2.5,2.51,9.02,3.09,10.72,1.45,4.3,6.58,8.84,10.76,8.39s5.11-4.6,4.84-10.85c4.92,7.25,10.82,16.75,19.27,13.9,6.73-2.27,6.86-12.83,4.96-20,1.47,4.97,3.8,5.85,7.12,4.42,7.19-3.11-1.26-10.81,2.22-13.94,4.7-4.23,12.1,10.43,17.56,18.07,3.31,4.63,6.83,10.86,12.48,11.57,5.32.67,9.5-1.78,9.31-7.39,3.12,2.18,10.01,9.74,14.92,6.69s4.64-9.51,2.61-15.08c2.97,4.68,8.37,11.27,14.62,9.55,4.95-1.36,6.56-4.68,4.07-10.58-1.28-3.03,2.33-4.19,3.2-3.07,4.98,6.39,13.14,13.74,19.73,7.14,2.81-2.81,1.3-8.58-2.68-11.21,5.19-1.55,8.66-3.04,9.02-7,.54-5.85-6.81-7.86-12.49-8.16-3.65-.19-8.35-1.32-11.13-6.61,3.66.77,9.5-.44,10.33-3.56,1.23-4.61-8.27-5.43-4.6-9.7,1.98-2.3,4.24-4.97,3.02-8.37-2.32-6.41-6.47-7.93-12.83-10.39,3.7-1.2,8.17-10.91-.51-15.03-3.52-1.67-12.09-1.73-17.25-4.19-9.68-4.6-15.47-6.97-21-17.52,4.75,1.11,7.99-1.17,9.04-5.18,5.19,2.54,7.16,4.62,12.19,6.36s8.35,2.36,12.12-1.4c3.25-3.25-.5-5.75-1.81-7.69,2.49,1.34,12.11,3.16,12.85-3.54,1.09-9.81-13.3-6.26-15.98-10.96,2.82,2.07,8.92-5.33,7.83-8.66s-10.53-4.84-13.31-5.42c-7.76-1.61-12.94-3.11-14.25-6.77,6.82-1.51,8.44-7.19,5.62-10.54-2.91-3.46-11.25-6.86-15.51-8.4-5.55-2.01-10.93-8.58-12.19-13.08,7.01,2.23,19.03,2.81,15.98-4.07,2.54.95,10.01-.17,10.44-4.56.74-7.7-6.51-8.96-9.56-10.02,4.01-1.68.47-8.39-3.63-9.83-6.15-2.15-15.47-2.84-23.6-11.95,8.01,2.35,13.67-1.71,14.34-5.22.55-2.84-2.13-8.56-7.03-10.33-10.33-3.74-16.09-7.54-19.98-14.58,2.8,2.08,6.81,4.82,10.3,4.82,6.17,0,4.24-3.64,2.71-5.86,3.63.83,6.61.3,10.69-.96,2.17-.67,4.9-2.75,4.8-5.02-.19-4.31-5.27-4.3-8.92-5.83-3.18-1.32-3.99-.79-7.29-2.92,1.8-.68,3-1.41,2.48-3.87-.57-2.69-6.23-1.96-10.02-4.91-3.53-2.74-5.62-6.09-7.3-12.41,2.08-.4,4.34-.14,6.4-.62,4.76-1.1,4.61-4.86,2.48-5.93-3.01-1.52-6.67-.88-9.63-1.66s-6.16-2.16-7.74-4.89c2.75-.21,10.18.59,10.18-4.26s-9.77-6.93-13.2-7.72c-9.16-2.12-13.35-7.18-19.45-17.5"/>
      <g>
        <path class="cls-11" d="m207.39,247.48c4.04,8.27,11.78,13.82,20.09,17.31,1.92.8,3.87,1.51,5.86,2.12,1.81.56,3.7.83,5.57,1.1s3.93.55,5.84,1.08c1.62.45,3.26,1.12,4.4,2.4,1.42,1.6,1.67,4.09,1.23,6.11-.5,2.32-1.89,4.4-3.96,5.58-.6.34-.4,1.15.18,1.37,3.19,1.21,6.54,2.47,9.13,4.78,2.27,2.02,3.67,4.84,3.39,7.93-.12,1.3-.6,2.61-1.51,3.57-1.08,1.15-2.86,1.73-2.68,3.63.16,1.68,1.53,2.82,2.9,3.59,1.3.73,2.86,1.49,2.8,3.22-.06,1.63-1.35,3.06-2.82,3.62-2,.76-4.24.48-6.32.24-.96-.11-.95,1.39,0,1.5,3.55.42,8.01.58,9.98-3.06.74-1.37.94-3.1.08-4.46-1.01-1.6-2.89-1.94-4.2-3.16-.52-.48-1.18-1.34-.87-2.1s1.39-1.17,1.97-1.72c1.09-1.04,1.79-2.46,2.05-3.94.56-3.19-.52-6.49-2.68-8.88-2.85-3.15-6.95-4.72-10.83-6.19l.18,1.37c3.85-2.2,5.82-7.19,4.48-11.43-1.23-3.9-5.11-5.24-8.78-5.93-2.04-.38-4.1-.6-6.14-.96s-3.81-.92-5.66-1.59c-4.21-1.5-8.27-3.45-11.94-6-4.39-3.05-8.08-7.03-10.44-11.85-.42-.87-1.72-.11-1.29.76h0Z"/>
        <path class="cls-11" d="m94.68,132.42c-2.32,1.65-4.92,2.86-7.26,4.5s-4.49,3.64-4.96,6.47c-.31,1.84.12,3.61.87,5.28l.65-1.13c-1.91.02-3.83.79-3.95,2.94-.05.98.28,2.05.75,2.91l.12-.91c-.89.78-1.9,1.33-2.91,1.94-1.26.76-2.47,1.6-3.71,2.4s-2.47,1.56-3.8,2.16c-1.09.5-2.24.83-3.4,1.15-3.6.99-8.88,2.09-9.06,6.73-.11,2.66,2.29,5.6,5.08,5.41l-.38-1.4c-3.15,2.35-6.49,4.42-9.99,6.18s-7.15,3.04-10.84,4.35c-3.25,1.15-6.59,2.73-8.24,5.94-1.53,2.95-1.21,6.53,1.64,8.54,3.61,2.55,8.15,1.08,11.88-.34l-.92-.52c.44,2.2,2.4,3.79,4.52,4.27,2.66.61,5.33-.43,7.63-1.69l-.91-.12c2,2.2,5.2,2.69,7.99,2.06,3.3-.75,5.99-3.08,8.48-5.24l-1.25-.73c-3.31,10.53-13.88,16.12-23.1,20.68-5.15,2.54-10.62,5.01-15.03,8.76-1.88,1.59-3.57,3.56-4.37,5.93s-.45,4.9.92,6.95c1.51,2.27,3.94,3.83,6.57,4.42,3.38.76,6.89.15,10.14-.88.92-.29.53-1.74-.4-1.45-4.89,1.55-11.2,2.13-14.72-2.43-1.43-1.85-1.8-4.18-1-6.39s2.67-4.12,4.53-5.59c4.38-3.46,9.65-5.81,14.62-8.28s9.49-4.82,13.66-8.16,7.95-7.84,9.62-13.17c.24-.76-.72-1.19-1.25-.73-2.22,1.92-4.57,3.98-7.47,4.77-2.38.64-5.16.31-6.88-1.58-.23-.25-.63-.27-.91-.12-1.87,1.03-4.12,2.01-6.3,1.58-1.72-.34-3.29-1.48-3.65-3.26-.07-.37-.56-.66-.92-.52-3.09,1.18-6.76,2.6-9.96.96-1.33-.68-2.33-1.84-2.57-3.34-.22-1.39.22-2.82.92-4.01,1.7-2.88,5-4.13,8.01-5.15,3.39-1.15,6.71-2.41,9.92-3.99,3.65-1.81,7.13-3.95,10.39-6.38.53-.4.44-1.45-.38-1.4-2.15.15-3.83-2.29-3.55-4.28.25-1.77,1.73-2.8,3.25-3.46,1.77-.77,3.69-1.16,5.53-1.69,2.49-.72,4.72-1.93,6.88-3.34,1.26-.82,2.51-1.68,3.8-2.45,1.03-.61,2.03-1.22,2.94-2.01.25-.22.27-.63.12-.91-.03-.06-.06-.11-.08-.17-.03-.06-.06-.12-.08-.18-.07-.16.04.1,0,0-.02-.05-.04-.1-.06-.15-.16-.45-.3-.93-.32-1.32-.02-.47.03-.85.32-1.17.52-.56,1.42-.61,2.13-.62.61,0,.87-.62.65-1.13-1.1-2.47-1.04-5.08.74-7.2s4.13-3.41,6.42-4.73c1.24-.72,2.49-1.43,3.66-2.26.78-.56.03-1.86-.76-1.29h0Z"/>
        <path class="cls-11" d="m46.99,238.32c-2.72,3.66-5.68,7.27-9.31,10.06-2.78,2.14-5.94,3.64-9.21,4.85-5.09,1.89-10.82,2.13-15.38,5.35-2.52,1.78-4.18,4.33-4.4,7.44-.1,1.44.11,2.85.88,4.09s1.9,2.15,3.14,2.83c3.08,1.7,6.82,2.17,10.29,2.05,1.99-.06,3.99-.34,5.93-.83s3.62-1.27,5.4-2.06c.53-.24,1.83-.87,2.36-.37.31.29.38,1.03.4,1.42.02.56-.09,1.1-.29,1.63-.74,1.99-2.49,3.47-4.18,4.65-1.55,1.07-3.41,2.29-3.71,4.32s1.43,3.36,3.12,3.87c.88.27,1.83.31,2.73.07l-.4-1.45c-4.6,1.35-8.92,3.81-12.71,6.71-.91.7-1.8,1.42-2.64,2.19s-1.71,1.57-2.21,2.59c-.84,1.72-.36,3.58,1.2,4.67s3.86,1.36,5.78,1.29l-.2-1.47c-2.72.94-5.21,2.4-7.34,4.34-1.07.98-2.03,2.07-2.87,3.26-.77,1.08-1.49,2.38-1.05,3.73.7,2.13,3.49,2.58,5.42,2.44,3.07-.22,6.16-.96,9.08-1.91,3.45-1.12,6.75-2.66,9.83-4.58l-1.03-1.03c-1.67,2.69,1.03,6.35,4.06,5.78l-.73-1.25c-3.78,3.24-7.33,6.77-11.37,9.69-1.75,1.26-3.6,2.44-5.57,3.34-1.46.66-2.96,1.21-4.45,1.79-3.01,1.17-6.29,2.44-8.52,4.87s-2.91,6.13-1.23,9.03,5.37,4.19,8.56,4.03l-.53-1.28c-.68.6-1.9,1.01-2.87,1.32-1.45.45-2.92.81-4.39,1.22-2.58.72-5.79,1.54-7.56,3.71s-.99,5.71,1.33,7.31c2.65,1.82,6.46,1.17,9.35.37,3.28-.91,6.78-2.33,9.44-4.51l-1.25-.73c-.68,1.83-.92,4.1.88,5.36,1.29.9,3.07.94,4.58.81.69-.06,1.37-.16,2.05-.29,1.45-.29,2.72-1.02,3.89-1.92s2.24-1.84,3.17-2.96c.83-.99,1.57-2.05,2.31-3.1,1.22-1.73,2.66-4.01,4.84-4.59.66-.17,1.93-.27,2.22.27.33.6.18,1.62.11,2.31-.18,1.76-.82,4.12.28,5.7s3.15,1.3,4.56.39c2.11-1.36,3.66-3.62,4.96-5.71s2.46-4.3,3.32-6.61l-1.47-.2c-.23,3.43-.81,6.97-.41,10.41.3,2.62,1.49,5.07,4.39,5.37,2.33.24,4.65-1.12,6.45-2.44,2.37-1.74,4.46-3.85,6.37-6.08,1.65-1.93,3.31-3.98,4.52-6.23l-1.4-.38c-.16,1.71-.17,3.44,0,5.15.2,1.99.6,4.14,1.79,5.8s3.14,2.41,5.23,2.07c2.66-.44,4.97-2.51,6.75-4.39,2.65-2.81,4.79-6.15,6.22-9.73l-1.45-.4c-.26,1.65-.58,3.3-.59,4.98,0,1.47.22,3.26,1.36,4.32,2.23,2.07,6.11-.08,7.78-1.89l-1.25-.33c.87,2.42,2.09,5.17,4.17,6.79.92.72,2.08,1.14,3.23.78,1.33-.41,2.21-1.51,2.71-2.76.54-1.34.68-2.81.78-4.24.13-1.82.16-3.65.32-5.46.11-1.29.24-2.87,1.03-3.96.45-.63,1.26-1.06,1.99-.66.83.45,1.32,1.52,1.69,2.34.54,1.2.91,2.48,1.25,3.74.58,2.18.91,4.38,1.94,6.4,1.19,2.31,2.98,4.36,5.21,5.71s5.08,2.21,7.49,1.17c2.12-.92,3.15-3.17,3.5-5.34.38-2.32.23-4.76-.36-7.04-.24-.93-1.69-.54-1.45.4.49,1.87.65,3.86.43,5.78-.19,1.63-.72,3.55-2.16,4.52-1.94,1.3-4.71.36-6.53-.7-2.16-1.25-3.83-3.23-4.93-5.45-.93-1.88-1.2-4.01-1.74-6.02-.57-2.11-1.24-4.7-2.88-6.27s-3.84-.92-4.9.9c-.67,1.16-.88,2.55-1.02,3.86-.18,1.66-.22,3.34-.31,5.01-.09,1.58-.15,3.26-.73,4.75-.42,1.07-1.4,2.23-2.68,1.88s-2.1-1.62-2.73-2.63c-.77-1.23-1.39-2.55-1.88-3.92-.18-.5-.84-.77-1.25-.33-.81.88-1.87,1.58-3,1.97-.87.3-2.15.57-2.83-.26-.77-.94-.78-2.43-.73-3.57.06-1.37.31-2.73.53-4.08.15-.96-1.09-1.3-1.45-.4-1.18,2.95-2.92,5.73-5,8.14-1.63,1.89-3.67,3.98-6.11,4.74-1.62.5-3.3.23-4.35-1.19s-1.39-3.24-1.57-4.92-.18-3.53-.02-5.28c.07-.75-1.06-1.01-1.4-.38-.95,1.77-2.2,3.4-3.47,4.95-1.7,2.08-3.54,4.07-5.6,5.8-1.66,1.4-3.69,2.94-5.91,3.24-.9.12-1.9-.03-2.61-.63-.81-.68-1.11-1.79-1.29-2.79-.28-1.64-.19-3.36-.09-5.02.12-1.94.31-3.88.44-5.82.06-.9-1.2-.94-1.47-.2-.7,1.88-1.64,3.69-2.66,5.42-1.13,1.91-2.39,3.83-4.05,5.32-.82.74-2.56,1.97-3.46.76-.42-.57-.34-1.49-.31-2.15.06-.98.22-1.95.31-2.92.15-1.66,0-3.6-1.99-3.92-2.23-.35-4.14.72-5.62,2.31-1.67,1.8-2.88,3.97-4.45,5.86s-3.89,4-6.45,4.5c-1.37.27-2.95.46-4.37.09-.65-.17-1.26-.48-1.54-1.09-.43-.94-.03-2.13.31-3.04.29-.77-.74-1.15-1.25-.73-2.04,1.67-4.87,2.86-7.41,3.7s-6.09,1.81-8.78.64c-2.02-.87-3.2-3.66-1.75-5.46.73-.9,1.83-1.47,2.87-1.93,1.3-.57,2.67-.96,4.03-1.34,1.51-.42,3.04-.79,4.54-1.27,1.16-.37,2.39-.81,3.31-1.63.48-.43.11-1.31-.53-1.28-2.51.12-5.48-.73-6.99-2.86-1.77-2.48-1.05-5.89,1.01-7.94,2.19-2.17,5.28-3.3,8.1-4.39,1.44-.56,2.88-1.1,4.29-1.74,1.83-.83,3.55-1.91,5.19-3.07,4.31-3.04,8.06-6.77,12.05-10.19.62-.53-.06-1.38-.73-1.25-1.8.34-3.29-2.09-2.36-3.58.39-.63-.39-1.42-1.03-1.03-4.76,2.96-10.05,4.99-15.57,5.93-1.8.31-4.56.93-6.14-.41-.91-.77-.38-1.89.17-2.71.69-1.04,1.51-2,2.4-2.88,2.04-2.01,4.51-3.54,7.22-4.47.76-.26.69-1.51-.2-1.47-1.48.05-3.11-.06-4.45-.74-1.46-.74-1.87-2.12-.91-3.52.57-.82,1.37-1.5,2.11-2.15s1.58-1.33,2.41-1.94c1.73-1.28,3.55-2.44,5.44-3.46,2.04-1.1,4.16-2.04,6.38-2.69.92-.27.54-1.7-.4-1.45-1.33.36-3.82-.3-3.98-1.95-.18-1.83,2.39-3.12,3.61-3.99,1.65-1.18,3.21-2.7,4.04-4.57.45-1,.67-2.07.5-3.17-.14-.92-.49-1.94-1.43-2.31-1.71-.67-3.64.67-5.15,1.32-1.76.76-3.64,1.27-5.53,1.59-3.52.59-7.29.52-10.71-.57-2.39-.76-5.15-2.31-5.51-5.05s.99-5.61,3.23-7.37,4.96-2.66,7.63-3.38c2.24-.61,4.57-.97,6.76-1.75,3.25-1.16,6.45-2.5,9.31-4.44,3.38-2.3,6.21-5.27,8.76-8.43.82-1.02,1.61-2.05,2.39-3.1.58-.78-.73-1.52-1.29-.76h0Z"/>
        <path d="m62.72,170.88c-3.15,2.35-6.49,4.42-9.99,6.18s-7.15,3.04-10.84,4.35c-3.25,1.15-6.59,2.73-8.24,5.94-1.53,2.95-1.21,6.53,1.64,8.54,3.61,2.55,8.15,1.08,11.88-.34l-.92-.52c.44,2.2,2.4,3.79,4.52,4.27,2.66.61,5.33-.43,7.63-1.69l-.91-.12c2,2.2,5.2,2.69,7.99,2.06,3.3-.75,5.99-3.08,8.48-5.24l-1.25-.73c-3.31,10.53-13.88,16.12-23.1,20.68-5.15,2.54-10.62,5.01-15.03,8.76-1.88,1.59-3.57,3.56-4.37,5.93s-.45,4.9.92,6.95c1.51,2.27,3.94,3.83,6.57,4.42,3.38.76,6.89.15,10.14-.88.92-.29.53-1.74-.4-1.45-4.89,1.55-11.2,2.13-14.72-2.43-1.43-1.85-1.8-4.18-1-6.39s2.67-4.12,4.53-5.59c4.38-3.46,9.65-5.81,14.62-8.28s9.49-4.82,13.66-8.16,7.95-7.84,9.62-13.17c.24-.76-.72-1.19-1.25-.73-2.22,1.92-4.57,3.98-7.47,4.77-2.38.64-5.16.31-6.88-1.58-.23-.25-.63-.27-.91-.12-1.87,1.03-4.12,2.01-6.3,1.58-1.72-.34-3.29-1.48-3.65-3.26-.07-.37-.56-.66-.92-.52-3.09,1.18-6.76,2.6-9.96.96-1.33-.68-2.33-1.84-2.57-3.34-.22-1.39.22-2.82.92-4.01,1.7-2.88,5-4.13,8.01-5.15,3.39-1.15,6.71-2.41,9.92-3.99,3.65-1.81,7.13-3.95,10.39-6.38.76-.57.02-1.87-.76-1.29h0Z"/>
        <path d="m137.47,20.13c-3.16,5.55-6.61,11.18-11.44,15.44-2.08,1.84-4.45,3.37-7.03,4.43-1.35.55-2.76.88-4.19,1.18-1.21.26-2.45.49-3.56,1.06-.96.49-1.7,1.32-1.92,2.39-.25,1.27.04,2.56,1.15,3.32.54.37,1.2.57,1.83.69.7.14,1.44.11,2.13.27.1.02.21,0,.16.12,0,.01-.39.12-.51.15-.5.13-1.01.22-1.53.27-2.32.24-4.67.02-6.99.3-2.09.25-4.24.99-5.23,3s-.71,4.45,1.39,5.68c1.97,1.15,4.59,1.07,6.63.16.54-.24,1.02-.57,1.48-.94.75-.61-.32-1.66-1.06-1.06-1.55,1.26-3.99,1.56-5.82.79-.76-.32-1.46-.88-1.68-1.7-.23-.89.13-1.97.65-2.7,1.12-1.58,3.36-1.77,5.12-1.85,2.25-.1,4.52.05,6.75-.36,1.06-.2,2.38-.56,2.28-1.9-.11-1.6-1.83-1.44-2.99-1.61-1.01-.16-2.34-.42-2.37-1.67-.03-1,.44-1.66,1.32-2.09,1.04-.52,2.27-.69,3.39-.93,1.37-.29,2.72-.63,4.02-1.16,2.51-1.03,4.81-2.45,6.9-4.17,5.3-4.38,9.02-10.44,12.39-16.35.48-.84-.82-1.6-1.29-.76h0Z"/>
        <path d="m107.46,57.54c-3.24,1.11-6.48,2.22-9.72,3.33-2.48.85-5.43,1.65-6.53,4.31-.92,2.22-.22,4.87,1.33,6.64,1.81,2.06,4.79,2.75,7.43,2.55,3.52-.27,6.66-2,9.74-3.58l-1.1-.85c-.63,2.13-1.59,4.14-2.87,5.97s-2.91,3.35-4.6,4.81c-1.61,1.38-3.25,2.81-4.33,4.67-.85,1.47-1.18,3.22-.95,4.9.26,1.89,1.3,3.5,3.1,4.23l.4-1.45c-2.24-.37-4.55-.08-6.74.48-2.31.59-4.62,1.52-6.59,2.87-1.53,1.05-3.16,2.51-3.54,4.42-.18.89-.08,1.78.29,2.6.2.45.47.85.78,1.23.06.07.15.3.15.11,0,.09-.1.25-.14.31-.21.31-.63.5-.94.69-1.2.72-2.49,1.22-3.86,1.47-1.29.23-2.62.23-3.93.25-2.99.05-6.09.24-8.87,1.45-1.25.55-2.41,1.33-3.22,2.45-.77,1.05-1.08,2.4-1.16,3.68-.12,1.88.62,3.61,2.16,4.71,1.63,1.16,3.78,1.47,5.73,1.52,1.75.04,3.56-.13,5.26-.58l-.85-1.1c-1.71,2.26-1.84,5.58.53,7.45,2.62,2.06,5.7.86,7.98-1.1,1.31-1.13,2.44-2.52,3.24-4.05l-1.4-.38c.07,1.2.3,2.39,1.2,3.26,1.05,1,2.96,1.64,4.4,1.34,1.35-.29,2.34-1.44,3.12-2.5.63-.86,1.12-2.01,1.95-2.7l-1.18-.91c-1.36,2.15-2.19,4.66-1.98,7.23.2,2.39,1.23,4.55,2.8,6.33.64.73,1.7-.34,1.06-1.06-1.34-1.52-2.25-3.42-2.38-5.47-.15-2.26.59-4.39,1.79-6.28.48-.76-.56-1.43-1.18-.91-1.55,1.29-1.99,3.71-3.91,4.64-.98.48-2.49-.02-3.3-.66-.72-.57-.85-1.46-.9-2.32-.04-.7-1.03-1.08-1.4-.38-.75,1.43-1.79,2.7-3.01,3.75-1.09.94-2.55,1.88-4.06,1.79-1.33-.08-2.63-1.09-3.03-2.36-.44-1.41.08-2.82.94-3.96.41-.55-.27-1.26-.85-1.1-1.38.37-2.77.52-4.2.53-1.57.02-3.24-.12-4.69-.77-1.34-.61-2.28-1.71-2.37-3.22-.06-1.05.13-2.26.65-3.18.64-1.14,1.8-1.88,2.98-2.38,2.6-1.1,5.51-1.21,8.3-1.26,2.56-.04,5.03-.22,7.37-1.37,1.12-.55,2.7-1.3,2.83-2.71.09-.93-.94-1.61-1.19-2.5-.43-1.52.63-2.91,1.73-3.88,1.78-1.59,4.11-2.6,6.37-3.28s4.6-1.11,6.87-.74c.96.16,1.29-1.08.4-1.45-1.32-.54-1.96-1.99-2.06-3.34-.11-1.63.4-3.11,1.35-4.42,1.18-1.63,2.81-2.89,4.32-4.2s2.91-2.78,4.07-4.45c1.34-1.93,2.35-4.07,3.02-6.32.19-.66-.54-1.13-1.1-.85-2.48,1.27-4.96,2.65-7.72,3.2-2.3.46-4.96.24-6.88-1.23-1.59-1.22-2.47-3.48-1.87-5.43.73-2.36,3.6-3.01,5.65-3.72l9.72-3.33c.91-.31.52-1.76-.4-1.45h0Z"/>
        <path d="m134.24,345.92c1.88,2.51,3.31,5.34,4.95,8s3.39,5.22,6.09,6.91c2.94,1.83,6.74,2.71,10.06,1.42s5.27-4.1,6.3-7.24c1.45-4.45.57-9.24-.26-13.73-.16-.85-1.46-.62-1.47.2-.03,2.49,1.76,4.8,4.15,5.45s5.05-.67,6.22-2.85c.63-1.17.77-2.44.55-3.74-.26-1.48-.97-2.83-1.33-4.28-.25-1.01-.26-2.22.28-3.14.73-1.25,2.14-1.01,3.19-.3,1.3.88,2.27,2.24,3.26,3.44,1.06,1.27,2.09,2.57,3.1,3.88,1.99,2.59,3.88,5.26,5.67,8,3.3,5.04,6.25,11.05,12.11,13.54,2.81,1.19,6.08,1.37,8.77-.24,2.43-1.45,4.23-4.17,3.86-7.08l-1.13.65c1.97,1.17,3.67,2.71,5.46,4.12,1.64,1.28,3.4,2.57,5.46,3.08s4.22.08,5.89-1.24c1.77-1.4,2.85-3.6,3.18-5.82.48-3.26-.48-6.5-1.42-9.58l-1.37.58c2.77,4.21,6.32,9.5,11.74,10.33,4.15.64,9.7-2.07,9.81-6.77.03-1.35-.54-2.54-1.03-3.77-.41-1.02-.88-2.65.22-3.46,1-.73,2.28,1.04,2.9,1.66.99,1,1.98,2.02,3,2.99,3.55,3.38,8.56,6.88,13.54,4.16,2.5-1.37,4.24-4.11,4.23-6.98s-1.75-5.8-4.37-7.16v1.29c2.37-1.05,5-1.68,7.07-3.33s2.9-4.46,1.82-6.98c-1.18-2.75-3.83-4.57-6.65-5.33-3.32-.9-6.85-.65-10.16-1.6-2.73-.79-5.84-2.74-6.08-5.86-.07-.96-1.57-.96-1.5,0,.21,2.66,1.95,4.72,4.19,6.03,2.65,1.55,5.67,1.84,8.67,2.15s6.34.75,8.64,3.04c1.85,1.83,2.71,4.69.77,6.8s-5.04,2.69-7.52,3.79c-.51.23-.47,1.05,0,1.29,2.2,1.14,3.66,3.47,3.63,5.97s-1.55,4.6-3.66,5.67c-4.7,2.4-9.36-1.83-12.47-4.91-.9-.89-1.77-1.79-2.67-2.68-.84-.83-1.79-1.81-3.07-1.68-1.07.1-1.84.92-2.21,1.88-.45,1.14-.27,2.31.16,3.43s1.09,2.3,1.06,3.58c-.02.93-.4,1.82-.96,2.56-1.24,1.62-3.33,2.6-5.33,2.79-2.66.24-5.14-1.11-7.07-2.85-2.17-1.95-3.82-4.39-5.41-6.81-.45-.68-1.63-.27-1.37.58,1.31,4.29,2.89,9.91-.86,13.49-1.37,1.31-3.3,1.75-5.12,1.26s-3.46-1.72-4.94-2.9c-1.78-1.42-3.49-2.94-5.45-4.11-.44-.26-1.2.06-1.13.65.31,2.44-1.13,4.64-3.2,5.84-2.34,1.36-5.2,1.1-7.59,0-5.44-2.49-8.17-8.28-11.29-13.03-1.7-2.59-3.49-5.12-5.37-7.58-.93-1.21-1.87-2.41-2.84-3.59s-1.86-2.36-2.93-3.4c-.91-.89-2.03-1.72-3.33-1.87-1.12-.13-2.21.33-2.91,1.21-1.51,1.92-.89,4.45-.14,6.52.5,1.38,1.09,2.89.64,4.36-.37,1.21-1.35,2.24-2.51,2.71-2.58,1.04-5.39-1.18-5.36-3.86l-1.47.2c.71,3.83,1.48,7.87.59,11.74-.68,2.92-2.35,5.79-5.1,7.17-2.95,1.47-6.49.7-9.2-.93-2.51-1.51-4.11-3.86-5.63-6.31-1.69-2.71-3.14-5.61-5.06-8.17-.57-.76-1.87-.02-1.29.76h0Z"/>
        <path d="m137.4,20.7c1.76,4.85,5,9.23,8.7,12.79,1.66,1.59,3.47,3.08,5.5,4.17,2.39,1.28,5.01,2.08,7.6,2.84s5.26,1.49,7.68,2.73c1.13.58,2.19,1.22,2.77,2.4.48.99.46,2.12-.3,2.95-1.49,1.63-3.72,1.48-5.73,1.54-.65.02-1.3.03-1.95.06-.57.02-1.2,0-1.63.44-.96.97.09,2.18.86,2.82,1.96,1.62,4.21,2.75,6.71,3.27,1.81.38,3.64.41,5.48.55,1.46.12,3.37.22,4.55,1.19,1.01.82.69,2.44-.1,3.31-.89.98-2.34,1.28-3.6,1.39s-2.55.04-3.82-.02c-.91-.04-1.88.04-1.81,1.23.04.67.31,1.33.56,1.95.32.79.67,1.57,1.05,2.33.66,1.35,1.37,2.68,2.17,3.96,1.01,1.62,2.1,3.29,3.59,4.51,1.29,1.04,2.81,1.68,4.32,2.33,1.21.52,2.41.65,3.67.94.99.23,2.27.83,1.93,2.04-.29,1.03-1.2,1.86-2.09,2.39-.43.26-.54,1.07,0,1.29,3.03,1.28,6.09,2.49,9.15,3.69,1.71.67,3.64.71,5.22,1.74s2.07,3.66.77,5.05c-1.51,1.61-4.12,2.19-6.2,2.6-2.43.47-5.22.81-7.65.29-.75-.16-1.22.68-.73,1.25.8.94,2.26,2.84.82,3.87-1.18.84-2.98.84-4.34.56-3.2-.67-5.9-2.84-8.59-4.58-.65-.42-1.38.4-1.03,1.03,1.74,3.09,4.08,5.85,6.81,8.1,1.37,1.13,2.84,2.15,4.4,3s3.17,1.46,4.82,2.06c3.32,1.21,7.03,2.52,9.23,5.46,1.92,2.56,2.59,6.22.11,8.66-3.23,3.17-8.18,2.29-12.16,1.47-.94-.19-1.34,1.25-.4,1.45,3.96.81,8.34,1.55,12.01-.64,1.48-.88,2.68-2.19,3.28-3.81s.49-3.42-.05-5.02c-1.23-3.59-4.25-5.91-7.6-7.42-1.8-.81-3.67-1.44-5.52-2.14s-3.45-1.55-5.03-2.61c-3.54-2.38-6.53-5.6-8.62-9.31l-1.03,1.03c3.24,2.09,6.66,4.86,10.7,4.93,1.66.03,3.96-.41,4.79-2.05.92-1.82-.4-3.75-1.56-5.1l-.73,1.25c2.41.52,5.03.26,7.44-.12,2.53-.4,5.35-1.06,7.38-2.71,1.86-1.52,2.2-4.57.81-6.53s-3.75-2.33-5.85-2.86c-1.31-.33-2.54-.93-3.79-1.42-2.05-.8-4.11-1.61-6.14-2.47v1.29c1.71-1.03,3.88-3.5,2.45-5.57-.72-1.04-1.99-1.5-3.19-1.71s-2.33-.48-3.48-.99c-1.44-.63-2.87-1.29-4-2.41-1.37-1.36-2.43-3.09-3.38-4.75-.74-1.3-1.42-2.64-2.03-4.01-.3-.66-.6-1.35-.77-2.06-.01-.05-.09-.4-.06-.25,0-.02,0-.1,0-.12-.04-.08-.05.03,0,0-.11.08-.35.35-.37.36.03-.02-.17,0,.02,0,2.51.18,5.36.36,7.69-.74,1.4-.66,2.37-1.9,2.59-3.44.24-1.68-.55-3.03-2.08-3.74-1.64-.75-3.51-.88-5.29-1-1.96-.12-3.88-.23-5.77-.81-1.21-.37-2.36-.93-3.42-1.63-.57-.38-1.11-.79-1.62-1.25-.12-.11-.24-.36-.36-.44.05.04-.18.04,0,.13.14.07.54-.02.7-.03,2.16-.08,4.59.19,6.61-.71s3.53-2.96,2.78-5.31c-.84-2.62-3.5-3.78-5.86-4.72-4.98-1.99-10.52-2.63-14.99-5.77-4.11-2.89-7.57-7.04-9.99-11.42-.61-1.11-1.15-2.25-1.59-3.45-.33-.9-1.78-.51-1.45.4h0Z"/>
        <path d="m183.32,131.47c1.7,2.48,4.3,4.26,6.83,5.81,1.51.92,3.07,1.77,4.65,2.59,1.41.73,2.85,1.59,4.34,2.14.73.27,1.52.38,2.28.52,1.13.21,2.26.4,3.37.66,2.11.49,4.62,1.18,6.03,2.96.84,1.06,1.7,2.61,1.5,4.02-.13.95-.77,1.73-1.35,2.45-.36.45-.23,1.05.33,1.25,3.45,1.24,7.62,2.77,8.82,6.63.48,1.55.35,3.28-.75,4.54-.98,1.12-2.42,1.63-3.85,1.87-1.79.31-3.65.19-5.45,0-.75-.08-1,1.06-.38,1.4,1.06.58.97,2.13.3,2.98-.99,1.26-2.88,1.51-4.37,1.62-3.74.26-7.49-.53-10.8-2.28-.53-.28-1.34.19-1.1.85,2.31,6.19,7.03,11.41,13.05,14.18,3.53,1.63,7.42,2.44,10.79,4.39,1.41.81,2.7,1.82,3.74,3.08.9,1.08,1.78,2.61,1.76,4.06-.02,1.52-1.03,2.9-2.11,3.89-1.14,1.05-2.65,1.89-4.23,1.98-.53.03-.99.63-.65,1.13,1.88,2.76,5.11,4.47,8.16,5.61,3.42,1.27,7.12,1.55,10.68,2.25s11.02,2.22,8.25,7.33c-.73,1.35-1.84,2.52-3.1,3.4-1.16.8-2.53,1.47-3.97,1.32-.66-.07-.97.86-.53,1.28,1.36,1.3,3.27,1.87,5.06,2.3,2.09.51,4.23.82,6.31,1.39,1.49.41,3.39.97,4.22,2.41.71,1.23,1.29,2.93,1.04,4.36-.22,1.25-1.07,2.28-2.11,2.95-3.17,2.04-7.03.75-10.29-.35-.69-.23-1.3.77-.73,1.25,1.4,1.17,2.87,2.95,2.61,4.92s-2.36,3.26-4.17,3.65c-2.21.48-4.6.17-6.77-.37-1.06-.26-2.11-.6-3.11-1.04s-1.99-1.09-2.95-1.7c-2.38-1.53-4.74-2.94-7.39-3.96-.35-.14-.86.15-.92.52-.28,1.77-1.21,3.24-2.82,4.09s-3.55.92-5.31.57c-.94-.19-1.35,1.26-.4,1.45,2.17.43,4.47.32,6.46-.72s3.17-2.86,3.5-4.99l-.92.52c2.59,1,4.87,2.43,7.2,3.92,2.12,1.36,4.29,2.36,6.76,2.91s5.02.79,7.42.16c2.16-.57,4.41-2.22,4.84-4.54.47-2.53-1.12-4.89-2.98-6.45l-.73,1.25c3.26,1.1,6.9,2.24,10.25.82,1.33-.56,2.53-1.47,3.29-2.7.85-1.36.96-2.98.58-4.52-.31-1.24-.8-2.62-1.68-3.57-.64-.69-1.47-1.16-2.33-1.53-2.09-.9-4.37-1.27-6.58-1.72-2.08-.43-4.71-.8-6.3-2.33l-.53,1.28c2.85.29,5.7-1.87,7.37-3.98s2.59-4.68.92-6.96c-1.39-1.9-3.74-2.75-5.93-3.34-3.6-.97-7.33-1.29-10.96-2.11-1.99-.45-3.92-1.19-5.71-2.16-1.66-.9-3.33-2.03-4.4-3.61l-.65,1.13c2.96-.18,5.93-2.28,7.21-4.94.67-1.39.79-2.83.29-4.29-.54-1.58-1.49-2.98-2.68-4.14-2.76-2.72-6.44-4-10.02-5.26s-6.92-2.78-9.78-5.32-5.22-5.87-6.59-9.53l-1.1.85c3.97,2.1,8.68,3.03,13.14,2.31,1.79-.29,3.73-1.12,4.47-2.9.63-1.52.3-3.49-1.23-4.32l-.38,1.4c3.35.35,7.66.49,10.2-2.15,3.06-3.17,1.34-8.03-1.73-10.49-2.01-1.61-4.45-2.5-6.85-3.36l.33,1.25c.62-.77,1.23-1.53,1.57-2.47.41-1.13.26-2.38-.18-3.48-.52-1.31-1.31-2.61-2.42-3.51-.97-.78-2.08-1.31-3.24-1.74-2.21-.8-4.55-1.11-6.84-1.57-1.16-.23-1.74-.52-2.8-1.05-1.68-.83-3.35-1.68-4.98-2.59-3.04-1.69-6.5-3.63-8.52-6.56-.54-.79-1.84-.04-1.29.76h0Z"/>
      </g>
      <path class="cls-4" d="m108.8,71.76c0,31.9,60.14,53.19,75.08,13.71"/>
      <path class="cls-4" d="m65.08,164.53c8.52,29.66,75.35,55.19,130.91-24.89"/>
      <path class="cls-9" d="m138.9,1.51l3.17,7.88c.19.46.63.76,1.13.76h9.59c1.24,0,1.69,1.64.62,2.27l-7.28,4.28c-.52.31-.74.95-.51,1.51l2.88,7.17c.43,1.08-.75,2.09-1.75,1.51l-8.35-4.91c-.38-.22-.85-.22-1.24,0l-8.35,4.91c-1,.59-2.18-.43-1.75-1.51l2.88-7.17c.22-.56,0-1.2-.51-1.51l-7.28-4.28c-1.07-.63-.62-2.27.62-2.27h9.59c.5,0,.95-.3,1.13-.76l3.17-7.88c.41-1.02,1.85-1.02,2.26,0Z"/>
      <g>
        <g>
          <path class="cls-12" d="m182.99,217.17c0-6.35,13-13.25,13-13.25,0,0,13,6.9,13,13.25s-13,13.25-13,13.25c0,0-13-6.9-13-13.25Z"/>
          <g>
            <line class="cls-6" x1="196.02" y1="209.51" x2="196.02" y2="224.35"/>
            <line class="cls-6" x1="189.94" y1="221.18" x2="202.09" y2="212.67"/>
            <line class="cls-6" x1="202.09" y1="221.18" x2="189.94" y2="212.67"/>
            <circle class="cls-10" cx="196.02" cy="209.77" r="1.3"/>
            <circle class="cls-10" cx="202.09" cy="212.36" r="1.3"/>
            <circle class="cls-10" cx="203.73" cy="216.93" r="1.3"/>
            <circle class="cls-10" cx="202.54" cy="221.49" r="1.3"/>
            <circle class="cls-10" cx="196.02" cy="224.57" r="1.3"/>
            <circle class="cls-10" cx="188.26" cy="216.93" r="1.3"/>
            <circle class="cls-10" cx="189.55" cy="212.36" r="1.3"/>
            <circle class="cls-10" cx="189.9" cy="221.18" r="1.3"/>
            <line class="cls-6" x1="188.6" y1="216.93" x2="203.43" y2="216.93"/>
          </g>
        </g>
        <circle cx="196.22" cy="203.3" r="1.77"/>
        <path d="m196.43,202.1c-.47-1.1-.94-2.23-1.17-3.4-.09-.43-.14-.95-.05-1.32.08-.34.23-.55.57-.63.2-.05.39-.06.61-.05.16.01-.08-.02.07.01.05.01.09.02.14.04.03,0,.06.02.09.03-.1-.04.06.04.07.05.11.07-.06-.07.03.02.03.03.06.06.09.09.09.09-.05-.08.02.03.02.02.03.05.04.07.02.04.04.07.06.11-.05-.1,0,.03.01.04.03.1.06.21.08.31,0,.03,0,.05.01.16,0,.1,0,.21,0,.32,0,.21-.03.44-.06.6-.08.48-.2.95-.35,1.41-.25.76-.49,1.49-.96,2.16-.37.53.5,1.03.86.5.47-.68.77-1.53,1.03-2.31.33-.99.61-2.11.41-3.15-.21-1.11-1.17-1.61-2.24-1.46-.56.08-1.06.35-1.35.85s-.32,1.05-.28,1.59c.12,1.55.78,3.04,1.39,4.45.11.25.47.3.68.18.26-.15.29-.44.18-.68h0Z"/>
      </g>
      <g>
        <g>
          <path class="cls-19" d="m89.85,116.62c0-6.35,13-13.25,13-13.25,0,0,13,6.9,13,13.25s-13,13.25-13,13.25c0,0-13-6.9-13-13.25Z"/>
          <g>
            <line class="cls-6" x1="102.87" y1="108.97" x2="102.87" y2="123.8"/>
            <line class="cls-6" x1="96.8" y1="120.64" x2="108.95" y2="112.13"/>
            <line class="cls-6" x1="108.95" y1="120.64" x2="96.8" y2="112.13"/>
            <circle class="cls-10" cx="102.87" cy="109.22" r="1.3"/>
            <circle class="cls-10" cx="108.95" cy="111.82" r="1.3"/>
            <circle class="cls-10" cx="110.59" cy="116.38" r="1.3"/>
            <circle class="cls-10" cx="109.39" cy="120.95" r="1.3"/>
            <circle class="cls-10" cx="102.87" cy="124.03" r="1.3"/>
            <circle class="cls-10" cx="95.11" cy="116.38" r="1.3"/>
            <circle class="cls-10" cx="96.41" cy="111.82" r="1.3"/>
            <circle class="cls-10" cx="96.75" cy="120.64" r="1.3"/>
            <line class="cls-6" x1="95.45" y1="116.38" x2="110.29" y2="116.38"/>
          </g>
        </g>
        <circle cx="103.07" cy="102.76" r="1.77"/>
        <path d="m103.28,101.56c-.47-1.1-.94-2.23-1.17-3.4-.09-.43-.14-.95-.05-1.32.08-.34.23-.55.57-.63.2-.05.39-.06.61-.05.16.01-.08-.02.07.01.05.01.09.02.14.04.03,0,.06.02.09.03-.1-.04.06.04.07.05.11.07-.06-.07.03.02.03.03.06.06.09.09.09.09-.05-.08.02.03.02.02.03.05.04.07.02.04.04.07.06.11-.05-.1,0,.03.01.04.03.1.06.21.08.31,0,.03,0,.05.01.16,0,.1,0,.21,0,.32,0,.21-.03.44-.06.6-.08.48-.2.95-.35,1.41-.25.76-.49,1.49-.96,2.16-.37.53.5,1.03.86.5.47-.68.77-1.53,1.03-2.31.33-.99.61-2.11.41-3.15-.21-1.11-1.17-1.61-2.24-1.46-.56.08-1.06.35-1.35.85s-.32,1.05-.28,1.59c.12,1.55.78,3.04,1.39,4.45.11.25.47.3.68.18.26-.15.29-.44.18-.68h0Z"/>
      </g>
      <g>
        <g>
          <path class="cls-22" d="m202.77,321.5c0-6.35,13-13.25,13-13.25,0,0,13,6.9,13,13.25s-13,13.25-13,13.25c0,0-13-6.9-13-13.25Z"/>
          <g>
            <line class="cls-6" x1="215.79" y1="313.84" x2="215.79" y2="328.68"/>
            <line class="cls-6" x1="209.72" y1="325.52" x2="221.87" y2="317.01"/>
            <line class="cls-6" x1="221.87" y1="325.52" x2="209.72" y2="317.01"/>
            <circle class="cls-10" cx="215.79" cy="314.1" r="1.3"/>
            <circle class="cls-10" cx="221.87" cy="316.69" r="1.3"/>
            <circle class="cls-10" cx="223.51" cy="321.26" r="1.3"/>
            <circle class="cls-10" cx="222.32" cy="325.83" r="1.3"/>
            <circle class="cls-10" cx="215.79" cy="328.91" r="1.3"/>
            <circle class="cls-10" cx="208.03" cy="321.26" r="1.3"/>
            <circle class="cls-10" cx="209.33" cy="316.69" r="1.3"/>
            <circle class="cls-10" cx="209.67" cy="325.52" r="1.3"/>
            <line class="cls-6" x1="208.37" y1="321.26" x2="223.21" y2="321.26"/>
          </g>
        </g>
        <circle cx="215.69" cy="307.75" r="1.77"/>
        <path d="m215.98,306.64c-.47-1.1-.94-2.23-1.17-3.4-.09-.43-.14-.95-.05-1.32.08-.34.23-.55.57-.63.2-.05.39-.06.61-.05.16.01-.08-.02.07.01.05.01.09.02.14.04.03,0,.06.02.09.03-.1-.04.06.04.07.05.11.07-.06-.07.03.02.03.03.06.06.09.09.09.09-.05-.08.02.03.02.02.03.05.04.07.02.04.04.07.06.11-.05-.1,0,.03.01.04.03.1.06.21.08.31,0,.03,0,.05.01.16,0,.1,0,.21,0,.32,0,.21-.03.44-.06.6-.08.48-.2.95-.35,1.41-.25.76-.49,1.49-.96,2.16-.37.53.5,1.03.86.5.47-.68.77-1.53,1.03-2.31.33-.99.61-2.11.41-3.15-.21-1.11-1.17-1.61-2.24-1.46-.56.08-1.06.35-1.35.85s-.32,1.05-.28,1.59c.12,1.55.78,3.04,1.39,4.45.11.25.47.3.68.18.26-.15.29-.44.18-.68h0Z"/>
      </g>
      <g>
        <g>
          <circle class="cls-22" cx="130.54" cy="60.94" r="6.75"/>
          <g class="cls-23">
            <g>
              <line class="cls-3" x1="121.59" y1="62.39" x2="131.84" y2="51.97"/>
              <line class="cls-3" x1="124.11" y1="64.87" x2="134.36" y2="54.44"/>
              <line class="cls-3" x1="126.72" y1="67.43" x2="136.97" y2="57"/>
              <line class="cls-3" x1="129.23" y1="69.9" x2="139.48" y2="59.48"/>
              <line class="cls-3" x1="133.39" y1="69.54" x2="121.48" y2="61.07"/>
              <line class="cls-3" x1="135.44" y1="66.66" x2="123.52" y2="58.19"/>
              <line class="cls-3" x1="137.55" y1="63.68" x2="125.64" y2="55.21"/>
              <line class="cls-3" x1="139.6" y1="60.8" x2="127.69" y2="52.33"/>
            </g>
          </g>
        </g>
        <circle class="cls-21" cx="130.54" cy="53.25" r="1.77"/>
        <path class="cls-21" d="m130.83,52.13c-.47-1.1-.94-2.23-1.17-3.4-.09-.43-.14-.95-.05-1.32.08-.34.23-.55.57-.63.2-.05.39-.06.61-.05.16.01-.08-.02.07.01.05.01.09.02.14.04.03,0,.06.02.09.03-.1-.04.06.04.07.05.11.07-.06-.07.03.02.03.03.06.06.09.09.09.09-.05-.08.02.03.02.02.03.05.04.07.02.04.04.07.06.11-.05-.1,0,.03.01.04.03.1.06.21.08.31,0,.03,0,.05.01.16,0,.1,0,.21,0,.32,0,.21-.03.44-.06.6-.08.48-.2.95-.35,1.41-.25.76-.49,1.49-.96,2.16-.37.53.5,1.03.86.5.47-.68.77-1.53,1.03-2.31.33-.99.61-2.11.41-3.15-.21-1.11-1.17-1.61-2.24-1.46-.56.08-1.06.35-1.35.85s-.32,1.05-.28,1.59c.12,1.55.78,3.04,1.39,4.45.11.25.47.3.68.18.26-.15.29-.44.18-.68h0Z"/>
      </g>
      <g>
        <g>
          <circle class="cls-20" cx="172.5" cy="202.25" r="6.75"/>
          <g class="cls-16">
            <g>
              <line class="cls-3" x1="163.56" y1="203.7" x2="173.81" y2="193.28"/>
              <line class="cls-3" x1="166.08" y1="206.18" x2="176.32" y2="195.75"/>
              <line class="cls-3" x1="168.68" y1="208.74" x2="178.93" y2="198.32"/>
              <line class="cls-3" x1="171.2" y1="211.22" x2="181.45" y2="200.79"/>
              <line class="cls-3" x1="175.36" y1="210.85" x2="163.44" y2="202.38"/>
              <line class="cls-3" x1="177.4" y1="207.97" x2="165.49" y2="199.5"/>
              <line class="cls-3" x1="179.52" y1="204.99" x2="167.61" y2="196.52"/>
              <line class="cls-3" x1="181.57" y1="202.12" x2="169.65" y2="193.64"/>
            </g>
          </g>
        </g>
        <circle class="cls-21" cx="172.5" cy="194.88" r="1.77"/>
        <path class="cls-21" d="m172.79,193.76c-.47-1.1-.94-2.23-1.17-3.4-.09-.43-.14-.95-.05-1.32.08-.34.23-.55.57-.63.2-.05.39-.06.61-.05.16.01-.08-.02.07.01.05.01.09.02.14.04.03,0,.06.02.09.03-.1-.04.06.04.07.05.11.07-.06-.07.03.02.03.03.06.06.09.09.09.09-.05-.08.02.03.02.02.03.05.04.07.02.04.04.07.06.11-.05-.1,0,.03.01.04.03.1.06.21.08.31,0,.03,0,.05.01.16,0,.1,0,.21,0,.32,0,.21-.03.44-.06.6-.08.48-.2.95-.35,1.41-.25.76-.49,1.49-.96,2.16-.37.53.5,1.03.86.5.47-.68.77-1.53,1.03-2.31.33-.99.61-2.11.41-3.15-.21-1.11-1.17-1.61-2.24-1.46-.56.08-1.06.35-1.35.85s-.32,1.05-.28,1.59c.12,1.55.78,3.04,1.39,4.45.11.25.47.3.68.18.26-.15.29-.44.18-.68h0Z"/>
      </g>
      <g>
        <g>
          <path class="cls-8" d="m87.93,329.46c2.12-5.17,0-9.42,0-12.56,0-4.54,3.52-9.32,9.52-9.32,2.47,0,9.91,1.52,9.12,9.32-.32,3.12-1.92,8.73,0,12.56h-18.64Z"/>
          <path class="cls-25" d="m89.18,327.33c0-.89.59-1.62,1.32-1.62s1.32.73,1.32,1.62h-2.63Z"/>
          <path class="cls-25" d="m92.54,327.33c0-.89.59-1.62,1.32-1.62s1.32.73,1.32,1.62h-2.63Z"/>
          <polygon class="cls-10" points="92.11 325.14 93.03 323.73 91.2 323.73 92.11 325.14"/>
          <polygon class="cls-10" points="95.56 325.14 96.47 323.73 94.65 323.73 95.56 325.14"/>
          <polygon class="cls-10" points="99.13 325.14 100.04 323.73 98.22 323.73 99.13 325.14"/>
          <polygon class="cls-10" points="102.17 325.14 103.08 323.73 101.26 323.73 102.17 325.14"/>
          <path class="cls-25" d="m95.82,327.37c0-.89.59-1.62,1.32-1.62s1.32.73,1.32,1.62h-2.63Z"/>
          <path class="cls-25" d="m99.11,327.37c0-.89.59-1.62,1.32-1.62s1.32.73,1.32,1.62h-2.63Z"/>
          <path class="cls-25" d="m102.53,327.33c0-.89.59-1.62,1.32-1.62s1.32.73,1.32,1.62h-2.63Z"/>
          <circle class="cls-2" cx="90.19" cy="322.07" r=".31"/>
          <circle class="cls-2" cx="93.85" cy="322.07" r=".31"/>
          <circle class="cls-2" cx="97.28" cy="322.07" r=".31"/>
          <circle class="cls-2" cx="100.74" cy="322.07" r=".31"/>
          <circle class="cls-2" cx="104.16" cy="322.07" r=".31"/>
        </g>
        <circle class="cls-21" cx="97.28" cy="306.54" r="1.77"/>
        <path class="cls-21" d="m97.56,305.42c-.47-1.1-.94-2.23-1.17-3.4-.09-.43-.14-.95-.05-1.32.08-.34.23-.55.57-.63.2-.05.39-.06.61-.05.16.01-.08-.02.07.01.05.01.09.02.14.04.03,0,.06.02.09.03-.1-.04.06.04.07.05.11.07-.06-.07.03.02.03.03.06.06.09.09.09.09-.05-.08.02.03.02.02.03.05.04.07.02.04.04.07.06.11-.05-.1,0,.03.01.04.03.1.06.21.08.31,0,.03,0,.05.01.16,0,.1,0,.21,0,.32,0,.21-.03.44-.06.6-.08.48-.2.95-.35,1.41-.25.76-.49,1.49-.96,2.16-.37.53.5,1.03.86.5.47-.68.77-1.53,1.03-2.31.33-.99.61-2.11.41-3.15-.21-1.11-1.17-1.61-2.24-1.46-.56.08-1.06.35-1.35.85s-.32,1.05-.28,1.59c.12,1.55.78,3.04,1.39,4.45.11.25.47.3.68.18.26-.15.29-.44.18-.68h0Z"/>
      </g>
      <g>
        <g>
          <path class="cls-8" d="m130.54,172.66c2.12-5.17,0-9.42,0-12.56,0-4.54,3.52-9.32,9.52-9.32,2.47,0,9.91,1.52,9.12,9.32-.32,3.12-1.92,8.73,0,12.56h-18.64Z"/>
          <path class="cls-25" d="m131.79,170.54c0-.89.59-1.62,1.32-1.62s1.32.73,1.32,1.62h-2.63Z"/>
          <path class="cls-25" d="m135.15,170.54c0-.89.59-1.62,1.32-1.62s1.32.73,1.32,1.62h-2.63Z"/>
          <polygon class="cls-10" points="134.72 168.35 135.63 166.93 133.81 166.93 134.72 168.35"/>
          <polygon class="cls-10" points="138.17 168.35 139.08 166.93 137.26 166.93 138.17 168.35"/>
          <polygon class="cls-10" points="141.74 168.35 142.65 166.93 140.83 166.93 141.74 168.35"/>
          <polygon class="cls-10" points="144.78 168.35 145.69 166.93 143.86 166.93 144.78 168.35"/>
          <path class="cls-25" d="m138.43,170.58c0-.89.59-1.62,1.32-1.62s1.32.73,1.32,1.62h-2.63Z"/>
          <path class="cls-25" d="m141.72,170.58c0-.89.59-1.62,1.32-1.62s1.32.73,1.32,1.62h-2.63Z"/>
          <path class="cls-25" d="m145.14,170.54c0-.89.59-1.62,1.32-1.62s1.32.73,1.32,1.62h-2.63Z"/>
          <circle class="cls-2" cx="132.8" cy="165.28" r=".31"/>
          <circle class="cls-2" cx="136.46" cy="165.28" r=".31"/>
          <circle class="cls-2" cx="139.89" cy="165.28" r=".31"/>
          <circle class="cls-2" cx="143.35" cy="165.28" r=".31"/>
          <circle class="cls-2" cx="146.77" cy="165.28" r=".31"/>
        </g>
        <circle class="cls-21" cx="139.89" cy="150.84" r="1.77"/>
        <path class="cls-21" d="m140.17,149.72c-.47-1.1-.94-2.23-1.17-3.4-.09-.43-.14-.95-.05-1.32.08-.34.23-.55.57-.63.2-.05.39-.06.61-.05.16.01-.08-.02.07.01.05.01.09.02.14.04.03,0,.06.02.09.03-.1-.04.06.04.07.05.11.07-.06-.07.03.02.03.03.06.06.09.09.09.09-.05-.08.02.03.02.02.03.05.04.07.02.04.04.07.06.11-.05-.1,0,.03.01.04.03.1.06.21.08.31,0,.03,0,.05.01.16,0,.1,0,.21,0,.32,0,.21-.03.44-.06.6-.08.48-.2.95-.35,1.41-.25.76-.49,1.49-.96,2.16-.37.53.5,1.03.86.5.47-.68.77-1.53,1.03-2.31.33-.99.61-2.11.41-3.15-.21-1.11-1.17-1.61-2.24-1.46-.56.08-1.06.35-1.35.85s-.32,1.05-.28,1.59c.12,1.55.78,3.04,1.39,4.45.11.25.47.3.68.18.26-.15.29-.44.18-.68h0Z"/>
      </g>
      <g>
        <g>
          <path class="cls-8" d="m69.24,225.99c2.12-5.17,0-9.42,0-12.56,0-4.54,3.52-9.32,9.52-9.32,2.47,0,9.91,1.52,9.12,9.32-.32,3.12-1.92,8.73,0,12.56h-18.64Z"/>
          <path class="cls-25" d="m70.49,223.87c0-.89.59-1.62,1.32-1.62s1.32.73,1.32,1.62h-2.63Z"/>
          <path class="cls-25" d="m73.84,223.87c0-.89.59-1.62,1.32-1.62s1.32.73,1.32,1.62h-2.63Z"/>
          <polygon class="cls-10" points="73.42 221.68 74.33 220.26 72.51 220.26 73.42 221.68"/>
          <polygon class="cls-10" points="76.86 221.68 77.77 220.26 75.95 220.26 76.86 221.68"/>
          <polygon class="cls-10" points="80.43 221.68 81.35 220.26 79.52 220.26 80.43 221.68"/>
          <polygon class="cls-10" points="83.47 221.68 84.38 220.26 82.56 220.26 83.47 221.68"/>
          <path class="cls-25" d="m77.13,223.91c0-.89.59-1.62,1.32-1.62s1.32.73,1.32,1.62h-2.63Z"/>
          <path class="cls-25" d="m80.42,223.91c0-.89.59-1.62,1.32-1.62s1.32.73,1.32,1.62h-2.63Z"/>
          <path class="cls-25" d="m83.84,223.87c0-.89.59-1.62,1.32-1.62s1.32.73,1.32,1.62h-2.63Z"/>
          <circle class="cls-2" cx="71.49" cy="218.61" r=".31"/>
          <circle class="cls-2" cx="75.16" cy="218.61" r=".31"/>
          <circle class="cls-2" cx="78.58" cy="218.61" r=".31"/>
          <circle class="cls-2" cx="82.05" cy="218.61" r=".31"/>
          <circle class="cls-2" cx="85.47" cy="218.61" r=".31"/>
        </g>
        <circle class="cls-21" cx="78.58" cy="204.17" r="1.77"/>
        <path class="cls-21" d="m78.87,203.05c-.47-1.1-.94-2.23-1.17-3.4-.09-.43-.14-.95-.05-1.32.08-.34.23-.55.57-.63.2-.05.39-.06.61-.05.16.01-.08-.02.07.01.05.01.09.02.14.04.03,0,.06.02.09.03-.1-.04.06.04.07.05.11.07-.06-.07.03.02.03.03.06.06.09.09.09.09-.05-.08.02.03.02.02.03.05.04.07.02.04.04.07.06.11-.05-.1,0,.03.01.04.03.1.06.21.08.31,0,.03,0,.05.01.16,0,.1,0,.21,0,.32,0,.21-.03.44-.06.6-.08.48-.2.95-.35,1.41-.25.76-.49,1.49-.96,2.16-.37.53.5,1.03.86.5.47-.68.77-1.53,1.03-2.31.33-.99.61-2.11.41-3.15-.21-1.11-1.17-1.61-2.24-1.46-.56.08-1.06.35-1.35.85s-.32,1.05-.28,1.59c.12,1.55.78,3.04,1.39,4.45.11.25.47.3.68.18.26-.15.29-.44.18-.68h0Z"/>
      </g>
      <g>
        <ellipse class="cls-18" cx="120.85" cy="238.24" rx="14" ry="13.14"/>
        <g class="cls-15">
          <line class="cls-3" x1="103.31" y1="244.1" x2="138.77" y2="244.1"/>
          <line class="cls-3" x1="104.28" y1="233.1" x2="139.74" y2="233.1"/>
          <circle class="cls-5" cx="110.6" cy="238.6" r=".72"/>
          <circle class="cls-5" cx="117.85" cy="238.6" r=".72"/>
          <circle class="cls-5" cx="124.6" cy="238.6" r=".72"/>
          <circle class="cls-5" cx="131.1" cy="238.6" r=".72"/>
        </g>
        <circle cx="120.85" cy="224.65" r="1.77"/>
        <path d="m121.14,223.53c-.47-1.1-.94-2.23-1.17-3.4-.09-.43-.14-.95-.05-1.32.08-.34.23-.55.57-.63.2-.05.39-.06.61-.05.16.01-.08-.02.07.01.05.01.09.02.14.04.03,0,.06.02.09.03-.1-.04.06.04.07.05.11.07-.06-.07.03.02.03.03.06.06.09.09.09.09-.05-.08.02.03.02.02.03.05.04.07.02.04.04.07.06.11-.05-.1,0,.03.01.04.03.1.06.21.08.31,0,.03,0,.05.01.16,0,.1,0,.21,0,.32,0,.21-.03.44-.06.6-.08.48-.2.95-.35,1.41-.25.76-.49,1.49-.96,2.16-.37.53.5,1.03.86.5.47-.68.77-1.53,1.03-2.31.33-.99.61-2.11.41-3.15-.21-1.11-1.17-1.61-2.24-1.46-.56.08-1.06.35-1.35.85s-.32,1.05-.28,1.59c.12,1.55.78,3.04,1.39,4.45.11.25.47.3.68.18.26-.15.29-.44.18-.68h0Z"/>
      </g>
      <g>
        <ellipse class="cls-13" cx="57.89" cy="298.54" rx="14" ry="13.14"/>
        <g class="cls-24">
          <line class="cls-3" x1="40.35" y1="304.41" x2="75.81" y2="304.41"/>
          <line class="cls-3" x1="41.33" y1="293.41" x2="76.78" y2="293.41"/>
          <circle class="cls-5" cx="47.64" cy="298.91" r=".72"/>
          <circle class="cls-5" cx="54.89" cy="298.91" r=".72"/>
          <circle class="cls-5" cx="61.64" cy="298.91" r=".72"/>
          <circle class="cls-5" cx="68.14" cy="298.91" r=".72"/>
        </g>
        <circle cx="57.89" cy="284.95" r="1.77"/>
        <path d="m58.18,283.84c-.47-1.1-.94-2.23-1.17-3.4-.09-.43-.14-.95-.05-1.32.08-.34.23-.55.57-.63.2-.05.39-.06.61-.05.16.01-.08-.02.07.01.05.01.09.02.14.04.03,0,.06.02.09.03-.1-.04.06.04.07.05.11.07-.06-.07.03.02.03.03.06.06.09.09.09.09-.05-.08.02.03.02.02.03.05.04.07.02.04.04.07.06.11-.05-.1,0,.03.01.04.03.1.06.21.08.31,0,.03,0,.05.01.16,0,.1,0,.21,0,.32,0,.21-.03.44-.06.6-.08.48-.2.95-.35,1.41-.25.76-.49,1.49-.96,2.16-.37.53.5,1.03.86.5.47-.68.77-1.53,1.03-2.31.33-.99.61-2.11.41-3.15-.21-1.11-1.17-1.61-2.24-1.46-.56.08-1.06.35-1.35.85s-.32,1.05-.28,1.59c.12,1.55.78,3.04,1.39,4.45.11.25.47.3.68.18.26-.15.29-.44.18-.68h0Z"/>
      </g>
      <g>
        <ellipse class="cls-25" cx="170.35" cy="134.11" rx="14" ry="13.14"/>
        <g class="cls-17">
          <line class="cls-3" x1="152.81" y1="139.98" x2="188.27" y2="139.98"/>
          <line class="cls-3" x1="153.79" y1="128.98" x2="189.24" y2="128.98"/>
          <circle class="cls-5" cx="160.1" cy="134.48" r=".72"/>
          <circle class="cls-5" cx="167.35" cy="134.48" r=".72"/>
          <circle class="cls-5" cx="174.1" cy="134.48" r=".72"/>
          <circle class="cls-5" cx="180.6" cy="134.48" r=".72"/>
        </g>
        <circle cx="170.35" cy="120.52" r="1.77"/>
        <path d="m170.64,119.41c-.47-1.1-.94-2.23-1.17-3.4-.09-.43-.14-.95-.05-1.32.08-.34.23-.55.57-.63.2-.05.39-.06.61-.05.16.01-.08-.02.07.01.05.01.09.02.14.04.03,0,.06.02.09.03-.1-.04.06.04.07.05.11.07-.06-.07.03.02.03.03.06.06.09.09.09.09-.05-.08.02.03.02.02.03.05.04.07.02.04.04.07.06.11-.05-.1,0,.03.01.04.03.1.06.21.08.31,0,.03,0,.05.01.16,0,.1,0,.21,0,.32,0,.21-.03.44-.06.6-.08.48-.2.95-.35,1.41-.25.76-.49,1.49-.96,2.16-.37.53.5,1.03.86.5.47-.68.77-1.53,1.03-2.31.33-.99.61-2.11.41-3.15-.21-1.11-1.17-1.61-2.24-1.46-.56.08-1.06.35-1.35.85s-.32,1.05-.28,1.59c.12,1.55.78,3.04,1.39,4.45.11.25.47.3.68.18.26-.15.29-.44.18-.68h0Z"/>
      </g>
      <g>
        <path class="cls-1" d="m157.9,91.11c-1.59-.04-3.2-.08-4.71-.56s-2.93-1.48-3.56-2.94c-.86-2.01,2.25-3.59,3.32-5.5s.13-4.54.32-6.72c.23-2.61-1.23-5.26-.51-7.77.54-1.86,2.35-3.28,4.29-3.35s3.86,1.21,4.53,3.03c.83,2.23-.13,4.77.48,7.06.34,1.29,1.16,2.4,1.73,3.61,1.22,2.59,1.28,5.7.15,8.33s-3.42,4.74-6.14,5.64c-.09.11-.19.22-.28.34"/>
        <g>
          <ellipse cx="149.09" cy="79.17" rx="2.38" ry="1.12" transform="translate(-7.22 15.44) rotate(-5.79)"/>
          <ellipse cx="146.27" cy="80.3" rx="1.25" ry=".46" transform="translate(-16.04 41.59) rotate(-15.35)"/>
          <ellipse cx="145.87" cy="79.3" rx=".46" ry="1.25" transform="translate(58.19 220.29) rotate(-86.65)"/>
          <ellipse cx="146.17" cy="78.32" rx=".46" ry="1.25" transform="translate(26.22 192.83) rotate(-71.85)"/>
          <ellipse cx="147.5" cy="80.61" rx="1.13" ry=".46" transform="translate(19.14 189.14) rotate(-68.87)"/>
          <ellipse cx="147.21" cy="79.36" rx="1.03" ry="1.45" transform="translate(-7.25 15.25) rotate(-5.79)"/>
        </g>
        <path class="cls-25" d="m152.09,76.67c-1.26.28-2.32,1.3-2.67,2.54s.04,2.66.97,3.55c-1.84,1.1-2.77,3.51-2.17,5.57s2.7,3.57,4.84,3.5c1.94,2.62,5.86,3.54,8.77,2.06s4.46-5.2,3.47-8.31c1.47-1.4,2.13-3.58,1.69-5.56s-1.97-3.67-3.9-4.31"/>
        <g>
          <polygon points="148.27 91.81 146.75 89.96 148.96 88.17 150.47 89.94 148.27 91.81"/>
          <path d="m145.22,87.96c.45-.32,1.46.33,2.26,1.46.8,1.13,1.08,2.3.63,2.62s-3.35-3.76-2.9-4.08Z"/>
        </g>
        <g>
          <polygon points="159.36 95.9 156.98 95.68 157.28 92.85 159.59 93.03 159.36 95.9"/>
          <path d="m154.48,95.34c.09-.54,1.27-.8,2.63-.57,1.36.23,2.39.86,2.3,1.4s-5.02-.29-4.93-.83Z"/>
        </g>
        <g>
          <ellipse cx="167.23" cy="82.35" rx="1.12" ry="2.38" transform="translate(-14.4 124.27) rotate(-39.21)"/>
          <ellipse cx="168.43" cy="85.15" rx=".46" ry="1.25" transform="translate(-20.07 94.46) rotate(-29.65)"/>
          <ellipse cx="169.41" cy="84.72" rx=".46" ry="1.25" transform="translate(-6.48 155) rotate(-48.35)"/>
          <ellipse cx="169.89" cy="83.82" rx=".46" ry="1.25" transform="translate(18.37 197.53) rotate(-63.15)"/>
          <ellipse cx="167.33" cy="84.5" rx="1.13" ry=".46" transform="translate(22.35 203.33) rotate(-66.13)"/>
          <ellipse cx="168.43" cy="83.82" rx="1.45" ry="1.03" transform="translate(-15.06 125.35) rotate(-39.21)"/>
        </g>
        <path class="cls-25" d="m153.39,63.39c2.18-3.65,1.52-4.63,3.63-4.63s2.72,3.27,3.99,5.96c.96,2.02-1.89,2.04-3.99,2.04s-5.22-.71-3.63-3.37Z"/>
        <path class="cls-10" d="m152.27,65.96c.31-1.44,1.71-1.13,4.75-1.13s4.15-.36,4.75.88c.35.72-1.71,1.05-4.75,1.05s-4.96.17-4.75-.8Z"/>
        <ellipse class="cls-10" cx="156.83" cy="59.19" rx="1.23" ry="1.13"/>
        <ellipse class="cls-10" cx="155.6" cy="70.69" rx="1.31" ry="1.13"/>
        <ellipse class="cls-10" cx="157.89" cy="70.69" rx="1.31" ry="1.13"/>
        <path class="cls-5" d="m152.97,66.22c-.03,1.01-.05,2.03.22,3s.87,1.9,1.79,2.31c.64.29,1.37.3,2.08.27.72-.03,1.46-.09,2.12-.39.92-.42,1.6-1.29,1.91-2.26s.25-2.03-.03-3c1.34-.16,2.75.56,3.36,1.75s.38,2.79-.6,3.71c.27-.23.71-.13.95.12s.34.61.41.96c.21,1.1.21,2.26-.13,3.32s-1.04,2.04-2.01,2.59-2.23.64-3.22.12c.04.77-.72,1.32-1.42,1.62-1.55.67-3.29.88-4.96.6-.97-.16-1.94-.5-2.66-1.17s-1.14-1.71-.88-2.66c.29-1.07,1.32-1.75,2.28-2.32-1.35-.17-2.49-1.41-2.55-2.78s.97-2.69,2.3-2.98c-.6-.32-.87-1.15-.58-1.77s1.11-.93,1.74-.66"/>
        <circle cx="158.72" cy="68.95" r=".41"/>
        <circle cx="155.19" cy="68.95" r=".41"/>
        <ellipse class="cls-13" cx="156.58" cy="69.8" rx=".41" ry=".55" transform="translate(36.99 192.62) rotate(-69.79)"/>
      </g>
      <path class="cls-4" d="m55.45,212.03c8.53,83.82,116.15,109.07,162.81,46.95"/>
      <g>
        <circle class="cls-12" cx="192.95" cy="300.73" r="6.75"/>
        <g class="cls-26">
          <g>
            <line class="cls-3" x1="184" y1="302.18" x2="194.25" y2="291.76"/>
            <line class="cls-3" x1="186.52" y1="304.66" x2="196.77" y2="294.23"/>
            <line class="cls-3" x1="189.13" y1="307.22" x2="199.37" y2="296.8"/>
            <line class="cls-3" x1="191.64" y1="309.7" x2="201.89" y2="299.27"/>
            <line class="cls-3" x1="195.8" y1="309.33" x2="183.88" y2="300.86"/>
            <line class="cls-3" x1="197.84" y1="306.45" x2="185.93" y2="297.98"/>
            <line class="cls-3" x1="199.96" y1="303.47" x2="188.05" y2="295"/>
            <line class="cls-3" x1="202.01" y1="300.6" x2="190.09" y2="292.12"/>
          </g>
        </g>
      </g>
      <circle class="cls-21" cx="192.95" cy="293.04" r="1.77"/>
      <path class="cls-21" d="m193.23,291.92c-.47-1.1-.94-2.23-1.17-3.4-.09-.43-.14-.95-.05-1.32.08-.34.23-.55.57-.63.2-.05.39-.06.61-.05.16.01-.08-.02.07.01.05.01.09.02.14.04.03,0,.06.02.09.03-.1-.04.06.04.07.05.11.07-.06-.07.03.02.03.03.06.06.09.09.09.09-.05-.08.02.03.02.02.03.05.04.07.02.04.04.07.06.11-.05-.1,0,.03.01.04.03.1.06.21.08.31,0,.03,0,.05.01.16,0,.1,0,.21,0,.32,0,.21-.03.44-.06.6-.08.48-.2.95-.35,1.41-.25.76-.49,1.49-.96,2.16-.37.53.5,1.03.86.5.47-.68.77-1.53,1.03-2.31.33-.99.61-2.11.41-3.15-.21-1.11-1.17-1.61-2.24-1.46-.56.08-1.06.35-1.35.85s-.32,1.05-.28,1.59c.12,1.55.78,3.04,1.39,4.45.11.25.47.3.68.18.26-.15.29-.44.18-.68h0Z"/>
      <path class="cls-10" d="m101.63,147.97l1.03,3.05c.21.62.78,1.03,1.43,1.03h3.2c1.48,0,2.08,1.91.87,2.75l-2.49,1.74c-.55.39-.78,1.09-.57,1.72l.97,2.89c.47,1.38-1.1,2.56-2.3,1.72l-2.71-1.9c-.52-.36-1.21-.36-1.74,0l-2.71,1.9c-1.2.84-2.77-.34-2.3-1.72l.97-2.89c.21-.64-.02-1.34-.57-1.72l-2.49-1.74c-1.21-.85-.61-2.75.87-2.75h3.2c.65,0,1.23-.41,1.43-1.03l1.03-3.05c.46-1.37,2.41-1.37,2.87,0Z"/>
      <path class="cls-10" d="m173.94,229.3l1.03,3.05c.21.62.78,1.03,1.43,1.03h3.2c1.48,0,2.08,1.91.87,2.75l-2.49,1.74c-.55.39-.78,1.09-.57,1.72l.97,2.89c.47,1.38-1.1,2.56-2.3,1.72l-2.71-1.9c-.52-.36-1.21-.36-1.74,0l-2.71,1.9c-1.2.84-2.77-.34-2.3-1.72l.97-2.89c.21-.64-.02-1.34-.57-1.72l-2.49-1.74c-1.21-.85-.61-2.75.87-2.75h3.2c.65,0,1.23-.41,1.43-1.03l1.03-3.05c.46-1.37,2.41-1.37,2.87,0Z"/>
      <circle class="cls-10" cx="138.37" cy="293.08" r="4.77"/>
      <circle class="cls-13" cx="118.15" cy="89.33" r="4.77"/>
      <circle class="cls-13" cx="207.54" cy="270.81" r="4.77"/>
      <circle class="cls-25" cx="108.8" cy="192.61" r="4.77"/>
      <circle class="cls-21" cx="172.5" cy="167.55" r="4.77"/>
      <circle class="cls-25" cx="154.01" cy="106.91" r="4.77"/>
      <circle class="cls-18" cx="72.01" cy="256.23" r="4.77"/>
    </g>
  </g>
</svg>