<?xml version="1.0" encoding="UTF-8"?>
<svg id="_レイヤー_2" data-name="レイヤー 2" xmlns="http://www.w3.org/2000/svg" viewBox="0 0 290.85 280.43">
  <defs>
    <style>
      .cls-1, .cls-2, .cls-3, .cls-4 {
        fill: #fff;
      }

      .cls-1, .cls-3, .cls-4, .cls-5, .cls-6, .cls-7, .cls-8, .cls-9, .cls-10, .cls-11, .cls-12 {
        stroke: #000;
      }

      .cls-1, .cls-3, .cls-9, .cls-10 {
        stroke-linejoin: round;
      }

      .cls-1, .cls-13 {
        stroke-linecap: round;
      }

      .cls-1, .cls-8, .cls-9, .cls-11, .cls-12 {
        stroke-width: 1.5px;
      }

      .cls-14, .cls-8 {
        fill: #8cc63f;
      }

      .cls-3, .cls-4, .cls-5, .cls-6, .cls-7, .cls-10 {
        stroke-width: 1.5px;
      }

      .cls-4, .cls-5, .cls-13, .cls-6, .cls-7, .cls-8, .cls-11, .cls-12 {
        stroke-miterlimit: 10;
      }

      .cls-5, .cls-15 {
        fill: #adadad;
      }

      .cls-13 {
        stroke: #fff;
        stroke-dasharray: 0 0 0 0 0 0 0 6 0 6 0 6;
        stroke-width: 2px;
      }

      .cls-13, .cls-6, .cls-10, .cls-12 {
        fill: none;
      }

      .cls-9, .cls-16 {
        fill: #fff069;
      }

      .cls-17 {
        fill: #fff64a;
      }

      .cls-11, .cls-18 {
        fill: #e74268;
      }

      .cls-19 {
        fill: #f4c544;
      }
    </style>
  </defs>
  <g id="_レイヤー_16" data-name="レイヤー 16">
    <g>
      <path class="cls-5" d="m48.17,193.14h4.24v73h-4.24c-2.34,0-4.24-1.9-4.24-4.24v-64.52c0-2.34,1.9-4.24,4.24-4.24Z" transform="translate(71.37 -3.85) rotate(17.52)"/>
      <path class="cls-5" d="m180.42,207.23h4.24c2.34,0,4.24,1.9,4.24,4.24v64.52c0,2.34-1.9,4.24-4.24,4.24h-4.24v-73h0Z" transform="translate(-41.97 38.44) rotate(-10.68)"/>
      <path class="cls-5" d="m228.52,151.91h4.24c2.34,0,4.24,1.9,4.24,4.24v64.52c0,2.34-1.9,4.24-4.24,4.24h-4.24v-73h0Z" transform="translate(-45.93 78.82) rotate(-17.52)"/>
      <path class="cls-7" d="m1.08,163.73c-5.74-30.95,64.49-57,144.04-57s151.29,26.37,144.04,57c-7.7,32.54-64.49,57-144.04,57S7.02,195.77,1.08,163.73Z"/>
      <path class="cls-4" d="m1.08,158.38c-2.55-31.38,64.49-57,144.04-57s149.6,26.01,144.04,57c-6.19,34.51-64.49,57-144.04,57S3.5,188.17,1.08,158.38Z"/>
      <g>
        <g>
          <path class="cls-2" d="m140.2,113.74c.7-11.44.86-25.81,1.56-37.25.14-2.3.35-7.49-.09-9.67-.97-4.78-13.21-16.88-15.84-13.55-1.3,1.65-3.92-.01-5.55,2.05-2.11,2.68-2.31,9.44-2.17,13.46.48,14.09-.16,24.49.19,34.56.05,1.49-.98,9.31.13,10.05,7.02,4.65,16.02,4.83,21.76.49"/>
          <path d="m140.95,113.74c.42-6.91.62-13.83.85-20.75.12-3.44.24-6.88.39-10.31.13-2.91.34-5.82.44-8.73.05-1.39.08-2.77.04-4.16-.03-1.09-.05-2.24-.31-3.3-.37-1.55-1.35-2.99-2.28-4.26-2.48-3.4-5.62-6.64-9.2-8.87-1.16-.72-2.62-1.53-4.04-1.38-.71.07-1.16.4-1.64.89-.76.78-2.21.48-3.2.65-2.64.46-3.55,3.33-4.02,5.62-.55,2.67-.68,5.44-.65,8.16.03,3.48.19,6.96.21,10.44s0,6.7-.03,10.05c-.03,2.97-.07,5.95-.06,8.92,0,1.45.01,2.89.04,4.34.02,1.02.1,2.05.04,3.07-.11,2.05-.34,4.08-.36,6.14,0,.88-.01,1.79.19,2.65.24,1.03,1.06,1.41,1.92,1.91,5.26,3.01,12,4.02,17.72,1.72,1.27-.51,2.47-1.16,3.57-1.99.76-.57.02-1.87-.76-1.29-4.66,3.48-10.93,3.74-16.29,1.87-1.47-.51-2.88-1.2-4.2-2.02-.12-.07-.23-.15-.35-.22-.35-.22-.11-.08-.03.03-.13-.17-.05-.03-.1-.21-.09-.33-.12-.59-.15-.92-.15-2,.06-4.04.21-6.03s.08-3.95.05-5.95c-.04-2.83-.02-5.67,0-8.5.06-6.44.14-12.88-.02-19.32-.07-2.88-.21-5.75-.01-8.63.16-2.33.39-5.01,1.61-7.07.64-1.07,1.52-1.32,2.7-1.38s2.25-.18,3.11-1.09c.04-.04.28-.29.15-.17.04-.04.3-.16.13-.09.11-.05.23-.07.35-.09-.18.03.19,0,.25,0,.21,0,.37.04.69.13s.62.21.91.35c1.63.77,3.09,1.92,4.45,3.11,1.56,1.37,3.01,2.86,4.34,4.46,1.12,1.35,2.21,2.79,2.94,4.4s.63,3.81.62,5.63c-.02,2.54-.19,5.06-.32,7.59-.17,3.29-.3,6.58-.42,9.87-.24,6.75-.42,13.51-.75,20.26-.07,1.5-.15,3-.24,4.49-.06.96,1.44.96,1.5,0h0Z"/>
        </g>
        <path d="m137.59,66.84c-.78.99-2.16.78-3.25.51-1.28-.33-2.5-.87-3.66-1.49-1.09-.58-1.88-1.28-2.63-2.27-1.07-1.41-2-3-2.67-4.64-.36-.88-1.81-.5-1.45.4.6,1.47,1.35,2.86,2.23,4.18.74,1.09,1.57,2.24,2.66,3,.81.57,1.76,1,2.66,1.39,1.17.51,2.38.95,3.66,1.11s2.67-.06,3.5-1.12c.59-.75-.46-1.82-1.06-1.06h0Z"/>
        <g>
          <path class="cls-16" d="m131,66.16c-1.72-.84-.92-4.34-.59-6.18.28-1.55-1.5-3.64.6-6.32.71,1.86,2.22,3.21,3.07,4.11s1.08,1.47,1.27,2.78c.21,1.45-.34,2.93-1.2,4.01-.86,1.08-1.5,1.79-2.97,1.54"/>
          <path d="m131.37,65.51c-.75-.4-.72-1.49-.69-2.22.04-1.01.25-2,.42-2.99s-.09-1.81-.27-2.73c-.27-1.33,0-2.44.81-3.53l-1.37-.18c.51,1.27,1.28,2.35,2.21,3.34.69.74,1.59,1.42,1.9,2.41.41,1.33.27,2.7-.44,3.9-.55.93-1.38,2.02-2.58,1.85-.4-.06-.8.1-.92.52-.1.35.12.86.52.92,1.57.23,2.62-.39,3.59-1.58,1.04-1.29,1.73-2.89,1.55-4.58-.16-1.46-.66-2.55-1.68-3.6s-2.12-2.16-2.69-3.58c-.25-.63-.97-.71-1.37-.18-.93,1.23-1.28,2.63-1.06,4.16.08.55.23,1.09.33,1.64.09.47.02.87-.07,1.34-.35,1.91-1.1,5.23,1.06,6.39.85.46,1.61-.84.76-1.29h0Z"/>
        </g>
        <g>
          <path class="cls-2" d="m132.95,113.56l-.51-23.15c-.03-1.55-.06-3.15.48-4.6.56-1.48,1.66-2.69,2.79-3.79,2.26-2.2,4.81-4.21,7.82-5.16,2.61-.82,5.4-.8,8.14-.76,2.1.03,4.42.13,5.95,1.57,1.98,1.87,1.74,5.02,1.41,7.72-1.13,9.46-1.34,19-1.96,28.51-.07,1-.16,2.07-.78,2.87-.64.82-1.7,1.18-2.71,1.43-6.62,1.64-13.86.61-19.76-2.81"/>
          <path d="m133.7,113.56l-.27-12.57-.14-6.35c-.04-2.04-.18-4.09-.09-6.13s.75-3.5,2.04-4.93c1.17-1.3,2.49-2.51,3.89-3.55s3.01-1.97,4.72-2.5c1.93-.59,3.94-.7,5.94-.71,2.96-.02,7.31-.37,8.4,3.18.46,1.49.34,3.11.18,4.65-.21,2-.45,4-.62,6-.36,4.13-.6,8.27-.82,12.42-.11,2.09-.22,4.18-.33,6.28-.06,1.03-.12,2.05-.18,3.08-.06.95-.04,1.96-.27,2.89-.43,1.76-2.25,2.08-3.79,2.39-1.76.36-3.55.52-5.35.5-3.58-.03-7.19-.79-10.46-2.27-.8-.36-1.58-.76-2.34-1.2-.84-.48-1.59.81-.76,1.29,3.33,1.91,7.01,3.08,10.82,3.51,1.92.21,3.86.22,5.78.02,1.79-.19,3.75-.44,5.4-1.22,1.77-.84,2.23-2.53,2.36-4.34.16-2.25.27-4.5.39-6.74.24-4.47.45-8.94.78-13.41.17-2.25.36-4.5.6-6.75.19-1.8.5-3.62.39-5.43-.1-1.64-.56-3.29-1.76-4.47-1.28-1.25-3.06-1.66-4.79-1.79-1.97-.15-4.01-.14-5.98,0s-4.06.57-5.94,1.44c-1.74.81-3.32,1.95-4.76,3.2s-2.82,2.52-3.81,4.09c-1.09,1.73-1.27,3.71-1.24,5.71.03,2.26.1,4.52.15,6.78l.3,13.57.07,3.36c.02.96,1.52.97,1.5,0h0Z"/>
        </g>
        <path d="m137.92,88.61c6.92,1.3,13.99-2.22,16.97-8.64.4-.87-.89-1.63-1.29-.76-2.68,5.78-8.97,9.13-15.28,7.95-.94-.18-1.35,1.27-.4,1.45h0Z"/>
        <g>
          <path class="cls-16" d="m143.98,85.96c-1.67-.82-.68-3.85-.25-5.45.36-1.34-1.29-3.27.95-5.51.61,1.67,2.03,2.92,2.84,3.75s1,1.35,1.11,2.5c.13,1.28-.5,2.55-1.42,3.45s-1.6,1.49-3.05,1.2"/>
          <path d="m144.36,85.31c-.67-.36-.6-1.26-.53-1.92.1-.9.4-1.76.61-2.63.2-.83-.04-1.61-.16-2.43-.17-1.11.15-1.99.93-2.79l-1.25-.33c.44,1.16,1.16,2.14,2.01,3.04.64.68,1.54,1.31,1.79,2.25.32,1.21.04,2.41-.77,3.36-.7.82-1.49,1.53-2.62,1.33-.94-.17-1.35,1.28-.4,1.45,1.45.26,2.51-.19,3.56-1.18,1.12-1.07,1.98-2.52,1.87-4.12-.09-1.37-.58-2.35-1.54-3.32s-1.95-1.92-2.44-3.21c-.19-.5-.83-.77-1.25-.33-.96,1-1.53,2.22-1.4,3.62.08.91.4,1.72.16,2.59-.49,1.78-1.4,4.8.7,5.92.85.46,1.61-.84.76-1.29h0Z"/>
        </g>
      </g>
      <g>
        <path d="m167.52,67.22c-3.35,11.46-2.97,23.63-2.56,35.55.19,5.4-.5,10.05-.32,15.45.04,1.04-.73,3.1-.15,3.96,1.05,1.54,5.2,1.44,7,1.93,0,0,8,.06,12.22-.1,1.09-.04,2.52-1.07,3.37-1.75.95-.75,1.37-2.03,1.46-3.24,1.24-16.76,2.49-28.89,1.62-45-.17-3.08-2.19-7.62-4.17-9.99-2-2.39-5.37-3.33-8.47-2.95s-5.94,1.91-8.44,3.77"/>
        <path class="cls-2" d="m171.38,54.79c-1.74,3.77-2.92,7.8-3.49,11.92,1.39,1.78,2.8,3.59,4.58,4.99s3.97,2.4,6.23,2.31c4.22-.18,7.32-3.87,9.86-7.25-1.12-4.23-.62-9.21-3.57-12.44-1.76-1.93-4.53-2.8-7.13-2.52s-5.02,1.6-6.9,3.42"/>
        <path class="cls-17" d="m170.45,56.68c1.95-7.75,2.46-12.68,3.54-19.97-1.4-.9-.3-4.55.15-7.59.26-1.78-.96-3.27.4-4.45s7.99-1.46,9.61.36-.54,3.85-.03,6.14c1.14,5.13.53,4.35-.72,6.33.77,7.75,1.06,11.68,2.6,18.24-2.1,2.25-4.01,3.35-7.08,3.25s-6.57-.6-8.51-2.98"/>
        <path class="cls-19" d="m165.06,108.6c0-8.25-.07-17.9-.87-23.96,6.93,2.33,18.71,1.68,25.98-.24-.5,8.18-.25,18.62-.88,25-7.02,3.99-18.13,3.31-24.22-.79Z"/>
        <path d="m174.05,36.09c-.57-.62-.47-1.57-.34-2.34.17-1.05.39-2.09.51-3.16.13-1.2.18-2.42.14-3.63-.02-.47-.16-1.13.04-1.58.18-.41.68-.58,1.08-.7,2.01-.62,4.21-.55,6.19.12.73.24,2.09.62,1.89,1.6-.23,1.15-.49,2.27-.58,3.44-.11,1.25-.09,2.51.06,3.76.11.94.66,2.62-.47,3.15-.87.41-.11,1.7.76,1.29,1.11-.52,1.48-1.79,1.4-2.93-.1-1.46-.36-2.86-.31-4.33s.39-2.79.63-4.21c.21-1.25-.55-2.14-1.62-2.67-2.35-1.14-5.1-1.42-7.64-.85-1.08.24-2.29.64-2.76,1.74-.26.62-.21,1.28-.18,1.93.03.77.03,1.53,0,2.3-.07,1.56-.4,3.06-.62,4.6-.18,1.27-.13,2.53.77,3.53.65.72,1.71-.35,1.06-1.06h0Z"/>
        <path d="m182.18,37.4c.03,11.09,3.73,21.79,5.8,32.59s1.51,22.05.68,33.06c-.48,6.36-1.09,12.72-1.48,19.08-.06.96,1.44.96,1.5,0,.71-11.38,2.09-22.73,2.23-34.15.06-5.38-.18-10.76-1.07-16.08s-2.31-10.84-3.53-16.25c-1.36-5.99-2.61-12.08-2.63-18.26,0-.96-1.5-.97-1.5,0h0Z"/>
        <path d="m172.77,36.62c-.13,5.04-1.16,10.02-2.35,14.91s-2.71,10.07-4,15.13-2.29,10.56-2.55,16.01c-.28,5.95-.11,11.92-.08,17.87.04,6.84.07,13.69.11,20.53,0,.96,1.5.97,1.5,0-.03-6.1-.07-12.2-.1-18.29s-.17-11.96-.02-17.94c.08-2.99.26-5.98.7-8.94.37-2.51.92-4.99,1.53-7.45,1.23-5.04,2.71-10.03,3.98-15.06,1.39-5.49,2.62-11.1,2.77-16.77.02-.97-1.47-.96-1.5,0h0Z"/>
        <path d="m163.84,122.56c.53.99,2,1.32,2.99,1.56,1.83.44,3.72.63,5.59.77,4.1.3,8.4.34,12.45-.49,1.23-.25,3.07-.64,3.71-1.88.44-.86-.85-1.62-1.29-.76-.02.04-.04.08-.06.11-.1.13.12-.13,0,0-.07.07-.14.14-.22.21.15-.13-.07.05-.12.08-.13.07-.26.14-.39.21-.13.06-.38.16-.65.24-.36.12-.73.21-1.1.29-1.7.38-3.45.52-5.19.6-3.82.17-7.79.09-11.55-.65-.71-.14-1.42-.31-2.1-.56-.02,0-.23-.09-.07-.02-.07-.03-.15-.06-.22-.1-.1-.05-.19-.1-.29-.16-.22-.13.04.05-.14-.11s.04.11-.06-.08c-.46-.85-1.75-.09-1.29.76h0Z"/>
        <path d="m169.39,58.83c2.6,1.67,5.51,2.94,8.62,3.2s5.94-.64,8.37-2.39c.78-.56.03-1.86-.76-1.29-2.25,1.62-4.84,2.41-7.61,2.19s-5.5-1.47-7.86-2.99c-.81-.52-1.57.77-.76,1.29h0Z"/>
        <path d="m169.71,56.27c2.35,1.67,5.04,2.97,7.95,3.2s5.48-.77,7.68-2.52c.76-.6-.31-1.65-1.06-1.06-1.96,1.55-4.32,2.31-6.81,2.06s-4.93-1.51-7-2.98c-.79-.56-1.54.74-.76,1.29h0Z"/>
        <path d="m167.25,64.35c2.24,3.27,5.22,6.72,9.24,7.72,2.98.74,5.89-.24,8.2-2.17,1.47-1.23,2.65-2.79,3.62-4.42.49-.83-.8-1.59-1.29-.76-1.41,2.37-3.37,4.73-6.05,5.69s-5.44.1-7.68-1.58c-1.89-1.41-3.42-3.3-4.74-5.23-.54-.79-1.84-.04-1.29.76h0Z"/>
        <path d="m177.38,28.26h2.76c.39,0,.77-.34.75-.75s-.33-.75-.75-.75h-2.76c-.39,0-.77.34-.75.75s.33.75.75.75h0Z"/>
        <path d="m177.38,37.26h2.76c.39,0,.77-.34.75-.75s-.33-.75-.75-.75h-2.76c-.39,0-.77.34-.75.75s.33.75.75.75h0Z"/>
      </g>
      <g>
        <path d="m187.64,72.69c-3.35,11.46-2.97,23.63-2.56,35.55.19,5.4.37,10.8.56,16.2.04,1.04-.79,2.81-.21,3.66,1.05,1.54,4.38.98,6.19,1.47,0,0,8,.06,12.22-.1,1.09-.04,3.57-.76,4.43-1.44.95-.75.31-2.34.4-3.55,1.24-16.76,2.49-28.89,1.62-45-.17-3.08-2.19-7.62-4.17-9.99-2-2.39-5.37-3.33-8.47-2.95s-5.94,1.91-8.44,3.77"/>
        <path class="cls-2" d="m191.5,60.25c-1.74,3.77-2.92,7.8-3.49,11.92,1.39,1.78,2.8,3.59,4.58,4.99s3.97,2.4,6.23,2.31c4.22-.18,7.32-3.87,9.86-7.25-1.12-4.23-.62-9.21-3.57-12.44-1.76-1.93-4.53-2.8-7.13-2.52s-5.02,1.6-6.9,3.42"/>
        <path class="cls-17" d="m190.57,62.14c2.37-7.27,3.54-19.97,3.54-19.97,0,0-.3-4.55.15-7.59.26-1.78-.96-3.27.4-4.45s7.99-1.46,9.61.36-.54,3.85-.03,6.14c1.14,5.13.53,4.35-.72,6.33.77,7.75,1.06,11.68,2.6,18.24-2.1,2.25-4.01,3.35-7.08,3.25s-6.57-.6-8.51-2.98"/>
        <path class="cls-19" d="m185.18,114.06c0-8.25-.07-17.9-.87-23.96,6.93,2.33,18.71,1.68,25.98-.24-.5,8.18-.25,18.62-.88,25-7.02,3.99-18.13,3.31-24.22-.79Z"/>
        <path d="m194.64,41.64c-.57-.62-.47-1.57-.34-2.34.17-1.05.39-2.09.51-3.16.13-1.2.18-2.42.14-3.63-.02-.47-.16-1.13.04-1.58.18-.41.68-.58,1.08-.7,2.01-.62,4.21-.55,6.19.12.73.24,2.09.62,1.89,1.6-.23,1.15-.49,2.27-.58,3.44-.11,1.25-.09,2.51.06,3.76.11.94.66,2.62-.47,3.15-.87.41-.11,1.7.76,1.29,1.11-.52,1.48-1.79,1.4-2.93-.1-1.46-.36-2.86-.31-4.33s.39-2.79.63-4.21c.21-1.25-.55-2.14-1.62-2.67-2.35-1.14-5.1-1.42-7.64-.85-1.08.24-2.29.64-2.76,1.74-.26.62-.21,1.28-.18,1.93.03.77.03,1.53,0,2.3-.07,1.56-.4,3.06-.62,4.6-.18,1.27-.13,2.53.77,3.53.65.72,1.71-.35,1.06-1.06h0Z"/>
        <path d="m202.77,42.96c.03,11.09,3.73,21.79,5.8,32.59s1.51,22.05.68,33.06c-.48,6.36-1.09,12.72-1.48,19.08-.06.96,1.44.96,1.5,0,.71-11.38,2.09-22.73,2.23-34.15.06-5.38-.18-10.76-1.07-16.08s-2.31-10.84-3.53-16.25c-1.36-5.99-2.61-12.08-2.63-18.26,0-.96-1.5-.97-1.5,0h0Z"/>
        <path d="m193.36,42.17c-.13,5.04-1.16,10.02-2.35,14.91s-2.71,10.07-4,15.13-2.29,10.56-2.55,16.01c-.28,5.95-.11,11.92-.08,17.87.04,6.84.07,13.69.11,20.53,0,.96,1.5.97,1.5,0-.03-6.1-.07-12.2-.1-18.29s-.17-11.96-.02-17.94c.08-2.99.26-5.98.7-8.94.37-2.51.92-4.99,1.53-7.45,1.23-5.04,2.71-10.03,3.98-15.06,1.39-5.49,2.62-11.1,2.77-16.77.02-.97-1.47-.96-1.5,0h0Z"/>
        <path d="m184.43,128.11c.53.99,2,1.32,2.99,1.56,1.83.44,3.72.63,5.59.77,4.1.3,8.4.34,12.45-.49,1.23-.25,3.07-.64,3.71-1.88.44-.86-.85-1.62-1.29-.76-.02.04-.04.08-.06.11-.1.13.12-.13,0,0-.07.07-.14.14-.22.21.15-.13-.07.05-.12.08-.13.07-.26.14-.39.21-.13.06-.38.16-.65.24-.36.12-.73.21-1.1.29-1.7.38-3.45.52-5.19.6-3.82.17-7.79.09-11.55-.65-.71-.14-1.42-.31-2.1-.56-.02,0-.23-.09-.07-.02-.07-.03-.15-.06-.22-.1-.1-.05-.19-.1-.29-.16-.22-.13.04.05-.14-.11s.04.11-.06-.08c-.46-.85-1.75-.09-1.29.76h0Z"/>
        <path d="m190.59,61.64c2.35,1.67,5.04,2.97,7.95,3.2s5.48-.77,7.68-2.52c.76-.6-.31-1.65-1.06-1.06-1.96,1.55-4.32,2.31-6.81,2.06s-4.93-1.51-7-2.98c-.79-.56-1.54.74-.76,1.29h0Z"/>
        <path d="m189.78,63.96c2.55,1.64,5.42,2.87,8.49,3.03s5.84-.83,8.23-2.56c.78-.56.03-1.86-.76-1.29-2.21,1.59-4.74,2.5-7.48,2.35s-5.41-1.33-7.73-2.83c-.81-.52-1.57.77-.76,1.29h0Z"/>
        <path d="m188.31,71.56c2.22,2.95,5.15,6.21,8.99,6.86,2.92.49,5.59-.78,7.66-2.78,1.37-1.32,2.49-2.9,3.45-4.53.49-.83-.8-1.59-1.29-.76-1.4,2.37-3.19,4.78-5.71,6.02-2.37,1.17-4.91.62-7.05-.8-1.87-1.24-3.41-2.99-4.75-4.77-.57-.76-1.88-.02-1.29.76h0Z"/>
        <path d="m197.91,33.89h2.76c.39,0,.77-.34.75-.75s-.33-.75-.75-.75h-2.76c-.39,0-.77.34-.75.75s.33.75.75.75h0Z"/>
        <path d="m197.91,42.89h2.76c.39,0,.77-.34.75-.75s-.33-.75-.75-.75h-2.76c-.39,0-.77.34-.75.75s.33.75.75.75h0Z"/>
      </g>
      <g>
        <path class="cls-2" d="m222.08,132.6l-8.65-3.23-.12-19.24c3.94-.88,6.87-4.4,6.84-8.6l-.16-24.74-17.52.11.16,24.74c.03,4.28,3.12,7.81,7.18,8.56l.12,19.21-8.58,3.34c-1.23.48-.88,2.3.44,2.3l19.89-.13c1.32,0,1.64-1.84.41-2.3Z"/>
        <path class="cls-16" d="m220.2,100.84l-.26-13.89h-18.24s1.07,14.22,1.07,14.22c.09,4.7,4.06,8.44,8.88,8.34h0c4.81-.09,8.64-3.98,8.55-8.67Z"/>
        <path class="cls-10" d="m222.08,132.6l-8.65-3.23-.12-19.24c3.94-.88,6.87-4.4,6.84-8.6l-.16-24.74-17.52.11.16,24.74c.03,4.28,3.12,7.81,7.18,8.56l.12,19.21-8.58,3.34c-1.23.48-.88,2.3.44,2.3l19.89-.13c1.32,0,1.64-1.84.41-2.3Z"/>
      </g>
      <g>
        <path class="cls-2" d="m242.58,127.46l-8.65-3.23-.12-19.24c3.94-.88,6.87-4.4,6.84-8.6l-.16-24.74-17.52.11.16,24.74c.03,4.28,3.12,7.81,7.18,8.56l.12,19.21-8.58,3.34c-1.23.48-.88,2.3.44,2.3l19.89-.13c1.32,0,1.64-1.84.41-2.3Z"/>
        <path class="cls-16" d="m240.7,95.69l-.26-13.89h-18.24s1.07,14.22,1.07,14.22c.09,4.7,4.06,8.44,8.88,8.34h0c4.81-.09,8.64-3.98,8.55-8.67Z"/>
        <path class="cls-10" d="m242.58,127.46l-8.65-3.23-.12-19.24c3.94-.88,6.87-4.4,6.84-8.6l-.16-24.74-17.52.11.16,24.74c.03,4.28,3.12,7.81,7.18,8.56l.12,19.21-8.58,3.34c-1.23.48-.88,2.3.44,2.3l19.89-.13c1.32,0,1.64-1.84.41-2.3Z"/>
      </g>
      <g>
        <path class="cls-2" d="m234.21,139.06l-8.65-3.23-.12-19.24c3.94-.88,6.87-4.4,6.84-8.6l-.16-24.74-17.52.11.16,24.74c.03,4.28,3.12,7.81,7.18,8.56l.12,19.21-8.58,3.34c-1.23.48-.88,2.3.44,2.3l19.89-.13c1.32,0,1.64-1.84.41-2.3Z"/>
        <path class="cls-16" d="m232.33,107.29l-.26-13.89h-18.24s1.07,14.22,1.07,14.22c.09,4.7,4.06,8.44,8.88,8.34h0c4.81-.09,8.64-3.98,8.55-8.67Z"/>
        <path class="cls-10" d="m234.21,139.06l-8.65-3.23-.12-19.24c3.94-.88,6.87-4.4,6.84-8.6l-.16-24.74-17.52.11.16,24.74c.03,4.28,3.12,7.81,7.18,8.56l.12,19.21-8.58,3.34c-1.23.48-.88,2.3.44,2.3l19.89-.13c1.32,0,1.64-1.84.41-2.3Z"/>
      </g>
      <g>
        <ellipse class="cls-15" cx="156.86" cy="137.67" rx="33.3" ry="15.12"/>
        <ellipse class="cls-2" cx="156.93" cy="137.59" rx="30.21" ry="12.25"/>
        <ellipse class="cls-12" cx="156.86" cy="137.67" rx="33.3" ry="15.12"/>
        <g>
          <g>
            <path class="cls-19" d="m128.97,119.06c-1.71.31-.77,1.73-1.52,3.21.53.8,1.17,1.73,1.55,2.76.2.52.25,1.09.47,1.61.39.91.4,1.6,1.61,2.02-1.33,1.17.99,3.47-.38,4.58-.53.43-1.39.47-1.71,1.07-.4.75.39,1.59.52,2.43.19,1.22-1.03,2.33-.85,3.55.1.65.57,1.16,1.02,1.63.83.87,1.66,1.74,2.48,2.61.59.62,1.22,1.27,2.03,1.55.58.2,1.23.21,1.75.53.88.54,1.22,1.86,2.24,2.06,1.17.22,1.96-1.25,3.1-1.58,1.08-.32,2.22.45,3.34.28,1.18-.18,1.99-1.34,3.14-1.64,1.51-.39,3.44.71,4.51-.42.41-.44.53-1.09.93-1.54.98-1.08,3.07-.39,3.98-1.54.65-.83.23-2.08.63-3.06.46-1.15,2.01-1.88,1.84-3.11-.1-.68-.72-1.16-1.02-1.78-.66-1.36.29-3.17-.56-4.42-.57-.85-1.75-1.08-2.37-1.89-.89-1.17-.53-3.37-1.95-3.77-.62-.17-1.28.15-1.92.08-1.23-.13-2.01-1.66-3.26-1.67-1.88,0-1.95,2.98-3.43,4.13-.66.52-1.61.64-2.15,1.28-.63.74-.51,1.94-1.19,2.64-.38.38-.92.54-1.44.67-1.02.27-2.03.53-3.05.8-.21.06-.44.11-.63,0-.3-.16-.31-.58-.27-.91.31-2.94.12-2.91.04-4.56-.01-.25,1.93-2.35,1.94-2.59.02-.37-.68-2.28-.81-2.62-.43-1.17.31-1.48.32-2.88-.88-.15-1.47-.81-1.95-1.43s-1.01-1.43-1.79-1.36c-.38.03-.74.29-1.12.25-.41-.04-.7-.4-1.08-.56-1.29-.56-2.59,2.06-2.89,3.43"/>
            <path d="m128.77,118.34c-1.09.23-1.58.96-1.69,2.02-.05.48-.06.95-.22,1.4-.12.34-.22.54-.06.89.14.29.38.57.55.84.39.61.77,1.24.99,1.93.19.59.32,1.18.54,1.75.41,1.09.87,1.77,2,2.2l-.33-1.26c-.6.58-.72,1.35-.58,2.15.11.64.5,1.35.43,2-.07.69-1.18.77-1.64,1.16-.92.78-.61,1.82-.21,2.78.2.48.28.84.11,1.34s-.41.93-.58,1.42c-.37,1.05-.15,2.02.54,2.88.78.98,1.73,1.86,2.59,2.76.77.81,1.53,1.69,2.59,2.1.5.2,1.07.21,1.57.43.42.18.67.58.94.93.53.7,1.15,1.34,2.09,1.35s1.62-.65,2.31-1.18c.35-.27.69-.49,1.14-.5.6,0,1.18.23,1.77.32,1.1.17,1.98-.17,2.87-.79.39-.27.77-.58,1.21-.76.47-.19.97-.15,1.46-.1.98.1,2.01.34,2.94-.11.4-.19.72-.49.96-.85.27-.4.38-.96.75-1.28.6-.52,1.69-.41,2.42-.59.91-.23,1.64-.81,1.92-1.73s-.04-2.02.58-2.86c.53-.72,1.31-1.27,1.56-2.17.29-1.03-.28-1.76-.83-2.56-.6-.87-.3-1.91-.31-2.89,0-1.07-.34-2-1.2-2.66-.69-.53-1.59-.81-1.94-1.66-.59-1.44-.56-3.57-2.62-3.66-.54-.02-1.1.23-1.63.11-.4-.09-.75-.4-1.07-.65-.71-.56-1.46-1.09-2.41-.99-1.67.18-2.18,1.93-2.85,3.2-.16.31-.33.62-.57.87-.34.37-.82.54-1.26.74-.97.45-1.55,1.11-1.86,2.13-.12.41-.18.92-.47,1.25-.33.39-.92.47-1.39.6-.63.16-1.25.33-1.88.49-.26.07-.72.1-.94.25l-.16.04.21.17s0-.39,0-.39c.1-1.42.2-2.76.07-4.18-.01-.13.01-.37-.09-.1.03-.08.11-.17.16-.24.17-.24.37-.47.56-.7.38-.46.84-.92,1.13-1.45.31-.56.01-1.24-.17-1.8-.19-.59-.56-1.26-.63-1.88-.03-.31.1-.6.2-.89.15-.46.23-.93.25-1.42.01-.31-.24-.66-.55-.72-1.29-.28-1.7-1.68-2.68-2.4-.49-.36-1.06-.5-1.65-.36-.31.07-.53.24-.83.1s-.51-.37-.83-.47c-2.06-.67-3.41,2.46-3.76,3.97-.22.94,1.23,1.34,1.45.4.19-.82.54-1.64,1.05-2.32.14-.19.43-.59.69-.62.32-.05.75.43,1.06.53.24.08.48.11.74.08.28-.03.57-.21.84-.22.45-.02.79.54,1.03.85.67.87,1.38,1.67,2.5,1.91l-.55-.72c-.03.78-.48,1.48-.46,2.27.02.66.34,1.3.55,1.91.11.32.22.65.31.98.02.09.08.32.08.32,0,0,.22-.42-.01-.15-.37.43-.72.89-1.07,1.33-.31.38-.76.82-.84,1.33s.07,1.13.1,1.67c.03.64,0,1.29-.05,1.93-.07.85-.39,2.11.54,2.63.46.26.97.13,1.45,0,.63-.16,1.25-.33,1.88-.49.98-.26,2.13-.43,2.82-1.24.29-.34.46-.75.6-1.17s.2-.99.49-1.36c.26-.34.74-.49,1.12-.66.42-.19.83-.41,1.17-.73.56-.52.91-1.21,1.23-1.89.26-.56.51-1.31,1-1.71.55-.44,1.16.03,1.61.38.71.55,1.42,1.12,2.37,1.11.47,0,1.12-.29,1.57-.1.26.11.37.4.46.64.27.75.35,1.55.69,2.28.4.85,1.14,1.3,1.9,1.78.35.21.7.44.88.82.2.46.15.99.12,1.48-.05.96-.12,1.92.35,2.8.39.73,1.24,1.26.64,2.1-.5.7-1.2,1.22-1.53,2.04-.18.45-.23.92-.26,1.4-.03.45.03,1.02-.23,1.42-.4.62-1.52.57-2.16.68-.87.15-1.65.52-2.13,1.29-.23.36-.34.86-.66,1.16s-.82.27-1.23.24c-.97-.07-1.92-.32-2.89-.07s-1.6.93-2.42,1.38c-.97.54-1.98-.02-2.99-.11s-1.79.36-2.56.97c-.54.43-1.1,1-1.72.39s-.94-1.38-1.73-1.77c-.49-.24-1.03-.29-1.56-.45s-.94-.47-1.33-.85c-.89-.84-1.7-1.77-2.55-2.65-.37-.38-.78-.76-1.07-1.2-.31-.47-.26-.9-.07-1.41.33-.88.83-1.68.68-2.66-.07-.48-.3-.9-.47-1.35-.21-.53-.14-.7.36-.92.76-.34,1.46-.69,1.7-1.56.18-.67-.02-1.39-.2-2.04-.13-.48-.44-1.17-.02-1.58s.18-1.06-.33-1.26c-.91-.34-1.14-1.54-1.36-2.39-.34-1.35-1.07-2.5-1.83-3.64v.76c.3-.64.4-1.27.46-1.96.04-.55.03-.78.61-.9.94-.2.54-1.65-.4-1.45h0Z"/>
          </g>
          <path d="m146.94,139.67c.24-1.08,1.45-1.63,1.74-2.68.25-.88-.24-1.8-.44-2.56-.02-.09-.04-.12.05-.17.24-.14.49-.24.74-.35.58-.28.97-.74,1.15-1.35.09-.3.12-.63.14-.94,0-.08.02-.46,0-.43.13-.24.81-.24,1.05-.24.97.01.97-1.49,0-1.5-1.18-.01-2.42.42-2.53,1.75-.05.58.02,1.13-.57,1.42-.54.26-1.07.46-1.37,1.03-.24.47-.19,1.01-.04,1.5.12.41.37.86.38,1.28,0,.4-.54.85-.79,1.17-.42.51-.83,1.04-.97,1.7-.21.94,1.24,1.34,1.45.4h0Z"/>
        </g>
        <g>
          <g>
            <path class="cls-19" d="m151.52,113.21c-1.6-.69-1.61,1.01-3.05,1.83,0,.96.01,2.09-.24,3.16-.13.54-.4,1.05-.5,1.6-.18.97-.55,1.55.22,2.57-1.75.24-1.1,3.43-2.86,3.6-.68.07-1.42-.38-2.02-.06-.75.4-.56,1.53-.92,2.31-.52,1.12-2.15,1.36-2.67,2.48-.28.59-.17,1.28-.06,1.92.21,1.18.42,2.36.62,3.54.15.85.31,1.73.83,2.41.37.49.91.85,1.16,1.41.43.94-.02,2.23.72,2.95.85.84,2.32.04,3.46.4,1.08.34,1.6,1.61,2.62,2.08,1.08.5,2.4-.02,3.52.37,1.47.51,2.47,2.5,3.99,2.15.59-.14,1.04-.62,1.63-.76,1.41-.35,2.78,1.38,4.16.92,1-.33,1.35-1.6,2.22-2.2,1.02-.7,2.72-.45,3.25-1.57.3-.62.04-1.36.13-2.05.2-1.5,2-2.48,1.99-3.99,0-1.02-.86-1.87-.92-2.89-.09-1.47,1.43-3.1.46-4.22-.42-.49-1.15-.58-1.64-.99-.95-.8-.76-2.5-1.79-3.19-1.56-1.05-3.27,1.4-5.15,1.54-.84.06-1.69-.36-2.5-.13-.94.27-1.5,1.34-2.45,1.54-.53.11-1.06-.06-1.57-.24-.99-.34-1.99-.68-2.98-1.02-.21-.07-.43-.16-.53-.35-.16-.3.06-.65.28-.91,1.88-2.28,1.71-2.36,2.57-3.77.13-.21,2.9-.89,3.05-1.09.22-.3.69-2.27.78-2.63.29-1.22,1.08-1.06,1.87-2.22-.65-.62-.78-1.48-.83-2.27s-.05-1.75-.74-2.13c-.34-.19-.77-.17-1.07-.42-.31-.26-.36-.72-.59-1.06-.76-1.18-3.3.28-4.31,1.25"/>
            <path d="m151.72,112.49c-.9-.36-1.73-.14-2.35.59-.28.33-.52.7-.85,1-.18.16-.41.26-.58.43-.26.27-.22.61-.22.95,0,.69,0,1.39-.12,2.08s-.41,1.29-.57,1.96c-.28,1.19-.48,2.19.28,3.25l.45-1.1c-1.54.28-1.66,1.9-2.2,3.06-.36.78-.94.44-1.67.36-1.03-.11-1.8.47-2.08,1.44-.12.4-.12.83-.26,1.23s-.43.64-.76.86c-.72.49-1.54.91-1.94,1.72-.55,1.11-.15,2.42.05,3.57.21,1.21.34,2.47.69,3.65.15.5.35,1,.66,1.42s.75.74,1.03,1.17c.52.8.14,1.92.58,2.78.46.91,1.41,1.22,2.38,1.17.47-.02.95-.12,1.42-.09s.82.28,1.15.62c.7.7,1.32,1.47,2.35,1.69s2.29-.19,3.27.32c1.48.79,2.55,2.7,4.49,1.92.44-.18.83-.55,1.29-.64.41-.09.84.11,1.21.28.84.39,1.69.87,2.65.71s1.52-.88,2.06-1.61c.24-.32.48-.65.84-.85s.81-.28,1.21-.38c.81-.21,1.65-.51,2.08-1.28.53-.95-.02-2.05.47-2.98.41-.78,1.08-1.38,1.46-2.17.45-.95.37-1.85-.05-2.8-.2-.46-.49-.91-.54-1.42-.05-.47.14-.95.3-1.38.3-.84.68-1.75.38-2.65-.15-.44-.46-.81-.84-1.07-.4-.28-.93-.38-1.3-.7-.61-.54-.66-1.61-1.03-2.3-.39-.74-1.13-1.28-1.98-1.31s-1.65.42-2.36.85-1.42.96-2.25.96c-.56,0-1.11-.2-1.68-.21s-1.1.14-1.57.45c-.84.55-1.3,1.4-2.43,1.09-.61-.17-1.22-.41-1.82-.62-.31-.1-.61-.21-.92-.31-.15-.05-.31-.1-.46-.16-.1-.03-.2-.06-.29-.11-.13-.05-.08-.04.13.04.21-.12.41-.5.57-.7.13-.17.26-.33.39-.5.23-.3.47-.61.68-.93.3-.45.54-.92.81-1.39.03-.05.11-.15.12-.2.04-.18.19-.05-.09,0,.12-.02.04-.03.09-.04.3-.07.6-.2.9-.29.62-.19,1.3-.33,1.88-.62.51-.26.64-.84.79-1.35.19-.65.28-1.37.53-2,.13-.33.38-.52.65-.73.43-.33.77-.69,1.08-1.12.2-.27.1-.69-.12-.91-.88-.9-.46-2.28-.83-3.38-.2-.6-.62-1.06-1.22-1.28-.22-.08-.52-.09-.69-.27-.19-.21-.24-.6-.4-.84-1.28-1.91-4.3.06-5.45,1.14-.71.66.36,1.72,1.06,1.06.62-.58,1.39-1.08,2.2-1.34.22-.07.65-.23.88-.09.14.09.2.35.26.49.11.26.23.49.43.69s.42.32.67.41c.2.07.48.09.65.22.31.24.28.86.31,1.21.08,1.13.24,2.19,1.07,3.04l-.12-.91c-.52.71-1.37,1.04-1.75,1.86-.27.58-.36,1.26-.53,1.88-.08.31-.23.63-.28.94-.07.41-.03.05-.02.07v.03c-.07.11-.01.05.16-.16-.02.04-.11,0,.02,0-.06,0-.14.05-.2.07-.59.2-1.2.37-1.79.56-.54.17-1.05.3-1.37.8-.28.43-.49.89-.76,1.33-.35.58-.77,1.12-1.19,1.65-.62.77-1.56,1.91-.46,2.74.4.3.95.41,1.42.57.65.22,1.3.45,1.95.67,1.04.36,2.05.58,3.03-.05.76-.49,1.25-1.3,2.24-1.2,1.04.1,1.89.3,2.9-.12.77-.32,1.45-.82,2.19-1.2.6-.32,1.23-.48,1.63.2s.47,1.56.94,2.24c.24.36.57.64.94.85.36.19,1,.33,1.18.74.27.65-.38,1.69-.56,2.3-.29.98-.18,1.83.24,2.75s.7,1.55.11,2.46c-.47.73-1.08,1.34-1.4,2.16-.17.42-.22.86-.21,1.31s.17,1.04-.19,1.39c-.49.48-1.48.48-2.1.71-.88.33-1.4.95-1.95,1.69-.2.28-.43.61-.75.76-.38.17-.8,0-1.16-.14-.8-.34-1.56-.83-2.46-.83-.45,0-.87.14-1.27.35-.37.19-.74.53-1.18.5-.71-.05-1.33-.83-1.84-1.24-.74-.6-1.47-1.01-2.43-1.09-1.06-.09-2.17.25-3.03-.55-.65-.61-1.18-1.36-2.04-1.68-.93-.35-1.85,0-2.79-.09s-.73-1.34-.83-2.03c-.15-1.07-.8-1.57-1.44-2.36-.68-.85-.74-2.14-.92-3.17-.1-.59-.21-1.18-.31-1.77s-.33-1.33-.22-1.95c.15-.81,1.12-1.16,1.71-1.59.72-.53,1.13-1.17,1.3-2.04.05-.27.05-.86.28-1.06.28-.24,1.01.07,1.34.1,1.67.14,2.18-1.31,2.63-2.61.15-.45.29-.92.81-1.01.45-.08.71-.73.45-1.1-.33-.46-.42-.78-.3-1.33s.27-1.12.46-1.67c.44-1.27.45-2.63.45-3.96l-.37.65c.58-.35,1-.82,1.42-1.35.36-.46.47-.63,1.05-.4.9.36,1.29-1.1.4-1.45h0Z"/>
          </g>
          <path d="m155.09,140.29c.73-.7,1.95-.56,2.77-1.13s.84-1.48,1.12-2.31c.04-.13.07-.2.14-.27-.07.07.09-.02,0,0,.09-.02.17-.02.27,0,.72.07,1.32.25,1.99-.15.26-.16.5-.37.69-.61.15-.18.31-.54.51-.66.26-.16.82.23,1.04.38.8.54,1.56-.76.76-1.3-.51-.35-1.14-.62-1.76-.62-.75,0-1.1.49-1.52,1.02-.15.19-.35.46-.59.54-.33.1-.75-.08-1.08-.11-.54-.05-1.08.11-1.44.53-.31.35-.45.8-.56,1.24-.09.34-.17.81-.35,1.01-.25.27-.98.37-1.38.49-.61.19-1.2.43-1.66.88-.7.67.37,1.73,1.06,1.06h0Z"/>
        </g>
        <g>
          <g>
            <path class="cls-19" d="m154.35,120.41c-1.68.45-.62,1.8-1.24,3.33.6.75,1.32,1.63,1.79,2.61.24.5.35,1.07.61,1.56.47.87.54,1.56,1.78,1.87-1.22,1.28,1.28,3.37.02,4.6-.49.48-1.34.59-1.61,1.21-.34.79.52,1.55.73,2.38.29,1.2-.83,2.41-.54,3.61.15.63.67,1.11,1.16,1.54.9.79,1.8,1.59,2.7,2.38.65.57,1.32,1.16,2.16,1.37.59.15,1.24.1,1.79.37.92.46,1.38,1.75,2.41,1.85,1.19.12,1.84-1.42,2.95-1.85,1.05-.41,2.25.26,3.35,0,1.16-.28,1.86-1.51,2.98-1.91,1.47-.52,3.49.41,4.46-.81.37-.47.43-1.13.8-1.61.89-1.16,3.03-.66,3.83-1.88.58-.88.05-2.09.36-3.1.36-1.18,1.84-2.05,1.56-3.26-.16-.67-.82-1.09-1.17-1.68-.78-1.29.01-3.18-.94-4.36-.64-.79-1.84-.93-2.53-1.68-.99-1.09-.82-3.31-2.27-3.59-.63-.12-1.26.26-1.9.25-1.24-.03-2.15-1.48-3.39-1.38-1.87.16-1.68,3.14-3.06,4.42-.62.57-1.55.77-2.03,1.46-.56.8-.33,1.98-.95,2.74-.34.42-.87.61-1.38.8-.99.35-1.98.71-2.97,1.06-.2.07-.43.15-.63.06-.31-.13-.36-.55-.35-.88.05-2.96-.13-2.91-.35-4.55-.03-.24,1.71-2.51,1.7-2.75-.01-.37-.88-2.21-1.04-2.54-.53-1.13.17-1.5.07-2.9-.89-.07-1.53-.67-2.07-1.25s-1.13-1.34-1.91-1.2c-.38.07-.71.35-1.1.34-.41,0-.73-.33-1.12-.46-1.33-.45-2.4,2.27-2.58,3.67"/>
            <path d="m154.15,119.69c-1.05.32-1.55,1.03-1.57,2.11,0,.47.04.95-.08,1.42-.09.33-.2.57-.03.9.14.28.43.53.62.78.44.57.88,1.17,1.17,1.83.26.58.43,1.19.71,1.76.49,1.01.99,1.69,2.13,2.01l-.33-1.26c-.55.63-.66,1.37-.46,2.18.16.64.58,1.28.62,1.95.04.74-1.04.89-1.49,1.32-.82.78-.58,1.79-.1,2.68.23.43.44.79.36,1.29-.08.53-.33,1.02-.47,1.53-.29,1.09-.06,2.06.71,2.9.87.95,1.95,1.76,2.92,2.61.83.73,1.67,1.53,2.76,1.85.52.15,1.09.11,1.6.29.43.16.71.53,1,.86.63.69,1.38,1.27,2.37,1.1.86-.15,1.45-.83,2.06-1.39.32-.29.63-.52,1.07-.56.57-.05,1.13.12,1.69.17,1.12.1,1.98-.32,2.82-1.01.76-.62,1.34-1.11,2.37-1.12.9,0,1.84.15,2.71-.15.41-.14.77-.38,1.05-.71.37-.44.48-.96.73-1.46.37-.74,1.34-.78,2.06-.97.82-.21,1.64-.59,2.05-1.38.53-1.01.02-2.1.35-3.12.27-.86,1.09-1.45,1.43-2.28.39-.97.07-1.82-.58-2.58-.3-.36-.6-.65-.73-1.11s-.11-.99-.12-1.48c-.03-.97-.15-1.98-.86-2.7s-1.79-.83-2.41-1.55c-1-1.16-.7-3.25-2.47-3.75-.53-.15-1.06-.04-1.58.08-.59.14-.95.1-1.47-.21-.78-.47-1.52-1.08-2.49-1.06-1.78.04-2.32,1.83-2.84,3.2-.29.76-.62,1.37-1.34,1.78-.9.52-1.68,1.01-2,2.06-.14.45-.16.92-.3,1.36-.16.55-.54.77-1.05.97-.58.22-1.18.42-1.77.63-.3.11-.61.22-.91.33-.14.05-.34.09-.46.16l-.21.07c.15.13.21.14.18.03.06-.06,0-.69,0-.77,0-.25,0-.51,0-.76,0-.38-.02-.76-.05-1.14-.05-.57-.16-1.12-.25-1.68,0-.04-.08-.46-.07-.47.1-.03-.21.45.03.16.19-.23.33-.53.5-.77.34-.5.74-1,1.02-1.54.3-.59.04-1.12-.19-1.69-.25-.61-.6-1.21-.81-1.84-.12-.35-.04-.62.04-.96.12-.49.18-.98.16-1.48-.02-.45-.33-.7-.75-.75-1.26-.16-1.83-1.69-2.9-2.24-.57-.29-1.15-.27-1.73-.03-.41.17-.48.14-.86-.06-.23-.12-.46-.22-.71-.27-2.03-.37-3.08,2.73-3.29,4.24-.14.95,1.31,1.35,1.45.4.12-.84.39-1.68.82-2.41.13-.23.4-.7.69-.75.26-.05.68.33.93.41.57.19,1.02,0,1.55-.18s.84.26,1.16.6c.84.9,1.63,1.63,2.89,1.79l-.75-.75c.04.84-.37,1.63-.23,2.47.1.65.49,1.27.75,1.87.13.29.25.58.36.87.04.11.08.28.09.27,0,0,.05-.32.06-.32,0,0-.1.18-.1.18-.36.51-.7,1.05-1.05,1.57-.28.42-.63.86-.61,1.38s.19,1.11.25,1.6c.09.64.1,1.39.09,2.07,0,.89-.12,2.14,1,2.41.55.13,1.1-.14,1.61-.32.61-.22,1.22-.44,1.83-.65.94-.34,1.96-.65,2.47-1.59.41-.77.24-1.95.88-2.57.34-.33.82-.5,1.22-.75s.7-.53.97-.89c.46-.61.72-1.35.98-2.06.19-.51.38-1.27.87-1.58.63-.4,1.39.29,1.89.61.88.57,1.7.76,2.74.52.36-.09.77-.25,1.09,0,.25.2.37.6.48.89.27.75.48,1.55.99,2.18.58.73,1.42.97,2.19,1.44.86.53.78,1.49.81,2.38.03.98.18,1.89.82,2.68.25.31.71.65.78,1.07.06.36-.22.72-.41.99-.55.78-1.14,1.44-1.25,2.43-.09.77.33,2.05-.41,2.57-.62.44-1.52.43-2.22.68-.86.32-1.41.86-1.75,1.71-.15.36-.25.79-.61,1s-.82.18-1.21.18c-.9-.01-1.83-.12-2.7.2s-1.45,1-2.18,1.52c-.93.65-1.87.24-2.91.2s-1.77.39-2.49,1.05c-.46.43-1.05,1.26-1.73.76s-1.07-1.31-1.91-1.67c-.48-.2-.97-.23-1.48-.31-.58-.1-1.06-.36-1.52-.71-.97-.75-1.85-1.62-2.77-2.42-.78-.69-1.75-1.29-1.44-2.46.26-.97.74-1.89.45-2.92-.13-.44-.38-.82-.58-1.22-.23-.47-.21-.63.26-.89.72-.4,1.41-.79,1.58-1.66.14-.69-.1-1.38-.34-2.02-.15-.41-.57-1.18-.22-1.59s.24-1.09-.33-1.26c-1-.28-1.32-1.42-1.64-2.32-.47-1.34-1.33-2.43-2.21-3.53l.19.73c.22-.61.25-1.24.24-1.88,0-.5-.06-.77.47-.93.92-.28.53-1.73-.4-1.45h0Z"/>
          </g>
          <path d="m174.02,139.45c.15-1.13,1.33-1.81,1.52-2.93.15-.91-.4-1.67-.66-2.5-.02-.08-.04-.08.02-.15.13-.15.37-.23.54-.32.55-.3.97-.72,1.15-1.33.09-.29.11-.61.11-.92,0-.23-.07-.53-.01-.74-.04.13-.05.04.06-.01.07-.03.13-.07.2-.1.21-.09.45-.13.68-.15.96-.08.97-1.58,0-1.5-1.15.09-2.44.57-2.44,1.91,0,.54.15,1.16-.39,1.48s-1.08.57-1.32,1.18c-.4,1.04.44,1.75.58,2.71.06.4-.39.84-.61,1.16-.39.55-.78,1.13-.87,1.81-.05.4.1.81.52.92.35.1.87-.12.92-.52h0Z"/>
        </g>
      </g>
      <g>
        <path class="cls-2" d="m7.83,123.83c4.19-7.4,5.79-11.35,10.06-18.07,6.51-4.24,12.76-8.47,19.57-13.41-3.51-8.6-7.71-17.66-10.64-26.12,0-8.71.96-26.12,1.99-34.59,3.18-8.37,6.8-13.23,10.94-20.75-.39-11.97.89-10.14,6.18-10.13,19.43.02,39.11,0,58.03,0,1.57,0,5.49-.67,6.76.24,1.74,2.5,2.07,6.23,1.36,9.31,3.04,5.69,9.14,21.42,11.9,27.39,0,7.42-1.44,28.41-1.88,33.93-5.59,15.44-7.42,20.3-10.02,25.06,4.59,3.1,7.69,5.1,9.66,6.17,4.26,7.63,7.65,14.22,8.25,20.18-3.5,6.36-10.74,18.66-17.2,25.13-29.89,0-61.74.53-90.8.53-6.54-7.48-10.47-15.69-14-24.55"/>
        <path d="m8.47,124.2c1.64-3.01,3.28-6.02,4.93-9.04l3.38-6.19,1.06-1.95c.09-.17.21-.35.29-.53.14-.3.1.04-.18.12.26-.07.56-.39.78-.54.63-.44,1.27-.88,1.9-1.31,2.03-1.4,4.06-2.8,6.09-4.19,4.77-3.27,9.53-6.55,14.34-9.76.86-.57,1.72-1.15,2.59-1.71.4-.26.93-.67,1.36-.28.38.35.61.94.86,1.4.54,1.01,1.03,2.05,1.46,3.11.35.87,1.16,2.31.76,3.25-.19.44-.59.76-.94,1.07-.49.44-.99.88-1.49,1.32-1.92,1.7-3.84,3.4-5.77,5.1-.93.82-1.86,1.64-2.79,2.47-.73.64.34,1.7,1.06,1.06,1.98-1.75,3.97-3.51,5.95-5.26.99-.88,1.98-1.75,2.98-2.63.81-.72,1.87-1.43,2.34-2.45.5-1.08.13-2.22-.25-3.27-.41-1.13-.88-2.23-1.4-3.31-.47-.96-.94-2.14-1.71-2.91-.86-.86-1.99-.69-2.95-.1-2.09,1.27-4.1,2.71-6.13,4.08-2.59,1.75-5.16,3.51-7.74,5.27-3.87,2.65-7.74,5.31-11.6,7.99-.26.18-.56.35-.75.61-.22.32-.38.7-.57,1.04l-2.99,5.49-6.05,11.09-.12.22c-.46.85.83,1.61,1.3.76h0Z"/>
        <path d="m131.58,120.45c-1.74-3.19-3.48-6.39-5.23-9.58l-3.37-6.18-.95-1.75c-.15-.27-.26-.47-.53-.66-3.31-2.37-6.7-4.63-10.06-6.93-4.8-3.3-9.6-6.6-14.47-9.81-1.26-.83-2.92-2.15-4.29-.77-.77.78-1.24,1.94-1.71,2.91-.52,1.08-.99,2.19-1.4,3.31-.38,1.05-.75,2.19-.25,3.27.47,1.01,1.52,1.73,2.34,2.45,1.98,1.75,3.97,3.51,5.95,5.26.99.88,1.98,1.75,2.98,2.63.72.64,1.79-.42,1.06-1.06-1.92-1.7-3.84-3.4-5.77-5.1-.93-.82-1.86-1.64-2.79-2.47-.47-.41-.93-.82-1.4-1.23-.37-.33-.83-.68-1.03-1.15-.21-.51-.03-1.07.13-1.56.19-.57.4-1.13.63-1.69.44-1.1.95-2.17,1.52-3.21.23-.42.44-.97.8-1.3.44-.4.99.04,1.39.3s.77.51,1.16.76c4.69,3.1,9.33,6.28,13.96,9.46,3.44,2.36,6.88,4.73,10.31,7.1.06.04.16.15.23.16-.2-.03-.32-.44-.18-.12.21.48.51.93.76,1.39l3.05,5.59c1.91,3.51,3.75,7.07,5.74,10.53.04.06.07.13.11.19.46.85,1.76.09,1.3-.76h0Z"/>
        <path d="m14.13,138.8c1.32,2.02,2.64,4.03,3.98,6.04.83,1.24,1.61,2.56,2.57,3.7.44.52.86.88,1.51.95,1.86.2,3.78.12,5.65.13,3.85.03,7.7.02,11.56,0,5.11-.02,10.21-.05,15.32-.09,5.66-.04,11.33-.09,16.99-.15s10.96-.11,16.44-.17c4.56-.05,9.12-.1,13.67-.16,2.94-.04,5.88-.07,8.82-.11.64,0,1.28,0,1.92-.02.76-.02,1.12-.66,1.59-1.19l9.56-10.88.78-.89c.64-.72-.42-1.79-1.06-1.06-3.27,3.72-6.53,7.44-9.8,11.16l-1.39,1.59.53-.22c-.96.01-1.91.02-2.87.04-2.57.03-5.13.06-7.7.09-3.76.04-7.52.09-11.27.13-4.48.05-8.97.1-13.45.14-4.81.05-9.62.1-14.43.14s-9.36.08-14.04.11c-4.09.03-8.19.05-12.28.06-3.09,0-6.19.01-9.28-.01-1.66-.01-3.34.01-5-.11-.08,0-.17-.02-.26-.02-.19,0,.24,0,.03,0-.09,0,.04-.06.05.03,0-.09.37.34-.07-.07-.18-.17-.36-.34-.52-.54-.34-.43-.64-.9-.95-1.35-1.49-2.18-2.93-4.39-4.38-6.6-.31-.47-.62-.94-.92-1.41-.53-.81-1.83-.05-1.3.76h0Z"/>
        <path d="m19.73,145.02c.19-.35.41-.72.67-1.03.08-.09.17-.17.25-.26-.07.07-.22,0,.01.02.27.02.54,0,.81,0,1.09,0,2.19,0,3.28,0,2.53,0,5.05-.02,7.58-.04,6.22-.05,12.44-.12,18.66-.22,7.18-.11,14.35-.25,21.52-.43s14.83-.41,22.24-.7,14.08-.6,21.11-1.02c.36-.02,1.61-.23,1.76.25.29.92,1.74.53,1.45-.4-.55-1.74-2.69-1.39-4.1-1.3-1.73.1-3.47.2-5.2.29-3.66.19-7.32.36-10.98.51-7.65.32-15.31.57-22.97.78s-14.95.36-22.43.48c-6.54.11-13.09.19-19.63.24-2.67.02-5.33.04-8,.05-1.17,0-2.34,0-3.51,0-.53,0-1.06-.01-1.59,0-.64.02-1.06.34-1.45.83-.29.37-.56.76-.78,1.18-.46.85.83,1.61,1.3.76h0Z"/>
      </g>
      <g>
        <path d="m38.1,91.96c-1.73-2.99-3.1-6.21-4.41-9.41-1.41-3.43-2.72-6.9-3.99-10.38-.72-1.98-1.34-4-2.1-5.96-.1-.25,0-.15-.04-.01.02-.11,0-.24,0-.35.02-.62.03-1.24.05-1.86.16-5.5.36-11.01.61-16.51.14-3.04.3-6.08.51-9.11.08-1.19.18-2.38.3-3.57.05-.45.1-.9.15-1.36,0,0,.03-.24.06-.43.03-.17.05-.33.09-.5.14-.74.43-1.42.73-2.11.7-1.6,1.46-3.16,2.25-4.72,2.02-4.02,4.18-7.99,6.48-11.86.51-.87,1.04-1.73,1.58-2.58s-.78-1.57-1.29-.76c-2.41,3.83-4.61,7.8-6.7,11.81-.93,1.79-1.85,3.58-2.71,5.4-.57,1.21-1.19,2.44-1.6,3.72-.5,1.55-.53,3.33-.67,4.95-.24,2.87-.4,5.75-.55,8.63-.3,5.9-.51,11.79-.7,17.69-.04,1.15-.18,2.36-.1,3.51.03.4.23.81.36,1.19.36,1.05.73,2.1,1.1,3.15,2.44,6.85,4.93,13.78,8.24,20.26.33.64.67,1.28,1.03,1.91.48.84,1.78.08,1.29-.76h0Z"/>
        <path d="m111.43,11.26c3.35,5.91,6,12.27,8.53,18.57.99,2.47,1.98,4.95,2.82,7.47.12.35.23.7.33,1.06.03.12.06.24.09.37.01.05.02.1.03.14.04.17,0-.19,0-.04-.06,1.37-.06,2.74-.1,4.11-.22,7.03-.56,14.05-1.05,21.07-.1,1.39-.2,2.78-.33,4.16-.05.55-.1,1.1-.16,1.65-.02.23-.05.45-.08.68-.03.25-.04.36-.06.49-.22,1.53-.82,2.98-1.33,4.43-2.28,6.41-4.69,12.84-7.69,18.96-.32.65-.65,1.29-.99,1.93-.46.85.83,1.61,1.29.76,1.63-3.01,2.97-6.17,4.27-9.33s2.63-6.6,3.85-9.94c.66-1.81,1.47-3.66,1.9-5.55s.5-3.99.66-5.96c.55-7,.88-14.02,1.14-21.03.06-1.59.11-3.18.15-4.77.02-.86.09-1.68-.14-2.51-.6-2.17-1.47-4.29-2.29-6.38-2.55-6.52-5.28-13.03-8.54-19.23-.33-.62-.66-1.24-1.01-1.85-.48-.84-1.77-.08-1.29.76h0Z"/>
        <path class="cls-6" d="m39.74.75h69.77c1.41,0,2.56,1.15,2.56,2.56v5.02c0,1.41-1.15,2.56-2.56,2.56H39.74V.75h0Z"/>
      </g>
      <path class="cls-19" d="m67,128.01c-4.95,5.35-10.36,9.33-16.19,13.71-1.59,1.2-4.61.64-6.54,1.12-2.9.71-5.93-.85-8.75-1.81-4.71-1.6-7.97-3.24-12.23-5.81-3.24-1.96-6.62-5.3-7.17-9.05-.68-4.6,3.57-10.1,7.18-13.03,8.26-6.69,17.56-9.9,28.11-11.2,10.55-1.3,25.31-.09,35.86,1.22,8.38,1.04,17.9,2.65,20.23,6.58,4.53.89,9.57,5.67,11.47,9.22s2.06,6.74-.67,9.7c-2.67,2.88-6.97,3.33-10.66,4.67-3.58,1.3-5.98,5.2-9.78,4.98-1.81-.1-6.91-2.31-8.59-2.98-7.94-3.16-12.78-5.62-22.26-7.32"/>
      <path class="cls-17" d="m47.64,139.6c-2.74-4.43-9.2-5.53-14.23-6.91-3.53-.98-8.77-2.07-10.73-5.16-2.08-3.29,2.86-9.25,5.7-11.91,4.26-4,10.15-5.71,15.88-6.83,19.51-3.83,40.04-2.28,58.76,4.42,3.59,1.28,7.59,3.31,8.32,7.05.43,2.22-.48,4.54-1.91,6.29s-3.36,5.58-6.85,5.02c-1.76-.28-5.65,3.38-6.41,4.8-4.64-1.41-5.34-3.13-10.71-4.77-4.88-1.49-11.24-4.37-16.05-6.07-8.2,1.22-13.71,10.32-20.57,13.7"/>
      <g>
        <path d="m17.62,123.83c.02-1.65.76-3.22,1.58-4.61.98-1.65,2.19-3.15,3.53-4.51,2.55-2.59,5.77-4.45,9.05-5.96.9-.41,1.82-.79,2.76-1.07.58-.17,1.37-.39,1.91-.31.35.05.65-.04.85-.34.13-.2,0-.05.16-.21.12-.12.23-.24.36-.35.18-.16.48-.36.8-.55.76-.45,1.55-.77,2.38-1.06,2.24-.78,4.59-1.27,6.93-1.66,4.8-.81,9.77-1.26,14.64-1.07.49.02.97.05,1.46.09s.62.06,1.05.14c.3.06.59.13.88.23.18.06-.09-.04,0,0,.04.02.08.05.13.07.17.08-.08-.12.07.07.6.75,1.66-.31,1.06-1.06-.31-.39-.88-.55-1.34-.66-.75-.18-1.54-.26-2.31-.31-2.27-.17-4.55-.1-6.82.04-5.25.3-10.69.9-15.7,2.54-1.78.58-3.98,1.36-5.05,3.02l.85-.34c-1.57-.22-3.17.4-4.59.99-1.96.81-3.85,1.81-5.67,2.91-3.37,2.05-6.24,4.77-8.36,8.1-1.12,1.75-2.09,3.78-2.12,5.9-.01.97,1.49.97,1.5,0h0Z"/>
        <path d="m22.98,124.31c0-.3.13-.78.28-1.14.25-.57.58-1.11.93-1.62.89-1.29,1.97-2.44,3.09-3.53,2.39-2.32,5.1-4.46,8.09-5.96.64-.32,1.31-.61,2-.81.22-.06.64-.15.74-.17.13-.02.26-.02.38-.03.06,0,.43.03.29,0,.33.05.67-.03.85-.34.02-.04.05-.08.07-.12,0,0-.1.11,0,0,.08-.08.16-.16.25-.23-.15.12.14-.09.21-.14.14-.08.27-.16.42-.23.62-.32,1.32-.56,2.08-.78,2.06-.62,4.19-1.01,6.31-1.34,4.53-.71,9.19-1.16,13.79-1.03.47.01.94.04,1.41.07.2.02.41.04.61.06.16.02.15.02.4.06.27.05.54.12.8.2.17.05-.13-.07.01,0,.04.02.08.05.13.07.06.03-.03-.03-.05-.07.53.8,1.83.05,1.29-.76-.68-1.01-2.45-1.02-3.51-1.09-2.15-.14-4.31-.06-6.46.08-4.9.3-9.95.84-14.69,2.17-1.41.4-3.55.92-4.35,2.3l.85-.34c-1.3-.19-2.56.24-3.73.75-1.53.66-2.95,1.56-4.31,2.51-2.97,2.1-5.82,4.59-7.98,7.54-.81,1.11-1.67,2.46-1.69,3.89-.01.97,1.49.97,1.5,0h0Z"/>
        <path d="m68.78,102.49s-.11.1-.1.1c.22-.1-.15.01.13-.05.12-.03.24-.06.36-.09.08-.02.16-.03.24-.04-.16.02.02,0,.14-.01.99-.09,1.98-.09,2.97-.06,3.03.08,6.06.4,9.07.77,3.59.44,7.18,1.01,10.73,1.71,3.23.64,6.47,1.36,9.6,2.41,1.26.42,2.34.81,3.48,1.46.21.12.42.25.62.39.05.03.09.06.14.1.15.11-.12-.1.02.01.08.06.15.13.22.2.07.06.13.13.19.2.12.13-.05-.12.06.08.04.07.08.14.12.22-.08-.15-.02-.06.01.07.23.94,1.68.54,1.45-.4-.2-.81-.89-1.39-1.54-1.83-.94-.64-2.01-1.08-3.06-1.48-3.04-1.16-6.24-1.9-9.42-2.57-6.93-1.45-14.07-2.54-21.16-2.81-1.17-.04-2.35-.08-3.51.05-.64.07-1.72.15-2.03.84-.4.87.89,1.63,1.29.76h0Z"/>
        <path d="m68.78,107.96s-.11.1-.11.1c.25-.09-.15.01.15-.07.14-.03.27-.07.41-.1.07-.01.14-.02.21-.04.25-.04-.1,0,.17-.02,1.07-.11,2.14-.12,3.21-.1,3.33.06,6.67.4,9.97.87,4.05.57,8.08,1.35,12.04,2.4,3.74,1,7.48,2.22,10.9,4.05,2.72,1.46,5.7,3.53,6.51,6.49.26.93,1.7.53,1.45-.4-.82-2.97-3.36-5.09-5.88-6.63-3.36-2.05-7.15-3.41-10.92-4.5-4.13-1.2-8.36-2.06-12.61-2.7-3.57-.54-7.18-.95-10.79-1.06-1.18-.04-2.37-.05-3.54.05-.69.06-1.59.1-2.16.55-.12.1-.24.2-.31.34-.4.87.9,1.64,1.29.76h0Z"/>
        <path d="m109.74,111.32c.11-.05-.05.02-.06.03,0,0,.1-.03.1-.03,0,.03-.16,0,.05,0,.06,0,.26.04.05,0,.09.02.18.04.27.07.32.1.58.24.98.49.94.59,1.77,1.34,2.58,2.12,1.77,1.71,3.44,3.6,4.82,5.64.27.4.53.8.74,1.23.04.07.07.15.1.22.04.1-.06-.17-.01-.02.01.03.02.07.04.1.02.06.03.12.05.18.02.09-.05-.21-.01-.09.01.05-.04.23.02-.1-.16.94,1.28,1.35,1.45.4.14-.79-.37-1.56-.77-2.2-.67-1.07-1.45-2.07-2.26-3.05-1.72-2.09-3.65-4.24-5.95-5.7-.85-.54-1.95-1.06-2.93-.57-.86.43-.1,1.73.76,1.29h0Z"/>
        <path d="m66.18,127.58c-5.59,4.79-11.19,9.57-16.78,14.36-.73.63.33,1.68,1.06,1.06,5.59-4.79,11.19-9.57,16.78-14.36.73-.63-.33-1.68-1.06-1.06h0Z"/>
        <path d="m66.8,128.73c5.23.84,10.36,2.23,15.29,4.16,2.46.96,4.85,2.07,7.19,3.29s4.57,2.46,7.15,2.79c2.39.31,4.96-.24,6.66-2.03.66-.7-.39-1.76-1.06-1.06-1.42,1.5-3.6,1.9-5.59,1.59-2.45-.38-4.63-1.68-6.8-2.8-4.49-2.32-9.22-4.19-14.08-5.56-2.75-.77-5.54-1.38-8.36-1.84-.94-.15-1.35,1.29-.4,1.45h0Z"/>
        <path d="m32.68,140.88c3.21,1.16,6.52,1.98,9.9,2.45.4.06.8-.1.92-.52.1-.35-.12-.87-.52-.92-3.38-.47-6.69-1.29-9.9-2.45-.91-.33-1.3,1.12-.4,1.45h0Z"/>
        <path d="m36.44,134.65c2.18.52,4.42,1.09,6.37,2.24.6.35,1.16.77,1.69,1.23.24.21.46.42.69.64s.64.52.78.76c.21.36.18.79.52,1.1.38.35,1.22.45,1.7.39.52-.06.91-.44,1.31-.74s.84-.63,1.26-.95c1.84-1.39,3.66-2.79,5.49-4.2,2.93-2.26,5.85-4.53,8.76-6.81.98-.77,1.96-1.74,3.3-1.5s2.67.67,3.97,1.04c1.48.42,2.95.87,4.4,1.35,6.55,2.14,12.94,4.78,19.12,7.82.39.19,1.02.07,1.1-.45.19-1.24,1.24-2.15,2.26-2.76s2.38-1.2,3.61-1.03c.94.13,1.35-1.31.4-1.45-1.66-.23-3.35.32-4.77,1.18-1.32.8-2.7,2.05-2.95,3.66l1.1-.45c-5.53-2.72-11.23-5.13-17.05-7.15-2.9-1.01-5.83-1.92-8.8-2.71-1.04-.27-2.18-.7-3.27-.58s-1.9.73-2.71,1.37c-2.32,1.83-4.65,3.64-6.99,5.46-1.81,1.4-3.63,2.8-5.45,4.2-.89.68-1.77,1.35-2.66,2.03-.41.31-.82.62-1.23.93-.23.17-.31.27-.6.24-.13-.02-.26-.04-.38-.06.22.03.13.2.09-.05-.12-.84-1.07-1.53-1.66-2.08s-1.26-1.09-1.96-1.53c-2.11-1.33-4.62-2-7.03-2.57-.94-.22-1.34,1.22-.4,1.45h0Z"/>
        <path d="m40.36,111.29c6.63,2.63,12.91,5.97,19.28,9.16,1.81.91,3.64,1.8,5.48,2.65.87.4,1.63-.89.76-1.29-6.4-2.96-12.54-6.42-18.95-9.34-2.03-.93-4.09-1.8-6.17-2.62-.9-.36-1.29,1.09-.4,1.45h0Z"/>
        <path d="m27.66,121.36c8.87.34,17.71,1.11,26.57,1.64,2.59.15,5.19.29,7.79.39.97.04.96-1.46,0-1.5-8.87-.34-17.71-1.11-26.57-1.64-2.59-.15-5.19-.29-7.79-.39-.97-.04-.96,1.46,0,1.5h0Z"/>
        <path d="m67.22,108.74c.03,4.4-.8,8.72.19,13.08.21.94,1.66.54,1.45-.4-.96-4.2-.11-8.43-.14-12.68,0-.96-1.51-.97-1.5,0h0Z"/>
        <path d="m70.82,123.18c8.75-3.65,17.6-7.09,26.52-10.3.9-.32.51-1.77-.4-1.45-8.92,3.21-17.77,6.65-26.52,10.3-.38.16-.64.5-.52.92.09.35.55.68.92.52h0Z"/>
        <path d="m71.83,124.58c8.99.58,18.02-.39,27.02-.24,2.37.04,4.75.15,7.11.43.96.11.95-1.39,0-1.5-4.34-.52-8.73-.49-13.08-.4-4.64.1-9.27.32-13.91.36-2.38.02-4.76,0-7.13-.15-.96-.06-.96,1.44,0,1.5h0Z"/>
        <path d="m36.84,132.32c7.54-2.24,15.2-4.09,22.79-6.15,1.7-.46,3.4-.92,5.09-1.43.92-.27.53-1.72-.4-1.45-7.54,2.24-15.2,4.09-22.79,6.15-1.7.46-3.4.92-5.09,1.43-.92.27-.53,1.72.4,1.45h0Z"/>
      </g>
      <g>
        <path class="cls-2" d="m12.85,126.72c5.2-.42,10.42-.7,15.64-.82,1.26-.03,2.61-.03,3.64.69.86.6,1.34,1.58,1.75,2.54,1.6,3.76,2.57,7.78,2.86,11.85-5.12.14-10.24.29-15.36.43-1.36.04-2.78.06-3.98-.58-1.22-.65-2-1.88-2.72-3.06-1.33-2.17-2.66-4.33-3.99-6.5-.46-.75-.93-1.52-1.1-2.38s.02-1.85.69-2.41,1.87-.47,2.28.31"/>
        <path class="cls-2" d="m126.66,124.31c-6.69-.6-13.43-.71-20.14-.32-3.42,3.83-4.29,8.27-5.27,14.04,5.75.15,12.2.08,17.95.23.71.02,1.46.03,2.07-.33.58-.34,2.37-1.3,2.7-1.89,2.02-3.64,3.92-7.87,5.01-11.89"/>
        <path d="m11.29,126.93c3.14-.04,6.27-.06,9.41-.06,2.3,0,4.6.01,6.91.07.83.02,1.66.05,2.49.1.29.02.57.04.86.07.16.02.02,0,.01,0,.13.02.26.04.39.07.5.1.82.3,1.09.74.55.92.85,2.05,1.2,3.06.38,1.11.73,2.22,1.05,3.35.65,2.29,1.17,4.61,1.56,6.96l.72-.95c-5.76.1-11.52.12-17.27.05-.7,0-1.41-.01-2.11-.03-.62-.01-1.25-.02-1.74-.44-.73-.64-1.09-1.78-1.48-2.64-.98-2.19-1.9-4.41-2.82-6.62-1-2.41-2-4.83-3.1-7.2-.4-.88-1.7-.11-1.3.76,2.06,4.47,3.8,9.07,5.8,13.56.45,1.01.85,2.11,1.59,2.96.87,1,2.04,1.12,3.29,1.14,2.98.05,5.96.07,8.95.06,3.4,0,6.79-.03,10.19-.09.53,0,.8-.47.72-.95-.71-4.27-1.85-8.47-3.42-12.5-.32-.81-.66-1.65-1.4-2.18-.56-.4-1.24-.51-1.91-.59s-1.36-.11-2.04-.13c-4.6-.18-9.22-.13-13.83-.09-1.28,0-2.55.02-3.83.04-.97.01-.97,1.52,0,1.5h0Z"/>
        <path d="m126.87,122.83c-3.32-.05-6.64-.07-9.95-.06-2.34,0-4.67.01-7.01.09-.78.02-1.56.05-2.34.12-1.28.11-2.46.4-3.16,1.59-.56.94-.88,2.06-1.24,3.09-.4,1.14-.77,2.29-1.11,3.45-.68,2.36-1.22,4.76-1.62,7.18-.08.48.2.94.72.95,5.3.09,10.6.12,15.91.07,1.3-.01,2.61.01,3.92-.05,1.09-.05,2.02-.39,2.72-1.26s1.07-1.92,1.53-2.9c.55-1.2,1.11-2.39,1.66-3.59,1.25-2.69,2.49-5.39,3.74-8.08.4-.87-.89-1.64-1.3-.76-1.06,2.28-2.11,4.56-3.17,6.84s-1.99,4.48-3.09,6.66c-.47.94-.99,1.52-2.09,1.59-1.22.07-2.45.04-3.67.05-2.53.02-5.05.03-7.58.02-2.86,0-5.72-.04-8.57-.09l.72.95c.69-4.12,1.77-8.16,3.25-12.06.32-.84.58-1.78,1.54-2.01.16-.04.32-.06.47-.09.12-.02-.17.02,0,0,.13-.02.27-.03.4-.04.74-.06,1.49-.09,2.23-.11,4.48-.14,8.97-.1,13.45-.07,1.21,0,2.41.02,3.62.04.97.01.97-1.49,0-1.5h0Z"/>
      </g>
      <polygon class="cls-12" points="194.65 182.73 161.79 154.73 245.15 122.28 289.15 152.23 194.65 182.73"/>
      <polygon class="cls-9" points="194.65 182.73 161.79 154.73 245.15 122.28 289.15 152.23 194.65 182.73"/>
      <path class="cls-19" d="m178.09,164.55c1.46-2.43,4.13-3.93,6.89-4.58s5.63-.56,8.46-.46c1.94-6.45,7.53-11.68,14.1-13.19s15.09-.79,20.36,8.35c1.75-8.71,8.39-13.26,15.47-14.75s15.04.61,19.76,6.09,5.43,14.34.9,19.98c-2.55,3.18-6.33,5.08-9.99,6.89-12.18,6.01-24.59,12.09-38,14.27-13.25,2.15-28.02-.15-37.58-9.56-1.85-1.82-3.53-4-3.95-6.56s.77-5.53,3.21-6.42"/>
      <ellipse cx="210.28" cy="146.28" rx="4.8" ry="2.6"/>
      <ellipse cx="220.75" cy="157.09" rx="4.8" ry="2.6" transform="translate(-46.42 202.11) rotate(-45)"/>
      <circle class="cls-2" cx="206.62" cy="155.76" r="3.26"/>
      <ellipse class="cls-2" cx="225.23" cy="171.26" rx="13.77" ry="9.99" transform="translate(-32.86 55.3) rotate(-13.05)"/>
      <path class="cls-18" d="m230.68,169.46c-.92-3.97-.35-7.36,4.49-8.48,4.84-1.12,10.98.68,11.9,4.65s-3.73,8.59-8.57,9.72c-4.84,1.12-6.9-1.92-7.82-5.89Z"/>
      <path d="m224.54,163.08c.59-.47,1.79-.5,2.24.61.29.7.06,1.07-.53,1.54s-1.46.38-1.93-.22-.38-1.46.22-1.93Z"/>
      <path d="m206,150.31c.59-.47,1.79-.5,2.24.61.29.7.06,1.07-.53,1.54s-1.46.38-1.93-.22-.38-1.46.22-1.93Z"/>
      <path d="m212.2,154.64c.59-.47,1.79-.5,2.24.61.29.7.06,1.07-.53,1.54s-1.46.38-1.93-.22-.38-1.46.22-1.93Z"/>
      <path d="m207.62,152.97c.59-.47,1.79-.5,2.24.61.29.7.06,1.07-.53,1.54s-1.46.38-1.93-.22-.38-1.46.22-1.93Z"/>
      <path class="cls-18" d="m222.25,166.9c.64-.51,1.93-.54,2.43.66.31.76.07,1.15-.57,1.67-.64.51-1.58.41-2.09-.23-.51-.64-.41-1.58.23-2.09Z"/>
      <path d="m227.06,168.46c.59-.47,1.23-.58,1.75-.02.69.75.56,1.69-.03,2.17s-1.46.38-1.93-.22-.38-1.46.22-1.93Z"/>
      <path d="m211.88,173.7c.74-5.81,5.29-10.59,11.02-11.68,1.48-.28,3.03-.32,4.52-.11.75.1,1.49.28,2.21.5s1.48.69,2.26.54c.67-.13,1.2-.63,1.77-.97.71-.43,1.46-.8,2.24-1.08,1.43-.52,2.94-.79,4.47-.78,3.09,0,7.63,1.34,7.58,5.16-.01.97,1.49.97,1.5,0,.05-3.62-3.3-5.82-6.51-6.42s-6.91-.02-9.86,1.71c-.3.17-.58.36-.87.56-.38.26-.56.41-1.01.26-.86-.28-1.67-.6-2.56-.79-1.68-.35-3.41-.41-5.12-.19-3.25.42-6.29,1.85-8.63,4.15-2.49,2.45-4.06,5.68-4.5,9.14-.12.95,1.38.95,1.5,0h0Z"/>
      <path class="cls-14" d="m176.32,170.32c0-5.51,6.93-9.98,15.47-9.98s15.47,4.47,15.47,9.98c0,6.58-6.93,7.69-15.47,7.69s-15.47-2.18-15.47-7.69Z"/>
      <g>
        <path d="m177.88,165.89c4.17-3.77,10.04-5.64,15.62-4.81s10.45,3.86,13.33,8.45c1.63,2.59,2.42,6.24.16,8.74-.65.72.41,1.78,1.06,1.06,2.1-2.33,2.27-5.68,1.13-8.5s-3.36-5.31-5.81-7.17c-4.9-3.73-11.3-5.12-17.3-3.7-3.44.81-6.63,2.5-9.26,4.87-.72.65.35,1.71,1.06,1.06h0Z"/>
        <path d="m186.32,169.95c1.69,1.11,3.75,1.51,5.73,1.16s3.77-1.63,5.37-2.88c.32-.25.26-.8,0-1.06-.31-.32-.75-.25-1.06,0-1.35,1.07-2.82,2.12-4.54,2.47s-3.35-.07-4.74-.98c-.81-.53-1.56.77-.76,1.3h0Z"/>
      </g>
      <path d="m195.72,158.37c.87-6.46,7.14-10.19,13.07-11.12,5.34-.84,11.33.41,15.46,4.03,2.38,2.09,4.72,5.45,3.49,8.74-.34.91,1.11,1.3,1.45.4,1.2-3.24-.52-6.68-2.7-9.05s-4.81-3.87-7.72-4.81c-6.15-2-13.72-1.24-18.98,2.68-2.98,2.22-5.07,5.43-5.57,9.13-.05.41.38.75.75.75.45,0,.7-.35.75-.75h0Z"/>
      <path class="cls-13" d="m228.97,149.48c2.96-4,6.91-7.25,11.39-9.41-3.51,3.87-5.89,9.07-7.99,13.85,4.84-5.37,9.98-10.77,16.17-14.51-4.22,4.82-9.62,11.9-12.58,17.58,6.83-2.46,13.06-12.41,19.45-16.82-3.67,4.9-6.76,10.23-9.2,15.85,5.25-1.24,8.75-7.96,13.63-11.3-1.86,3.36-3.72,6.72-5.58,10.08,2.66-2.14,5.32-4.27,7.98-6.41"/>
      <g>
        <path d="m229.43,155.39c-.24-3.59,1.21-7.06,3.61-9.7,2.61-2.85,6.17-4.5,9.94-5.15,3.98-.68,8.29-.29,12.12.99,3.59,1.2,6.62,3.69,8.42,7.03,1.08,2.01,1.82,4.43,1.42,6.73-.36,2.03-1.63,3.76-3.41,4.77-.84.47-.09,1.77.76,1.29,1.74-.98,3.06-2.55,3.76-4.41.82-2.19.55-4.67-.21-6.83-1.33-3.79-4.13-7.07-7.7-8.92-3.98-2.07-8.91-2.74-13.34-2.37s-8.51,1.82-11.74,4.74-5.43,7.34-5.13,11.82c.06.96,1.56.96,1.5,0h0Z"/>
        <path d="m241.83,149.76c1.28,2.1,3.81,3.15,6.22,2.85,2.58-.33,4.74-2.07,6.07-4.25.5-.83-.79-1.58-1.29-.76-1.06,1.74-2.78,3.2-4.85,3.51-1.84.28-3.87-.5-4.86-2.11-.5-.82-1.8-.07-1.29.76h0Z"/>
      </g>
      <g>
        <path class="cls-18" d="m215.73,150.12c-1.09-1.39-1.48-2.83.22-4.15s4.44-1.73,5.53-.34.1,4.06-1.6,5.38-3.07.5-4.15-.89Z"/>
        <ellipse class="cls-2" cx="216.51" cy="150.21" rx="1.59" ry="3.48" transform="translate(-45.18 181.19) rotate(-41.5)"/>
        <ellipse class="cls-2" cx="220.37" cy="145.85" rx="1.15" ry="1.39" transform="translate(-41.32 182.66) rotate(-41.51)"/>
      </g>
      <g>
        <polygon class="cls-1" points="196.5 203.73 194.65 182.73 289.15 152.23 289.15 170.95 196.5 203.73"/>
        <path d="m209.02,182.77c-3.87,5.56-7.44,11.32-10.69,17.26-.46.85.83,1.61,1.3.76,3.25-5.94,6.82-11.7,10.69-17.26.55-.79-.75-1.55-1.3-.76h0Z"/>
        <path d="m271.79,160.89c5.63,2.41,10.41,6.22,15.71,9.22.84.48,1.6-.82.76-1.3-5.3-2.99-10.09-6.8-15.71-9.22-.88-.38-1.64.92-.76,1.3h0Z"/>
        <polygon class="cls-3" points="161.79 173.81 161.79 154.73 194.65 182.73 196.5 203.73 161.79 173.81"/>
      </g>
      <g>
        <ellipse class="cls-18" cx="57.49" cy="115.03" rx="4.47" ry="2.53" transform="translate(-6.69 3.6) rotate(-3.39)"/>
        <path class="cls-14" d="m40.78,116.31c0-.72-.03-1.5.26-2.18.19-.44.58-.91,1.09-.97.32-.03.65.08.95.14.38.08.77.15,1.17.12.64-.05,1.31-.38,1.96-.28.39.06.87.3,1.02.67.18.45-.36,1.04-.56,1.46-.29.61-.47,1.28-.92,1.8-.37.43-.84.79-1.37,1-.6.25-1.3.35-1.93.17-.43-.12-1.03-.55-.76-1.06.46-.85-.83-1.6-1.29-.76s-.27,1.86.38,2.54,1.65.9,2.55.85c1.76-.1,3.46-1.18,4.21-2.8.2-.43.35-.89.58-1.31s.52-.85.6-1.34c.15-.87-.27-1.66-.97-2.17s-1.53-.65-2.35-.52c-.43.07-.86.23-1.3.25-.51.02-1.01-.18-1.51-.24-1.1-.13-2.07.43-2.66,1.34-.62.96-.65,2.16-.65,3.27,0,.96,1.5.97,1.5,0h0Z"/>
        <path class="cls-14" d="m98.16,123.04c.7-.47,1.5-.83,2.35-.94l-.53-.22c-.08-.07,0-.17-.04,0-.03.14-.05.29-.06.44-.04.35,0,.69.16,1.01.28.57.85.84,1.32,1.21.38.3.64.75.48,1.23-.15.45-.56.86-1.01,1.03-.64.24-1.37-.01-2.03-.02-.72,0-1.42.25-2.14.25-.82,0-1.76-.51-1.67-1.45.13-1.27,1.55-2.26,2.68-2.56.93-.24.54-1.69-.4-1.45-1.7.44-3.47,1.88-3.74,3.71s1.34,3.25,3.13,3.24c.52,0,1.04-.12,1.55-.2s1.01-.02,1.52.03c1.03.11,1.99-.16,2.74-.89.69-.67,1.07-1.63.85-2.59-.11-.46-.36-.87-.68-1.21-.3-.31-.68-.51-1.01-.77-.07-.06-.23-.17-.26-.26-.06-.17.06-.51.07-.67.05-.53-.14-1.2-.72-1.36-.48-.13-1.21.14-1.67.3-.58.21-1.12.47-1.64.81-.8.53-.05,1.83.76,1.29h0Z"/>
        <path class="cls-14" d="m51.81,125.27c-1.17.05-2.31.32-3.39.76-.47.2-.8.68-.82,1.2-.02.58.33.9.75,1.23.28.22.24.52.27.85.04.45.13.89.39,1.27.46.65,1.23.89,1.99.96,1.85.17,3.93-.61,5.46-1.61.81-.53,1.65-1.27,1.91-2.24.12-.43.1-.9-.13-1.29-.12-.21-.3-.36-.49-.5-.08-.06-.17-.1-.25-.16-.07-.05-.17-.17-.13-.1-.09-.18-.04-.48-.09-.67-.06-.25-.18-.49-.36-.67-.38-.39-.98-.49-1.49-.45-1.26.1-2.33.84-3.32,1.56-.33.24-.49.65-.27,1.03.19.32.7.51,1.03.27.6-.43,1.22-.9,1.92-1.17.26-.1.56-.19.85-.18.07,0,.16-.01.23.02-.03-.02-.02-.08,0,.05.05.71.26,1.19.85,1.59.07.04.23.1.26.18.07.18-.29.62-.38.72-.83.98-2.22,1.56-3.43,1.89-.78.22-2.17.57-2.86,0-.03-.03-.12-.2-.15-.36-.05-.31-.05-.62-.1-.93-.06-.36-.21-.7-.47-.97-.11-.12-.26-.25-.4-.32-.12-.07-.06-.12-.09,0-.02.1,0,.15.07.08l-.33.19c.96-.39,1.96-.66,2.99-.71.96-.04.97-1.54,0-1.5h0Z"/>
        <path class="cls-14" d="m75.14,113.02c-.92-.39-1.92-.65-2.93-.65-.49,0-.9.25-1.12.69-.24.46-.13.94.1,1.38.16.31.16.48.08.83-.11.46-.2.9-.11,1.37.12.7.63,1.24,1.21,1.62,1.36.88,3.21.98,4.76.72.9-.15,1.82-.55,2.36-1.33.23-.33.36-.73.32-1.13-.02-.24-.1-.46-.21-.67-.07-.12-.24-.29-.27-.42-.05-.19.09-.5.11-.69.03-.28,0-.55-.13-.8-.21-.44-.62-.72-1.07-.9-1.02-.39-2.15-.11-3.16.17-.93.25-.54,1.7.4,1.45.59-.16,1.22-.36,1.84-.3.19.02.41.06.57.17.13.09.07.06.02.24-.15.67-.05,1.16.32,1.74.09.14.1.12.03.25-.11.2-.31.33-.5.44-.89.49-2.16.48-3.13.3-.45-.08-.91-.21-1.32-.43-.32-.17-.56-.36-.68-.65.05.12-.04-.21-.02-.07-.02-.14,0-.27.03-.4.07-.34.16-.67.19-1.01.02-.36-.06-.7-.22-1.03-.02-.04-.19-.34-.18-.34,0,0,0,.11,0,.14,0,.06-.21.15.02.05l-.38.1c.78.01,1.58.13,2.31.44.37.16.8.11,1.03-.27.18-.32.11-.87-.27-1.03h0Z"/>
        <ellipse class="cls-18" cx="69.38" cy="110.71" rx="4.47" ry="2.53" transform="translate(-6.42 4.29) rotate(-3.39)"/>
        <ellipse class="cls-18" cx="40.03" cy="125.91" rx="4.47" ry="2.53" transform="translate(-7.37 2.58) rotate(-3.39)"/>
        <ellipse class="cls-18" cx="89.47" cy="118.35" rx="4.47" ry="2.53" transform="translate(-6.83 5.49) rotate(-3.39)"/>
        <g>
          <path class="cls-2" d="m84.71,107.62c.01,1.06-.22,2.15-.75,3.08-.22.39-.5.76-.86,1.04-.29.22-.65.37-.97.38-.64.03-.64,1.03,0,1,1.15-.06,2.05-.85,2.63-1.8.67-1.1.98-2.43.96-3.7,0-.64-1.01-.64-1,0h0Z"/>
          <path class="cls-2" d="m86.61,108.79c.01,1.06-.22,2.15-.75,3.08-.22.39-.5.76-.86,1.04-.29.22-.65.37-.97.38-.64.03-.64,1.03,0,1,1.15-.06,2.05-.85,2.63-1.8.67-1.1.98-2.43.96-3.7,0-.64-1.01-.64-1,0h0Z"/>
        </g>
        <g>
          <path class="cls-2" d="m60.41,108.33c-.97.17-2.05.1-2.94-.34-.75-.37-1.33-.97-1.36-1.76-.02-.64-1.03-.64-1,0,.04,1.16.79,2.09,1.8,2.6,1.16.59,2.5.69,3.77.47.27-.05.42-.37.35-.62-.08-.28-.35-.4-.62-.35h0Z"/>
          <path class="cls-2" d="m59.24,110.59c-.97.17-2.05.1-2.94-.34-.75-.37-1.33-.97-1.36-1.76-.02-.64-1.03-.64-1,0,.04,1.16.79,2.09,1.8,2.6,1.16.59,2.5.69,3.77.47.27-.05.42-.37.35-.62-.08-.28-.35-.4-.62-.35h0Z"/>
        </g>
        <g>
          <path class="cls-2" d="m105.55,118.72c-.97.17-2.05.1-2.94-.34-.75-.37-1.33-.97-1.36-1.76-.02-.64-1.03-.64-1,0,.04,1.16.79,2.09,1.8,2.6,1.16.59,2.5.69,3.77.47.27-.05.42-.37.35-.62-.08-.28-.35-.4-.62-.35h0Z"/>
          <path class="cls-2" d="m104.38,120.98c-.97.17-2.05.1-2.94-.34-.75-.37-1.33-.97-1.36-1.76-.02-.64-1.03-.64-1,0,.04,1.16.79,2.09,1.8,2.6,1.16.59,2.5.69,3.77.47.27-.05.42-.37.35-.62-.08-.28-.35-.4-.62-.35h0Z"/>
        </g>
        <g>
          <path class="cls-2" d="m51.61,126.02c0-1.03.27-2.06.87-2.91.23-.33.54-.62.9-.81.12-.06.11-.06.21-.1s.19-.06.29-.08c.01,0,.15-.02.07-.01.05,0,.1,0,.15-.01.06,0,.12,0,.18,0,.02,0,.18.02.11,0,.27.04.54-.07.62-.35.06-.23-.08-.58-.35-.62-2.68-.38-4.03,2.65-4.05,4.88,0,.64,1,.64,1,0h0Z"/>
          <path class="cls-2" d="m49.6,124.47c0-1.03.27-2.06.87-2.91.23-.33.54-.62.9-.81.12-.06.11-.06.21-.1s.19-.06.29-.08c.01,0,.15-.02.07-.01.05,0,.1,0,.15-.01.06,0,.12,0,.18,0,.02,0,.18.02.11,0,.27.04.54-.07.62-.35.06-.23-.08-.58-.35-.62-2.68-.38-4.03,2.65-4.05,4.88,0,.64,1,.64,1,0h0Z"/>
        </g>
      </g>
      <g>
        <ellipse class="cls-8" cx="58.2" cy="165.49" rx="37.96" ry="17.1"/>
        <ellipse class="cls-2" cx="58.58" cy="164.89" rx="33.25" ry="14.01"/>
        <path class="cls-19" d="m54.61,148.64c-3.22-.39-5.72,2.61-7.55,5.29-4.22,6.18-8.45,12.36-12.67,18.55-.56.82-1.15,1.77-.91,2.73.41,1.67,2.71,1.82,4.41,1.6,14.55-1.9,28.45-2.6,42.66-6.29,3.6-.93,7-1.82,8.5-3.96-.22-2.58-.91-4.16-2.15-6.13-1.83-2.9-3.79-3.19-6.99-4.42-8.35-3.2-16.78-6.42-25.62-7.75"/>
        <path class="cls-16" d="m49.3,153.1c4.48.27,13.17,2.2,18.55,5.08s19.18,7.74,14.31,10.01c-16.45,4.48-32.78,5.62-48.75,6.27,4.11-7.9,9.82-14.86,15.1-21.37"/>
        <g>
          <path d="m34.2,175.73c-.06-.13-.11-.34-.1-.66s.06-.58.17-.96c.27-.94.73-1.82,1.21-2.66,1.32-2.3,2.95-4.42,4.6-6.5,1.79-2.26,3.65-4.45,5.48-6.68.78-.95,1.55-1.91,2.29-2.89.85-1.12,1.54-2.31,2.26-3.51s1.58-2.13,2.97-2.49c.22-.06.6-.07.98-.07.47,0,.94.04,1.41.1,2.56.28,5.1.92,7.59,1.57,4.88,1.28,9.56,3.09,14.34,4.68,2.34.78,4.74,1.58,6.76,3.03s3.14,3.45,3.74,5.74c.2.76.34,1.54.45,2.32.05.41.57.62.92.52.43-.11.58-.52.52-.92-.38-2.78-1.29-5.51-3.26-7.57-1.75-1.83-4.11-2.9-6.44-3.77-2.9-1.08-5.89-1.92-8.77-3.04-2.03-.79-4.12-1.41-6.22-2-2.7-.75-5.44-1.45-8.21-1.88-2.31-.36-4.58-.6-6.5,1.02-1.2,1.01-1.82,2.53-2.64,3.83-.65,1.04-1.42,2-2.18,2.95-1.83,2.29-3.73,4.52-5.57,6.79s-3.67,4.57-5.22,7.05c-.99,1.58-2.26,3.61-2.14,5.56.03.42.12.79.3,1.16.41.87,1.71.11,1.3-.76h0Z"/>
          <path d="m33.35,176.83c1.06.28,2.18.33,3.27.36,1.61.05,3.22,0,4.83-.09,4.33-.22,8.65-.67,12.95-1.2,4.87-.6,9.72-1.32,14.55-2.18,4.14-.73,8.28-1.54,12.34-2.62,1.45-.38,2.89-.8,4.29-1.33.93-.35,1.94-.74,2.7-1.41.15-.13.26-.27.38-.42.25-.32.05-.84-.27-1.03-.39-.23-.78-.05-1.03.27.17-.23-.11.09-.2.16-.09.08.14-.1.03-.03-.03.02-.06.05-.1.07-.09.05-.17.11-.26.16-.19.11-.38.21-.58.31-.1.05-.21.1-.31.14-.16.07-.27.12-.27.12-1.28.53-2.61.93-3.95,1.3-3.86,1.07-7.8,1.87-11.74,2.59-4.68.86-9.38,1.59-14.1,2.2-4.34.56-8.69,1.04-13.05,1.31-1.7.11-3.4.19-5.1.18-.67,0-1.33-.01-2-.05-.28-.02-.56-.04-.84-.07-.09,0-.36-.04-.3-.03.07,0-.2-.03-.27-.04-.2-.03-.4-.07-.59-.13-.94-.25-1.33,1.2-.4,1.45h0Z"/>
          <path d="m54.8,155.31c9.28,1.67,18.15,5.22,26.02,10.41.81.53,1.56-.77.76-1.3-6.18-4.08-13.01-7.18-20.15-9.15-2.05-.57-4.13-1.03-6.23-1.41-.95-.17-1.35,1.28-.4,1.45h0Z"/>
          <path d="m38.22,174.73c11.55-.6,23.06-1.9,34.45-3.91,3.24-.57,6.47-1.2,9.69-1.89.94-.2.55-1.65-.4-1.45-11.22,2.39-22.58,4.09-34.01,5.08-3.24.28-6.48.5-9.73.67-.96.05-.97,1.55,0,1.5h0Z"/>
        </g>
        <g>
          <path class="cls-14" d="m56.74,163.74c-.92-.39-1.92-.65-2.93-.65-.49,0-.9.25-1.12.69-.24.46-.13.94.1,1.38.16.31.16.48.08.83-.11.46-.2.9-.11,1.37.12.7.63,1.24,1.21,1.62,1.36.88,3.21.98,4.76.72.9-.15,1.82-.55,2.36-1.33.23-.33.36-.73.32-1.13-.02-.24-.1-.46-.21-.67-.07-.12-.24-.29-.27-.42-.05-.19.09-.5.11-.69.03-.28,0-.55-.13-.8-.21-.44-.62-.72-1.07-.9-1.02-.39-2.15-.11-3.16.17-.93.25-.54,1.7.4,1.45.59-.16,1.22-.36,1.84-.3.19.02.41.06.57.17.13.09.07.06.02.24-.15.67-.05,1.16.32,1.74.09.14.1.12.03.25-.11.2-.31.33-.5.44-.89.49-2.16.48-3.13.3-.45-.08-.91-.21-1.32-.43-.32-.17-.56-.36-.68-.65.05.12-.04-.21-.02-.07-.02-.14,0-.27.03-.4.07-.34.16-.67.19-1.01.02-.36-.06-.7-.22-1.03-.02-.04-.19-.34-.18-.34,0,0,0,.11,0,.14,0,.06-.21.15.02.05l-.38.1c.78.01,1.58.13,2.31.44.37.16.8.11,1.03-.27.18-.32.11-.87-.27-1.03h0Z"/>
          <ellipse class="cls-18" cx="47.36" cy="164" rx="4.47" ry="2.53" transform="translate(-90.67 63.57) rotate(-37.85)"/>
          <ellipse class="cls-18" cx="65.43" cy="163.35" rx="4.47" ry="2.53" transform="translate(-9.53 4.15) rotate(-3.39)"/>
          <g>
            <path class="cls-2" d="m53.86,157.78c.01,1.06-.22,2.15-.75,3.08-.22.39-.5.76-.86,1.04-.29.22-.65.37-.97.38-.64.03-.64,1.03,0,1,1.15-.06,2.05-.85,2.63-1.8.67-1.1.98-2.43.96-3.7,0-.64-1.01-.64-1,0h0Z"/>
            <path class="cls-2" d="m55.76,158.94c.01,1.06-.22,2.15-.75,3.08-.22.39-.5.76-.86,1.04-.29.22-.65.37-.97.38-.64.03-.64,1.03,0,1,1.15-.06,2.05-.85,2.63-1.8.67-1.1.98-2.43.96-3.7,0-.64-1.01-.64-1,0h0Z"/>
          </g>
          <g>
            <path class="cls-2" d="m70.06,168.48c0-1.03.27-2.06.87-2.91.23-.33.54-.62.9-.81.12-.06.11-.06.21-.1s.19-.06.29-.08c.01,0,.15-.02.07-.01.05,0,.1,0,.15-.01.06,0,.12,0,.18,0,.02,0,.18.02.11,0,.27.04.54-.07.62-.35.06-.23-.08-.58-.35-.62-2.68-.38-4.03,2.65-4.05,4.88,0,.64,1,.64,1,0h0Z"/>
            <path class="cls-2" d="m68.05,166.93c0-1.03.27-2.06.87-2.91.23-.33.54-.62.9-.81.12-.06.11-.06.21-.1s.19-.06.29-.08c.01,0,.15-.02.07-.01.05,0,.1,0,.15-.01.06,0,.12,0,.18,0,.02,0,.18.02.11,0,.27.04.54-.07.62-.35.06-.23-.08-.58-.35-.62-2.68-.38-4.03,2.65-4.05,4.88,0,.64,1,.64,1,0h0Z"/>
          </g>
        </g>
      </g>
      <g>
        <ellipse class="cls-11" cx="127.95" cy="178.27" rx="39.12" ry="18.03"/>
        <ellipse class="cls-2" cx="127.87" cy="177.32" rx="34.97" ry="14.6"/>
        <path class="cls-19" d="m121.61,184.38c-6.41,1.53-14.95-.79-18.29-6.46-3.34-5.68-1.38-11.22,4.03-14.98,6.6-4.59,10.65-4.78,17.18-2.33,3.48-6.17,11.15-6.95,16.16-4.29s8.71,7.82,7.11,13.26c3.35,5,4.89,11.59,2.6,16.33s-5.26,5.95-10.46,6.79c-3.72.6-8.19.27-11.42-1.68s-7.55-4.81-7.41-8.58"/>
        <ellipse class="cls-2" cx="136.71" cy="166.65" rx="11.1" ry="10.97"/>
        <ellipse class="cls-2" cx="138.4" cy="179.3" rx="13.75" ry="12.63"/>
        <g>
          <path d="m121.18,183.6c-3.46.43-7.08-.1-10.39-1.16-3.12-1-6.1-2.97-7.42-6.08s-.82-6.97,1.01-9.89,4.65-4.91,7.79-5.98c3.88-1.31,8.12-1.17,11.9.39.89.37,1.28-1.09.4-1.45-7.14-2.93-16.04-.92-20.74,5.34-2.24,2.99-3.18,6.89-2.28,10.55s3.78,6.43,7.19,7.91c1.83.79,3.79,1.28,5.75,1.61,2.24.37,4.53.54,6.79.26.95-.12.96-1.62,0-1.5h0Z"/>
          <path d="m114.54,170.37c2.68,1.86,6.26,2.08,9.18.68.37-.18.46-.7.27-1.03-.22-.37-.66-.45-1.03-.27-2.46,1.18-5.44.87-7.66-.68-.33-.23-.83-.06-1.03.27-.22.37-.06.8.27,1.03h0Z"/>
        </g>
        <g>
          <path d="m129.55,190.61c-3.65-1.25-6.27-4.58-7.21-8.25-1.13-4.39.12-9.06,2.4-12.86.5-.83-.8-1.59-1.3-.76-1.99,3.33-3.22,7.22-3,11.12.2,3.43,1.57,6.75,3.99,9.22,1.32,1.35,2.93,2.37,4.71,2.98.92.31,1.31-1.14.4-1.45h0Z"/>
          <path d="m124.36,166.9c-.68-2.5.05-5.25,1.72-7.22s4.1-3.18,6.63-3.66c5.15-.98,10.75,1.24,13.22,5.99.56,1.08.95,2.27,1.1,3.48.18,1.42-.26,2.9.06,4.29.3,1.28,1.23,2.43,1.79,3.6.65,1.35,1.15,2.77,1.47,4.24.93,4.26-.06,9.86-4.1,12.12-2,1.12-4.26,1.82-6.5,2.24-2.88.54-5.87.52-8.68-.37-.92-.29-1.32,1.16-.4,1.45,5.03,1.6,10.8.67,15.49-1.59,1.87-.9,3.26-2.16,4.31-3.99,1.41-2.46,1.94-5.39,1.66-8.2-.32-3.17-1.53-6.04-3.1-8.79-.43-.75-.58-1.36-.52-2.23.06-.8.13-1.58.06-2.39-.11-1.36-.46-2.68-1.01-3.93-2.38-5.39-8.34-8.22-14.06-7.56-3.13.36-6.24,1.68-8.35,4.08s-3.08,5.72-2.23,8.83c.25.93,1.7.54,1.45-.4h0Z"/>
        </g>
        <path d="m134.06,165.33c1,1.47,2.76,2.42,4.55,2.26s3.36-1.22,4.13-2.81c.18-.36.1-.81-.27-1.03-.33-.19-.85-.1-1.03.27-.53,1.1-1.59,1.94-2.83,2.07s-2.55-.47-3.26-1.52c-.23-.33-.66-.48-1.03-.27-.33.19-.5.69-.27,1.03h0Z"/>
        <path d="m135.12,160.87c.45-.36,1.35-.38,1.69.46.22.53.05.8-.4,1.16s-1.1.28-1.46-.16-.28-1.1.16-1.46Z"/>
        <path d="m139.38,160.44c.46-.37,1.38-.39,1.74.47.22.54.05.83-.41,1.19s-1.13.29-1.5-.17-.29-1.13.17-1.5Z"/>
        <path class="cls-18" d="m137.65,161.91c.45-.36,1.35-.38,1.69.46.22.53.05.8-.4,1.16s-1.1.28-1.46-.16-.28-1.1.16-1.46Z"/>
        <ellipse class="cls-18" cx="138.4" cy="171.68" rx="10.98" ry="1.69"/>
        <ellipse class="cls-18" cx="143.34" cy="175.45" rx="1.69" ry="6.42" transform="translate(-73.96 111.35) rotate(-34.32)"/>
        <ellipse class="cls-18" cx="138.4" cy="176.57" rx="1.69" ry="6.42"/>
      </g>
      <g>
        <path class="cls-18" d="m44.67,50.16c1.34-4.25,3.3-8.27,5.82-11.95l-1.4-.38c.28,2.44.56,4.88.85,7.32.07.6.79,1.04,1.28.53,3.07-3.19,6.27-6.26,9.6-9.18l-1.25-.73c-1.51,5.56-2.11,11.34-1.75,17.09.06.96,1.56.97,1.5,0-.35-5.62.22-11.26,1.7-16.69.2-.75-.71-1.21-1.25-.73-3.33,2.93-6.53,5.99-9.6,9.18l1.28.53c-.28-2.44-.56-4.88-.85-7.32-.09-.73-.95-1.03-1.4-.38-2.59,3.78-4.59,7.93-5.97,12.3-.29.92,1.16,1.32,1.45.4h0Z"/>
        <path class="cls-18" d="m61.98,48.46c.97.19,1.96.37,2.95.16.81-.18,1.57-.7,1.99-1.43s.48-1.82-.16-2.47-1.73-.6-2.45-.07-1.2,1.28-1.6,2.02c-.42.78-.74,1.63-.91,2.5s-.24,1.71.1,2.51c.31.74.97,1.27,1.77,1.4.87.14,1.75-.09,2.46-.62.79-.59,1.32-1.42,1.82-2.26s-.8-1.58-1.29-.76-1.11,1.92-2.15,2.15c-.34.07-.74.03-.99-.17-.37-.3-.37-.85-.35-1.28.07-1.17.56-2.35,1.2-3.33.25-.38.61-.99,1.09-1.09.08-.02.19-.02.25.06.09.14.04.37-.01.51-.49,1.28-2.31.91-3.31.71-.4-.08-.81.11-.92.52-.1.37.12.84.52.92h0Z"/>
        <path class="cls-18" d="m70.78,44.68c-.26,1.25-.51,2.5-.66,3.76s-.21,2.59.14,3.83c.19.67,1.32.76,1.45,0,.22-1.36.6-2.72,1.39-3.87.11-.16.26-.34.43-.5.04-.03.07-.07.11-.1,0,0,.15-.12.09-.08,0,0,.17-.11.24-.15.05-.03.1-.05.15-.08-.06.03-.07.03,0,0,.1-.03.2-.06.3-.08-.17.03.1,0,.16,0,.09,0,.04,0-.02,0,.06,0,.12.02.18.04.94.23,1.34-1.21.4-1.45-1.22-.3-2.33.35-3.07,1.29-1.03,1.3-1.54,2.97-1.81,4.59h1.45c-.31-1.11-.22-2.3-.08-3.43s.37-2.25.61-3.37c.08-.4-.12-.81-.52-.92-.37-.1-.84.13-.92.52h0Z"/>
        <path class="cls-18" d="m76.93,44.98c-.48,2.32-.47,4.68,0,7,.17.81,1.58.65,1.47-.2-.14-1.11.12-2.21.65-3.18.27-.49.49-.81.92-1.17.1-.08-.13.09.05-.03.05-.03.1-.06.15-.09s.1-.06.15-.08c.12-.06-.05.01.03-.01.05-.02.1-.03.15-.05.02,0,.19-.04.09-.02s.07,0,.09,0c.06,0,.13,0,.19,0,.4.04.75-.37.75-.75,0-.44-.34-.71-.75-.75-1.33-.13-2.42.99-3.03,2.04-.7,1.2-1.11,2.7-.93,4.08l1.47-.2c-.42-2.04-.42-4.16,0-6.2.08-.4-.12-.81-.52-.92-.37-.1-.84.13-.92.52h0Z"/>
        <path class="cls-18" d="m83.48,45.76c.33,1.05.69,2.1,1.11,3.12s.91,2.21,1.73,3.04c.68.69,1.74-.37,1.06-1.06-.07-.07-.14-.15-.21-.23-.05-.06.07.1-.01-.02-.04-.05-.07-.1-.11-.16-.14-.21-.28-.44-.4-.67-.13-.24-.25-.49-.36-.73-.14-.29-.21-.46-.31-.72-.39-.97-.73-1.97-1.04-2.97-.12-.39-.52-.63-.92-.52-.38.1-.65.53-.52.92h0Z"/>
        <path class="cls-18" d="m90.19,45.78c-1.46,2.48-3,4.91-4.73,7.21s-3.75,4.54-5.83,6.63c-.68.68.38,1.74,1.06,1.06,4.24-4.25,7.75-8.98,10.79-14.15.49-.83-.8-1.59-1.29-.76h0Z"/>
        <path class="cls-18" d="m59.17,59.87c-.47-1.12-1.07-2.34-2.16-2.99-.82-.49-1.77-.46-2.62-.05-1.82.87-3.03,2.99-3.9,4.71-.96,1.88-1.76,3.84-1.73,5.99.02,1.67.52,3.3,1.8,4.42.94.83,2.1,1.35,3.35,1.44,3.41.25,5.7-2.79,6.58-5.73.28-.93-1.17-1.32-1.45-.4-.62,2.08-2.02,4.38-4.4,4.62-.94.1-1.86-.17-2.64-.7-1.09-.73-1.63-1.87-1.72-3.16-.14-1.81.41-3.42,1.15-5s1.64-3.27,2.99-4.43c.22-.19.61-.44.82-.51.09-.03.18-.05.27-.07.01,0,.12-.02.03,0-.1.01.08,0,.1,0,.23,0,.12-.02.37.05.08.02.24.1.41.23.08.06.28.26.4.4.39.46.67,1.04.91,1.59.16.38.49.64.92.52.35-.09.68-.55.52-.92h0Z"/>
        <path class="cls-18" d="m62.69,61.71c-.37,3.09-.73,6.18-1.1,9.28-.1.84,1.29,1.02,1.47.2.41-1.85,1.42-3.44,2.91-4.61l-.73.19c.11.03.26.08.33.13.1.06.14.17.12.13.07.16.04.43,0,.62-.1.62-.32,1.27-.18,1.91.44,1.91,3.14,1.29,3.77-.16.16-.37.11-.8-.27-1.03-.32-.19-.86-.1-1.03.27s-.52.65-.93.63c.03,0-.21-.06-.05.02-.04-.08-.05-.08-.01,0-.01-.04-.03-.09-.04-.13,0,.15.03-.37.02-.29.13-.94.5-1.92-.13-2.77-.32-.43-1.06-.92-1.62-.77-.36.1-.72.51-.99.76-.24.23-.48.48-.69.75-.95,1.15-1.62,2.5-1.95,3.96l1.47.2c.37-3.09.73-6.18,1.1-9.28.05-.4-.38-.75-.75-.75-.44,0-.7.35-.75.75h0Z"/>
        <path class="cls-18" d="m70.07,65.45c-.12,1.56-.09,3.13.07,4.68.04.38.25.68.65.74.36.05.72-.17.82-.54.05-.17.1-.33.15-.5.03-.09.07-.19.1-.28.06-.16-.03.04.04-.09.16-.32.32-.64.52-.94.22-.33.3-.44.57-.73.24-.26.51-.51.79-.73.31-.25.28-.81,0-1.06-.33-.3-.73-.26-1.06,0-1.24.99-2.14,2.4-2.56,3.93l1.47.2c-.17-1.56-.19-3.12-.07-4.68.03-.39-.37-.77-.75-.75-.43.02-.72.33-.75.75h0Z"/>
        <path class="cls-18" d="m74.89,67.42v2.56c0,.39.34.77.75.75s.75-.33.75-.75v-2.56c0-.39-.34-.77-.75-.75s-.75.33-.75.75h0Z"/>
        <path class="cls-18" d="m75.64,66c.96,0,.97-1.5,0-1.5s-.97,1.5,0,1.5h0Z"/>
        <path class="cls-18" d="m81.59,64.99c-.83-.8-2.13-.98-3.08-.29-1.17.84-1.2,2.27-.67,3.49.1.24.41.37.65.37.69.01,1.41.25,1.91.73.21.21.37.44.43.69s.03.48-.07.71c-.26.57-.89.91-1.48.95-.37.02-.64-.01-.99-.13-.13-.04-.23-.09-.37-.19-.03-.02-.04-.02-.11-.09-.02-.02-.17-.19-.11-.12-.23-.33-.66-.49-1.03-.27-.33.19-.5.69-.27,1.03.99,1.41,3.24,1.67,4.63.71.75-.52,1.27-1.32,1.31-2.25.04-.83-.39-1.64-1-2.18-.79-.7-1.81-1.06-2.86-1.08l.65.37c-.04-.09-.06-.18-.09-.27,0-.03-.06-.31-.05-.22-.01-.1-.01-.21,0-.31,0-.09,0-.1,0-.02,0-.05.02-.09.03-.14,0-.03.1-.29.04-.14.04-.08.08-.15.13-.23.05-.07.05-.07,0,0,.03-.03.06-.06.09-.09.03-.03.06-.06.09-.08-.06.05-.07.05-.03.02.06-.04.12-.08.18-.11.08-.04.07-.04-.01,0,.04-.01.08-.03.12-.04.04,0,.3-.05.1-.03.08,0,.16,0,.25,0,.09,0,.08,0-.01,0,.04,0,.08.01.12.02.03,0,.28.1.12.03.08.04.16.08.23.13.07.05.07.05.01,0,.04.03.07.06.11.1.7.67,1.76-.39,1.06-1.06h0Z"/>
        <path class="cls-18" d="m83.47,66.92c1.4-.13,2.81-.14,4.22-.02.39.03.77-.37.75-.75-.02-.44-.33-.71-.75-.75-1.4-.12-2.81-.12-4.22.02-.39.04-.77.32-.75.75.02.37.33.79.75.75h0Z"/>
        <path class="cls-18" d="m84.83,64.27c-.17,1.94-.28,3.88-.45,5.81-.04.4.37.75.75.75.44,0,.71-.34.75-.75.17-1.94.28-3.88.45-5.81.04-.4-.37-.75-.75-.75-.44,0-.71.34-.75.75h0Z"/>
        <path class="cls-18" d="m88.46,65.54c.07,1.44.26,2.88.33,4.32.05.97,1.43.96,1.5,0,0-.08.01-.15.02-.23-.02.18.02-.13.03-.16.03-.2.07-.39.12-.59.1-.44.22-.88.37-1.3.08-.22.14-.39.25-.59.04-.07.08-.15.12-.22.01-.02.18-.26.1-.16.05-.07.14-.12.18-.19-.08.12.06-.03-.09.05.08-.02.07-.02-.04,0,.09,0,.08,0-.04-.02.08.01-.04-.04-.04-.04,0,0-.09-.1-.03-.03.04.07.04.06,0-.03.01.04.03.07.04.11.01.06.03.12.04.19.01.09.02.09,0,0,0,.05,0,.1.01.15.02.4,0,.8-.02,1.2-.05.73-.19,1.51-.03,2.23.19.85,1.43.62,1.47-.2.05-.98.23-2.01.75-2.87.16-.26.36-.49.54-.61.04-.03.18-.09.06-.05.06-.02.12-.04.18-.05-.13.03-.02,0,.05,0,.06,0,.1,0,.18.03.08.02.15.04.23.06.04.02-.05-.04.06.04.03.02-.09-.04.03.02.13.07-.04-.03.03.04s0-.11.01.04c0,.05.02.11.04.16,0,.03,0-.13,0,.03,0,.07,0,.14,0,.21,0,.58-.04,1.17.15,1.73.34.99,1.22,1.51,2.19,1.79s1.33-1.18.4-1.45c-.4-.12-.78-.27-1.02-.54-.08-.09,0,.02-.07-.11-.02-.04-.1-.23-.05-.09-.02-.06-.04-.13-.06-.19-.01-.06-.04-.28-.03-.12-.06-.61.07-1.24-.12-1.84-.27-.85-1.07-1.24-1.91-1.3s-1.59.57-2.07,1.24c-.76,1.09-1.02,2.52-1.08,3.82l1.47-.2c-.03-.16,0,.02,0-.02,0-.06,0-.12,0-.17,0-.16,0-.32.01-.48.02-.37.06-.74.08-1.12.05-.7.11-1.48-.15-2.14-.3-.78-1.18-1.2-1.95-.76-.72.41-1.07,1.3-1.33,2.03-.3.85-.52,1.77-.59,2.68h1.5c-.07-1.44-.26-2.88-.33-4.32-.05-.96-1.55-.97-1.5,0h0Z"/>
        <path class="cls-18" d="m101.62,64.54c-2.26-1.44-3.59,2.11-3.46,3.83.04.54.2,1.08.58,1.48s.94.62,1.47.59c1.03-.06,1.55-1.02,1.8-1.9.3-1.02.36-2.1.49-3.16.04-.37-.32-.69-.65-.74s-.77.17-.82.54c-.19,1.35-.23,2.87.4,4.12.28.55.74,1.03,1.33,1.23.72.24,1.42-.09,1.94-.59.29-.28.28-.78,0-1.06s-.77-.28-1.06,0c-.1.1-.13.12-.23.18s.08-.02-.02.02c-.04.02-.09.02-.13.04-.11.03.17-.02-.02,0,.06,0,.1.03.02,0-.04-.01-.08-.02-.12-.04.07.03.07.04.01,0-.01-.01-.15-.11-.08-.05.06.05-.04-.04-.05-.05-.03-.03-.06-.07-.09-.1-.08-.08.06.08-.01-.01-.06-.09-.12-.18-.17-.27-.02-.04-.04-.09-.06-.13.04.1,0-.01-.02-.06-.17-.47-.22-.87-.24-1.34s0-1.07.06-1.48l-1.47-.2c-.04.35-.08.7-.12,1.05-.01.1-.02.19-.04.29-.02.14,0,0,0-.02,0,.06-.02.12-.03.18-.03.2-.06.39-.1.59-.07.36-.16.72-.29,1.07-.05.12,0-.03.02-.04-.02.04-.03.07-.05.11-.03.06-.06.12-.1.18-.01.02-.05.1-.07.11,0,0,.13-.14.04-.05-.02.02-.05.05-.07.07-.1.13.12-.06.02,0-.02,0-.05.03-.06.04-.09.08.13-.02.06-.02-.02,0-.07.02-.09.03-.11.05.08-.03.09,0,0,0-.09,0-.1,0-.15-.05.08.06.05.01,0,0-.09-.02-.1-.02-.02,0-.23-.09-.13-.04.11.05-.05-.03-.05-.04-.03-.02-.06-.04-.09-.06.16.11.03.02,0-.01-.03-.04-.05-.09.02.04-.04-.07-.08-.14-.12-.21.01.02.05.16.02.04-.01-.05-.03-.09-.04-.14s-.02-.1-.03-.15c0,.02.02.18,0,.05,0-.09-.01-.17-.01-.26s0-.18.01-.27c0-.04,0-.07,0-.11.01-.17-.03.14,0-.01.05-.32.13-.63.22-.94.03-.11.07-.21.11-.32.01-.03.06-.13,0,.01.03-.06.05-.11.08-.17.05-.11.11-.22.18-.32.02-.03.04-.07.07-.1.09-.14-.08.08.03-.03.04-.04.08-.08.12-.12.1-.11-.12.06.02-.02.03-.02.06-.04.09-.05.13-.09-.13.04.01,0,.16-.05-.16-.01,0,0,.15,0-.14-.06.02,0,.04.01.08.02.12.03-.16-.05.09.06.13.08.34.22.83.07,1.03-.27.21-.36.07-.81-.27-1.03h0Z"/>
        <path class="cls-18" d="m110.7,63.08c.04-1.52-1.85-2.34-3.13-2.32-1.95.02-3.47,1.91-3.26,3.84.13,1.15,1.23,1.98,2.01,2.71.88.82,1.68,1.59,1.9,2.8.2,1.08.07,2.23-.19,3.29-.19.79-.47,1.9-1.12,2.47-.84.73-2.69.93-3.72.59-1.28-.43-2.33-1.74-2.6-3.04-.2-.94-1.65-.54-1.45.4.28,1.31,1.11,2.45,2.16,3.26.97.75,2,1.03,3.23.98s2.64-.31,3.51-1.2c.65-.67,1.02-1.61,1.28-2.49.6-1.98.9-4.68-.39-6.46-.79-1.09-1.91-1.84-2.77-2.85-.28-.33-.41-.57-.34-1.01s.22-.9.52-1.25c.47-.57,1.22-.64,1.85-.47.25.07.6.24.73.35s.19.19.22.23c.12.18.05-.03.05.16-.02.97,1.48.96,1.5,0h0Z"/>
        <path class="cls-18" d="m92.91,24.87c3.15.21,6,1.9,8.13,4.16,1.49,1.59,3.18,3.97,3.09,6.17-.01.29-.09.58-.22.76-.04.05-.2.19-.23.2-.04.02-.21.1-.09.05-.18.07-.38.11-.56.15-.45.09-1.14.13-1.44-.22-.26-.31-.23-.79-.15-1.17.63-2.91,5.03-.81,6.41.34,1.6,1.33,2,3.36,1.99,5.37,0,2.45-.83,4.81-2.31,6.75-.59.77.71,1.51,1.29.76,1.56-2.04,2.42-4.56,2.51-7.12.08-2.15-.3-4.62-1.82-6.25-1.27-1.36-3.14-2.36-4.97-2.68-1.56-.27-3.4-.05-4.21,1.5-.63,1.21-.71,3,.55,3.84,1.13.76,3.2.55,4.11-.5.77-.89.73-2.18.48-3.26-.33-1.45-1.08-2.82-1.94-4.02-2.48-3.46-6.29-6.07-10.62-6.35-.96-.06-.96,1.44,0,1.5h0Z"/>
        <path class="cls-18" d="m34.25,67.09c.53,1.91,1.27,3.76,2.23,5.49.86,1.56,1.88,3.28,3.31,4.38.71.54,1.55.9,2.45.93.77.03,1.9-.18,2.06-1.06.3-1.68-.67-3.75-2.63-3.39-.24.04-.48.29-.52.52-.7,3.61,1.72,7.03,4.4,9.21,2.54,2.06,5.63,3.32,8.88,3.67,1.86.2,3.74.05,5.55-.42.93-.24.54-1.69-.4-1.45-3.58.92-7.44.38-10.69-1.36-1.61-.87-3.05-2.01-4.24-3.42-1.34-1.58-2.47-3.7-2.06-5.83l-.52.52c.9-.16.78,1.48.74,1.95l.37-.65c-2.07,1.08-3.84-1.8-4.72-3.21-1.22-1.95-2.13-4.06-2.75-6.28-.26-.93-1.7-.53-1.45.4h0Z"/>
      </g>
    </g>
  </g>
</svg>